<svg xmlns="http://www.w3.org/2000/svg" width="51.12" height="49.2" viewBox="0 0 51.12 49.2">
  <path id="Path_4209" data-name="Path 4209" d="M15.12-32.16A8.448,8.448,0,0,0,9.66-30l.6-9H21.84v-9H2.4L1.2-20.28H9.6c.42-2.04,1.14-2.88,2.58-2.88,1.5,0,2.58,1.2,2.58,7.38S13.68-8.4,12.3-8.4,9.6-9.6,9.6-14.88H.6C.6-4.02,4.74.6,12.3.6c7.5,0,11.46-4.62,11.46-16.38S20.4-32.16,15.12-32.16ZM40.44-48.6c-7.26,0-11.28,4.02-11.28,13.68v21.84C29.16-3.42,33.18.6,40.44.6S51.72-3.42,51.72-13.08V-34.92C51.72-44.58,47.7-48.6,40.44-48.6Zm0,9c1.98,0,2.28,1.2,2.28,5.28v2.22l-4.56,7.5v-9.72C38.16-38.4,38.46-39.6,40.44-39.6Zm0,31.2c-1.98,0-2.28-1.2-2.28-5.28V-15.9l4.56-7.5v9.72C42.72-9.6,42.42-8.4,40.44-8.4Z" transform="translate(-0.6 48.6)" fill="#fff"/>
</svg>
