<svg xmlns="http://www.w3.org/2000/svg" width="103.361" height="86.286" viewBox="0 0 103.361 86.286">
  <g id="alert-svgrepo-com" transform="translate(0 -41.912)">
    <path id="Path_4152" data-name="Path 4152" d="M70.081,62.382l2.77,4.481,30.717,49.376c4.563,7.333,1.222,13.281-7.5,13.281H13.29c-8.637,0-12.059-6.029-7.5-13.363L46.289,50.812c4.563-7.333,11.977-7.333,16.54,0Z" transform="translate(-3.001 -2.707)" fill="#ffd660"/>
    <g id="Group_3773" data-name="Group 3773" transform="translate(47.525 66.03)">
      <path id="Path_4153" data-name="Path 4153" d="M237.786,197.629a4.086,4.086,0,0,1-4.074-4.074V164.386a4.14,4.14,0,0,1,4.074-4.074,4.086,4.086,0,0,1,4.074,4.074v29.169A4.14,4.14,0,0,1,237.786,197.629Z" transform="translate(-233.631 -160.312)" fill="#56d0f7"/>
      <path id="Path_4154" data-name="Path 4154" d="M237.386,375.26a3.822,3.822,0,0,1-2.852-1.222,4.149,4.149,0,0,1-1.222-2.852,3.822,3.822,0,0,1,1.222-2.852,4.149,4.149,0,0,1,2.852-1.222,3.822,3.822,0,0,1,2.852,1.222,4.149,4.149,0,0,1,1.222,2.852,3.822,3.822,0,0,1-1.222,2.852A4.149,4.149,0,0,1,237.386,375.26Z" transform="translate(-233.312 -324.988)" fill="#56d0f7"/>
    </g>
    <path id="Path_4155" data-name="Path 4155" d="M93.071,128.2H10.289c-4.481,0-7.822-1.548-9.37-4.4s-1.141-6.681,1.222-10.429L42.636,47.86C45,44.03,48.176,41.912,51.68,41.912h0c3.422,0,6.6,2.037,8.881,5.785l7.17,11.488h0l2.77,4.481,30.717,49.621c2.363,3.748,2.77,7.578,1.222,10.429C100.893,126.65,97.552,128.2,93.071,128.2ZM51.6,43.542h0c-2.852,0-5.541,1.793-7.659,5.133L3.445,114.184C1.408,117.443,1,120.62,2.3,122.983s4.155,3.585,7.985,3.585H93.071c3.829,0,6.681-1.3,7.985-3.585s.9-5.541-1.141-8.8L69.2,64.563l-2.77-4.481-7.17-11.488C57.139,45.334,54.45,43.542,51.6,43.542Z" transform="translate(0)" fill="#021761"/>
    <path id="Path_4156" data-name="Path 4156" d="M230.6,195.259a4.9,4.9,0,0,1-4.889-4.889V161.2a4.889,4.889,0,0,1,9.777,0V190.37A4.9,4.9,0,0,1,230.6,195.259Zm0-37.317a3.269,3.269,0,0,0-3.259,3.259V190.37a3.259,3.259,0,0,0,6.518,0V161.2A3.269,3.269,0,0,0,230.6,157.942Z" transform="translate(-179.736 -91.097)" fill="#021761"/>
    <path id="Path_4157" data-name="Path 4157" d="M230.919,373.208h0a4.8,4.8,0,0,1-3.422-1.385,4.945,4.945,0,0,1-1.385-3.422,4.8,4.8,0,0,1,1.385-3.422,5.031,5.031,0,0,1,3.422-1.467,4.561,4.561,0,0,1,3.422,1.467,4.879,4.879,0,0,1,1.467,3.422,4.561,4.561,0,0,1-1.467,3.422A5.172,5.172,0,0,1,230.919,373.208Zm0-8.148a3.083,3.083,0,0,0-2.281.978,3.426,3.426,0,0,0-.978,2.281,2.959,2.959,0,0,0,.978,2.281,3.426,3.426,0,0,0,2.281.978,3.083,3.083,0,0,0,2.281-.978,3.426,3.426,0,0,0,.978-2.281,3.342,3.342,0,0,0-3.259-3.259Z" transform="translate(-180.054 -256.091)" fill="#021761"/>
  </g>
</svg>
