<svg xmlns="http://www.w3.org/2000/svg" xmlns:xlink="http://www.w3.org/1999/xlink" width="586.642" height="556.526" viewBox="0 0 586.642 556.526">
  <defs>
    <linearGradient id="linear-gradient" x1="1.092" y1="0.332" x2="-0.002" y2="0.643" gradientUnits="objectBoundingBox">
      <stop offset="0" stop-color="#da8928"/>
      <stop offset="1" stop-color="#eecd5a"/>
    </linearGradient>
    <linearGradient id="linear-gradient-2" x1="1.154" y1="0.512" x2="0.588" y2="0.954" xlink:href="#linear-gradient"/>
    <linearGradient id="linear-gradient-3" x1="1.263" y1="2.609" x2="0.722" y2="3.081" xlink:href="#linear-gradient"/>
    <linearGradient id="linear-gradient-4" x1="1.239" y1="-0.897" x2="0.169" y2="-0.584" xlink:href="#linear-gradient"/>
    <linearGradient id="linear-gradient-5" y1="0.5" x2="1" y2="0.5" gradientUnits="objectBoundingBox">
      <stop offset="0" stop-color="#6753b1"/>
      <stop offset="1" stop-color="#a392df"/>
    </linearGradient>
    <linearGradient id="linear-gradient-6" x1="0.634" y1="0.686" x2="-0.052" y2="-0.021" xlink:href="#linear-gradient-5"/>
    <linearGradient id="linear-gradient-7" x1="-0.003" y1="0.504" x2="1.012" y2="0.504" gradientUnits="objectBoundingBox">
      <stop offset="0" stop-color="#2e1685"/>
      <stop offset="1" stop-color="#766bd8"/>
    </linearGradient>
    <linearGradient id="linear-gradient-8" x1="1.011" y1="0.506" x2="-0.008" y2="0.506" xlink:href="#linear-gradient-7"/>
    <linearGradient id="linear-gradient-9" x1="-0.009" y1="0.506" x2="1.01" y2="0.506" xlink:href="#linear-gradient-7"/>
    <linearGradient id="linear-gradient-10" x1="-0.125" y1="0.507" x2="1.04" y2="0.507" xlink:href="#linear-gradient"/>
    <linearGradient id="linear-gradient-11" x1="-0.041" y1="0.509" x2="0.996" y2="0.509" xlink:href="#linear-gradient-7"/>
    <clipPath id="clip-path">
      <path id="Path_7354" data-name="Path 7354" d="M199.28,347.5c22.816-.236,40.943,9.753,40.488,22.2-.451,12.316-18.973,22.392-41.37,22.62s-40.513-9.475-40.479-21.782C157.953,358.1,176.47,347.736,199.28,347.5Z" transform="translate(-157.919 -347.496)" fill="none"/>
    </clipPath>
    <linearGradient id="linear-gradient-12" y1="0.5" x2="1" y2="0.5" gradientUnits="objectBoundingBox">
      <stop offset="0" stop-color="#4f1f27"/>
      <stop offset="1" stop-color="#6f343f"/>
    </linearGradient>
    <linearGradient id="linear-gradient-13" x1="0.614" y1="0.477" x2="-0.186" y2="0.637" xlink:href="#linear-gradient"/>
    <linearGradient id="linear-gradient-14" x1="0" y1="0.5" x2="1" y2="0.5" xlink:href="#linear-gradient"/>
    <clipPath id="clip-path-2">
      <ellipse id="Ellipse_543" data-name="Ellipse 543" cx="14.31" cy="33.419" rx="14.31" ry="33.419" transform="matrix(0.936, -0.351, 0.351, 0.936, 0, 10.054)" fill="url(#linear-gradient)"/>
    </clipPath>
    <linearGradient id="linear-gradient-16" x1="0.751" y1="0.922" x2="0.219" y2="0.026" xlink:href="#linear-gradient"/>
    <clipPath id="clip-path-3">
      <path id="Path_7387" data-name="Path 7387" d="M263.366,254.011,296.5,234.855l7.468-30.223-2.412-32.31-7.243,9.793-74.994,13.113L202.328,228.26l20.38,35.036Z" transform="translate(-202.328 -172.322)" fill="none"/>
    </clipPath>
    <linearGradient id="linear-gradient-19" x1="0.433" y1="0.469" x2="0.13" y2="0.327" xlink:href="#linear-gradient"/>
    <clipPath id="clip-path-4">
      <ellipse id="Ellipse_546" data-name="Ellipse 546" cx="29.784" cy="13.75" rx="29.784" ry="13.75" transform="translate(0 57.626) rotate(-75.326)" fill="none"/>
    </clipPath>
    <linearGradient id="linear-gradient-21" x1="0.571" y1="0.155" x2="0.4" y2="0.985" xlink:href="#linear-gradient"/>
    <linearGradient id="linear-gradient-22" x1="0.374" y1="0.525" x2="-0.089" y2="0.618" xlink:href="#linear-gradient"/>
    <linearGradient id="linear-gradient-23" x1="-0.045" y1="0.5" x2="1.045" y2="0.5" xlink:href="#linear-gradient"/>
    <clipPath id="clip-path-5">
      <path id="Path_7385" data-name="Path 7385" d="M274.734,227.539c-7.323,2.006-16.773-9.232-21.1-25.1s-1.906-30.36,5.419-32.366,16.773,9.232,21.1,25.1S282.059,225.532,274.734,227.539Z" transform="translate(-251.482 -169.841)" fill="none"/>
    </clipPath>
    <linearGradient id="linear-gradient-24" x1="0.262" y1="0.129" x2="0.779" y2="0.935" xlink:href="#linear-gradient"/>
    <linearGradient id="linear-gradient-25" x1="0.855" y1="0.642" x2="0.312" y2="0.851" xlink:href="#linear-gradient"/>
    <linearGradient id="linear-gradient-26" x1="0.447" y1="0.655" x2="1.63" y2="0.655" xlink:href="#linear-gradient"/>
    <clipPath id="clip-path-6">
      <path id="Path_7393" data-name="Path 7393" d="M240.766,280.79c-3.835,5.837-17.414,2.572-30.329-7.293S190.162,250.9,194,245.066s17.414-2.572,30.329,7.293S244.6,274.954,240.766,280.79Z" transform="translate(-192.981 -242.17)" fill="url(#linear-gradient-2)"/>
    </clipPath>
    <linearGradient id="linear-gradient-28" x1="0.989" y1="1.299" x2="0.648" y2="0.094" xlink:href="#linear-gradient"/>
    <linearGradient id="linear-gradient-29" x1="0.857" y1="2.463" x2="0.339" y2="2.687" xlink:href="#linear-gradient"/>
    <linearGradient id="linear-gradient-30" x1="0.575" y1="3.381" x2="1.143" y2="3.381" xlink:href="#linear-gradient"/>
    <clipPath id="clip-path-7">
      <path id="Path_7400" data-name="Path 7400" d="M331.88,258.236c4.943,6.2-3.371,19.694-18.573,30.146s-31.53,13.9-36.474,7.7,3.373-19.694,18.573-30.146S326.937,252.039,331.88,258.236Z" transform="translate(-275.407 -255.156)" fill="url(#linear-gradient-3)"/>
    </clipPath>
    <linearGradient id="linear-gradient-32" x1="1.052" y1="3.464" x2="0.725" y2="2.173" xlink:href="#linear-gradient"/>
    <linearGradient id="linear-gradient-33" x1="0.772" y1="-0.584" x2="-0.158" y2="-0.431" xlink:href="#linear-gradient"/>
    <linearGradient id="linear-gradient-34" x1="0.277" y1="-1.773" x2="0.845" y2="-1.773" xlink:href="#linear-gradient"/>
    <clipPath id="clip-path-8">
      <path id="Path_7407" data-name="Path 7407" d="M252.444,359.59c-7.927-.112-13.084-15.1-11.517-33.481s9.26-33.191,17.187-33.079,13.084,15.1,11.518,33.48S260.37,359.7,252.444,359.59Z" transform="translate(-240.646 -293.03)" fill="url(#linear-gradient-4)"/>
    </clipPath>
    <linearGradient id="linear-gradient-36" x1="0.98" y1="-0.308" x2="0.333" y2="-1.161" xlink:href="#linear-gradient"/>
    <linearGradient id="linear-gradient-37" x1="0.5" y1="1" x2="0.5" y2="0" xlink:href="#linear-gradient"/>
    <linearGradient id="linear-gradient-44" x1="0.5" y1="1" x2="0.5" y2="0" xlink:href="#linear-gradient"/>
    <linearGradient id="linear-gradient-45" x1="0.5" y1="1" x2="0.5" y2="0" xlink:href="#linear-gradient"/>
  </defs>
  <g id="Group_4214" data-name="Group 4214" transform="translate(-19.9 -48.991)">
    <g id="BACKGROUND" transform="translate(19.9 48.991)">
      <g id="Group_4118" data-name="Group 4118" opacity="0.12">
        <g id="Group_4117" data-name="Group 4117">
          <g id="Group_4116" data-name="Group 4116" transform="translate(0 116.901)">
            <g id="Group_4115" data-name="Group 4115">
              <g id="Group_4114" data-name="Group 4114">
                <path id="Path_7307" data-name="Path 7307" d="M332.271,216.452a161.8,161.8,0,0,1-72.155-29.36c-31.872-23.1-98.568-62.4-162.192-42.821-87.758,27-88.149,105.116-65.29,147.548s184.957,166.689,395.1,146.919c188.051-17.693,224.7-220.211,124.4-256.856C465.153,150.1,435.476,231.082,332.271,216.452Z" transform="translate(-19.9 -138.973)" fill="#425b95"/>
              </g>
            </g>
          </g>
          <ellipse id="Ellipse_540" data-name="Ellipse 540" cx="51.966" cy="107.18" rx="51.966" ry="107.18" transform="matrix(0.253, -0.967, 0.967, 0.253, 15.124, 502.207)" fill="#425b95"/>
          <path id="Path_7308" data-name="Path 7308" d="M377.043,84.018c-12.1,10.5-23.915,22.531-28.61,37.907-2.1,6.871-2.636,14.431-.188,21.163,4.712,12.963,19.886,19.868,33.493,18.176s25.534-10.315,34.794-20.549c12.666-14,21.362-31.2,28.128-48.866,3.678-9.6,6.843-20.282,3.516-29.982C436.184,26.916,389.735,72.993,377.043,84.018Z" transform="translate(77.841 -48.991)" fill="#425b95"/>
          <path id="Path_7309" data-name="Path 7309" d="M407.934,449.147c11.681-3.327,23.66-7.787,31.824-16.836,3.649-4.044,6.446-9.062,6.93-14.471.93-10.415-7.271-20.032-17.158-23.243s-20.846-1.12-30.492,2.931c-13.194,5.54-24.693,14.56-35.016,24.515-5.61,5.411-11.214,11.728-12.046,19.457C348.979,469.352,395.677,452.638,407.934,449.147Z" transform="translate(79.401 53.93)" fill="#425b95"/>
        </g>
      </g>
    </g>
    <g id="OBJECTS" transform="translate(48.462 52.552)">
      <path id="Path_7310" data-name="Path 7310" d="M562.237,148.816a11.6,11.6,0,0,0-11.612-4.434L440.679,166.841a11.737,11.737,0,0,0-4.952,2.3l19.042,18.519,46.488-9.519L264.543,351.1,275.93,205.463a11.031,11.031,0,0,0-5.762-10.575,10.91,10.91,0,0,0-11.969,1.006L41.885,364.675l13.9,17.042,196.2-153.055L240.715,373.257a10.93,10.93,0,0,0,5.6,10.482,11.121,11.121,0,0,0,11.908-.724l262.256-191.65L499.1,230.871l17.319,16.9L563.132,161.3A11.606,11.606,0,0,0,562.237,148.816Z" transform="translate(-41.885 -24.083)" fill="#ffd046"/>
      <g id="Group_4137" data-name="Group 4137" transform="translate(17.914 266.498)">
        <g id="Group_4126" data-name="Group 4126" transform="translate(386.793 5.735)">
          <g id="Group_4120" data-name="Group 4120" transform="translate(14.56)">
            <path id="Path_7311" data-name="Path 7311" d="M364.608,357.6l3.158.686,1.676.362,4.746,1.029s62.5-62.474,41.52-93.551c-6.458-9.568-22.686-7.222-28.253,27.628C382.293,326.063,364.608,357.6,364.608,357.6Z" transform="translate(-364.608 -261.278)" fill="#132657"/>
            <g id="Group_4119" data-name="Group 4119" transform="translate(3.158 22.227)">
              <path id="Path_7312" data-name="Path 7312" d="M367.039,353.171l1.676.363c12.2-15.9,20.994-34.092,26.379-47.067a240.519,240.519,0,0,0,9.533-27.106.775.775,0,0,0-1.5-.4,239.226,239.226,0,0,1-9.479,26.935C388.239,318.934,379.365,337.275,367.039,353.171Z" transform="translate(-367.039 -278.387)" fill="#132657"/>
            </g>
          </g>
          <g id="Group_4123" data-name="Group 4123" transform="translate(0 5.449)">
            <path id="Path_7313" data-name="Path 7313" d="M353.4,377.017l3.978,2.465,2.11,1.306,5.979,3.7s115.52-54.98,101.941-107.541c-4.179-16.18-27.456-20.835-51.925,24.019C392.8,342.544,353.4,377.017,353.4,377.017Z" transform="translate(-353.401 -265.473)" fill="#132657"/>
            <g id="Group_4122" data-name="Group 4122" transform="translate(3.978 29.744)">
              <g id="Group_4121" data-name="Group 4121">
                <path id="Path_7314" data-name="Path 7314" d="M356.463,372.633l2.11,1.306c24.346-15.783,45.152-36.352,58.78-51.448a348.908,348.908,0,0,0,26.131-32.367,1.122,1.122,0,0,0-1.85-1.271,346.446,346.446,0,0,1-25.971,32.161C401.965,336.182,380.977,356.912,356.463,372.633Z" transform="translate(-356.463 -288.367)" fill="url(#linear-gradient-5)"/>
              </g>
            </g>
          </g>
          <g id="Group_4125" data-name="Group 4125" transform="translate(23.641 62.952)">
            <path id="Path_7315" data-name="Path 7315" d="M371.6,361.1l1.994,2.1,1.057,1.116,3,3.161s77.892-14.693,78.058-48.327c.051-10.354-13.159-16.819-34.9,6.189C400.648,346.667,371.6,361.1,371.6,361.1Z" transform="translate(-371.598 -309.735)" fill="#132657"/>
            <g id="Group_4124" data-name="Group 4124" transform="translate(1.994 16.558)">
              <path id="Path_7316" data-name="Path 7316" d="M373.133,359.389l1.058,1.116c17.079-5.611,32.792-14.648,43.341-21.539A215.941,215.941,0,0,0,438.3,323.7a.695.695,0,0,0-.908-1.052,214.472,214.472,0,0,1-20.638,15.165C406.15,344.738,390.3,353.842,373.133,359.389Z" transform="translate(-373.133 -322.48)" fill="#132657"/>
            </g>
          </g>
        </g>
        <g id="Group_4136" data-name="Group 4136">
          <g id="Group_4129" data-name="Group 4129" transform="translate(43.029 3.114)">
            <path id="Path_7317" data-name="Path 7317" d="M126.673,357.024l-3.065.043-1.627.022-4.607.064s-46.351-69.843-21-94.789c7.8-7.681,22.449-2.445,21.068,31C116.166,324.372,126.673,357.024,126.673,357.024Z" transform="translate(-88.795 -259.261)" fill="#132657"/>
            <g id="Group_4128" data-name="Group 4128" transform="translate(13.753 21.332)">
              <g id="Group_4127" data-name="Group 4127">
                <path id="Path_7318" data-name="Path 7318" d="M120.442,352.155l-1.627.022c-8.354-17.076-13.1-35.648-15.67-48.724a228.354,228.354,0,0,1-3.762-26.994.735.735,0,0,1,1.467-.09,226.963,226.963,0,0,0,3.744,26.825C107.173,316.334,111.971,335.056,120.442,352.155Z" transform="translate(-99.381 -275.681)" fill="#132657"/>
              </g>
            </g>
          </g>
          <g id="Group_4132" data-name="Group 4132">
            <path id="Path_7319" data-name="Path 7319" d="M146.23,379.7l-4.162,1.543-2.209.817-6.255,2.315S36.549,311.519,59.062,265.209c6.931-14.257,29.448-14.2,43.757,32.1C116.083,340.231,146.23,379.7,146.23,379.7Z" transform="translate(-55.674 -256.864)" fill="#132657"/>
            <g id="Group_4131" data-name="Group 4131" transform="translate(20.926 29.811)">
              <g id="Group_4130" data-name="Group 4130">
                <path id="Path_7320" data-name="Path 7320" d="M137.249,374.374l-2.209.817C115.375,355.936,99.9,332.9,90.072,316.3a330.889,330.889,0,0,1-18.2-35.01,1.064,1.064,0,0,1,1.959-.833,328.186,328.186,0,0,0,18.095,34.787C101.8,331.924,117.415,355.145,137.249,374.374Z" transform="translate(-71.782 -279.811)" fill="url(#linear-gradient-6)"/>
              </g>
            </g>
          </g>
          <g id="Group_4135" data-name="Group 4135" transform="translate(0.001 66.965)">
            <path id="Path_7321" data-name="Path 7321" d="M137.993,356.907l-1.9,2.077-1.006,1.1-2.852,3.119s-75.807-12.876-76.562-45.5c-.233-10.041,12.465-16.545,33.96,5.386C109.563,343.424,137.993,356.907,137.993,356.907Z" transform="translate(-55.675 -308.408)" fill="#132657"/>
            <g id="Group_4134" data-name="Group 4134" transform="translate(16.344 15.92)">
              <g id="Group_4133" data-name="Group 4133">
                <path id="Path_7322" data-name="Path 7322" d="M132.333,355.318l-1.006,1.1c-16.664-5.139-32.064-13.627-42.417-20.125A209.668,209.668,0,0,1,68.5,321.856a.674.674,0,0,1,.861-1.038,208.265,208.265,0,0,0,20.286,14.345C100.052,341.691,115.583,350.241,132.333,355.318Z" transform="translate(-68.255 -320.662)" fill="#132657"/>
              </g>
            </g>
          </g>
        </g>
      </g>
      <g id="Group_4160" data-name="Group 4160" transform="translate(67.054 345.41)">
        <path id="Path_7323" data-name="Path 7323" d="M125.788,328.374a32.654,32.654,0,0,0-18,4.877c-4.964,3.205-6.895,5.74-7.238,10.317L93.573,428.14a19.075,19.075,0,0,0,1.41,9.243c2.941,6.688,9.36,10.87,24.481,11.626l355.8,2.025a32.051,32.051,0,0,0,6.831-.7c8.163-1.724,20.612-9.107,17.571-26.292l-22.275-76.46a12.92,12.92,0,0,0-.881-2.325c-4-8.226-16.786-14.719-30.122-14.862l-170.609-.431a2.5,2.5,0,0,0-1.776-.708l-42.408-.462a2.125,2.125,0,0,0-1.688.685l-8.964-.095a2.344,2.344,0,0,0-1.7-.691l-41.99-.46a2.211,2.211,0,0,0-1.688.669Z" transform="translate(-93.498 -314.426)" fill="url(#linear-gradient-7)"/>
        <g id="Group_4153" data-name="Group 4153" transform="translate(0.634)">
          <g id="Group_4147" data-name="Group 4147">
            <path id="Path_7324" data-name="Path 7324" d="M202.774,319.912l-.016-.481c-.023-.75-.937-1.373-2.028-1.385l-41.765-.442c-1.083-.012-1.976.595-1.984,1.347l0,.482c-.007.751.877,1.375,1.964,1.386l41.883.434C201.92,321.266,202.8,320.662,202.774,319.912Z" transform="translate(-75.142 -317.605)" fill="#f2edf1"/>
            <path id="Path_7325" data-name="Path 7325" d="M244.895,320.325l-.039-.479c-.061-.748-1.013-1.369-2.115-1.381l-42.181-.446c-1.094-.01-1.966.594-1.936,1.343l.018.481c.03.75.952,1.372,2.05,1.382l42.3.438C244.1,321.675,244.956,321.072,244.895,320.325Z" transform="translate(-62.683 -317.481)" fill="#f2edf1"/>
            <g id="Group_4139" data-name="Group 4139" transform="translate(0 0.163)">
              <path id="Path_7326" data-name="Path 7326" d="M498.1,425.193l-22.876-88.448c-2.392-9.055-15.759-16.56-29.816-16.706l-319.024-1.875c-13.285-.134-24.589,7.28-25.27,16.5l-6.435,88.27c-.612,8.493,10.745,15.392,25.4,15.466l353.661,1.85C489.414,440.33,500.344,433.612,498.1,425.193Z" transform="translate(-93.786 -317.601)" fill="url(#linear-gradient-8)"/>
              <g id="Group_4138" data-name="Group 4138">
                <path id="Path_7327" data-name="Path 7327" d="M476.289,336.883l22.95,88.444c2.32,8.686-9,15.639-25.178,15.553l-353.809-1.846c-15.121-.078-26.876-7.216-26.242-15.981l6.5-88.272c.342-4.6,3.26-8.908,8.2-12.135a32.254,32.254,0,0,1,17.91-4.913l318.863,1.884c13.262.138,25.965,6.659,29.938,14.929A13.007,13.007,0,0,1,476.289,336.883ZM120.306,438.02l353.513,1.853c15.12.081,25.7-6.428,23.547-14.556l.937.005-.937-.005-22.8-88.45c-2.3-8.738-15.247-16.006-28.819-16.147l-319.188-1.864a30.213,30.213,0,0,0-16.766,4.594c-4.621,3.017-7.348,7.049-7.661,11.348l-6.376,88.267a8.72,8.72,0,0,0,.094,2.062C97.049,432.354,107.37,437.952,120.306,438.02Z" transform="translate(-93.986 -317.731)" fill="#131637"/>
              </g>
            </g>
            <g id="Group_4140" data-name="Group 4140" transform="translate(4.442 2.434)">
              <path id="Path_7328" data-name="Path 7328" d="M494.462,423.573l-22.026-85.948c-2.319-8.86-15.405-16.2-29.187-16.342l-315.062-1.8c-13.034-.13-24.1,7.119-24.742,16.132l-6.018,85.721c-.577,8.325,10.556,15.09,24.894,15.162l348.3,1.834C485.947,438.411,496.641,431.826,494.462,423.573Z" transform="translate(-97.406 -319.479)" fill="url(#linear-gradient-9)"/>
            </g>
            <g id="Group_4141" data-name="Group 4141" transform="translate(8.095 5.814)">
              <path id="Path_7329" data-name="Path 7329" d="M487.987,420.273l-20.323-80.815c-2.189-8.507-14.769-15.55-28.059-15.685L129.5,322.081c-12.578-.123-23.238,6.832-23.829,15.478l-5.432,80.5c-.534,8.025,10.17,14.549,23.937,14.621L465.095,434.5C479.783,434.578,490.052,428.228,487.987,420.273Z" transform="translate(-100.217 -322.08)" fill="#131637"/>
            </g>
            <path id="Path_7330" data-name="Path 7330" d="M389.555,396.794l-11.466-46.337c-.121-.491-.88-.9-1.685-.906h0c-.805-.006-1.365.39-1.246.881L386.5,396.775c.117.474.9.867,1.742.872h0C389.079,397.652,389.672,397.268,389.555,396.794Z" transform="translate(-9.877 -308.048)" fill="#3c2c9d"/>
            <g id="Group_4146" data-name="Group 4146" transform="translate(6.803 28.271)">
              <g id="Group_4143" data-name="Group 4143">
                <g id="Group_4142" data-name="Group 4142">
                  <path id="Path_7331" data-name="Path 7331" d="M115.773,399.787l2.993-53.359c.14-2.471-2.238-4.66-5.793-5.33l-9.123-1.732-4.628,67.24,10.269-1.9C113.11,404.038,115.647,402.052,115.773,399.787Z" transform="translate(-99.223 -339.366)" fill="#2e1685"/>
                </g>
              </g>
              <g id="Group_4145" data-name="Group 4145" transform="translate(4.146 30.865)">
                <g id="Group_4144" data-name="Group 4144">
                  <path id="Path_7332" data-name="Path 7332" d="M107.27,369.671c2.8.018,5.162-1.428,5.269-3.234s-2.067-3.293-4.855-3.313-5.143,1.433-5.265,3.243S104.469,369.651,107.27,369.671Z" transform="translate(-102.414 -363.124)" fill="#3c2c9d"/>
                </g>
                <path id="Path_7333" data-name="Path 7333" d="M106.921,368.542c2.053.014,3.783-1.048,3.862-2.372s-1.514-2.415-3.558-2.429-3.774,1.051-3.861,2.377S104.868,368.527,106.921,368.542Z" transform="translate(-102.131 -362.94)" fill="#131637"/>
              </g>
            </g>
          </g>
          <g id="Group_4148" data-name="Group 4148" transform="translate(38.594 15.081)">
            <path id="Path_7334" data-name="Path 7334" d="M454.428,423.75l-21.206-93.044-305.514-1.492-4.015,92.7Z" transform="translate(-123.693 -329.214)" fill="#fff"/>
          </g>
          <g id="Group_4149" data-name="Group 4149" transform="translate(264.59 25.005)">
            <path id="Path_7335" data-name="Path 7335" d="M327.394,345.054l10.472,61.167c.715,4.174-4.778,7.527-12.194,7.464l-4.624-.04c-7.4-.062-13.937-3.523-14.539-7.7L297.7,344.705c-.633-4.4,4.5-7.935,11.409-7.852l4.317.053C320.354,336.991,326.642,340.662,327.394,345.054Z" transform="translate(-297.649 -336.852)" fill="url(#linear-gradient-10)"/>
          </g>
          <g id="Group_4150" data-name="Group 4150" transform="translate(273.242 33.249)">
            <path id="Path_7336" data-name="Path 7336" d="M312.539,384.756l.372,2.4,12.565.112.283,1.7-12.587-.11.369,2.379-2.3-.021-.986-6.475Z" transform="translate(-302.532 -330.772)" fill="#35366f"/>
            <path id="Path_7337" data-name="Path 7337" d="M318.871,383.914l5.914.055.286,1.7-14.809-.134-.488-3.2a2.261,2.261,0,0,1,.8-2.268,4.8,4.8,0,0,1,3.07-.794,5.5,5.5,0,0,1,2.015.364,4.039,4.039,0,0,1,1.486,1.025,1.757,1.757,0,0,1,1.109-1.073,5.992,5.992,0,0,1,2.171-.31l1.082.009a8.6,8.6,0,0,0,1.273-.084,1.925,1.925,0,0,0,.942-.321h.213l.295,1.763a1.976,1.976,0,0,1-1.034.294q-.748.064-1.426.057l-1.045-.009a3.178,3.178,0,0,0-1.66.331.9.9,0,0,0-.455.974Zm-2.285-.021-.234-1.472a1.477,1.477,0,0,0-.7-1.078,3.136,3.136,0,0,0-1.615-.368,2.825,2.825,0,0,0-1.554.339.958.958,0,0,0-.435,1.038l.231,1.5Z" transform="translate(-302.687 -332.524)" fill="#35366f"/>
            <path id="Path_7338" data-name="Path 7338" d="M320.116,374.985l.494,3,3.264.612.288,1.731-15.148-3.079-.268-1.759,14.139-2.8.291,1.738Zm-1.884,2.559-.348-2.158-5.581,1,.007.035Z" transform="translate(-302.982 -334.374)" fill="#35366f"/>
            <path id="Path_7339" data-name="Path 7339" d="M321.96,366.753l.29,1.724-9.364,3.38.016.036,9.936.1.288,1.723-14.573-.142-.262-1.724,9.36-3.382-.016-.035-9.881-.1-.262-1.727Z" transform="translate(-303.358 -336.195)" fill="#35366f"/>
            <path id="Path_7340" data-name="Path 7340" d="M317.374,362.25a2,2,0,0,0-1.276.34,2.611,2.611,0,0,0-.748,1.233,5.02,5.02,0,0,1-1.389,2.319,3.906,3.906,0,0,1-2.67.763,5.128,5.128,0,0,1-3.039-.937,3.451,3.451,0,0,1-1.476-2.329,2.324,2.324,0,0,1,.9-2.318,4.433,4.433,0,0,1,2.963-.839l.061.013.264,1.689a2.578,2.578,0,0,0-1.55.385,1.076,1.076,0,0,0-.443,1.122,1.531,1.531,0,0,0,.681,1.083,2.447,2.447,0,0,0,1.374.394,1.523,1.523,0,0,0,1.139-.395,3.894,3.894,0,0,0,.77-1.4,4.086,4.086,0,0,1,1.4-2.158,4.382,4.382,0,0,1,2.731-.711,5.121,5.121,0,0,1,3.057.911,3.52,3.52,0,0,1,1.455,2.332,2.673,2.673,0,0,1-.8,2.455,4.28,4.28,0,0,1-3.243.987l-.061-.013-.275-1.688a2.678,2.678,0,0,0,1.811-.453,1.346,1.346,0,0,0,.382-1.312,1.58,1.58,0,0,0-.663-1.089A2.366,2.366,0,0,0,317.374,362.25Z" transform="translate(-303.582 -338.028)" fill="#35366f"/>
            <path id="Path_7341" data-name="Path 7341" d="M314.1,355.473l.589,3.655,5.947.064.292,1.745-14.328-.152-.916-6.014,2.2.023.66,4.268,3.938.043-.581-3.656Z" transform="translate(-303.897 -339.736)" fill="#35366f"/>
            <path id="Path_7342" data-name="Path 7342" d="M312.873,350.027l.585,3.632,4.048.044-.7-4.247,2.186.025,1,6-14.223-.157-.912-5.993,2.181.025.655,4.237,3.566.04L310.689,350Z" transform="translate(-304.144 -341.363)" fill="#35366f"/>
            <path id="Path_7343" data-name="Path 7343" d="M313.043,348.408l5.637.064.3,1.764-14.117-.16-.507-3.322a2.429,2.429,0,0,1,.733-2.349,4.258,4.258,0,0,1,2.914-.817,4.885,4.885,0,0,1,1.924.381,3.916,3.916,0,0,1,1.43,1.064,1.716,1.716,0,0,1,1.043-1.111,5.28,5.28,0,0,1,2.063-.318l1.032.013a7.809,7.809,0,0,0,1.212-.086,1.726,1.726,0,0,0,.891-.333l.2,0,.307,1.827a1.76,1.76,0,0,1-.981.3,13.372,13.372,0,0,1-1.359.057l-1-.012a2.786,2.786,0,0,0-1.577.342.937.937,0,0,0-.42,1.007Zm-2.177-.026-.243-1.525a1.564,1.564,0,0,0-.677-1.117,2.831,2.831,0,0,0-1.543-.385,2.5,2.5,0,0,0-1.476.349,1.018,1.018,0,0,0-.4,1.074l.242,1.556Z" transform="translate(-304.309 -343.198)" fill="#35366f"/>
          </g>
          <g id="Group_4152" data-name="Group 4152" transform="translate(57.99 27.107)">
            <g id="Group_4151" data-name="Group 4151">
              <path id="Path_7344" data-name="Path 7344" d="M138.626,399.612l1.916-53.011c.165-4.547,5.923-8.212,12.8-8.13L256.206,339.7c7.017.083,13.043,3.861,13.384,8.381l3.966,52.751c.325,4.318-5.51,7.787-12.954,7.722L151.58,407.6C144.294,407.534,138.469,403.947,138.626,399.612Z" transform="translate(-138.623 -338.47)" fill="url(#linear-gradient-11)"/>
            </g>
          </g>
        </g>
        <g id="Group_4159" data-name="Group 4159" transform="translate(83.566 38.833)">
          <path id="Path_7345" data-name="Path 7345" d="M199.133,349.706c22.788-.236,40.9,9.731,40.443,22.144-.449,12.287-18.949,22.342-41.32,22.568s-40.467-9.454-40.434-21.731C157.856,360.282,176.348,349.941,199.133,349.706Z" transform="translate(-157.822 -346.836)" fill="#b8751c"/>
          <path id="Path_7346" data-name="Path 7346" d="M199.28,347.5c22.816-.236,40.943,9.753,40.488,22.2-.451,12.316-18.973,22.392-41.37,22.62s-40.513-9.475-40.479-21.782C157.953,358.1,176.47,347.736,199.28,347.5Z" transform="translate(-157.793 -347.496)" fill="#efc346"/>
          <path id="Path_7347" data-name="Path 7347" d="M158.232,370.531c.035-12.4,18.467-22.748,41.205-23.031-.053,0-.105,0-.157,0-22.811.236-41.327,10.6-41.361,23.034-.034,12.307,18.087,22.008,40.479,21.782.052,0,.1,0,.155,0C176.233,392.491,158.2,382.809,158.232,370.531Z" transform="translate(-157.793 -347.495)" fill="#f6e035"/>
          <path id="Path_7348" data-name="Path 7348" d="M197.345,351.357c17.888-.186,32.131,7.579,31.811,17.272-.318,9.616-14.87,17.5-32.5,17.679s-31.867-7.41-31.8-17.02C164.911,359.6,179.459,351.541,197.345,351.357Z" transform="translate(-155.72 -346.342)" fill="#f6e044"/>
          <path id="Path_7349" data-name="Path 7349" d="M197.108,351.359c17.757-.184,31.9,7.582,31.577,17.275-.316,9.616-14.762,17.5-32.266,17.676s-31.633-7.413-31.571-17.023C164.911,359.6,179.353,351.542,197.108,351.359Z" transform="translate(-155.72 -346.341)" fill="#eccd75"/>
          <g id="Group_4158" data-name="Group 4158" transform="translate(0.126)">
            <g id="Group_4157" data-name="Group 4157" clip-path="url(#clip-path)">
              <g id="Group_4156" data-name="Group 4156" transform="translate(3.441 -1.708)">
                <g id="Group_4154" data-name="Group 4154">
                  <path id="Path_7350" data-name="Path 7350" d="M198.345,347.022l-.12-.151-.116-.151a51.892,51.892,0,0,0-4.617,2.415l-5.4-2.954-.429.24,5.4,2.953c-1.046.582-2.173,1.216-3.312,1.859l-7.785-4.253-.213.121,7.785,4.253c-.92.521-1.841,1.043-2.726,1.547l-9.154-5-.427.239,9.159,5c-1.756,1-3.33,1.906-4.389,2.515-6.1-3.265-11.409-6.164-11.582-6.436l-.147.014h-.151c0,.243,5.788,3.4,11.666,6.543-.477.274-.833.481-1.02.587l-.205.12,5.5,2.991-4.408,2.45-1.342-.729-3.816,2.123-15.5-8.4-.425.238,15.921,8.629,3.814-2.121,7.866,4.272.426-.236-6.526-3.543,4.409-2.45,1.751.952,1.341-.744c1.174.62,2.192,1.155,2.953,1.555l.209-.12-2.948-1.554,2.306-1.281,3.743,2.04,4.075-2.259,3.666,2,4.062-2.248,7.822,4.278a.9.9,0,0,0-.474.686c-.016.591.848,1.064,1.925,1.052s1.967-.5,1.984-1.093-.847-1.065-1.925-1.054a3.227,3.227,0,0,0-1.06.183l-8.261-4.52-4.062,2.25-3.668-2-4.075,2.259-3.744-2.04-2.74,1.521-1.35-.716,4.812-2.674-5.589-3.049c.92-.524,1.833-1.043,2.726-1.547l10.154,5.547.105.057,2.83-1.569a2.35,2.35,0,0,0,.365.038c.79-.009,1.441-.37,1.451-.805a.463.463,0,0,0-.07-.2l1.137-.631,5.985,3.278.1.057,1.108-.612,21.8,11.946.216-.118-21.8-11.947,1.628-.9,13.566,7.442.1.056,7.319-4.022-.208-.114-7.1,3.905-13.462-7.384,1.746-.965,8.034,4.411.1.057,7.51-4.138-.208-.116-7.295,4.021-7.93-4.355,6.591-3.644-.208-.116-6.592,3.645-5.88-3.228,5.76-3.193-.209-.117-5.76,3.2-7.833-4.3-.216.12,7.833,4.3-1.745.967-4.107-2.253-.216.121,4.107,2.253-3.991,2.212a1.738,1.738,0,0,0-1.234-.407,2.317,2.317,0,0,0-.7.123l-8.832-4.834C196.288,348.044,198.03,347.11,198.345,347.022ZM218.3,362.978c-.012.412-.629.752-1.377.76s-1.349-.321-1.337-.731.629-.752,1.377-.76S218.31,362.567,218.3,362.978Zm-36.9-6.5.809-.466c1.777.95,3.547,1.889,5.159,2.743l-.883.491Zm7.744,3.215-.908.5-1.333-.725.89-.494Zm2.828-3.5-4.39,2.44c-1.712-.907-3.462-1.838-5.16-2.745,1.388-.8,2.882-1.655,4.386-2.513Zm18.866-4.893,5.88,3.228-1.745.965-5.88-3.226Zm3.92,4.312-2.735,1.514-5.88-3.222,2.735-1.516Zm-11.142-.307.6-.334A.778.778,0,0,1,203.619,355.3Zm.6-.565-1.022.566c-.349-.051-.609-.218-.6-.429.005-.253.385-.464.844-.468A.855.855,0,0,1,204.222,354.737Zm-1.927-.31a.631.631,0,0,0-.3.455c-.007.3.3.547.746.677l-2.52,1.4-10.05-5.493c1.172-.661,2.292-1.291,3.312-1.859Z" transform="translate(-160.568 -346.181)" fill="#ffe49f"/>
                  <path id="Path_7351" data-name="Path 7351" d="M173.121,358.475c1.893-.019,3.444-.882,3.457-1.924s-1.521-1.876-3.418-1.856-3.447.885-3.456,1.927S171.228,358.494,173.121,358.475Zm.038-3.616c1.732-.018,3.131.742,3.119,1.694s-1.426,1.74-3.156,1.758-3.128-.742-3.119-1.693S171.427,354.876,173.158,354.859Z" transform="translate(-157.835 -343.634)" fill="#ffe49f"/>
                </g>
                <g id="Group_4155" data-name="Group 4155" transform="translate(8.128 31.501)">
                  <path id="Path_7352" data-name="Path 7352" d="M192.021,385.648l6.844-3.745a1.719,1.719,0,0,0,.53.082,1.417,1.417,0,0,0,.952-.323l2.956,1.594L200.112,385l.158.086,3.192-1.743,1.289.7-6.077,3.318.16.086,6.077-3.318,4.243,2.289.162-.088-4.243-2.29,4.589-2.5,4.855,2.626.162-.09-4.854-2.624,6.224-3.4,5.371,2.913.164-.09-5.529-3-.082.044-6.307,3.443-1.289-.7,10.589-5.785,5.238,2.846.164-.09-5.4-2.932-.083.044-10.671,5.831-1.2-.652,17.2-9.4-.16-.087-17.2,9.4-.821-.443-.082.044-4.67,2.553-.843-.455a.364.364,0,0,0,.06-.151c.006-.327-.477-.589-1.077-.582a1.9,1.9,0,0,0-.279.034l-2.1-1.135-.082.044-7.873,4.313c-.664-.362-1.345-.737-2.031-1.113l4.325-2.372-3.6-1.938,1.048-.56,2.05,1.106,2.91-1.6,3.043,1.641,2.859-1.568,3.023,1.634,6.474-3.543a2.439,2.439,0,0,0,.8.122c.824-.008,1.5-.379,1.515-.829s-.65-.808-1.473-.8-1.5.381-1.516.829a.625.625,0,0,0,.335.513l-6.131,3.356L199.7,377.3l-2.861,1.568-3.043-1.642-2.911,1.6-1.725-.93c.791-.422,1.56-.833,2.29-1.22l-.157-.088c-.591.314-1.382.735-2.294,1.223l-1-.542-1.36.747-3.313-1.785,5.074-2.793-.321-.173-6.114,3.366-2.876-1.549-12.258,6.757.32.172,11.933-6.576,2.876,1.549,1.041-.573,3.313,1.785-4.253,2.337.155.086c.139.078.407.227.764.425-4.526,2.445-8.965,4.887-8.967,5.067h.113l.112.009c.134-.2,4.2-2.448,8.9-4.985.792.44,1.97,1.093,3.282,1.815l-7.044,3.865.318.17,7.041-3.861c.659.362,1.345.739,2.031,1.113l-5.99,3.283.159.086,5.99-3.282c.847.462,1.685.917,2.462,1.334l-4.156,2.275.318.17,4.157-2.275a36.719,36.719,0,0,0,3.426,1.723l.092-.114.094-.113C195.075,387.26,193.784,386.592,192.021,385.648ZM210,375.617c-.573.005-1.032-.243-1.024-.555s.479-.57,1.052-.577,1.032.243,1.024.556S210.568,375.61,210,375.617Zm-23.37,2.748.663.356c-1.248.668-2.617,1.4-3.99,2.144l-.607-.338Zm.991.181-.665-.36,1.033-.568.681.368C188.33,378.164,187.979,378.35,187.617,378.545Zm-.881,4.222c-1.124-.618-2.24-1.237-3.278-1.815,1.311-.708,2.665-1.434,3.99-2.145l3.284,1.768Zm16.889.485,4.589-2.506,1.29.7-4.589,2.5Zm-.158-.086-2.025-1.093,4.589-2.51,2.024,1.1Zm-3.453-1.863-.447-.242A.546.546,0,0,1,200.014,381.3Zm-.613.433c-.349,0-.63-.148-.626-.338,0-.157.205-.287.473-.331l.76.409A.7.7,0,0,1,199.4,381.736Zm-7.7,3.74c-.757-.407-1.59-.859-2.462-1.334l7.792-4.269,1.873,1.011c-.34.1-.583.295-.589.52a.441.441,0,0,0,.213.335Z" transform="translate(-166.824 -370.428)" fill="#ffe49f"/>
                  <path id="Path_7353" data-name="Path 7353" d="M173.817,377.081c-.009.786,1.159,1.414,2.6,1.4s2.628-.666,2.639-1.451-1.158-1.415-2.6-1.4S173.826,376.295,173.817,377.081Zm.229,0c.008-.718,1.089-1.313,2.407-1.326s2.387.56,2.376,1.277-1.09,1.312-2.409,1.325S174.037,377.8,174.046,377.079Z" transform="translate(-164.732 -368.872)" fill="#ffe49f"/>
                </g>
              </g>
            </g>
          </g>
          <path id="Path_7355" data-name="Path 7355" d="M186.329,359.062c-5.311.055-9.992,1.876-11.907,4.577l-2.771.029c-.659.007-1.2.305-1.2.666l-.022,2.294c0,.361.527.647,1.184.639l1.915-.019-.013,1.2-1.914.019c-.656.007-1.193.3-1.2.664l-.022,2.285c0,.359.526.643,1.182.637l1.91-.019-.008.735c0,.359.525.643,1.181.637l5.155-.052c.656-.008,1.191-.3,1.2-.661l.008-.553,27.984-.286-.014.553c-.009.359.516.643,1.172.637l5.158-.052c.656-.008,1.2-.3,1.206-.661l.021-.737,1.065-.01c.656-.007,1.2-.3,1.207-.661l.068-2.286c.01-.36-.513-.646-1.171-.639l-1.067.012.035-1.2,1.067-.01c.657-.006,1.2-.3,1.21-.664l.068-2.3c.012-.361-.514-.648-1.173-.64l-1.921.019c-1.811-2.665-6.423-4.39-11.737-4.335a19.461,19.461,0,0,0-8.968,2.111A18.744,18.744,0,0,0,186.329,359.062Zm12.528,8.774.04-1.94c.034-1.55,2.362-2.835,5.191-2.865s5.1,1.21,5.06,2.759l-.049,1.94Zm-7.549.078-10.24.1.027-1.94c.021-1.549,2.34-2.835,5.168-2.863s5.108,1.21,5.08,2.758Z" transform="translate(-154.063 -344.091)" fill="#efc346"/>
          <path id="Path_7356" data-name="Path 7356" d="M194.925,361.813a16.158,16.158,0,0,0-8.88-2.246c-5.169.053-9.576,1.977-11.056,4.567l-3.618.036-.022,2.3,3.1-.032-.027,2.506-3.1.031-.022,2.285,3.1-.031-.016,1.385,5.158-.053.016-1.2,30.369-.31-.031,1.2,5.159-.053.039-1.385,2.253-.023.066-2.286-2.255.023.07-2.506,2.258-.023.068-2.3-2.771.029c-1.378-2.561-5.712-4.4-10.884-4.342A16.88,16.88,0,0,0,194.925,361.813Zm15.142,3.814L210,368.219l-12.62.13.053-2.592c.04-1.91,2.91-3.493,6.4-3.53S210.116,363.717,210.066,365.627Zm-17.806.183-.048,2.591-12.617.13.035-2.592c.025-1.908,2.883-3.493,6.37-3.528S192.3,363.9,192.26,365.81Z" transform="translate(-153.79 -343.94)" fill="#b8751c"/>
        </g>
      </g>
      <g id="Group_4192" data-name="Group 4192" transform="translate(147.604 26.596)">
        <g id="Group_4161" data-name="Group 4161" transform="translate(5.102)">
          <path id="Path_7357" data-name="Path 7357" d="M167.3,102.318,335.51,72.35a9.494,9.494,0,0,1,10.973,7.769l20.351,118.427a9.634,9.634,0,0,1-7.729,11.1L190.891,239.614a9.493,9.493,0,0,1-10.971-7.769L159.567,113.42A9.637,9.637,0,0,1,167.3,102.318Z" transform="translate(-159.428 -72.204)" fill="url(#linear-gradient-12)"/>
          <path id="Path_7358" data-name="Path 7358" d="M182.423,202.892l168.6-30.038a2.088,2.088,0,0,1,2.413,1.708h0a2.118,2.118,0,0,1-1.7,2.441l-168.6,30.038a2.088,2.088,0,0,1-2.413-1.708h0A2.118,2.118,0,0,1,182.423,202.892Z" transform="translate(-153.066 -42.103)" fill="#131637"/>
          <path id="Path_7359" data-name="Path 7359" d="M190.6,226.227l-1.966-.233-2.787-1.642-1.712-4.36L163.515,104.518l1.993-5.214,5.528-3.706-6.29,1.509-4.8,5.714,21.5,121.731,2.37,4.826,5.525.765Z" transform="translate(-159.272 -65.205)" fill="#13193e"/>
        </g>
        <g id="Group_4169" data-name="Group 4169" transform="translate(13.372 4.338)">
          <g id="Group_4162" data-name="Group 4162" transform="translate(191.317 120.578)">
            <path id="Path_7360" data-name="Path 7360" d="M314.177,168.355l.1.566-1.121.2-.1-.566Z" transform="translate(-313.056 -168.355)" fill="#f9ecec"/>
          </g>
          <g id="Group_4163" data-name="Group 4163" transform="translate(23.621 121.175)">
            <path id="Path_7361" data-name="Path 7361" d="M349.409,168.815l.092.566-2.266.4a.283.283,0,0,1-.329-.234.287.287,0,0,1,.231-.333l.6-.107a.306.306,0,0,1,.11-.043Zm-3.739.618a.288.288,0,0,1,0,.568l-.535.087a.282.282,0,0,1-.165.094l-2.266.4a.284.284,0,0,1-.329-.234.288.288,0,0,1,.233-.333l.511-.091a.285.285,0,0,1,.192-.123l2.271-.366A.3.3,0,0,1,345.67,169.433Zm-4.543.734a.288.288,0,0,1,0,.568l-.477.078a.284.284,0,0,1-.212.168l-2.266.4a.284.284,0,0,1-.33-.233.289.289,0,0,1,.233-.333l.465-.083a.283.283,0,0,1,.227-.2l2.272-.368A.334.334,0,0,1,341.127,170.167Zm-4.543.735a.285.285,0,0,1,.236.238.29.29,0,0,1-.238.33l-.446.071a.284.284,0,0,1-.233.238l-2.266.4a.282.282,0,0,1-.329-.233.287.287,0,0,1,.231-.333l.442-.079a.29.29,0,0,1,.24-.266l2.272-.366A.253.253,0,0,1,336.584,170.9Zm-4.543.733a.288.288,0,0,1,0,.568l-.433.07a.291.291,0,0,1-.236.307l-2.266.4a.282.282,0,0,1-.329-.234.287.287,0,0,1,.233-.333l.434-.077v0a.288.288,0,0,1,.236-.33l2.272-.366A.288.288,0,0,1,332.041,171.635Zm-4.543.734a.288.288,0,0,1,0,.568l-.435.071a.178.178,0,0,1,.009.038.287.287,0,0,1-.231.333l-2.267.4a.282.282,0,0,1-.329-.233.29.29,0,0,1,.233-.334l.443-.078a.272.272,0,0,1-.019-.068.287.287,0,0,1,.236-.329l2.272-.368A.289.289,0,0,1,327.5,172.369Zm-4.542.735a.284.284,0,0,1,.235.238.288.288,0,0,1-.236.33l-.452.073a.288.288,0,0,1-.195.433l-2.266.4a.284.284,0,0,1-.329-.234.287.287,0,0,1,.231-.333l.468-.083a.293.293,0,0,1-.055-.129.288.288,0,0,1,.238-.329l2.271-.368A.3.3,0,0,1,322.956,173.1Zm-4.543.734a.287.287,0,0,1,.236.238.29.29,0,0,1-.238.33l-.49.079a.276.276,0,0,1,.086.16.29.29,0,0,1-.233.334l-2.266.4a.282.282,0,0,1-.329-.234.288.288,0,0,1,.233-.333l.514-.091a.288.288,0,0,1,.125-.516l2.271-.366A.259.259,0,0,1,318.413,173.839Zm-4.543.733a.288.288,0,0,1,0,.568l-.561.091a.288.288,0,0,1-.065.548l-2.266.4a.283.283,0,0,1-.329-.234.288.288,0,0,1,.233-.331l.609-.109a.28.28,0,0,1-.217-.233.287.287,0,0,1,.236-.33l2.271-.368A.3.3,0,0,1,313.87,174.572Zm-4.543.735a.288.288,0,0,1,0,.568l-2.272.366a.284.284,0,0,1-.325-.238.287.287,0,0,1,.236-.329l2.271-.368A.347.347,0,0,1,309.326,175.307Zm-.618.7a.284.284,0,0,1,.235.234.289.289,0,0,1-.233.333l-2.267.4a.282.282,0,0,1-.327-.233.287.287,0,0,1,.233-.333l2.266-.4A.252.252,0,0,1,308.708,176.011Zm-3.925.03a.283.283,0,0,1,.235.239.287.287,0,0,1-.236.329l-2.271.366a.286.286,0,0,1-.326-.238.29.29,0,0,1,.238-.33l2.271-.366A.259.259,0,0,1,304.783,176.041Zm-.608.769a.284.284,0,0,1,.235.234.288.288,0,0,1-.233.333l-2.266.4a.283.283,0,0,1-.329-.234.288.288,0,0,1,.233-.333l2.266-.4A.284.284,0,0,1,304.175,176.81Zm-3.935-.034a.284.284,0,0,1,.236.238.288.288,0,0,1-.238.329l-2.271.368a.287.287,0,0,1-.088-.568l2.271-.366A.26.26,0,0,1,300.24,176.776Zm-.6.833a.288.288,0,0,1,0,.568l-2.266.4a.282.282,0,0,1-.329-.234.289.289,0,0,1,.233-.333l2.267-.4A.314.314,0,0,1,299.642,177.609Zm-3.945-.1a.288.288,0,0,1,0,.568l-2.272.366a.282.282,0,0,1-.325-.238.288.288,0,0,1,.236-.329l2.272-.368A.334.334,0,0,1,295.7,177.509Zm-.586.9a.283.283,0,0,1,.235.234.289.289,0,0,1-.233.333l-2.267.4a.284.284,0,0,1-.329-.233.288.288,0,0,1,.234-.333l2.266-.4A.251.251,0,0,1,295.111,178.409Zm-3.956-.166a.288.288,0,0,1,0,.568l-2.272.366a.287.287,0,0,1-.088-.566l2.272-.368A.344.344,0,0,1,291.155,178.243Zm-.577.965a.284.284,0,0,1,.235.234.288.288,0,0,1-.233.333l-2.266.4a.285.285,0,0,1-.329-.234.289.289,0,0,1,.233-.333l2.266-.4A.253.253,0,0,1,290.578,179.208Zm-3.966-.23a.283.283,0,0,1,.235.238.287.287,0,0,1-.236.329l-2.271.368a.287.287,0,0,1-.088-.568l2.271-.366A.259.259,0,0,1,286.612,178.978Zm-.566,1.029a.284.284,0,0,1,.235.235.287.287,0,0,1-.231.333l-2.266.4a.283.283,0,0,1-.33-.234.289.289,0,0,1,.233-.333l2.266-.4A.252.252,0,0,1,286.046,180.007Zm-3.977-.3a.288.288,0,0,1,0,.568l-2.271.368a.285.285,0,0,1-.326-.238.289.289,0,0,1,.238-.33l2.271-.366A.3.3,0,0,1,282.069,179.711Zm-.555,1.1a.284.284,0,0,1,.235.234.289.289,0,0,1-.233.333l-2.266.4a.282.282,0,0,1-.329-.233.29.29,0,0,1,.231-.334l2.267-.4A.283.283,0,0,1,281.514,180.808Zm-3.988-.362a.288.288,0,0,1,0,.568l-2.271.368a.284.284,0,0,1-.326-.238.287.287,0,0,1,.238-.329l2.271-.369A.347.347,0,0,1,277.526,180.445Zm-.544,1.161a.287.287,0,0,1,0,.566l-2.266.4a.283.283,0,0,1-.329-.233.287.287,0,0,1,.233-.333l2.266-.4A.251.251,0,0,1,276.981,181.606Zm-4-.426a.285.285,0,0,1,.236.238.29.29,0,0,1-.238.33l-2.271.366a.284.284,0,0,1-.325-.238.289.289,0,0,1,.236-.33l2.272-.366A.252.252,0,0,1,272.983,181.18Zm-.534,1.225a.286.286,0,0,1,.235.234.289.289,0,0,1-.231.334l-2.266.4a.284.284,0,0,1-.33-.234.289.289,0,0,1,.233-.333l2.266-.4A.322.322,0,0,1,272.449,182.405Zm-4.009-.491a.284.284,0,0,1,.236.238.287.287,0,0,1-.236.329l-2.272.368a.284.284,0,0,1-.325-.238.288.288,0,0,1,.236-.33l2.272-.366A.253.253,0,0,1,268.439,181.914Zm-.524,1.29a.288.288,0,0,1,0,.568l-2.266.4a.282.282,0,0,1-.329-.233.289.289,0,0,1,.231-.334l2.267-.4A.314.314,0,0,1,267.916,183.2Zm-4.018-.557a.288.288,0,0,1,0,.568l-2.272.368a.282.282,0,0,1-.325-.238.287.287,0,0,1,.236-.329l2.272-.368A.3.3,0,0,1,263.9,182.647ZM263.384,184a.284.284,0,0,1,.235.234.287.287,0,0,1-.233.333l-2.266.4a.283.283,0,0,1-.329-.234.287.287,0,0,1,.233-.333l2.266-.4A.283.283,0,0,1,263.384,184Zm-4.03-.622a.284.284,0,0,1,.235.239.288.288,0,0,1-.236.329l-2.271.366a.285.285,0,0,1-.326-.238.288.288,0,0,1,.238-.329l2.271-.368A.259.259,0,0,1,259.354,183.382Zm-4.543.734a.284.284,0,0,1,.235.239.287.287,0,0,1-.236.329l-2.271.366a.286.286,0,0,1-.326-.238.29.29,0,0,1,.238-.33l2.271-.366A.259.259,0,0,1,254.811,184.116Zm4.04.687a.286.286,0,0,1,.236.234.29.29,0,0,1-.233.334l-2.266.4a.286.286,0,0,1-.33-.234.289.289,0,0,1,.233-.333l2.267-.4A.276.276,0,0,1,258.852,184.8Zm-8.584.047a.288.288,0,0,1,0,.568l-2.271.368a.283.283,0,0,1-.325-.239.288.288,0,0,1,.236-.329l2.271-.366A.3.3,0,0,1,250.268,184.85Zm4.052.754a.288.288,0,0,1,0,.568l-2.267.4a.281.281,0,0,1-.327-.234.289.289,0,0,1,.233-.333l2.266-.4A.323.323,0,0,1,254.32,185.6Zm-8.6-.019a.288.288,0,0,1,0,.568l-2.271.366a.282.282,0,0,1-.325-.238.288.288,0,0,1,.236-.329l2.272-.368A.334.334,0,0,1,245.725,185.585Zm4.062.82a.283.283,0,0,1,.235.234.288.288,0,0,1-.233.333l-2.266.4a.282.282,0,0,1-.329-.233.288.288,0,0,1,.233-.333l2.267-.4A.245.245,0,0,1,249.787,186.4Zm-8.606-.086a.285.285,0,0,1,.236.238.289.289,0,0,1-.236.33l-2.272.366a.285.285,0,0,1-.325-.238.289.289,0,0,1,.236-.33l2.272-.366A.253.253,0,0,1,241.182,186.319Zm4.073.885a.286.286,0,0,1,.236.234.288.288,0,0,1-.234.333l-2.266.4a.283.283,0,0,1-.329-.234.289.289,0,0,1,.233-.333l2.267-.4A.275.275,0,0,1,245.255,187.2Zm-8.616-.149a.283.283,0,0,1,.236.238.287.287,0,0,1-.236.329l-2.272.368a.285.285,0,0,1-.325-.238.289.289,0,0,1,.236-.33l2.272-.366A.252.252,0,0,1,236.639,187.054Zm4.085.948a.286.286,0,0,1,.235.235.289.289,0,0,1-.233.333l-2.267.4a.281.281,0,0,1-.327-.234.287.287,0,0,1,.233-.333l2.266-.4A.323.323,0,0,1,240.723,188Zm-8.626-.216a.288.288,0,0,1,0,.568l-2.271.366a.284.284,0,0,1-.326-.236.289.289,0,0,1,.238-.33l2.271-.366A.3.3,0,0,1,232.1,187.787Zm4.094,1.016a.283.283,0,0,1,.235.234.287.287,0,0,1-.233.333l-2.266.4a.282.282,0,0,1-.329-.233.29.29,0,0,1,.233-.334l2.266-.4A.283.283,0,0,1,236.191,188.8Zm-8.637-.282a.288.288,0,0,1,0,.568l-2.272.368a.286.286,0,0,1-.326-.238.29.29,0,0,1,.236-.33l2.272-.368A.344.344,0,0,1,227.554,188.521Zm4.1,1.081a.287.287,0,0,1,0,.566l-2.266.4a.283.283,0,0,1-.327-.234A.287.287,0,0,1,229.3,190l2.266-.4A.246.246,0,0,1,231.658,189.6Zm-8.647-.346a.284.284,0,0,1,.236.238.29.29,0,0,1-.236.33l-2.272.366a.285.285,0,0,1-.325-.238.289.289,0,0,1,.236-.33l2.271-.366A.26.26,0,0,1,223.011,189.256Zm4.116,1.145a.288.288,0,0,1,0,.568l-2.267.4a.285.285,0,0,1-.33-.234.289.289,0,0,1,.233-.333l2.267-.4A.324.324,0,0,1,227.126,190.4Zm-8.659-.411a.283.283,0,0,1,.236.238.288.288,0,0,1-.236.329l-2.271.368a.287.287,0,0,1-.09-.568l2.271-.366A.26.26,0,0,1,218.467,189.99Zm4.126,1.211a.283.283,0,0,1,.235.234.287.287,0,0,1-.233.333l-2.266.4a.283.283,0,0,1-.329-.233.289.289,0,0,1,.233-.334l2.266-.4A.283.283,0,0,1,222.594,191.2Zm-8.669-.477a.288.288,0,0,1,0,.568l-2.271.366a.284.284,0,0,1-.326-.238.288.288,0,0,1,.236-.329l2.271-.368A.344.344,0,0,1,213.924,190.724ZM218.062,192a.287.287,0,0,1,0,.566l-2.267.4a.281.281,0,0,1-.329-.233.287.287,0,0,1,.233-.333l2.267-.4A.251.251,0,0,1,218.062,192Zm-8.68-.542a.284.284,0,0,1,.235.239.288.288,0,0,1-.236.329l-2.271.366a.287.287,0,0,1-.326-.238.29.29,0,0,1,.236-.33l2.271-.366A.267.267,0,0,1,209.382,191.458Zm4.147,1.341a.287.287,0,0,1,0,.566l-2.266.4a.283.283,0,0,1-.329-.234.287.287,0,0,1,.231-.333l2.267-.4A.282.282,0,0,1,213.529,192.8Zm-8.69-.607a.283.283,0,0,1,.235.239.288.288,0,0,1-.235.329l-2.272.366a.286.286,0,0,1-.326-.238.289.289,0,0,1,.236-.33l2.272-.366A.259.259,0,0,1,204.839,192.192ZM209,193.6a.285.285,0,0,1,.236.234.289.289,0,0,1-.233.333l-2.267.4a.282.282,0,0,1-.329-.234.287.287,0,0,1,.231-.333l2.267-.4A.282.282,0,0,1,209,193.6Zm-8.7-.673a.288.288,0,0,1,0,.568l-2.272.368a.287.287,0,0,1-.09-.568l2.272-.366A.3.3,0,0,1,200.3,192.926Zm4.168,1.472a.284.284,0,0,1,.235.234.287.287,0,0,1-.231.333l-2.266.4a.284.284,0,0,1-.33-.233.289.289,0,0,1,.233-.333l2.266-.4A.283.283,0,0,1,204.464,194.4Zm-8.711-.738a.285.285,0,0,1,.236.238.289.289,0,0,1-.236.33l-2.272.366a.287.287,0,0,1-.088-.566l2.271-.368A.26.26,0,0,1,195.753,193.66Zm4.179,1.537a.284.284,0,0,1,.235.234.288.288,0,0,1-.233.334l-2.266.4a.284.284,0,0,1-.329-.234.288.288,0,0,1,.233-.333l2.266-.4A.284.284,0,0,1,199.932,195.2Zm-8.723-.8a.284.284,0,0,1,.236.238.289.289,0,0,1-.236.33l-2.272.368a.284.284,0,0,1-.325-.238.289.289,0,0,1,.236-.33l2.271-.368A.26.26,0,0,1,191.21,194.394Zm4.19,1.6a.288.288,0,0,1,0,.568l-2.266.4a.284.284,0,0,1-.329-.234.288.288,0,0,1,.233-.333l2.266-.4A.322.322,0,0,1,195.4,196Zm-8.733-.869a.288.288,0,0,1,0,.568l-2.271.368a.285.285,0,0,1-.326-.238.288.288,0,0,1,.238-.33l2.271-.366A.288.288,0,0,1,186.667,195.128Zm4.2,1.669a.285.285,0,0,1,.236.234.289.289,0,0,1-.233.333l-2.266.4a.282.282,0,0,1-.329-.233.287.287,0,0,1,.231-.333l2.267-.4A.274.274,0,0,1,190.867,196.8Zm-6.562-.64a.25.25,0,0,1,.073.023l2.092.956a.288.288,0,0,1,.14.381.282.282,0,0,1-.377.143l-2.09-.957a.288.288,0,0,1,.162-.546Z" transform="translate(-183.975 -168.815)" fill="#f9ecec"/>
          </g>
          <g id="Group_4164" data-name="Group 4164" transform="translate(20.072 145.139)">
            <path id="Path_7362" data-name="Path 7362" d="M181.244,187.261l2.686,3.452-2.231-1.02Z" transform="translate(-181.244 -187.261)" fill="#f9ecec"/>
          </g>
          <g id="Group_4165" data-name="Group 4165" transform="translate(0 33.45)">
            <path id="Path_7363" data-name="Path 7363" d="M167.639,101.351a.283.283,0,0,1,.235.235l.377,2.262a.287.287,0,0,1-.233.331.279.279,0,0,1-.329-.235l-.377-2.261a.287.287,0,0,1,.234-.331A.245.245,0,0,1,167.639,101.351Zm-.6-.057a.283.283,0,0,1,.057.014.289.289,0,0,1,.164.372l-.818,2.144a.285.285,0,1,1-.533-.205l.82-2.144A.286.286,0,0,1,167.04,101.294Zm1.352,4.58a.286.286,0,0,1,.235.235l.377,2.263a.287.287,0,0,1-.234.331.279.279,0,0,1-.327-.235l-.377-2.262a.288.288,0,0,1,.234-.331A.315.315,0,0,1,168.393,105.873Zm-2.268-.23a.284.284,0,0,1,.234.229l.424,2.253a.286.286,0,1,1-.561.109l-.422-2.253a.289.289,0,0,1,.227-.336A.28.28,0,0,1,166.124,105.643Zm3.021,4.754a.284.284,0,0,1,.235.235l.377,2.262a.287.287,0,0,1-.233.331.282.282,0,0,1-.329-.234l-.377-2.262a.288.288,0,0,1,.234-.331A.275.275,0,0,1,169.145,110.4Zm-2.176-.247a.284.284,0,0,1,.234.229l.425,2.254a.286.286,0,1,1-.561.109l-.424-2.254a.29.29,0,0,1,.227-.336A.281.281,0,0,1,166.969,110.15Zm2.93,4.77a.286.286,0,0,1,.235.235l.377,2.262a.287.287,0,0,1-.233.331.28.28,0,0,1-.329-.234l-.377-2.262a.288.288,0,0,1,.234-.331A.314.314,0,0,1,169.9,114.921Zm-2.084-.265a.287.287,0,0,1,.235.23l.422,2.253a.285.285,0,1,1-.56.109l-.424-2.253a.29.29,0,0,1,.227-.338A.315.315,0,0,1,167.814,114.656Zm2.837,4.789a.283.283,0,0,1,.235.235l.377,2.262a.286.286,0,0,1-.234.331.279.279,0,0,1-.327-.234l-.377-2.262a.289.289,0,0,1,.234-.333A.275.275,0,0,1,170.652,119.444Zm-1.993-.282a.287.287,0,0,1,.235.23l.424,2.253a.286.286,0,1,1-.561.109l-.422-2.253a.289.289,0,0,1,.226-.338A.316.316,0,0,1,168.659,119.162Zm2.745,4.806a.281.281,0,0,1,.235.235l.377,2.261a.286.286,0,0,1-.233.331.281.281,0,0,1-.329-.234l-.377-2.261a.289.289,0,0,1,.234-.333A.274.274,0,0,1,171.4,123.968Zm-1.9-.3a.284.284,0,0,1,.235.229l.422,2.254a.285.285,0,1,1-.56.109l-.422-2.254a.287.287,0,0,1,.226-.336A.281.281,0,0,1,169.5,123.669Zm.844,4.507a.284.284,0,0,1,.235.229l.422,2.253a.285.285,0,1,1-.56.11l-.422-2.254a.288.288,0,0,1,.226-.336A.281.281,0,0,1,170.349,128.176Zm1.808.314a.283.283,0,0,1,.235.235l.377,2.263a.287.287,0,0,1-.234.331.28.28,0,0,1-.327-.235l-.377-2.262a.288.288,0,0,1,.234-.331A.245.245,0,0,1,172.157,128.49Zm-.963,4.191a.286.286,0,0,1,.235.23l.422,2.254a.285.285,0,1,1-.56.109l-.422-2.254a.289.289,0,0,1,.227-.338A.306.306,0,0,1,171.195,132.681Zm1.716.333a.284.284,0,0,1,.235.235l.377,2.262a.287.287,0,0,1-.234.331.28.28,0,0,1-.327-.234l-.377-2.262a.288.288,0,0,1,.234-.331A.275.275,0,0,1,172.911,133.014Zm-.872,4.174a.286.286,0,0,1,.235.23l.422,2.253a.285.285,0,1,1-.56.109l-.422-2.253a.29.29,0,0,1,.227-.338A.307.307,0,0,1,172.039,137.188Zm1.624.349a.284.284,0,0,1,.235.235l.377,2.262a.287.287,0,0,1-.234.331.282.282,0,0,1-.327-.234l-.377-2.262a.288.288,0,0,1,.234-.331A.244.244,0,0,1,173.663,137.538Zm-.779,4.157a.284.284,0,0,1,.235.229l.423,2.254a.285.285,0,1,1-.56.109l-.424-2.254a.29.29,0,0,1,.227-.336A.272.272,0,0,1,172.884,141.695Zm1.533.365a.286.286,0,0,1,.235.236l.377,2.262a.287.287,0,0,1-.234.331.277.277,0,0,1-.327-.234l-.377-2.263a.288.288,0,0,1,.234-.331A.315.315,0,0,1,174.417,142.06Zm-.687,4.142a.284.284,0,0,1,.235.229l.422,2.253a.285.285,0,1,1-.56.11l-.422-2.254a.289.289,0,0,1,.227-.336A.307.307,0,0,1,173.729,146.2Zm1.441.383a.284.284,0,0,1,.235.235l.375,2.261a.286.286,0,0,1-.234.331.282.282,0,0,1-.327-.234l-.375-2.262a.289.289,0,0,1,.234-.331A.275.275,0,0,1,175.17,146.585Zm-.6,4.124a.286.286,0,0,1,.235.23l.424,2.253a.286.286,0,1,1-.561.109l-.422-2.253a.29.29,0,0,1,.227-.338A.307.307,0,0,1,174.574,150.708Zm1.349.4a.283.283,0,0,1,.235.235l.377,2.261a.288.288,0,0,1-.234.333.285.285,0,0,1-.327-.235l-.377-2.262a.289.289,0,0,1,.234-.331A.274.274,0,0,1,175.922,151.109Zm-.5,4.105a.289.289,0,0,1,.235.23l.422,2.253a.286.286,0,1,1-.561.109l-.422-2.253a.29.29,0,0,1,.227-.338A.315.315,0,0,1,175.421,155.214Zm1.255.417a.284.284,0,0,1,.235.235l.377,2.263a.289.289,0,0,1-.234.331.279.279,0,0,1-.327-.235l-.377-2.262a.287.287,0,0,1,.234-.331A.246.246,0,0,1,176.676,155.631Zm-.411,4.09a.286.286,0,0,1,.234.23l.424,2.253a.285.285,0,1,1-.56.109l-.424-2.253a.29.29,0,0,1,.227-.338A.36.36,0,0,1,176.265,159.721Zm1.164.434a.286.286,0,0,1,.235.235l.375,2.262a.287.287,0,0,1-.234.331.278.278,0,0,1-.327-.235l-.375-2.261a.287.287,0,0,1,.234-.331A.275.275,0,0,1,177.429,160.155Zm-.318,4.073a.286.286,0,0,1,.235.229l.422,2.254a.285.285,0,1,1-.56.109l-.422-2.253a.288.288,0,0,1,.226-.338A.282.282,0,0,1,177.111,164.227Zm1.07.449a.286.286,0,0,1,.235.235l.377,2.263a.287.287,0,0,1-.234.331.278.278,0,0,1-.327-.234l-.377-2.263a.288.288,0,0,1,.234-.331A.315.315,0,0,1,178.182,164.677Zm-.226,4.057a.286.286,0,0,1,.235.23l.422,2.251a.285.285,0,1,1-.56.11l-.422-2.253a.288.288,0,0,1,.226-.338A.316.316,0,0,1,177.956,168.734Zm.98.466a.286.286,0,0,1,.235.235l.377,2.262a.287.287,0,0,1-.234.331.28.28,0,0,1-.327-.234l-.377-2.262a.288.288,0,0,1,.234-.331A.314.314,0,0,1,178.935,169.2Zm-.135,4.039a.286.286,0,0,1,.235.23l.424,2.254a.285.285,0,1,1-.56.109l-.424-2.254a.29.29,0,0,1,.226-.338A.316.316,0,0,1,178.8,173.24Zm.889.486a.284.284,0,0,1,.235.235l.375,2.261a.287.287,0,0,1-.234.331.28.28,0,0,1-.327-.234l-.375-2.262a.287.287,0,0,1,.234-.331A.274.274,0,0,1,179.689,173.726Zm-.043,4.021a.286.286,0,0,1,.235.23l.422,2.253a.29.29,0,0,1-.227.338.287.287,0,0,1-.333-.229l-.422-2.253a.289.289,0,0,1,.226-.338A.36.36,0,0,1,179.646,177.746Zm.8.5a.283.283,0,0,1,.235.235l.377,2.262a.287.287,0,0,1-.234.331.279.279,0,0,1-.327-.234l-.377-2.262a.289.289,0,0,1,.234-.333A.274.274,0,0,1,180.441,178.248Zm.049,4.005a.284.284,0,0,1,.235.229l.359,1.916-.216-1.294a.286.286,0,0,1,.234-.331.282.282,0,0,1,.327.234l.377,2.262a.287.287,0,0,1-.234.331.282.282,0,0,1-.327-.235l-.092-.559a.293.293,0,0,1-.231.268.289.289,0,0,1-.334-.229l-.422-2.254a.289.289,0,0,1,.227-.336A.273.273,0,0,1,180.49,182.253Zm.846,4.507a.286.286,0,0,1,.235.229l.083.45a.284.284,0,0,1,.2-.142.28.28,0,0,1,.327.234l.375,2.262a.287.287,0,0,1-.234.331.281.281,0,0,1-.327-.235l-.066-.405a.293.293,0,0,1-.164.1.288.288,0,0,1-.334-.227l-.422-2.253a.29.29,0,0,1,.227-.338A.307.307,0,0,1,181.336,186.76Zm.844,4.507a.286.286,0,0,1,.235.23l.07.374a.286.286,0,0,1,.122-.052.279.279,0,0,1,.327.234l.377,2.262a.287.287,0,0,1-.234.331.282.282,0,0,1-.327-.234l-.06-.356a.324.324,0,0,1-.079.03.288.288,0,0,1-.334-.227l-.422-2.253a.29.29,0,0,1,.227-.338A.307.307,0,0,1,182.18,191.267Zm.846,4.505a.286.286,0,0,1,.235.23l.065.348a.235.235,0,0,1,.035-.008.278.278,0,0,1,.327.234l.377,2.262a.287.287,0,0,1-.234.331.283.283,0,0,1-.327-.234l-.057-.343a.281.281,0,0,1-.323-.229l-.422-2.253a.29.29,0,0,1,.227-.338A.35.35,0,0,1,183.026,195.772Zm.846,4.508a.284.284,0,0,1,.234.229l.065.352a.274.274,0,0,1,.27.239l.377,2.262a.287.287,0,0,1-.234.331.28.28,0,0,1-.327-.234l-.06-.36a.288.288,0,0,1-.229-.229l-.422-2.253a.289.289,0,0,1,.227-.336A.28.28,0,0,1,183.872,200.28Zm.844,4.505a.286.286,0,0,1,.235.229l.073.392a.284.284,0,0,1,.17.217l.377,2.261a.289.289,0,0,1-.234.333.285.285,0,0,1-.327-.235l-.07-.417a.293.293,0,0,1-.125-.187l-.425-2.254a.29.29,0,0,1,.227-.336A.28.28,0,0,1,184.716,204.786Zm.846,4.507a.287.287,0,0,1,.235.23l.091.492a.282.282,0,0,1,.06.133l.271,1.633-.56.1-.422-2.253a.288.288,0,0,1,.226-.338A.316.316,0,0,1,185.562,209.293Z" transform="translate(-165.793 -101.29)" fill="#f9ecec"/>
          </g>
          <g id="Group_4166" data-name="Group 4166" transform="translate(1.367 29.853)">
            <path id="Path_7364" data-name="Path 7364" d="M170.047,98.522l-3.2,2.655.858-2.243Z" transform="translate(-166.846 -98.522)" fill="#f9ecec"/>
          </g>
          <g id="Group_4167" data-name="Group 4167" transform="translate(5.76 0.592)">
            <path id="Path_7365" data-name="Path 7365" d="M334.923,76a.286.286,0,0,1,.235.234.323.323,0,0,1,0,.094.29.29,0,0,1-.234.24l-2.254.4a.282.282,0,0,1-.329-.233.325.325,0,0,1,0-.094.288.288,0,0,1,.234-.239l2.255-.4A.314.314,0,0,1,334.923,76Zm-4.509.8a.284.284,0,0,1,.235.234.321.321,0,0,1,0,.094.288.288,0,0,1-.234.239l-2.255.4a.281.281,0,0,1-.327-.234.275.275,0,0,1,0-.092.29.29,0,0,1,.234-.24l2.254-.4A.282.282,0,0,1,330.414,76.8Zm-4.509.8a.209.209,0,0,1,.047.013.273.273,0,0,1,.108.066h0a.288.288,0,0,1-.029.431h0a.288.288,0,0,1-.123.055l-2.255.4c-.031.005-.061,0-.094,0a.284.284,0,0,1-.235-.234.288.288,0,0,1,.233-.333l2.255-.4A.253.253,0,0,1,325.9,77.593Zm-4.511.8h0a.284.284,0,0,1,.236.234.289.289,0,0,1-.234.333l-2.254.4a.322.322,0,0,1-.094,0h0a.288.288,0,0,1,0-.568l2.254-.4A.283.283,0,0,1,321.394,78.389Zm-4.509.8h0a.288.288,0,0,1,0,.566l-2.254.4a.252.252,0,0,1-.094,0h0a.287.287,0,0,1,0-.566l2.254-.4A.252.252,0,0,1,316.885,79.185Zm-4.511.8h0a.283.283,0,0,1,.235.234.288.288,0,0,1-.233.333l-2.254.4a.282.282,0,0,1-.094,0h0a.283.283,0,0,1-.236-.234.289.289,0,0,1,.233-.333l2.255-.4A.274.274,0,0,1,312.374,79.981Zm-4.509.8h0a.284.284,0,0,1,.235.234.29.29,0,0,1-.233.334l-2.255.4a.245.245,0,0,1-.092,0h0a.286.286,0,0,1-.235-.234.288.288,0,0,1,.233-.333l2.255-.4A.245.245,0,0,1,307.865,80.776Zm-4.509.8h0a.283.283,0,0,1,.236.234.289.289,0,0,1-.233.333l-2.255.4a.314.314,0,0,1-.092,0h0a.288.288,0,0,1,0-.568l2.255-.4A.275.275,0,0,1,303.355,81.572Zm-4.509.8h0a.287.287,0,0,1,0,.565l-2.254.4a.282.282,0,0,1-.329-.233.287.287,0,0,1,.233-.334l2.254-.4A.252.252,0,0,1,298.846,82.368Zm-4.509.8a.284.284,0,0,1,.235.234.287.287,0,0,1-.233.333l-2.254.4a.286.286,0,0,1-.33-.234.293.293,0,0,1,.049-.217.284.284,0,0,1,.184-.117l2.254-.4a.275.275,0,0,1,.092,0Zm-4.509.8a.286.286,0,0,1,.235.234.289.289,0,0,1-.233.334l-2.255.4a.282.282,0,0,1-.329-.233.29.29,0,0,1,.051-.218.279.279,0,0,1,.183-.116l2.253-.4a.252.252,0,0,1,.094,0h0Zm-4.509.8a.284.284,0,0,1,.235.234.289.289,0,0,1-.233.333l-2.255.4a.286.286,0,0,1-.278-.451.273.273,0,0,1,.183-.117l2.253-.4a.282.282,0,0,1,.094,0h0Zm-4.511.8a.284.284,0,0,1,.236.234.29.29,0,0,1-.233.334l-2.255.4a.283.283,0,0,1-.329-.233.3.3,0,0,1,.048-.217.29.29,0,0,1,.184-.117l2.254-.4a.252.252,0,0,1,.094,0Zm-4.509.8h0a.283.283,0,0,1,.235.234.287.287,0,0,1-.231.333l-2.255.4a.324.324,0,0,1-.094,0h0a.288.288,0,0,1,0-.568l2.255-.4A.283.283,0,0,1,276.3,86.347Zm-4.509.8h0a.284.284,0,0,1,.235.234.289.289,0,0,1-.231.334l-2.255.4a.252.252,0,0,1-.094,0h0a.286.286,0,0,1-.235-.234.29.29,0,0,1,.233-.334l2.255-.4A.282.282,0,0,1,271.788,87.142Zm-4.511.8h0a.283.283,0,0,1,.235.234.287.287,0,0,1-.233.333l-2.254.4a.282.282,0,0,1-.094,0h0a.284.284,0,0,1-.235-.234.288.288,0,0,1,.233-.333l2.254-.4A.282.282,0,0,1,267.278,87.938Zm-4.509.8h0a.286.286,0,0,1,.235.234.29.29,0,0,1-.233.334l-2.255.4a.245.245,0,0,1-.092,0h0a.287.287,0,0,1,0-.566l2.254-.4A.252.252,0,0,1,262.768,88.733Zm-4.509.8h0a.284.284,0,0,1,.236.234.289.289,0,0,1-.233.333l-2.255.4a.323.323,0,0,1-.094,0h0a.283.283,0,0,1-.235-.234.287.287,0,0,1,.231-.333l2.255-.4A.324.324,0,0,1,258.259,89.528Zm-4.509.8a.284.284,0,0,1,.235.235.288.288,0,0,1-.231.333l-2.255.4a.252.252,0,0,1-.094,0h0a.287.287,0,0,1-.235-.234.27.27,0,0,1,.01-.134v0h0a.286.286,0,0,1,.108-.147h0a.319.319,0,0,1,.114-.048l2.255-.4a.252.252,0,0,1,.094,0Zm-4.511.8a.288.288,0,0,1,0,.566l-2.255.4a.282.282,0,0,1-.329-.234.274.274,0,0,1,0-.092.285.285,0,0,1,.233-.24l2.255-.4A.275.275,0,0,1,249.239,91.121Zm-4.509.8a.284.284,0,0,1,.235.234.252.252,0,0,1,0,.094.29.29,0,0,1-.233.24l-2.255.4a.282.282,0,0,1-.329-.233.325.325,0,0,1,0-.094.287.287,0,0,1,.234-.239l2.254-.4A.252.252,0,0,1,244.73,91.916Zm-4.509.8a.283.283,0,0,1,.235.234.246.246,0,0,1,0,.092.29.29,0,0,1-.233.24l-2.255.4a.288.288,0,0,1-.33-.327.29.29,0,0,1,.233-.239l2.255-.4A.283.283,0,0,1,240.22,92.713Zm-4.509.8a.284.284,0,0,1,.235.234.322.322,0,0,1,0,.094.29.29,0,0,1-.234.24l-2.254.4a.283.283,0,0,1-.329-.233.254.254,0,0,1,0-.094.285.285,0,0,1,.233-.239l2.255-.4A.252.252,0,0,1,235.711,93.508Zm-4.509.8a.288.288,0,0,1,0,.566l-2.255.4a.286.286,0,0,1-.329-.234.281.281,0,0,1,0-.094.287.287,0,0,1,.233-.239l2.255-.4A.283.283,0,0,1,231.2,94.3Zm-4.511.8a.288.288,0,0,1,0,.566l-2.255.4a.284.284,0,0,1-.329-.326.287.287,0,0,1,.233-.24l2.254-.4A.252.252,0,0,1,226.691,95.1Zm-4.509.8a.285.285,0,0,1,.236.234.282.282,0,0,1,0,.094.288.288,0,0,1-.233.239l-2.255.4a.283.283,0,0,1-.329-.234.325.325,0,0,1,0-.094.29.29,0,0,1,.234-.239l2.254-.4A.282.282,0,0,1,222.181,95.9Zm-4.509.8a.289.289,0,0,1,.236.327.29.29,0,0,1-.233.24l-2.255.4a.282.282,0,0,1-.329-.234.276.276,0,0,1,0-.092.287.287,0,0,1,.233-.239l2.255-.4A.252.252,0,0,1,217.672,96.691Zm-4.509.8a.286.286,0,0,1,.235.235.323.323,0,0,1,0,.094.29.29,0,0,1-.234.239l-2.254.4a.282.282,0,0,1-.329-.234.253.253,0,0,1,0-.094.288.288,0,0,1,.233-.239l2.255-.4A.324.324,0,0,1,213.163,97.486Zm-4.509.8a.286.286,0,0,1,.235.234.291.291,0,0,1-.233.333l-2.255.4a.284.284,0,0,1-.329-.326.287.287,0,0,1,.233-.24l2.255-.4A.252.252,0,0,1,208.653,98.282Zm-4.511.8a.288.288,0,0,1,0,.566l-2.255.4a.283.283,0,0,1-.329-.234.315.315,0,0,1,0-.092.288.288,0,0,1,.234-.24l2.254-.4A.282.282,0,0,1,204.143,99.079Zm-4.509.8a.284.284,0,0,1,.235.234.252.252,0,0,1,0,.094.286.286,0,0,1-.233.239l-2.255.4a.287.287,0,0,1-.33-.326.287.287,0,0,1,.233-.239l2.255-.4A.253.253,0,0,1,199.633,99.874Zm-4.509.8a.283.283,0,0,1,.235.234.324.324,0,0,1,0,.094.29.29,0,0,1-.234.24l-2.254.4a.316.316,0,0,1-.127-.008.282.282,0,0,1-.2-.226.238.238,0,0,1,0-.074h0v0h0a.288.288,0,0,1,.234-.251l2.255-.4A.283.283,0,0,1,195.124,100.67Zm-4.509.8a.286.286,0,0,1,.235.234.291.291,0,0,1,0,.095.285.285,0,0,1-.233.239l-2.254.4a.282.282,0,0,1-.329-.233.322.322,0,0,1,0-.07h0a.3.3,0,0,1,.073-.161h.012a.288.288,0,0,1,.151-.079l2.255-.4A.252.252,0,0,1,190.615,101.465Zm-4.511.8a.287.287,0,0,1,.236.235.283.283,0,0,1,0,.094.287.287,0,0,1-.233.24l-2.255.4a.265.265,0,0,1-.071,0h0a.247.247,0,0,1-.252-.222h0v-.009a.289.289,0,0,1,.233-.333l2.255-.4A.314.314,0,0,1,186.1,102.26Zm-4.509.8a.287.287,0,0,1,.236.234.291.291,0,0,1,0,.095.287.287,0,0,1-.233.239l-2.255.4-.031,0H179.3a.27.27,0,0,1-.177-.057h0a.275.275,0,0,1-.107-.177.313.313,0,0,1,0-.048h0v0h0a.289.289,0,0,1,.22-.26h.016l2.254-.4A.252.252,0,0,1,181.595,103.057Zm-4.509.8a.283.283,0,0,1,.235.234.252.252,0,0,1,0,.094.29.29,0,0,1-.234.24l-2.254.4a.327.327,0,0,1-.079,0h0a.277.277,0,0,1-.213-.14h0a.246.246,0,0,1-.032-.091.306.306,0,0,1,0-.077h0v0h0a.288.288,0,0,1,.234-.248l.023,0,2.232-.395A.282.282,0,0,1,177.085,103.853Zm-4.509.8a.284.284,0,0,1,.235.234.332.332,0,0,1,0,.095.288.288,0,0,1-.234.239l-2.254.4-.1-.565,2.255-.4A.252.252,0,0,1,172.576,104.648Z" transform="translate(-170.227 -75.999)" fill="#f9ecec"/>
          </g>
          <g id="Group_4168" data-name="Group 4168" transform="translate(172.618)">
            <path id="Path_7366" data-name="Path 7366" d="M299.784,75.543l.1.566-1.121.2-.1-.566Z" transform="translate(-298.663 -75.543)" fill="#f9ecec"/>
          </g>
        </g>
        <g id="Group_4175" data-name="Group 4175" transform="translate(104.085 170.415)">
          <g id="Group_4172" data-name="Group 4172" transform="translate(0 0)">
            <path id="Path_7367" data-name="Path 7367" d="M270.525,275.943c-8.963,4.283-22.353-7.807-29.909-27.007s-6.415-38.237,2.548-42.521,22.355,7.807,29.91,27.007S279.488,271.658,270.525,275.943Z" transform="translate(-235.618 -202.727)" fill="url(#linear-gradient-13)"/>
            <path id="Path_7368" data-name="Path 7368" d="M240.2,207.912l6.509-3.5,28.509,68.979-6.066,2.9-26.1-34.764Z" transform="translate(-234.247 -203.07)" fill="#da8928"/>
            <path id="Path_7369" data-name="Path 7369" d="M274.311,274.133c-8.963,4.285-22.355-7.807-29.91-27.006s-6.415-38.237,2.548-42.521,22.355,7.807,29.91,27.006S283.274,269.848,274.311,274.133Z" transform="translate(-234.486 -203.269)" fill="url(#linear-gradient-14)"/>
            <ellipse id="Ellipse_541" data-name="Ellipse 541" cx="14.31" cy="33.419" rx="14.31" ry="33.419" transform="matrix(0.936, -0.351, 0.351, 0.936, 1.481, 10.054)" fill="#db9424"/>
            <g id="Group_4171" data-name="Group 4171" transform="translate(1.481)">
              <ellipse id="Ellipse_542" data-name="Ellipse 542" cx="14.31" cy="33.419" rx="14.31" ry="33.419" transform="matrix(0.936, -0.351, 0.351, 0.936, 0, 10.054)" fill="url(#linear-gradient)"/>
              <g id="Group_4170" data-name="Group 4170" clip-path="url(#clip-path-2)">
                <path id="Path_7370" data-name="Path 7370" d="M270.711,270.841c-7.153,3.418-18.427-7.725-25.182-24.89s-6.433-33.852.718-37.27,18.427,7.725,25.182,24.889S277.863,267.421,270.711,270.841Z" transform="translate(-235.589 -201.976)" fill="url(#linear-gradient-16)"/>
              </g>
            </g>
          </g>
          <g id="Group_4174" data-name="Group 4174" transform="translate(17.247 12.48)">
            <g id="Group_4173" data-name="Group 4173">
              <path id="Path_7371" data-name="Path 7371" d="M261.152,224.826c-2-3.451-4.425-6.365-7.545-5.047-2.724,1.141-2.824,5.039-1.712,8.125,1.2,3.323,3,4.726,6.385,5.424,5.034.863,8.928,2.506,11.03,8.456,2.351,6.527.533,12.152-3.288,13.848a12.446,12.446,0,0,1-6.723.715c-.672-1.285-2.552-4.993-3.887-7.773l.946-.97c2.475,4.2,5.68,7.527,9.068,6.023,2.428-1.147,3.34-4.3,1.821-8.517-1.217-3.382-3.3-5.556-7-6.322-5.378-1.121-8.473-2.982-10.418-8.382-1.882-5.221-1.013-10.7,3.492-12.7a15.383,15.383,0,0,1,5.286-1.108c1.007,2.1,2.042,4.394,3.441,7.351Zm-9.588-11.3,1.225-.544,14.883,48.04-1.3.577Z" transform="translate(-248.894 -212.984)" fill="#d37c1e"/>
            </g>
          </g>
        </g>
        <path id="Path_7372" data-name="Path 7372" d="M206.37,237.041a153.679,153.679,0,0,1,4.153-18.082,189.143,189.143,0,0,1,23.016-49.448c9.581-14.764,20.942-28.2,35.033-38.846,13.062-9.871,27.908-17.064,43.385-22.278a288.028,288.028,0,0,1,37.929-9.6L346.7,80.265A9.493,9.493,0,0,0,335.732,72.5L167.519,102.464a9.635,9.635,0,0,0-7.73,11.1L180.142,231.99a9.491,9.491,0,0,0,10.971,7.769Z" transform="translate(-154.259 -72.16)" fill="#2b0c13" opacity="0.39"/>
        <path id="Path_7373" data-name="Path 7373" d="M155.7,143.734l2.467-4.327,9.731-3.159.854,3.476Z" transform="translate(-155.44 -53.045)" fill="#340e0e"/>
        <path id="Path_7374" data-name="Path 7374" d="M158.646,142.086l43.55-7.759a8.919,8.919,0,0,1,10.309,7.3l1.62,9.429a9.052,9.052,0,0,1-7.261,10.43l-43.552,7.759a3.8,3.8,0,0,1-4.386-3.1l-3.371-19.615A3.852,3.852,0,0,1,158.646,142.086Z" transform="translate(-155.5 -53.66)" fill="url(#linear-gradient-12)"/>
        <g id="Group_4176" data-name="Group 4176" transform="translate(4.553 83.304)">
          <path id="Path_7375" data-name="Path 7375" d="M204.216,136.36l.009,0a3.965,3.965,0,0,1,1.925.92c.075.068.144.134.21.2a.291.291,0,0,1-.008.407.283.283,0,0,1-.4-.007c-.057-.06-.117-.117-.179-.175a3.393,3.393,0,0,0-1.655-.783.288.288,0,0,1,.1-.566Zm-2.268-.031a.288.288,0,0,1-.013.57c-.581.068-1.159.179-1.647.279l-.57.117a.28.28,0,0,1-.335-.223.287.287,0,0,1,.221-.339l.573-.118c.5-.1,1.094-.216,1.694-.287A.31.31,0,0,1,201.947,136.329Zm-4.476.856a.288.288,0,0,1,.01.565l-2.235.448a.283.283,0,0,1-.334-.226.288.288,0,0,1,.225-.338l2.235-.447A.281.281,0,0,1,197.472,137.185Zm9.84,2.2a.286.286,0,0,1,.222.184c.087.244.168.49.242.731q.23.737.44,1.481a.29.29,0,0,1-.195.356.283.283,0,0,1-.352-.2q-.209-.737-.435-1.465c-.074-.235-.149-.473-.235-.709a.291.291,0,0,1,.17-.369A.3.3,0,0,1,207.312,139.382ZM193,138.075a.288.288,0,0,1,.008.566c-.746.147-1.49.292-2.238.435a.287.287,0,0,1-.1-.564l2.236-.434A.283.283,0,0,1,193,138.075Zm-4.476.865a.284.284,0,0,1,.235.23.287.287,0,0,1-.227.335q-1.12.212-2.241.422a.28.28,0,0,1-.33-.23.287.287,0,0,1,.229-.335q1.119-.208,2.237-.421A.273.273,0,0,1,188.528,138.94Zm-4.478.837a.281.281,0,0,1,.234.231.287.287,0,0,1-.229.334q-1.12.207-2.242.411a.283.283,0,0,1-.33-.233.289.289,0,0,1,.231-.334q1.121-.2,2.24-.408A.266.266,0,0,1,184.05,139.777Zm24.516,4.017a.288.288,0,0,1,.231.216q.271,1.124.495,2.255a.289.289,0,0,1-.223.339.285.285,0,0,1-.335-.225q-.222-1.121-.488-2.232a.288.288,0,0,1,.209-.348A.3.3,0,0,1,208.567,143.794Zm-29-3.205a.284.284,0,0,1,.236.234.289.289,0,0,1-.233.333l-2.244.395a.283.283,0,0,1-.329-.233.287.287,0,0,1,.233-.333l2.244-.4A.275.275,0,0,1,179.565,140.589Zm-4.487.786a.283.283,0,0,1,.235.235.286.286,0,0,1-.233.331q-1.124.193-2.248.382a.288.288,0,0,1-.092-.568q1.124-.187,2.245-.381A.274.274,0,0,1,175.078,141.375Zm-4.492.759a.288.288,0,0,1,0,.568l-2.248.37a.287.287,0,0,1-.09-.568l2.248-.369A.306.306,0,0,1,170.586,142.133Zm38.871,6.166a.287.287,0,0,1,.238.24,18.4,18.4,0,0,1,.205,2.323.288.288,0,0,1-.279.294.284.284,0,0,1-.29-.282,17.714,17.714,0,0,0-.2-2.248.29.29,0,0,1,.239-.329A.322.322,0,0,1,209.456,148.3Zm-43.368-5.436a.288.288,0,0,1,0,.568q-1.124.181-2.251.357a.288.288,0,0,1-.084-.569q1.126-.173,2.249-.355A.288.288,0,0,1,166.088,142.863Zm-4.5.707a.288.288,0,0,1,.238.24.291.291,0,0,1-.24.329l-2.253.343a.288.288,0,0,1-.083-.569l2.251-.343A.327.327,0,0,1,161.587,143.57Zm47.88,9.3.012,0a.289.289,0,0,1,.223.339,8.035,8.035,0,0,1-.8,2.237.291.291,0,0,1-.387.113.287.287,0,0,1-.112-.39,7.433,7.433,0,0,0,.741-2.073A.287.287,0,0,1,209.467,152.871Zm-2.216,3.917a.281.281,0,0,1,.177.1.288.288,0,0,1-.045.4,7.22,7.22,0,0,1-2.07,1.142.28.28,0,0,1-.364-.169.288.288,0,0,1,.169-.369,6.7,6.7,0,0,0,1.91-1.052A.289.289,0,0,1,207.25,156.788Zm-4.188,1.7a.288.288,0,0,1,.012.566c-.369.074-.738.143-1.106.21l-1.139.208a.288.288,0,0,1-.331-.233.291.291,0,0,1,.231-.335l1.141-.207c.361-.065.729-.133,1.093-.208A.289.289,0,0,1,203.062,158.486Zm-4.481.825a.287.287,0,0,1,.236.233.291.291,0,0,1-.231.334l-2.242.408a.283.283,0,0,1-.33-.231.289.289,0,0,1,.231-.335l2.242-.407A.253.253,0,0,1,198.581,159.311Zm-4.482.815a.284.284,0,0,1,.235.233.289.289,0,0,1-.231.334l-2.241.408a.287.287,0,0,1-.331-.233.29.29,0,0,1,.231-.334l2.242-.408A.291.291,0,0,1,194.1,160.125Zm-4.485.815a.286.286,0,0,1,.236.233.291.291,0,0,1-.231.334l-2.242.408a.283.283,0,0,1-.33-.233.288.288,0,0,1,.231-.334l2.242-.408A.283.283,0,0,1,189.614,160.94Zm-4.482.815a.288.288,0,0,1,0,.568l-2.242.408a.285.285,0,0,1-.33-.233.29.29,0,0,1,.231-.334l2.242-.408A.332.332,0,0,1,185.132,161.754Zm-4.483.815a.288.288,0,0,1,.005.568l-2.242.408a.287.287,0,0,1-.1-.566l2.241-.408A.333.333,0,0,1,180.649,162.569Zm-4.483.815a.286.286,0,0,1,.235.234.289.289,0,0,1-.231.334l-2.241.408a.286.286,0,0,1-.331-.233.291.291,0,0,1,.231-.335l2.242-.407A.26.26,0,0,1,176.166,163.384Zm-4.483.815a.287.287,0,0,1,.236.234.291.291,0,0,1-.231.334l-2.242.407a.284.284,0,0,1-.33-.231.289.289,0,0,1,.231-.335l2.242-.407A.252.252,0,0,1,171.682,164.2Zm-4.483.816a.284.284,0,0,1,.235.233.289.289,0,0,1-.231.334l-2.241.408a.285.285,0,0,1-.331-.233.29.29,0,0,1,.231-.334l2.242-.408A.29.29,0,0,1,167.2,165.014Zm-4.483.815a.285.285,0,0,1,.236.233.291.291,0,0,1-.231.334l-2.242.408a.283.283,0,0,1-.33-.233.288.288,0,0,1,.231-.334l2.242-.408A.282.282,0,0,1,162.715,165.829Z" transform="translate(-159.005 -136.326)" fill="#f9ecec"/>
        </g>
        <path id="Path_7376" data-name="Path 7376" d="M186.125,148.385a5.1,5.1,0,0,1,4.135-5.864,5.021,5.021,0,0,1,5.845,4.086,5.1,5.1,0,0,1-4.135,5.863A5.021,5.021,0,0,1,186.125,148.385Z" transform="translate(-146.361 -51.192)" fill="url(#linear-gradient-14)"/>
        <g id="Group_4191" data-name="Group 4191" transform="translate(60.837 130.069)">
          <g id="Group_4190" data-name="Group 4190" clip-path="url(#clip-path-3)">
            <g id="Group_4189" data-name="Group 4189" transform="translate(12.575 -11.84)">
              <g id="Group_4182" data-name="Group 4182" transform="translate(0 0)">
                <g id="Group_4179" data-name="Group 4179">
                  <ellipse id="Ellipse_544" data-name="Ellipse 544" cx="33.314" cy="17.231" rx="33.314" ry="17.231" transform="matrix(0.253, -0.967, 0.967, 0.253, 0, 64.453)" fill="url(#linear-gradient-19)"/>
                  <path id="Path_7377" data-name="Path 7377" d="M240.867,166.449l6.9,1.471-15.684,64.766-6.232-1.624L221.482,190Z" transform="translate(-209.173 -162.239)" fill="#da8928"/>
                  <path id="Path_7378" data-name="Path 7378" d="M231.1,232.108c-9.21-2.4-12.9-18.775-8.243-36.575s15.9-30.285,25.1-27.884,12.9,18.775,8.243,36.575S240.306,234.507,231.1,232.108Z" transform="translate(-209.365 -161.968)" fill="url(#linear-gradient-14)"/>
                  <ellipse id="Ellipse_545" data-name="Ellipse 545" cx="29.784" cy="13.75" rx="29.784" ry="13.75" transform="translate(9.564 63.673) rotate(-75.326)" fill="#db9424"/>
                  <g id="Group_4178" data-name="Group 4178" transform="translate(9.564 6.047)">
                    <g id="Group_4177" data-name="Group 4177" clip-path="url(#clip-path-4)">
                      <path id="Path_7379" data-name="Path 7379" d="M229.457,227.967c-7.348-1.915-9.931-16.368-5.767-32.283s13.5-27.261,20.844-25.346,9.931,16.369,5.768,32.283S236.807,229.883,229.457,227.967Z" transform="translate(-218.672 -167.186)" fill="url(#linear-gradient-21)"/>
                    </g>
                  </g>
                </g>
                <g id="Group_4181" data-name="Group 4181" transform="translate(20.571 18.223)">
                  <g id="Group_4180" data-name="Group 4180">
                    <path id="Path_7380" data-name="Path 7380" d="M246.426,190.788c.347-3.58.07-7.049-3.041-8.007-2.711-.841-4.911,1.8-5.738,4.6-.89,3.014-.272,5.061,1.946,7.571,3.393,3.609,5.486,7.076,3.858,12.449-1.749,5.922-6.207,8.724-10.062,7.61a13.34,13.34,0,0,1-5.547-3.53c.184-1.29.761-4.98,1.25-7.7l1.255-.105c-.388,4.386.259,8.6,3.677,9.592,2.489.66,4.907-.978,6.036-4.8a8.346,8.346,0,0,0-1.929-8.561c-3.516-3.995-4.878-7.134-3.43-12.031,1.4-4.737,5.049-8.007,9.594-6.695a16.413,16.413,0,0,1,4.659,2.4c-.37,2.055-.825,4.26-1.362,7.144Zm-1.206-13.553,1.237.357L231.72,219.724l-1.31-.378Z" transform="translate(-227.842 -177.235)" fill="#d37c1e"/>
                  </g>
                </g>
              </g>
              <g id="Group_4188" data-name="Group 4188" transform="translate(40.876 0.656)">
                <g id="Group_4185" data-name="Group 4185" transform="translate(0 0)">
                  <path id="Path_7381" data-name="Path 7381" d="M272.236,232.617c-9.177,2.515-20.546-9.836-25.391-27.585s-1.332-34.177,7.847-36.691,20.546,9.836,25.391,27.585S281.416,230.1,272.236,232.617Z" transform="translate(-243.114 -162.426)" fill="url(#linear-gradient-22)"/>
                  <path id="Path_7382" data-name="Path 7382" d="M252.254,169.372l6.715-2.169,18.72,63.955-6.211,1.7-24.273-33.4Z" transform="translate(-242.355 -162.669)" fill="#da8928"/>
                  <ellipse id="Ellipse_547" data-name="Ellipse 547" cx="17.231" cy="33.314" rx="17.231" ry="33.314" transform="translate(0 9.064) rotate(-15.249)" fill="url(#linear-gradient-23)"/>
                  <path id="Path_7383" data-name="Path 7383" d="M274.734,227.539c-7.323,2.006-16.773-9.232-21.1-25.1s-1.906-30.36,5.419-32.366,16.773,9.232,21.1,25.1S282.059,225.532,274.734,227.539Z" transform="translate(-241.075 -161.88)" fill="#db9424"/>
                  <g id="Group_4184" data-name="Group 4184" transform="translate(10.406 7.961)">
                    <g id="Group_4183" data-name="Group 4183" clip-path="url(#clip-path-5)">
                      <path id="Path_7384" data-name="Path 7384" d="M272.925,228.288c-7.325,2.006-16.773-9.232-21.1-25.1s-1.906-30.36,5.419-32.366,16.773,9.232,21.1,25.1S280.25,226.281,272.925,228.288Z" transform="translate(-252.023 -169.617)" fill="url(#linear-gradient-24)"/>
                    </g>
                  </g>
                </g>
                <g id="Group_4187" data-name="Group 4187" transform="translate(18.133 15.42)">
                  <g id="Group_4186" data-name="Group 4186">
                    <path id="Path_7386" data-name="Path 7386" d="M269.415,187.033c-1.485-3.276-3.456-6.144-6.63-5.421-2.77.624-3.361,4.007-2.681,6.844.733,3.057,2.29,4.524,5.464,5.593,4.742,1.434,8.285,3.395,9.555,8.863,1.438,6-1.029,10.657-4.924,11.616a13.319,13.319,0,0,1-6.569-.292c-.485-1.21-1.825-4.7-2.759-7.3l1.035-.717c1.851,4,4.517,7.329,7.972,6.478,2.485-.669,3.764-3.295,2.836-7.171a8.345,8.345,0,0,0-5.944-6.457c-5.039-1.707-7.786-3.748-8.976-8.716-1.15-4.8.382-9.458,4.976-10.588a16.365,16.365,0,0,1,5.233-.247c.7,1.966,1.411,4.1,2.385,6.87Zm-7.805-11.144,1.25-.307,8.247,43.866-1.324.326Z" transform="translate(-257.429 -175.582)" fill="#d37c1e"/>
                  </g>
                </g>
              </g>
            </g>
          </g>
        </g>
      </g>
      <g id="Group_4211" data-name="Group 4211" transform="translate(184.644 235.327)">
        <g id="Group_4198" data-name="Group 4198" transform="translate(0 0)">
          <g id="Group_4195" data-name="Group 4195">
            <path id="Path_7388" data-name="Path 7388" d="M241.887,286.778c-4.806,7.316-20.412,4.3-34.858-6.735s-22.261-25.909-17.454-33.223,20.414-4.3,34.859,6.735S246.694,279.464,241.887,286.778Z" transform="translate(-182.771 -229.892)" fill="url(#linear-gradient-25)"/>
            <path id="Path_7389" data-name="Path 7389" d="M188.73,248.419l3.311-5.608,52.928,39.023-3.253,4.95-35.522-14.32Z" transform="translate(-182.599 -229.897)" fill="#da8928"/>
            <ellipse id="Ellipse_548" data-name="Ellipse 548" cx="15.796" cy="32.939" rx="15.796" ry="32.939" transform="matrix(0.624, -0.782, 0.782, 0.624, 0, 24.692)" fill="url(#linear-gradient-26)"/>
            <path id="Path_7390" data-name="Path 7390" d="M240.766,280.79c-3.835,5.837-17.414,2.572-30.329-7.293S190.162,250.9,194,245.066s17.414-2.572,30.329,7.293S244.6,274.954,240.766,280.79Z" transform="translate(-181.328 -230.089)" fill="#db9424"/>
            <g id="Group_4194" data-name="Group 4194" transform="translate(11.653 12.081)">
              <path id="Path_7391" data-name="Path 7391" d="M240.766,280.79c-3.835,5.837-17.414,2.572-30.329-7.293S190.162,250.9,194,245.066s17.414-2.572,30.329,7.293S244.6,274.954,240.766,280.79Z" transform="translate(-192.981 -242.17)" fill="url(#linear-gradient-2)"/>
              <g id="Group_4193" data-name="Group 4193" clip-path="url(#clip-path-6)">
                <path id="Path_7392" data-name="Path 7392" d="M239.978,282.43c-3.836,5.837-17.415,2.571-30.33-7.293s-20.276-22.595-16.44-28.432,17.414-2.571,30.329,7.295S243.813,276.593,239.978,282.43Z" transform="translate(-193.217 -241.68)" fill="url(#linear-gradient-28)"/>
              </g>
            </g>
          </g>
          <g id="Group_4197" data-name="Group 4197" transform="translate(20.387 17.361)">
            <g id="Group_4196" data-name="Group 4196">
              <path id="Path_7394" data-name="Path 7394" d="M212.082,251.353c-3.078-1.693-6.236-2.783-7.99-.368-1.534,2.1.166,5.087,2.411,6.908,2.416,1.959,4.413,2.2,7.286,1.18,4.19-1.643,7.874-2.179,12.17,1.35,4.747,3.849,5.938,8.921,3.83,11.941a10.952,10.952,0,0,1-4.744,3.6c-1.091-.661-4.2-2.6-6.472-4.088l.272-1.163c3.781,2.04,7.713,3.087,9.581.409,1.31-1.972.557-4.768-2.506-7.253a7.838,7.838,0,0,0-8.16-1.576c-4.567,1.6-7.748,1.612-11.675-1.573-3.8-3.08-5.64-7.608-3.154-11.168a13.561,13.561,0,0,1,3.482-3.245c1.716,1.125,3.541,2.383,5.945,3.974ZM199.7,247.2l.676-.968,33.113,29.443-.716,1.026Z" transform="translate(-199.704 -246.234)" fill="#d37c1e"/>
            </g>
          </g>
        </g>
        <g id="Group_4204" data-name="Group 4204" transform="translate(106.491 15.959)">
          <g id="Group_4201" data-name="Group 4201" transform="translate(0 0)">
            <path id="Path_7395" data-name="Path 7395" d="M338.56,260.454c6.194,7.765-2.567,23.538-19.569,35.228s-35.806,14.869-42,7.1,2.566-23.538,19.568-35.228S332.364,252.686,338.56,260.454Z" transform="translate(-263.283 -241.849)" fill="url(#linear-gradient-29)"/>
            <path id="Path_7396" data-name="Path 7396" d="M278.8,304.306l-4.882-5.551,60.776-43.325,4.192,5.256L310.9,293.952Z" transform="translate(-263.607 -242.081)" fill="#da8928"/>
            <ellipse id="Ellipse_549" data-name="Ellipse 549" cx="37.387" cy="17.929" rx="37.387" ry="17.929" transform="matrix(0.836, -0.549, 0.549, 0.836, 0, 41.043)" fill="url(#linear-gradient-30)"/>
            <path id="Path_7397" data-name="Path 7397" d="M331.88,258.236c4.943,6.2-3.371,19.694-18.573,30.146s-31.53,13.9-36.474,7.7,3.373-19.694,18.573-30.146S326.937,252.039,331.88,258.236Z" transform="translate(-263.161 -242.162)" fill="#db9424"/>
            <g id="Group_4200" data-name="Group 4200" transform="translate(12.246 12.994)">
              <path id="Path_7398" data-name="Path 7398" d="M331.88,258.236c4.943,6.2-3.371,19.694-18.573,30.146s-31.53,13.9-36.474,7.7,3.373-19.694,18.573-30.146S326.937,252.039,331.88,258.236Z" transform="translate(-275.407 -255.156)" fill="url(#linear-gradient-3)"/>
              <g id="Group_4199" data-name="Group 4199" clip-path="url(#clip-path-7)">
                <path id="Path_7399" data-name="Path 7399" d="M333.37,259.667c4.943,6.2-3.371,19.693-18.571,30.144s-31.53,13.9-36.474,7.7,3.371-19.694,18.573-30.144S328.426,253.469,333.37,259.667Z" transform="translate(-274.962 -254.728)" fill="url(#linear-gradient-32)"/>
              </g>
            </g>
          </g>
          <g id="Group_4203" data-name="Group 4203" transform="translate(19.208 20.377)">
            <g id="Group_4202" data-name="Group 4202">
              <path id="Path_7401" data-name="Path 7401" d="M290.417,275.352c-2.911,2.722-5.2,5.745-3.217,8.489,1.727,2.4,5.547,1.616,8.3-.164,2.967-1.915,3.927-3.986,3.844-7.443-.295-5.1.429-9.264,5.751-12.652,5.829-3.762,11.72-3.258,14.234.081a12.458,12.458,0,0,1,2.211,6.391c-1.1.944-4.289,3.61-6.7,5.538l-1.159-.7c3.535-3.358,6.053-7.23,3.823-10.192-1.665-2.107-4.947-2.284-8.71.146-3.021,1.949-4.669,4.465-4.579,8.246.12,5.493-1,8.928-5.818,12.041-4.663,3.01-10.2,3.4-13.16-.539a15.363,15.363,0,0,1-2.272-4.9c1.819-1.455,3.819-2.98,6.385-5.011Zm-8.846,11.887-.806-1.07,43.449-25.33.854,1.134Z" transform="translate(-280.766 -260.839)" fill="#d37c1e"/>
            </g>
          </g>
        </g>
        <g id="Group_4210" data-name="Group 4210" transform="translate(64.164 71.955)">
          <g id="Group_4207" data-name="Group 4207" transform="translate(0 0)">
            <path id="Path_7402" data-name="Path 7402" d="M248.5,364.072c-9.933-.139-16.567-16.918-14.816-37.475s11.223-37.112,21.157-36.973S271.4,306.542,269.653,327.1,258.43,364.211,248.5,364.072Z" transform="translate(-233.4 -287.847)" fill="url(#linear-gradient-33)"/>
            <path id="Path_7403" data-name="Path 7403" d="M251.257,289.934l7.388-.251-5.07,74.466-6.722-.094-7.96-42.737Z" transform="translate(-231.757 -287.829)" fill="#da8928"/>
            <ellipse id="Ellipse_550" data-name="Ellipse 550" cx="37.387" cy="17.929" rx="37.387" ry="17.929" transform="translate(1.924 74.352) rotate(-83.912)" fill="url(#linear-gradient-34)"/>
            <path id="Path_7404" data-name="Path 7404" d="M252.444,359.59c-7.927-.112-13.084-15.1-11.517-33.481s9.26-33.191,17.187-33.079,13.084,15.1,11.518,33.48S260.37,359.7,252.444,359.59Z" transform="translate(-231.233 -286.828)" fill="#db9424"/>
            <g id="Group_4206" data-name="Group 4206" transform="translate(9.414 6.201)">
              <path id="Path_7405" data-name="Path 7405" d="M252.444,359.59c-7.927-.112-13.084-15.1-11.517-33.481s9.26-33.191,17.187-33.079,13.084,15.1,11.518,33.48S260.37,359.7,252.444,359.59Z" transform="translate(-240.646 -293.03)" fill="url(#linear-gradient-4)"/>
              <g id="Group_4205" data-name="Group 4205" clip-path="url(#clip-path-8)">
                <path id="Path_7406" data-name="Path 7406" d="M250.393,359.834c-7.926-.11-13.082-15.1-11.517-33.48s9.26-33.19,17.187-33.079,13.084,15.1,11.518,33.482S258.319,359.945,250.393,359.834Z" transform="translate(-241.26 -292.957)" fill="url(#linear-gradient-36)"/>
              </g>
            </g>
          </g>
          <g id="Group_4209" data-name="Group 4209" transform="translate(16.256 15.634)">
            <g id="Group_4208" data-name="Group 4208">
              <path id="Path_7408" data-name="Path 7408" d="M261.613,314.67c-.256-3.977-1.139-7.666-4.521-7.872-2.948-.187-4.768,3.262-5.141,6.52-.4,3.509.589,5.566,3.314,7.695,4.129,3.008,6.888,6.209,6.131,12.473-.79,6.892-4.917,11.125-9.093,10.949a12.459,12.459,0,0,1-6.342-2.344c-.031-1.45-.07-5.607-.032-8.69l1.278-.449c.353,4.861,1.749,9.266,5.453,9.42,2.685.051,4.9-2.374,5.414-6.823.409-3.571-.49-6.443-3.469-8.772-4.321-3.392-6.27-6.433-5.616-12.135.633-5.514,3.843-10.039,8.767-9.831a15.336,15.336,0,0,1,5.229,1.354c-.029,2.328-.12,4.842-.178,8.113Zm-3.577-14.38,1.339.057L251.389,350l-1.419-.06Z" transform="translate(-245.913 -300.29)" fill="#d37c1e"/>
            </g>
          </g>
        </g>
      </g>
      <g id="Group_4213" data-name="Group 4213" transform="translate(22.749)">
        <g id="Group_4212" data-name="Group 4212">
          <path id="Path_7409" data-name="Path 7409" d="M352.292,119.5l.864-9.793a.353.353,0,0,1,.7-.047l2.138,9.408a3.107,3.107,0,0,0,2.82,2.413l9.664.659a.352.352,0,0,1,.069.691l-9.376,2.557a3.107,3.107,0,0,0-2.272,2.652L355.71,138.56a.353.353,0,0,1-.7.027l-1.846-9.512a3.111,3.111,0,0,0-2.767-2.5l-10.706-1.226a.208.208,0,0,1-.03-.408l10.236-2.678A3.112,3.112,0,0,0,352.292,119.5Z" transform="translate(24.401 -34.484)" fill="url(#linear-gradient-37)"/>
          <path id="Path_7410" data-name="Path 7410" d="M461.2,198.824l.865-9.793a.352.352,0,0,1,.694-.047l2.138,9.408a3.111,3.111,0,0,0,2.822,2.413l9.664.657a.353.353,0,0,1,.068.692l-9.376,2.555a3.109,3.109,0,0,0-2.271,2.652l-1.186,10.519a.352.352,0,0,1-.7.027l-1.846-9.514a3.111,3.111,0,0,0-2.767-2.5L448.6,204.665a.208.208,0,0,1-.029-.408l10.235-2.679A3.107,3.107,0,0,0,461.2,198.824Z" transform="translate(56.981 -10.755)" fill="url(#linear-gradient-37)"/>
          <path id="Path_7411" data-name="Path 7411" d="M352.292,293.356l.864-9.793a.353.353,0,0,1,.7-.047l2.137,9.408a3.11,3.11,0,0,0,2.822,2.413l9.664.659a.352.352,0,0,1,.069.691l-9.376,2.555a3.111,3.111,0,0,0-2.272,2.653l-1.185,10.518a.353.353,0,0,1-.7.027l-1.846-9.512a3.111,3.111,0,0,0-2.767-2.5L339.694,299.2a.208.208,0,0,1-.03-.408l10.236-2.678A3.11,3.11,0,0,0,352.292,293.356Z" transform="translate(24.401 17.525)" fill="url(#linear-gradient-37)"/>
          <path id="Path_7412" data-name="Path 7412" d="M115.78,185.425l.864-9.793a.352.352,0,0,1,.694-.047l2.138,9.408a3.112,3.112,0,0,0,2.822,2.413l9.664.659a.352.352,0,0,1,.068.691l-9.375,2.555a3.111,3.111,0,0,0-2.272,2.653L119.2,204.482a.352.352,0,0,1-.7.027L116.655,195a3.111,3.111,0,0,0-2.767-2.5l-10.708-1.226a.208.208,0,0,1-.029-.408l10.235-2.678A3.112,3.112,0,0,0,115.78,185.425Z" transform="translate(-46.353 -14.763)" fill="url(#linear-gradient-37)"/>
          <path id="Path_7413" data-name="Path 7413" d="M111.72,85.178l.864-9.793a.352.352,0,0,1,.694-.048l2.138,9.408a3.111,3.111,0,0,0,2.822,2.414l9.664.657a.353.353,0,0,1,.068.692l-9.375,2.555a3.111,3.111,0,0,0-2.272,2.652l-1.186,10.518a.352.352,0,0,1-.7.029L112.6,94.749a3.11,3.11,0,0,0-2.767-2.5L99.12,91.019a.208.208,0,0,1-.029-.408l10.235-2.679A3.112,3.112,0,0,0,111.72,85.178Z" transform="translate(-47.567 -44.752)" fill="url(#linear-gradient-37)"/>
          <path id="Path_7414" data-name="Path 7414" d="M177.891,57.152a5.42,5.42,0,1,1-5.42-5.42A5.42,5.42,0,0,1,177.891,57.152Z" transform="translate(-27.191 -51.732)" fill="url(#linear-gradient-37)"/>
          <path id="Path_7415" data-name="Path 7415" d="M405.567,94.771a5.42,5.42,0,1,1-5.42-5.42A5.42,5.42,0,0,1,405.567,94.771Z" transform="translate(40.92 -40.478)" fill="url(#linear-gradient-37)"/>
          <path id="Path_7416" data-name="Path 7416" d="M442.262,231.872a3.257,3.257,0,1,1-3.257-3.257A3.257,3.257,0,0,1,442.262,231.872Z" transform="translate(53.191 1.183)" fill="url(#linear-gradient-44)"/>
          <path id="Path_7417" data-name="Path 7417" d="M65.91,166.939a3.257,3.257,0,1,1-3.257-3.257A3.257,3.257,0,0,1,65.91,166.939Z" transform="translate(-59.396 -18.242)" fill="url(#linear-gradient-45)"/>
          <path id="Path_7418" data-name="Path 7418" d="M158,294.277a5.42,5.42,0,1,1-5.42-5.42A5.42,5.42,0,0,1,158,294.277Z" transform="translate(-33.142 19.205)" fill="url(#linear-gradient-37)"/>
        </g>
      </g>
    </g>
  </g>
</svg>
