<svg id="Group_3783" data-name="Group 3783" xmlns="http://www.w3.org/2000/svg" xmlns:xlink="http://www.w3.org/1999/xlink" width="23" height="23" viewBox="0 0 23 23">
  <defs>
    <clipPath id="clip-path">
      <circle id="Ellipse_308" data-name="Ellipse 308" cx="11.5" cy="11.5" r="11.5" fill="#fff"/>
    </clipPath>
    <filter id="Rectangle_413" x="-235" y="-242" width="493" height="284" filterUnits="userSpaceOnUse">
      <feOffset dy="3" input="SourceAlpha"/>
      <feGaussianBlur stdDeviation="8" result="blur"/>
      <feFlood flood-opacity="0.161"/>
      <feComposite operator="in" in2="blur"/>
      <feComposite in="SourceGraphic"/>
    </filter>
  </defs>
  <g id="Mask_Group_2" data-name="Mask Group 2" opacity="0.144" clip-path="url(#clip-path)">
    <g transform="matrix(1, 0, 0, 1, 0, 0)" filter="url(#Rectangle_413)">
      <rect id="Rectangle_413-2" data-name="Rectangle 413" width="445" height="236" rx="10" transform="translate(-211 -221)" fill="#fff"/>
    </g>
  </g>
  <path id="Icon_ionic-ios-move" data-name="Icon ionic-ios-move" d="M8.617,3.5,5.985,5.958a.511.511,0,0,1-.721,0L5.256,5.95a.511.511,0,0,1,0-.722l2.9-2.84a.673.673,0,0,1,.845,0l2.819,2.84a.511.511,0,0,1,0,.722l-.007.007a.516.516,0,0,1-.721,0C10.9,5.764,8.617,3.5,8.617,3.5Z" transform="translate(2.754 5.326)" fill="#1fd3a4"/>
</svg>
