<svg xmlns="http://www.w3.org/2000/svg" width="58.244" height="80.605" viewBox="0 0 58.244 80.605">
  <path id="Icon_metro-bitcoin" data-name="Icon metro-bitcoin" d="M61.766,29.209q.872,8.816-6.346,12.5A14.547,14.547,0,0,1,63.9,46.7q2.81,3.633,2.18,10.366A18.314,18.314,0,0,1,64.5,63.117a13.366,13.366,0,0,1-3.125,4.311,15.9,15.9,0,0,1-4.7,2.834,28.63,28.63,0,0,1-5.886,1.671,58.37,58.37,0,0,1-7.048.727V85.012h-7.46V72.854q-3.875,0-5.91-.048V85.012h-7.46V72.66q-.872,0-2.616-.024t-2.664-.024H7.948l1.5-8.865h5.377a2.587,2.587,0,0,0,2.809-2.471V41.8h.775a4.926,4.926,0,0,0-.775-.048v-13.9q-.63-3.294-4.311-3.294H7.948V16.614l10.269.048q3.1,0,4.7-.048V4.407h7.46V16.372q3.972-.1,5.91-.1V4.407h7.46V16.614a43.217,43.217,0,0,1,6.782,1.09A22.028,22.028,0,0,1,56,19.884a11.1,11.1,0,0,1,4,3.778,12.361,12.361,0,0,1,1.768,5.547Zm-10.415,26.4a6.463,6.463,0,0,0-.727-3.1,7.263,7.263,0,0,0-1.792-2.228A9.2,9.2,0,0,0,46.047,48.8a23.516,23.516,0,0,0-3.173-.9,28.643,28.643,0,0,0-3.585-.436q-2.131-.145-3.342-.145t-3.124.048q-1.913.048-2.3.048V63.8q.387,0,1.792.024t2.325.024q.92,0,2.567-.073t2.834-.194q1.187-.121,2.761-.412a18.542,18.542,0,0,0,2.688-.678,16.46,16.46,0,0,0,2.3-1.017A6.713,6.713,0,0,0,49.7,60.017a6.847,6.847,0,0,0,1.187-1.938,6.421,6.421,0,0,0,.46-2.47ZM47.912,32.551a6.358,6.358,0,0,0-.606-2.834,6.751,6.751,0,0,0-1.477-2.035A7.243,7.243,0,0,0,43.5,26.326a16.65,16.65,0,0,0-2.664-.8,26.673,26.673,0,0,0-2.979-.387q-1.768-.145-2.81-.121t-2.616.048q-1.574.024-1.913.024V39.962q.242,0,1.671.024t2.252,0q.823-.024,2.422-.1a20.487,20.487,0,0,0,2.664-.266q1.066-.194,2.495-.533a8.213,8.213,0,0,0,2.349-.9,13.3,13.3,0,0,0,1.792-1.308,4.661,4.661,0,0,0,1.308-1.865,6.719,6.719,0,0,0,.436-2.47Z" transform="translate(-7.948 -4.407)" fill="#ffa300"/>
</svg>
