<svg xmlns="http://www.w3.org/2000/svg" xmlns:xlink="http://www.w3.org/1999/xlink" width="880.568" height="548.704" viewBox="0 0 880.568 548.704">
  <defs>
    <linearGradient id="linear-gradient" x1="0.5" y1="1.153" x2="0.5" gradientUnits="objectBoundingBox">
      <stop offset="0" stop-color="#3949ab"/>
      <stop offset="1" stop-color="#5c6bc0"/>
    </linearGradient>
    <linearGradient id="linear-gradient-2" x1="0.5" y1="1" x2="0.5" y2="-0.44" xlink:href="#linear-gradient"/>
    <linearGradient id="linear-gradient-4" x1="0.5" y1="1" x2="0.5" y2="-0.536" gradientUnits="objectBoundingBox">
      <stop offset="0" stop-color="#ccd1ec"/>
      <stop offset="1" stop-color="#fff"/>
    </linearGradient>
    <linearGradient id="linear-gradient-6" x1="0.5" y1="1.098" x2="0.5" y2="0" xlink:href="#linear-gradient-4"/>
    <linearGradient id="linear-gradient-7" y1="0.468" x2="1" y2="0.468" gradientUnits="objectBoundingBox">
      <stop offset="0" stop-color="#5c6bc0"/>
      <stop offset="1" stop-color="#3949ab"/>
    </linearGradient>
    <linearGradient id="linear-gradient-8" x1="0" y1="31.73" x2="1" y2="31.73" xlink:href="#linear-gradient-7"/>
    <linearGradient id="linear-gradient-9" y1="5.357" x2="1" y2="5.357" gradientUnits="objectBoundingBox">
      <stop offset="0" stop-color="#ffd54f"/>
      <stop offset="1" stop-color="#ff9100"/>
    </linearGradient>
    <linearGradient id="linear-gradient-10" y1="1.616" x2="1" y2="1.616" gradientUnits="objectBoundingBox">
      <stop offset="0" stop-color="#0088e8"/>
      <stop offset="1" stop-color="#6fcafa"/>
    </linearGradient>
    <linearGradient id="linear-gradient-11" x1="0.5" y1="1" x2="0.5" y2="0" xlink:href="#linear-gradient"/>
    <linearGradient id="linear-gradient-12" x1="0" y1="0.5" x2="1" y2="0.5" xlink:href="#linear-gradient"/>
    <linearGradient id="linear-gradient-13" x1="0" y1="0.5" x2="1" y2="0.5" xlink:href="#linear-gradient-7"/>
    <linearGradient id="linear-gradient-14" x1="0.5" y1="1" x2="0.5" y2="0" xlink:href="#linear-gradient-4"/>
    <linearGradient id="linear-gradient-17" x1="-0.383" y1="0.5" x2="1" y2="0.5" xlink:href="#linear-gradient"/>
    <linearGradient id="linear-gradient-18" x1="0.146" y1="0.146" x2="0.854" y2="0.854" xlink:href="#linear-gradient-7"/>
    <linearGradient id="linear-gradient-19" x1="0.146" y1="0.17" x2="0.854" y2="0.99" xlink:href="#linear-gradient-9"/>
    <linearGradient id="linear-gradient-20" x1="0.146" y1="0.158" x2="0.854" y2="0.923" gradientUnits="objectBoundingBox">
      <stop offset="0" stop-color="#ff9100"/>
      <stop offset="1" stop-color="#ffd54f"/>
    </linearGradient>
    <linearGradient id="linear-gradient-21" x1="0.009" y1="1.702" x2="1.11" y2="-0.236" xlink:href="#linear-gradient-4"/>
    <linearGradient id="linear-gradient-22" x1="2.311" y1="1.74" x2="-0.261" y2="0.36" xlink:href="#linear-gradient-4"/>
    <linearGradient id="linear-gradient-23" x1="0.335" y1="0.135" x2="1.412" y2="1.114" xlink:href="#linear-gradient-4"/>
    <linearGradient id="linear-gradient-24" x1="-0.968" y1="-0.035" x2="0.532" y2="0.512" xlink:href="#linear-gradient-4"/>
    <linearGradient id="linear-gradient-25" y1="0.5" x2="1" y2="0.5" gradientUnits="objectBoundingBox">
      <stop offset="0.01" stop-color="#ffa000"/>
      <stop offset="1" stop-color="#ff7d00"/>
    </linearGradient>
    <linearGradient id="linear-gradient-26" x1="0.24" y1="-0.4" x2="0.76" y2="1.4" xlink:href="#linear-gradient-9"/>
    <linearGradient id="linear-gradient-33" x1="0.673" y1="-3.525" x2="1.143" y2="-12.608" xlink:href="#linear-gradient-4"/>
    <linearGradient id="linear-gradient-34" x1="1.962" y1="-4.573" x2="0.882" y2="-10.942" xlink:href="#linear-gradient-4"/>
    <linearGradient id="linear-gradient-35" x1="1.925" y1="-6.972" x2="2.501" y2="-4.341" xlink:href="#linear-gradient-4"/>
    <linearGradient id="linear-gradient-36" x1="1.709" y1="-8.469" x2="2.513" y2="-6.999" xlink:href="#linear-gradient-4"/>
    <linearGradient id="linear-gradient-37" x1="0.146" y1="0.146" x2="0.854" y2="0.854" xlink:href="#linear-gradient-9"/>
    <linearGradient id="linear-gradient-38" x1="0.146" y1="0.146" x2="0.854" y2="0.854" xlink:href="#linear-gradient-20"/>
  </defs>
  <g id="Group_5207" data-name="Group 5207" transform="translate(-877.715 -1614.297)">
    <g id="Shadow" transform="translate(877.715 2111.574)" opacity="0.4">
      <ellipse id="_Path_" data-name="&lt;Path&gt;" cx="440.284" cy="25.713" rx="440.284" ry="25.713" fill="#8584b2"/>
    </g>
    <g id="OBJECTS" transform="translate(881.588 1614.297)">
      <g id="Group_5206" data-name="Group 5206" transform="translate(0 0)">
        <g id="Group_5177" data-name="Group 5177" transform="translate(0 257.535)">
          <path id="Path_8302" data-name="Path 8302" d="M749.9,248.14h0a13.227,13.227,0,0,0-13.228-13.227H320.612a13.228,13.228,0,0,0-13.228,13.227h0a13.228,13.228,0,0,0,13.228,13.228H626.718A13.228,13.228,0,0,1,639.946,274.6h0a13.229,13.229,0,0,1-13.228,13.228H425.556a13.228,13.228,0,0,0-13.228,13.226h0a13.228,13.228,0,0,0,13.228,13.228H536.181A13.227,13.227,0,0,1,549.407,327.5h0a13.226,13.226,0,0,1-13.226,13.226H495.739a13.228,13.228,0,0,0-13.228,13.228h0a13.227,13.227,0,0,0,13.228,13.228H715.055a13.227,13.227,0,0,0,13.226-13.228h0a13.228,13.228,0,0,0-13.226-13.228H643.124A13.228,13.228,0,0,1,629.9,327.5h0a13.228,13.228,0,0,1,13.228-13.228H821.832a13.227,13.227,0,0,0,13.227-13.228h0a13.226,13.226,0,0,0-13.227-13.226H694.639A13.228,13.228,0,0,1,681.411,274.6h0a13.227,13.227,0,0,1,13.228-13.228h42.038A13.227,13.227,0,0,0,749.9,248.14Z" transform="translate(41.302 -234.913)" fill="#c5cae9"/>
          <path id="Path_8303" data-name="Path 8303" d="M118.507,344.568h0a13.227,13.227,0,0,1,13.228-13.228h351.21a13.227,13.227,0,0,1,13.226,13.228h0a13.226,13.226,0,0,1-13.226,13.226H313.166a13.228,13.228,0,0,0-13.228,13.228h0a13.227,13.227,0,0,0,13.228,13.228H514.328a13.228,13.228,0,0,1,13.228,13.228h0A13.228,13.228,0,0,1,514.328,410.7H403.7a13.228,13.228,0,0,0-13.226,13.228h0A13.227,13.227,0,0,0,403.7,437.16h40.442a13.228,13.228,0,0,1,13.228,13.228h0a13.229,13.229,0,0,1-13.228,13.228H224.83A13.229,13.229,0,0,1,211.6,450.387h0A13.228,13.228,0,0,1,224.83,437.16H296.76a13.228,13.228,0,0,0,13.228-13.228h0A13.229,13.229,0,0,0,296.76,410.7H57.167a13.226,13.226,0,0,1-13.226-13.226h0A13.227,13.227,0,0,1,57.167,384.25H173.773A13.228,13.228,0,0,0,187,371.022h0a13.229,13.229,0,0,0-13.228-13.228H131.735A13.227,13.227,0,0,1,118.507,344.568Z" transform="translate(-43.941 -203.712)" fill="#c5cae9"/>
        </g>
        <g id="Group_5182" data-name="Group 5182" transform="translate(590.621 102.954)">
          <g id="Group_5178" data-name="Group 5178">
            <path id="Path_8304" data-name="Path 8304" d="M606.258,130.74a12.617,12.617,0,0,0-12.618-12.618H502.792a12.617,12.617,0,0,0-12.618,12.618V297.347L606.258,181.264Z" transform="translate(-490.174 -118.122)" fill="url(#linear-gradient)"/>
            <path id="Path_8305" data-name="Path 8305" d="M490.174,281.911v14.762a12.618,12.618,0,0,0,12.618,12.619H593.64a12.618,12.618,0,0,0,12.618-12.619V165.828Z" transform="translate(-490.174 -102.686)" fill="url(#linear-gradient-2)"/>
            <path id="Path_8306" data-name="Path 8306" d="M490.174,281.911v14.762a12.618,12.618,0,0,0,12.618,12.619H593.64a12.618,12.618,0,0,0,12.618-12.619V165.828Z" transform="translate(-490.174 -102.686)" opacity="0.37" fill="url(#linear-gradient-2)" style="mix-blend-mode: multiply;isolation: isolate"/>
          </g>
          <g id="Group_5179" data-name="Group 5179" transform="translate(7.677 8.221)">
            <path id="Path_8307" data-name="Path 8307" d="M495.974,272.358V283.6a4.706,4.706,0,0,0,4.705,4.707H592A4.706,4.706,0,0,0,596.7,283.6V171.627Z" transform="translate(-495.974 -109.03)" fill="url(#linear-gradient-4)"/>
            <path id="Path_8308" data-name="Path 8308" d="M495.974,272.358V283.6a4.706,4.706,0,0,0,4.705,4.707H592A4.706,4.706,0,0,0,596.7,283.6V171.627Z" transform="translate(-495.974 -109.03)" opacity="0.37" fill="url(#linear-gradient-4)" style="mix-blend-mode: multiply;isolation: isolate"/>
            <path id="Path_8309" data-name="Path 8309" d="M596.7,129.04A4.706,4.706,0,0,0,592,124.333H500.679a4.706,4.706,0,0,0-4.705,4.707V287.661L596.7,186.93Z" transform="translate(-495.974 -124.333)" fill="url(#linear-gradient-6)"/>
          </g>
          <g id="Group_5181" data-name="Group 5181" transform="translate(23.477 35.975)">
            <g id="Group_5180" data-name="Group 5180" transform="translate(4.61 7.442)">
              <path id="Path_8310" data-name="Path 8310" d="M571.3,259.813H511.4V248.239a24.477,24.477,0,0,1,4.038-13.466l14.418-21.88a13.675,13.675,0,0,0,0-15.049l-14.418-21.88A24.477,24.477,0,0,1,511.4,162.5V150.925H571.3V162.5a24.475,24.475,0,0,1-4.037,13.466l-14.419,21.88a13.679,13.679,0,0,0,0,15.049l14.419,21.88a24.475,24.475,0,0,1,4.037,13.466Z" transform="translate(-511.395 -150.925)" fill="#c5cae9"/>
            </g>
            <path id="Path_8311" data-name="Path 8311" d="M573.319,240.635H511.634a3.722,3.722,0,0,1-3.722-3.722h0a3.722,3.722,0,0,1,3.722-3.721h61.685a3.721,3.721,0,0,1,3.721,3.721h0A3.721,3.721,0,0,1,573.319,240.635Z" transform="translate(-507.912 -116.863)" fill="url(#linear-gradient-7)"/>
            <path id="Path_8312" data-name="Path 8312" d="M573.319,152.744H511.634a3.721,3.721,0,0,1-3.722-3.721h0a3.722,3.722,0,0,1,3.722-3.722h61.685a3.721,3.721,0,0,1,3.721,3.722h0A3.72,3.72,0,0,1,573.319,152.744Z" transform="translate(-507.912 -145.302)" fill="url(#linear-gradient-8)"/>
            <path id="Path_8313" data-name="Path 8313" d="M551.865,190.79H529.116l-11.609-17.618a20.9,20.9,0,0,1-3.457-11.532v-8.061h52.882v8.061a20.9,20.9,0,0,1-3.457,11.532Z" transform="translate(-505.926 -142.624)" fill="url(#linear-gradient-9)"/>
            <path id="Path_8314" data-name="Path 8314" d="M543.852,186.374a13.679,13.679,0,0,0,0,15.049l14.419,21.88a24.475,24.475,0,0,1,4.037,13.466v11.573h-8.53V236.769c0-6.766-1.141-11.989-3.775-15.986l-9.659-18.44c-3.007-4.566.5-11.4,3.509-15.969" transform="translate(-497.79 -132.012)" opacity="0.19" fill="url(#linear-gradient-10)" style="mix-blend-mode: multiply;isolation: isolate"/>
          </g>
        </g>
        <g id="Group_5183" data-name="Group 5183" transform="translate(57.189 47.949)">
          <path id="Path_8315" data-name="Path 8315" d="M514.214,163.384a92.383,92.383,0,0,0-38.859,8.533,105.621,105.621,0,0,0-207.978-13.736,78.066,78.066,0,0,0-115.431,68.527h-3.682a61.115,61.115,0,0,0-61.115,61.115h0a61.115,61.115,0,0,0,61.115,61.115h365.95a92.776,92.776,0,1,0,0-185.553Z" transform="translate(-87.149 -76.564)" fill="#c5cae9"/>
        </g>
        <g id="Group_5191" data-name="Group 5191" transform="translate(196.111 226.924)">
          <path id="Rectangle_2024" data-name="Rectangle 2024" d="M11.51,0H411.232a11.51,11.51,0,0,1,11.51,11.51V252.63a0,0,0,0,1,0,0H0a0,0,0,0,1,0,0V11.51A11.51,11.51,0,0,1,11.51,0Z" transform="translate(30.698)" fill="url(#linear-gradient-11)"/>
          <rect id="Rectangle_2025" data-name="Rectangle 2025" width="422.742" height="8.886" transform="translate(30.698 243.744)" opacity="0.36" fill="url(#linear-gradient-12)" style="mix-blend-mode: multiply;isolation: isolate"/>
          <path id="Path_8323" data-name="Path 8323" d="M485.712,402.655v9.422H382.645v-9.422H192.109a36.205,36.205,0,0,0,33.167,21.689h417.8a36.205,36.205,0,0,0,33.167-21.689H485.712Z" transform="translate(-192.109 -150.025)" fill="url(#linear-gradient-13)"/>
          <path id="Rectangle_2026" data-name="Rectangle 2026" d="M6.214,0H393.93a6.214,6.214,0,0,1,6.214,6.214V220.879a0,0,0,0,1,0,0H0a0,0,0,0,1,0,0V6.214A6.214,6.214,0,0,1,6.214,0Z" transform="translate(41.997 11.439)" fill="url(#linear-gradient-14)"/>
          <g id="Group_5190" data-name="Group 5190" transform="translate(173.678 11.439)" opacity="0.37" style="mix-blend-mode: multiply;isolation: isolate">
            <path id="Path_8324" data-name="Path 8324" d="M583.566,220.428h-39.36L323.328,441.307H591.792V228.653A8.225,8.225,0,0,0,583.566,220.428Z" transform="translate(-323.328 -220.428)" fill="url(#linear-gradient-14)"/>
          </g>
        </g>
        <g id="Group_5198" data-name="Group 5198" transform="translate(317.111 99.011)">
          <g id="Group_5192" data-name="Group 5192" transform="translate(0 88.105)">
            <path id="Path_8325" data-name="Path 8325" d="M283.528,181.709v157.81a19.139,19.139,0,0,0,19.14,19.14h208.98a17.578,17.578,0,0,0,17.577-17.577V218.428a17.578,17.578,0,0,0-17.577-17.578L312.824,194.4C302.253,194.4,283.528,192.28,283.528,181.709Z" transform="translate(-283.528 -181.709)" fill="url(#linear-gradient-13)"/>
          </g>
          <g id="Group_5193" data-name="Group 5193" transform="translate(67.981 107.172)" opacity="0.22" style="mix-blend-mode: multiply;isolation: isolate">
            <path id="Path_8326" data-name="Path 8326" d="M495.029,196.188l-2.257-.073L334.89,354H495.029a17.578,17.578,0,0,0,17.577-17.577V213.766A17.578,17.578,0,0,0,495.029,196.188Z" transform="translate(-334.89 -196.115)" fill="url(#linear-gradient-17)"/>
          </g>
          <path id="Path_8327" data-name="Path 8327" d="M512.039,205.528H302.668a19.139,19.139,0,0,1-19.14-19.14h0a19.14,19.14,0,0,1,19.14-19.14H494.46a17.578,17.578,0,0,1,17.578,17.578Z" transform="translate(-283.528 -98.283)" fill="#2d386b"/>
          <path id="Path_8328" data-name="Path 8328" d="M301.693,193.192A19.327,19.327,0,0,1,283.6,180.63c-.034.473-.071.946-.071,1.428h0a19.139,19.139,0,0,0,19.14,19.14H512.039v-8.006Z" transform="translate(-283.528 -93.953)" fill="#242b5b"/>
          <path id="Path_8329" data-name="Path 8329" d="M446.047,285.728h37.235a8.093,8.093,0,0,0,8.092-8.094V246.2a8.092,8.092,0,0,0-8.092-8.092H446.047a23.811,23.811,0,0,0-23.811,23.811h0A23.812,23.812,0,0,0,446.047,285.728Z" transform="translate(-238.646 -75.356)" fill="#2d386b"/>
          <ellipse id="Ellipse_594" data-name="Ellipse 594" cx="17.5" cy="17.5" rx="17.5" ry="17.5" transform="translate(193.183 171.035)" fill="#242b5b"/>
          <ellipse id="Ellipse_595" data-name="Ellipse 595" cx="10.766" cy="10.766" rx="10.766" ry="10.766" transform="translate(197.943 175.795)" fill="url(#linear-gradient-18)"/>
          <g id="Group_5197" data-name="Group 5197" transform="translate(63.521)">
            <g id="Group_5194" data-name="Group 5194">
              <path id="Path_8330" data-name="Path 8330" d="M446.618,172.693a57.549,57.549,0,1,0-97.2,41.689h79.3A57.366,57.366,0,0,0,446.618,172.693Z" transform="translate(-331.52 -115.143)" fill="url(#linear-gradient-19)"/>
            </g>
            <g id="Group_5195" data-name="Group 5195" transform="translate(8.44 8.44)">
              <path id="Path_8331" data-name="Path 8331" d="M436.114,170.63a49.108,49.108,0,1,0-75.057,41.689h51.9A49.066,49.066,0,0,0,436.114,170.63Z" transform="translate(-337.897 -121.52)" fill="url(#linear-gradient-20)"/>
            </g>
            <g id="Group_5196" data-name="Group 5196" transform="translate(37.462 21.943)">
              <path id="Path_8332" data-name="Path 8332" d="M359.824,163.556l20.087,15.238V131.721Z" transform="translate(-359.824 -131.721)" fill="url(#linear-gradient-21)"/>
              <path id="Path_8333" data-name="Path 8333" d="M375,131.721v47.073l20.087-15.238Z" transform="translate(-354.914 -131.721)" fill="url(#linear-gradient-22)"/>
              <path id="Path_8334" data-name="Path 8334" d="M360.007,161.763l19.845,31.452v-16.4Z" transform="translate(-359.765 -122.001)" fill="url(#linear-gradient-23)"/>
              <path id="Path_8335" data-name="Path 8335" d="M375,193.215l19.845-31.452L375,176.818Z" transform="translate(-354.914 -122.001)" fill="url(#linear-gradient-24)"/>
            </g>
          </g>
        </g>
        <g id="Group_5199" data-name="Group 5199" transform="translate(579.616 483.603)">
          <path id="Path_8336" data-name="Path 8336" d="M614.147,423.828c-9.012-7.789-34.424-13.4-64.386-13.4s-55.374,5.615-64.388,13.4h-3.514v12.467c0,10.845,30.4,19.638,67.9,19.638s67.9-8.792,67.9-19.638V423.828Z" transform="translate(-481.859 -404.19)" fill="url(#linear-gradient-25)"/>
          <path id="Path_8337" data-name="Path 8337" d="M489.391,445.388a75.276,75.276,0,0,0,13.819,4.676V413.985a75.019,75.019,0,0,0-13.819,4.691Z" transform="translate(-479.422 -403.038)" fill="#ffa000" opacity="0.3" style="mix-blend-mode: multiply;isolation: isolate"/>
          <path id="Path_8338" data-name="Path 8338" d="M565.685,450.39a80.656,80.656,0,0,0,13.819-4.459V418.252a80.661,80.661,0,0,0-13.819-4.459Z" transform="translate(-454.735 -403.1)" fill="#ffa000" opacity="0.3" style="mix-blend-mode: multiply;isolation: isolate"/>
          <path id="Path_8339" data-name="Path 8339" d="M505.439,452.354q3.685.687,7.677,1.238V411.845q-3.991.546-7.677,1.238Z" transform="translate(-474.229 -403.73)" fill="#ffa000" opacity="0.3" style="mix-blend-mode: multiply;isolation: isolate"/>
          <path id="Path_8340" data-name="Path 8340" d="M557.642,452.974q4.014-.633,7.678-1.414V413.63c-2.438-.518-5.007-.985-7.678-1.406Z" transform="translate(-457.338 -403.608)" fill="#ffa000" opacity="0.3" style="mix-blend-mode: multiply;isolation: isolate"/>
          <path id="Path_8341" data-name="Path 8341" d="M514.139,454.075c1.512.175,3.044.337,4.607.48V411.837h-4.607Z" transform="translate(-471.414 -403.733)" fill="#ffa000" opacity="0.3" style="mix-blend-mode: multiply;isolation: isolate"/>
          <ellipse id="Ellipse_596" data-name="Ellipse 596" cx="67.901" cy="19.637" rx="67.901" ry="19.637" transform="translate(0)" fill="url(#linear-gradient-26)"/>
        </g>
        <g id="Group_5200" data-name="Group 5200" transform="translate(579.616 457.732)">
          <path id="Path_8342" data-name="Path 8342" d="M614.147,404.281c-9.012-7.788-34.424-13.4-64.386-13.4s-55.374,5.615-64.388,13.4h-3.514v12.468c0,10.845,30.4,19.638,67.9,19.638s67.9-8.792,67.9-19.638V404.281Z" transform="translate(-481.859 -384.644)" fill="url(#linear-gradient-25)"/>
          <path id="Path_8343" data-name="Path 8343" d="M489.391,425.842a75.476,75.476,0,0,0,13.819,4.676V394.438a75.11,75.11,0,0,0-13.819,4.692Z" transform="translate(-479.422 -383.492)" fill="#ffa000" opacity="0.3" style="mix-blend-mode: multiply;isolation: isolate"/>
          <path id="Path_8344" data-name="Path 8344" d="M565.685,430.844a80.658,80.658,0,0,0,13.819-4.459V398.706a80.77,80.77,0,0,0-13.819-4.46Z" transform="translate(-454.735 -383.554)" fill="#ffa000" opacity="0.3" style="mix-blend-mode: multiply;isolation: isolate"/>
          <path id="Path_8345" data-name="Path 8345" d="M505.439,432.808q3.685.687,7.677,1.236V392.3q-3.991.546-7.677,1.238Z" transform="translate(-474.229 -384.184)" fill="#ffa000" opacity="0.3" style="mix-blend-mode: multiply;isolation: isolate"/>
          <path id="Path_8346" data-name="Path 8346" d="M557.642,433.427q4.014-.631,7.678-1.412V394.084c-2.438-.518-5.007-.986-7.678-1.407Z" transform="translate(-457.338 -384.062)" fill="#ffa000" opacity="0.3" style="mix-blend-mode: multiply;isolation: isolate"/>
          <path id="Path_8347" data-name="Path 8347" d="M514.139,434.529c1.512.175,3.044.336,4.607.48V392.291h-4.607Z" transform="translate(-471.414 -384.187)" fill="#ffa000" opacity="0.3" style="mix-blend-mode: multiply;isolation: isolate"/>
          <ellipse id="Ellipse_597" data-name="Ellipse 597" cx="67.901" cy="19.637" rx="67.901" ry="19.637" transform="translate(0)" fill="url(#linear-gradient-26)"/>
        </g>
        <g id="Group_5201" data-name="Group 5201" transform="translate(579.616 431.861)">
          <path id="Path_8348" data-name="Path 8348" d="M614.147,384.735c-9.012-7.788-34.424-13.4-64.386-13.4s-55.374,5.615-64.388,13.4h-3.514V397.2c0,10.845,30.4,19.637,67.9,19.637s67.9-8.791,67.9-19.637V384.735Z" transform="translate(-481.859 -365.097)" fill="url(#linear-gradient-25)"/>
          <path id="Path_8349" data-name="Path 8349" d="M489.391,406.3a75.374,75.374,0,0,0,13.819,4.677V374.892a75.111,75.111,0,0,0-13.819,4.691Z" transform="translate(-479.422 -363.946)" fill="#ffa000" opacity="0.3" style="mix-blend-mode: multiply;isolation: isolate"/>
          <path id="Path_8350" data-name="Path 8350" d="M565.685,411.3a80.649,80.649,0,0,0,13.819-4.46V379.16a80.652,80.652,0,0,0-13.819-4.46Z" transform="translate(-454.735 -364.008)" fill="#ffa000" opacity="0.3" style="mix-blend-mode: multiply;isolation: isolate"/>
          <path id="Path_8351" data-name="Path 8351" d="M505.439,413.263q3.685.685,7.677,1.236V372.752q-3.991.548-7.677,1.238Z" transform="translate(-474.229 -364.638)" fill="#ffa000" opacity="0.3" style="mix-blend-mode: multiply;isolation: isolate"/>
          <path id="Path_8352" data-name="Path 8352" d="M557.642,413.881q4.014-.631,7.678-1.412V374.537c-2.438-.516-5.007-.985-7.678-1.406Z" transform="translate(-457.338 -364.515)" fill="#ffa000" opacity="0.3" style="mix-blend-mode: multiply;isolation: isolate"/>
          <path id="Path_8353" data-name="Path 8353" d="M514.139,414.982c1.512.175,3.044.338,4.607.48V372.745h-4.607Z" transform="translate(-471.414 -364.64)" fill="#ffa000" opacity="0.3" style="mix-blend-mode: multiply;isolation: isolate"/>
          <ellipse id="Ellipse_598" data-name="Ellipse 598" cx="67.901" cy="19.637" rx="67.901" ry="19.637" transform="translate(0)" fill="url(#linear-gradient-26)"/>
        </g>
        <g id="Group_5202" data-name="Group 5202" transform="translate(579.616 405.99)">
          <path id="Path_8354" data-name="Path 8354" d="M614.147,365.189c-9.012-7.788-34.424-13.4-64.386-13.4s-55.374,5.616-64.388,13.4h-3.514v12.468c0,10.844,30.4,19.637,67.9,19.637s67.9-8.793,67.9-19.637V365.189Z" transform="translate(-481.859 -345.551)" fill="url(#linear-gradient-25)"/>
          <path id="Path_8355" data-name="Path 8355" d="M489.391,386.749a75.278,75.278,0,0,0,13.819,4.676V355.346a75.01,75.01,0,0,0-13.819,4.691Z" transform="translate(-479.422 -344.399)" fill="#ffa000" opacity="0.3" style="mix-blend-mode: multiply;isolation: isolate"/>
          <path id="Path_8356" data-name="Path 8356" d="M565.685,391.752a80.767,80.767,0,0,0,13.819-4.46V359.613a80.658,80.658,0,0,0-13.819-4.459Z" transform="translate(-454.735 -344.461)" fill="#ffa000" opacity="0.3" style="mix-blend-mode: multiply;isolation: isolate"/>
          <path id="Path_8357" data-name="Path 8357" d="M505.439,393.715q3.685.687,7.677,1.238V353.206q-3.991.546-7.677,1.238Z" transform="translate(-474.229 -345.091)" fill="#ffa000" opacity="0.3" style="mix-blend-mode: multiply;isolation: isolate"/>
          <path id="Path_8358" data-name="Path 8358" d="M557.642,394.334q4.014-.629,7.678-1.412V354.991c-2.438-.517-5.007-.985-7.678-1.406Z" transform="translate(-457.338 -344.969)" fill="#ffa000" opacity="0.3" style="mix-blend-mode: multiply;isolation: isolate"/>
          <path id="Path_8359" data-name="Path 8359" d="M514.139,395.436c1.512.175,3.044.337,4.607.48V353.2h-4.607Z" transform="translate(-471.414 -345.094)" fill="#ffa000" opacity="0.3" style="mix-blend-mode: multiply;isolation: isolate"/>
          <ellipse id="Ellipse_599" data-name="Ellipse 599" cx="67.901" cy="19.637" rx="67.901" ry="19.637" transform="translate(0)" fill="url(#linear-gradient-26)"/>
        </g>
        <g id="Group_5203" data-name="Group 5203" transform="translate(607.543 416.965)">
          <path id="Path_8360" data-name="Path 8360" d="M531.832,355.367l-13.142,8.662h40.6Z" transform="translate(-497.869 -355.367)" fill="url(#linear-gradient-33)"/>
          <path id="Path_8361" data-name="Path 8361" d="M559.288,361.912h-40.6l13.142,8.662Z" transform="translate(-497.869 -353.25)" fill="url(#linear-gradient-34)"/>
          <path id="Path_8362" data-name="Path 8362" d="M530.085,355.446,502.959,364H517.1Z" transform="translate(-502.959 -355.342)" fill="url(#linear-gradient-35)"/>
          <path id="Path_8363" data-name="Path 8363" d="M502.959,361.912l27.126,8.558L517.1,361.912Z" transform="translate(-502.959 -353.25)" fill="url(#linear-gradient-36)"/>
        </g>
        <g id="Group_5205" data-name="Group 5205" transform="translate(258.162)">
          <circle id="Ellipse_600" data-name="Ellipse 600" cx="47.47" cy="47.47" r="47.47" transform="translate(0 67.132) rotate(-45)" fill="url(#linear-gradient-37)"/>
          <circle id="Ellipse_601" data-name="Ellipse 601" cx="40.507" cy="40.507" r="40.507" transform="translate(9.846 67.132) rotate(-45)" fill="url(#linear-gradient-38)"/>
          <g id="Group_5204" data-name="Group 5204" transform="translate(50.564 37.762)">
            <path id="Path_8364" data-name="Path 8364" d="M277.193,95.127,293.762,107.7V68.868Z" transform="translate(-277.193 -68.868)" fill="url(#linear-gradient-21)"/>
            <path id="Path_8365" data-name="Path 8365" d="M289.711,68.868V107.7L306.28,95.127Z" transform="translate(-273.143 -68.868)" fill="url(#linear-gradient-22)"/>
            <path id="Path_8366" data-name="Path 8366" d="M277.344,93.648l16.369,25.943V106.065Z" transform="translate(-277.145 -60.849)" fill="url(#linear-gradient-23)"/>
            <path id="Path_8367" data-name="Path 8367" d="M289.711,119.591,306.08,93.648l-16.369,12.418Z" transform="translate(-273.143 -60.849)" fill="url(#linear-gradient-24)"/>
          </g>
        </g>
      </g>
    </g>
    <g id="TEXTS" transform="translate(952 1671)">
      <text id="STAKING" transform="translate(375 369.744)" fill="#7986cb" font-size="36" font-family="Montserrat-ExtraBold, Montserrat" font-weight="800"><tspan x="-84" y="0">STAKING</tspan></text>
    </g>
  </g>
</svg>
