<svg xmlns="http://www.w3.org/2000/svg" width="86.873" height="89.776" viewBox="0 0 86.873 89.776">
  <g id="_1" data-name="1" transform="translate(-1 -1)">
    <path id="Path_7288" data-name="Path 7288" d="M29.319,85.439H16.9a3.1,3.1,0,0,0-3.1,3.1V110.26a3.1,3.1,0,0,0,3.1,3.1H29.319a3.1,3.1,0,0,0,3.1-3.1V88.541A3.1,3.1,0,0,0,29.319,85.439Z" transform="translate(-3.533 -23.31)" fill="#fff"/>
    <path id="Path_7289" data-name="Path 7289" d="M63.623,64.01H51.206a3.1,3.1,0,0,0-3.1,3.1v37.232a3.1,3.1,0,0,0,3.1,3.1H63.623a3.1,3.1,0,0,0,3.1-3.1V67.113A3.1,3.1,0,0,0,63.623,64.01Z" transform="translate(-13.003 -17.395)" fill="#fff"/>
    <path id="Path_7290" data-name="Path 7290" d="M97.928,38.295H85.511a3.1,3.1,0,0,0-3.1,3.1V97.245a3.1,3.1,0,0,0,3.1,3.1H97.928a3.1,3.1,0,0,0,3.1-3.1V41.4A3.1,3.1,0,0,0,97.928,38.295Z" transform="translate(-22.473 -10.296)" fill="#ffd046"/>
    <path id="Path_7291" data-name="Path 7291" d="M64.83,2.924A3.1,3.1,0,0,0,61.943,1H49.525a3.1,3.1,0,1,0,0,6.205h4.936L16.309,45.336a3.105,3.105,0,0,0,4.377,4.406L58.838,11.58v4.933a3.1,3.1,0,0,0,6.209,0V4.1A3.1,3.1,0,0,0,64.83,2.924Z" transform="translate(-3.973 0)" fill="#56d0f7"/>
    <path id="Path_7292" data-name="Path 7292" d="M84.77,122.249H4.1a2.9,2.9,0,0,1-2.194-1.06,4.059,4.059,0,0,1,0-5.119A2.9,2.9,0,0,1,4.1,115.01H84.77a2.9,2.9,0,0,1,2.194,1.061,4.059,4.059,0,0,1,0,5.119A2.9,2.9,0,0,1,84.77,122.249Z" transform="translate(0 -31.473)" fill="#56d0f7"/>
  </g>
</svg>
