<svg xmlns="http://www.w3.org/2000/svg" width="85.691" height="71.409" viewBox="0 0 85.691 71.409">
  <g id="Group_4215" data-name="Group 4215" transform="translate(-1020 -2976.206)">
    <path id="Icon_material-important-devices" data-name="Icon material-important-devices" d="M71.41,3H7.141A7.116,7.116,0,0,0,0,10.141V52.987a7.139,7.139,0,0,0,7.141,7.141H36.134v9.141H24.993V74.41H53.557V69.269H43.416V60.128H53.557V55.987H4.141V7.141H74.41V27.993H78.55V10.141A7.139,7.139,0,0,0,71.41,3Z" transform="translate(1020 2973.206)" fill="#ffd046"/>
    <path id="Icon_material-important-devices-2" data-name="Icon material-important-devices" d="M82.121,35.17l-17.852-.036A3.581,3.581,0,0,0,60.7,38.7V70.839a3.581,3.581,0,0,0,3.57,3.57H82.121a3.581,3.581,0,0,0,3.57-3.57V38.7A3.551,3.551,0,0,0,82.121,35.17Zm0,35.1H64.269V39.275H82.121Z" transform="translate(1020 2973.206)" fill="#56d0f7"/>
  </g>
</svg>
