<svg xmlns="http://www.w3.org/2000/svg" width="111.126" height="111.126" viewBox="0 0 111.126 111.126">
  <g id="Group_4108" data-name="Group 4108" transform="translate(-0.781 -0.781)">
    <circle id="Ellipse_539" data-name="Ellipse 539" cx="55.563" cy="55.563" r="55.563" transform="translate(0.781 0.781)" fill="#0b2275"/>
    <path id="Path_7293" data-name="Path 7293" d="M57.879,7.452,56.31,12.308H51.227l4.11,3-1.568,4.872,4.109-3,4.109,3L60.42,15.311l4.093-3H59.446ZM36.921,13.1l-1.567,4.872H30.271l4.109,3-1.567,4.857,4.093-3,4.11,3L39.447,20.98l4.109-3H38.49Zm41.914,0-1.568,4.872H72.184l4.11,3-1.568,4.857,4.109-3,4.109,3L81.376,20.98l4.109-3H80.4ZM21.566,28.563,20,33.419H14.93l4.094,3-1.568,4.857,4.109-3,4.109,3-1.568-4.856,4.109-3H23.132Zm72.611,0-1.568,4.856H87.54l4.094,2.987-1.568,4.872,4.109-3,4.109,3-1.568-4.856,4.109-3H95.744ZM15.95,49.658l-1.568,4.857H9.314l4.094,3L11.84,62.374l4.125-3,4.094,3-1.568-4.856,4.109-3H17.517L15.95,49.658Zm83.842,0-1.568,4.857H93.156l4.094,3-1.568,4.857,4.109-3,4.11,3-1.569-4.841,4.109-3.018h-5.083ZM21.566,70.753,20,75.609H14.93l4.094,3-1.568,4.872,4.109-3,4.109,3-1.568-4.872,4.109-3H23.132Zm72.611,0-1.568,4.856H87.54l4.094,3-1.568,4.872,4.109-3,4.109,3-1.568-4.872,4.109-3H95.744ZM36.921,86.2l-1.568,4.872H30.27l4.109,3-1.567,4.857,4.109-3,4.094,3L39.447,94.07l4.109-3H38.49Zm41.913,0-1.568,4.872H72.183l4.11,2.988-1.568,4.871,4.109-3,4.109,3-1.568-4.871,4.109-2.988H80.4ZM57.878,91.848,56.31,96.721H51.227l4.109,2.987-1.568,4.872,4.109-3,4.109,3-1.567-4.872,4.093-2.987H59.445l-1.567-4.872Z" transform="translate(-0.653 -0.556)" fill="#ffd046"/>
    <path id="Path_7294" data-name="Path 7294" d="M57.879,7.452,56.31,12.308H51.227l4.11,3-1.568,4.872,4.109-3,4.109,3L60.42,15.311l4.093-3H59.446ZM36.921,13.1l-1.567,4.872H30.271l4.109,3-1.567,4.857,4.093-3,4.11,3L39.447,20.98l4.109-3H38.49Zm41.914,0-1.568,4.872H72.184l4.11,3-1.568,4.857,4.109-3,4.109,3L81.376,20.98l4.109-3H80.4ZM21.566,28.563,20,33.419H14.93l4.094,3-1.568,4.857,4.109-3,4.109,3-1.568-4.856,4.109-3H23.132Zm72.611,0-1.568,4.856H87.54l4.094,2.987-1.568,4.872,4.109-3,4.109,3-1.568-4.856,4.109-3H95.744ZM15.95,49.658l-1.568,4.857H9.314l4.094,3L11.84,62.374l4.125-3,4.094,3-1.568-4.856,4.109-3H17.517L15.95,49.658Zm83.842,0-1.568,4.857H93.156l4.094,3-1.568,4.857,4.109-3,4.11,3-1.569-4.841,4.109-3.018h-5.083ZM21.566,70.753,20,75.609H14.93l4.094,3-1.568,4.872,4.109-3,4.109,3-1.568-4.872,4.109-3H23.132Zm72.611,0-1.568,4.856H87.54l4.094,3-1.568,4.872,4.109-3,4.109,3-1.568-4.872,4.109-3H95.744ZM36.921,86.2l-1.568,4.872H30.27l4.109,3-1.567,4.857,4.109-3,4.094,3L39.447,94.07l4.109-3H38.49Zm41.913,0-1.568,4.872H72.183l4.11,2.988-1.568,4.871,4.109-3,4.109,3-1.568-4.871,4.109-2.988H80.4ZM57.878,91.848,56.31,96.721H51.227l4.109,2.987-1.568,4.872,4.109-3,4.109,3-1.567-4.872,4.093-2.987H59.445l-1.567-4.872Z" transform="translate(-0.653 -0.556)" fill="none"/>
    <path id="Path_7295" data-name="Path 7295" d="M33.34,69.813l-1.651-2.422h-2.2v2.422H27.945V61.556h3.413a4.744,4.744,0,0,1,1.872.33,2.215,2.215,0,0,1,1.211.991,2.528,2.528,0,0,1,.44,1.541,2.654,2.654,0,0,1-.44,1.651,3.006,3.006,0,0,1-1.321.991l1.872,2.752Zm-.55-6.5a2.152,2.152,0,0,0-1.541-.44H29.487v3.3h1.762a2.152,2.152,0,0,0,1.541-.44,1.577,1.577,0,0,0,.55-1.211A1.42,1.42,0,0,0,32.789,63.318Z" transform="translate(-1.623 -3.374)" fill="#fff"/>
    <path id="Path_7296" data-name="Path 7296" d="M42.8,67.266H37.848a1.872,1.872,0,0,0,.661,1.1,2.36,2.36,0,0,0,1.321.44,2.5,2.5,0,0,0,1.761-.661l.771.881a3.954,3.954,0,0,1-1.1.771,3.023,3.023,0,0,1-1.431.22,3.618,3.618,0,0,1-1.872-.44,2.583,2.583,0,0,1-1.211-1.211,2.867,2.867,0,0,1-.44-1.651,2.653,2.653,0,0,1,.44-1.651,4.225,4.225,0,0,1,1.211-1.211,3.107,3.107,0,0,1,1.651-.44,3.148,3.148,0,0,1,2.752,1.541,4.148,4.148,0,0,1,.44,1.762Zm-4.4-2.092a1.529,1.529,0,0,0-.55,1.1h3.633a1.76,1.76,0,0,0-.55-1.1,1.656,1.656,0,0,0-1.211-.44A1.755,1.755,0,0,0,38.4,65.174Z" transform="translate(-2.059 -3.47)" fill="#fff"/>
    <path id="Path_7297" data-name="Path 7297" d="M50.919,63.641v5.395c0,2.2-1.1,3.3-3.413,3.3a8.552,8.552,0,0,1-1.761-.22,2.511,2.511,0,0,1-1.321-.66l.661-1.1a3.442,3.442,0,0,0,1.1.55,5.528,5.528,0,0,0,1.321.22,2.152,2.152,0,0,0,1.541-.44,1.868,1.868,0,0,0,.44-1.431v-.44a2.648,2.648,0,0,1-.881.661,3.956,3.956,0,0,1-1.211.22,3.107,3.107,0,0,1-1.651-.44A3.148,3.148,0,0,1,44.2,66.5a2.528,2.528,0,0,1,.44-1.541,5.221,5.221,0,0,1,1.1-1.1,3.676,3.676,0,0,1,1.651-.33,3.956,3.956,0,0,1,1.211.22,2.6,2.6,0,0,1,.991.661v-.881h1.321Zm-1.982,4.294a1.861,1.861,0,0,0,0-2.642,1.9,1.9,0,0,0-1.431-.55,2.319,2.319,0,0,0-1.431.55,1.861,1.861,0,0,0,0,2.642,1.9,1.9,0,0,0,1.431.55A2.451,2.451,0,0,0,48.937,67.935Z" transform="translate(-2.47 -3.477)" fill="#fff"/>
    <path id="Path_7298" data-name="Path 7298" d="M59.546,63.647v6.275H58.115v-.771a1.712,1.712,0,0,1-.881.661,3.913,3.913,0,0,1-1.1.22,2.691,2.691,0,0,1-1.982-.661,3.014,3.014,0,0,1-.771-2.092V63.647h1.431v3.413a2.348,2.348,0,0,0,.33,1.321,1.277,1.277,0,0,0,1.1.44,1.372,1.372,0,0,0,1.211-.44,1.868,1.868,0,0,0,.44-1.431V63.757Z" transform="translate(-2.948 -3.483)" fill="#fff"/>
    <path id="Path_7299" data-name="Path 7299" d="M61.857,60.976h1.431v8.807H61.857Z" transform="translate(-3.389 -3.343)" fill="#fff"/>
    <path id="Path_7300" data-name="Path 7300" d="M70.065,64.2a2.732,2.732,0,0,1,.771,1.982v3.743H69.4v-.771a2.241,2.241,0,0,1-.771.661,3.442,3.442,0,0,1-2.422,0,1.549,1.549,0,0,1-.771-.661,1.776,1.776,0,0,1-.33-.991,1.569,1.569,0,0,1,.661-1.321,3.269,3.269,0,0,1,1.982-.55H69.4v-.11a1.073,1.073,0,0,0-.44-.991,1.771,1.771,0,0,0-1.211-.33,4.842,4.842,0,0,0-1.1.22,2.213,2.213,0,0,0-.881.44l-.55-1.1a4.07,4.07,0,0,1,1.211-.55,6.446,6.446,0,0,1,1.431-.22A2.657,2.657,0,0,1,70.065,64.2Zm-1.321,4.514a2.241,2.241,0,0,0,.66-.771V67.17H67.864c-.881,0-1.321.33-1.321.881a.952.952,0,0,0,.33.661,2.075,2.075,0,0,0,.881.22A1.637,1.637,0,0,0,68.744,68.711Z" transform="translate(-3.559 -3.481)" fill="#fff"/>
    <path id="Path_7301" data-name="Path 7301" d="M76.934,69.511a3.664,3.664,0,0,1-.661.33,1.873,1.873,0,0,1-.771.11,2.7,2.7,0,0,1-1.651-.551,2.178,2.178,0,0,1-.55-1.541V64.777h-.991V63.566H73.3V62.135h1.431v1.431h1.651v1.211H74.733V67.75a.779.779,0,0,0,.881.881,2.075,2.075,0,0,0,.881-.22Z" transform="translate(-3.934 -3.404)" fill="#fff"/>
    <path id="Path_7302" data-name="Path 7302" d="M84.15,67.266H79.2a1.872,1.872,0,0,0,.661,1.1,2.361,2.361,0,0,0,1.321.44,2.5,2.5,0,0,0,1.762-.661l.771.881a3.957,3.957,0,0,1-1.1.771,3.023,3.023,0,0,1-1.431.22,3.618,3.618,0,0,1-1.872-.44,2.582,2.582,0,0,1-1.211-1.211,2.866,2.866,0,0,1-.44-1.651,2.653,2.653,0,0,1,.44-1.651,4.225,4.225,0,0,1,1.211-1.211,3.107,3.107,0,0,1,1.651-.44,3.148,3.148,0,0,1,2.752,1.541,4.149,4.149,0,0,1,.44,1.762Zm-4.4-2.092a1.528,1.528,0,0,0-.55,1.1h3.633a1.759,1.759,0,0,0-.55-1.1,1.656,1.656,0,0,0-1.211-.44A1.608,1.608,0,0,0,79.746,65.174Z" transform="translate(-4.212 -3.47)" fill="#fff"/>
    <path id="Path_7303" data-name="Path 7303" d="M92.151,60.976v8.807H90.72v-.771a1.713,1.713,0,0,1-.881.661,3.959,3.959,0,0,1-1.211.22,3.148,3.148,0,0,1-2.752-1.541,2.867,2.867,0,0,1-.44-1.651,2.654,2.654,0,0,1,.44-1.651,3.5,3.5,0,0,1,1.1-1.1,3.647,3.647,0,0,1,1.651-.44,3.259,3.259,0,0,1,1.1.22,1.712,1.712,0,0,1,.881.661v-3.3Zm-2.422,7.376a1.285,1.285,0,0,0,.661-.661,1.636,1.636,0,0,0,.22-.991,2.2,2.2,0,0,0-.22-.991,1.87,1.87,0,0,0-.661-.661,2.631,2.631,0,0,0-.991-.22,3.216,3.216,0,0,0-.991.22,1.285,1.285,0,0,0-.661.661,1.636,1.636,0,0,0-.22.991,2.2,2.2,0,0,0,.22.991,1.87,1.87,0,0,0,.661.661,2.63,2.63,0,0,0,.991.22A.988.988,0,0,0,89.729,68.352Z" transform="translate(-4.618 -3.343)" fill="#fff"/>
    <path id="Path_7304" data-name="Path 7304" d="M58.379,51.758v1.321H52.1V44.712h6.055v1.321H53.645v2.2h3.963v1.321H53.645v2.312h4.734Z" transform="translate(-2.881 -2.496)" fill="#fff"/>
    <path id="Path_7305" data-name="Path 7305" d="M61.456,52.2a3.663,3.663,0,0,1-.991-2.752V44.712h1.541v4.624c0,1.651.661,2.422,2.092,2.422s2.092-.771,2.092-2.422V44.712h1.541v4.734A3.663,3.663,0,0,1,66.74,52.2a4.018,4.018,0,0,1-5.284,0Z" transform="translate(-3.317 -2.496)" fill="#fff"/>
  </g>
</svg>
