<svg xmlns="http://www.w3.org/2000/svg" width="86.036" height="72.817" viewBox="0 0 86.036 72.817">
  <g id="_2" data-name="2" transform="translate(-1 -1)">
    <path id="Path_7088" data-name="Path 7088" d="M6.362,60.293A5.368,5.368,0,0,1,1,54.931V6.362A5.368,5.368,0,0,1,6.362,1H81.674a5.368,5.368,0,0,1,5.362,5.362V54.931a5.368,5.368,0,0,1-5.362,5.362Z" fill="#ffd046"/>
    <path id="Path_7089" data-name="Path 7089" d="M85.038,51.525a2.069,2.069,0,0,1-2.063,2.062H7.664A2.068,2.068,0,0,1,5.6,51.525V7.665A2.068,2.068,0,0,1,7.664,5.6H82.976a2.068,2.068,0,0,1,2.062,2.062v43.86Z" transform="translate(-1.302 -1.303)" fill="#0b2275"/>
    <path id="Path_7090" data-name="Path 7090" d="M43.9,83.7H68.419v7.462H43.9Z" transform="translate(-12.141 -23.407)" fill="#ffd046"/>
    <path id="Path_7091" data-name="Path 7091" d="M60.3,79.183a1.766,1.766,0,1,0-1.766-1.766A1.766,1.766,0,0,0,60.3,79.183Z" transform="translate(-16.284 -21.129)" fill="#0b2275"/>
    <path id="Path_7092" data-name="Path 7092" d="M13.354,13.032a1.34,1.34,0,1,0-1.34-1.34A1.34,1.34,0,0,0,13.354,13.032Z" transform="translate(-3.117 -2.647)" fill="#fff"/>
    <path id="Path_7093" data-name="Path 7093" d="M21.891,13.032a1.34,1.34,0,1,0-1.34-1.34A1.34,1.34,0,0,0,21.891,13.032Z" transform="translate(-5.534 -2.647)" fill="#fff"/>
    <path id="Path_7094" data-name="Path 7094" d="M30.428,13.032a1.34,1.34,0,1,0-1.34-1.34A1.34,1.34,0,0,0,30.428,13.032Z" transform="translate(-7.95 -2.647)" fill="#fff"/>
    <path id="Path_7095" data-name="Path 7095" d="M73.036,100.17H33.258v-4.1a1.962,1.962,0,0,1,1.962-1.962H71.075a1.962,1.962,0,0,1,1.962,1.962Z" transform="translate(-9.13 -26.352)" fill="#fff"/>
    <path id="Path_7096" data-name="Path 7096" d="M60.069,79.539a2.354,2.354,0,1,0-2.354-2.354A2.357,2.357,0,0,0,60.069,79.539Zm0-3.532a1.177,1.177,0,1,1-1.177,1.177A1.179,1.179,0,0,1,60.069,76.008Z" transform="translate(-16.052 -20.896)" fill="#fff"/>
    <path id="Path_7097" data-name="Path 7097" d="M13.122,9.53a1.929,1.929,0,1,0,1.929,1.929A1.931,1.931,0,0,0,13.122,9.53Zm0,2.68a.751.751,0,1,1,.751-.751A.752.752,0,0,1,13.122,12.21Z" transform="translate(-2.885 -2.414)" fill="#0b2275"/>
    <path id="Path_7098" data-name="Path 7098" d="M21.659,13.388a1.929,1.929,0,1,0-1.929-1.929A1.931,1.931,0,0,0,21.659,13.388Zm0-2.68a.751.751,0,1,1-.751.751A.752.752,0,0,1,21.659,10.707Z" transform="translate(-5.301 -2.414)" fill="#0b2275"/>
    <path id="Path_7099" data-name="Path 7099" d="M30.2,13.388a1.929,1.929,0,1,0-1.929-1.929A1.931,1.931,0,0,0,30.2,13.388Zm0-2.68a.751.751,0,1,1-.751.751A.752.752,0,0,1,30.2,10.707Z" transform="translate(-7.718 -2.414)" fill="#0b2275"/>
    <path id="Path_7100" data-name="Path 7100" d="M43.224,20.461a6.106,6.106,0,0,0-4.716,5.692,3.379,3.379,0,0,0,.075.788,6.059,6.059,0,0,0-2.557,4.869,5.909,5.909,0,0,0,2.026,4.4,5.671,5.671,0,0,0-.772,2.861,6.1,6.1,0,0,0,3.848,5.507c.3,3.4,3.486,6.068,7.359,6.068h.055a4.614,4.614,0,0,0,4.694-4.434v-28.6c-.307-1.716-1.765-2.511-3.712-2.492C45.714,15.382,44.009,18.366,43.224,20.461Z" transform="translate(-9.913 -3.997)" fill="#56d0f7"/>
    <path id="Path_7101" data-name="Path 7101" d="M46.291,44a.374.374,0,0,1-.286-.132A4.472,4.472,0,0,0,42.635,42a5.512,5.512,0,0,0-3.651,1.864.374.374,0,1,1-.571-.483,6.208,6.208,0,0,1,4.222-2.129,5.176,5.176,0,0,1,3.941,2.129.374.374,0,0,1-.285.616Z" transform="translate(-10.564 -11.393)" fill="#323c6b"/>
    <path id="Path_7102" data-name="Path 7102" d="M44.987,40.923a.374.374,0,0,1-.123-.727,4.259,4.259,0,0,0,2.529-2.611.374.374,0,0,1,.724.189A4.945,4.945,0,0,1,45.109,40.9.375.375,0,0,1,44.987,40.923Z" transform="translate(-12.344 -10.276)" fill="#323c6b"/>
    <path id="Path_7103" data-name="Path 7103" d="M49.514,23.246a.374.374,0,0,1-.17-.039,5.056,5.056,0,0,0-3.337-.467.374.374,0,0,1-.2-.72,5.717,5.717,0,0,1,3.878.524.374.374,0,0,1-.17.707Z" transform="translate(-12.606 -5.912)" fill="#323c6b"/>
    <path id="Path_7104" data-name="Path 7104" d="M43.111,55.766h-.13a.374.374,0,0,1,0-.748h.125a5.465,5.465,0,0,0,4.249-1.581.374.374,0,0,1,.552.5A6.185,6.185,0,0,1,43.111,55.766Z" transform="translate(-11.777 -14.807)" fill="#323c6b"/>
    <path id="Path_7105" data-name="Path 7105" d="M62.425,22.768H59.882a.374.374,0,1,1,0-.748h2.543a.374.374,0,1,1,0,.748Z" transform="translate(-16.56 -5.949)" fill="#323c6b"/>
    <path id="Path_7106" data-name="Path 7106" d="M62.425,57.482H59.882a.374.374,0,0,1,0-.748h2.543a.374.374,0,0,1,0,.748Z" transform="translate(-16.56 -15.775)" fill="#323c6b"/>
    <path id="Path_7107" data-name="Path 7107" d="M52.425,25.462a1.673,1.673,0,1,0-1.673-1.673A1.673,1.673,0,0,0,52.425,25.462Z" transform="translate(-14.081 -5.976)" fill="#fff"/>
    <path id="Path_7108" data-name="Path 7108" d="M52.278,25.687a2.049,2.049,0,1,1,1.447-.6A2.047,2.047,0,0,1,52.278,25.687Zm0-3.346a1.3,1.3,0,1,0,.918.381A1.3,1.3,0,0,0,52.278,22.34Z" transform="translate(-13.934 -5.828)" fill="#323c6b"/>
    <path id="Path_7109" data-name="Path 7109" d="M48.878,36.578A1.673,1.673,0,1,0,47.205,34.9,1.673,1.673,0,0,0,48.878,36.578Z" transform="translate(-13.078 -9.122)" fill="#fff"/>
    <path id="Path_7110" data-name="Path 7110" d="M48.731,36.8a2.049,2.049,0,1,1,1.447-.6A2.047,2.047,0,0,1,48.731,36.8Zm0-3.346a1.3,1.3,0,1,0,.918.381A1.3,1.3,0,0,0,48.731,33.457Z" transform="translate(-12.93 -8.975)" fill="#323c6b"/>
    <path id="Path_7111" data-name="Path 7111" d="M50.091,52.805a1.673,1.673,0,1,0-1.673-1.673A1.673,1.673,0,0,0,50.091,52.805Z" transform="translate(-13.421 -13.715)" fill="#fff"/>
    <path id="Path_7112" data-name="Path 7112" d="M49.944,53.032a2.049,2.049,0,1,1,1.447-.6A2.047,2.047,0,0,1,49.944,53.032Zm0-3.347a1.3,1.3,0,1,0,.918.381,1.3,1.3,0,0,0-.918-.381Z" transform="translate(-13.273 -13.568)" fill="#323c6b"/>
    <path id="Path_7113" data-name="Path 7113" d="M72.545,20.461a6.106,6.106,0,0,1,4.716,5.692,3.376,3.376,0,0,1-.075.788,6.059,6.059,0,0,1,2.557,4.869,5.909,5.909,0,0,1-2.026,4.4,5.671,5.671,0,0,1,.772,2.861,6.1,6.1,0,0,1-3.848,5.507c-.3,3.4-3.486,6.068-7.359,6.068h-.052a4.614,4.614,0,0,1-4.7-4.434v-28.6c.307-1.716,1.765-2.511,3.712-2.492C70.055,15.382,71.76,18.366,72.545,20.461Z" transform="translate(-17.416 -3.997)" fill="#56d0f7"/>
    <path id="Path_7114" data-name="Path 7114" d="M72.979,44a.374.374,0,0,1-.285-.616,5.176,5.176,0,0,1,3.941-2.125,6.21,6.21,0,0,1,4.222,2.129.374.374,0,0,1-.571.483A5.539,5.539,0,0,0,76.635,42h0a4.474,4.474,0,0,0-3.366,1.864.373.373,0,0,1-.286.129Z" transform="translate(-20.267 -11.393)" fill="#323c6b"/>
    <path id="Path_7115" data-name="Path 7115" d="M76.185,40.923a.374.374,0,0,1-.123-.02,4.944,4.944,0,0,1-3.008-3.129.374.374,0,0,1,.724-.189,4.23,4.23,0,0,0,2.528,2.61.374.374,0,0,1-.123.728Z" transform="translate(-20.39 -10.275)" fill="#323c6b"/>
    <path id="Path_7116" data-name="Path 7116" d="M71.331,23.244a.374.374,0,0,1-.171-.707,5.718,5.718,0,0,1,3.878-.524.374.374,0,0,1-.2.72,5.056,5.056,0,0,0-3.336.471A.374.374,0,0,1,71.331,23.244Z" transform="translate(-19.8 -5.91)" fill="#323c6b"/>
    <path id="Path_7117" data-name="Path 7117" d="M77.319,55.765a6.181,6.181,0,0,1-4.8-1.824.374.374,0,0,1,.552-.5,5.521,5.521,0,0,0,4.368,1.58.374.374,0,0,1,.01.748Z" transform="translate(-20.214 -14.807)" fill="#323c6b"/>
    <path id="Path_7118" data-name="Path 7118" d="M68.816,25.462a1.673,1.673,0,1,0-1.673-1.673A1.673,1.673,0,0,0,68.816,25.462Z" transform="translate(-18.72 -5.976)" fill="#fff"/>
    <path id="Path_7119" data-name="Path 7119" d="M68.668,25.687a2.05,2.05,0,1,1,1.447-.6A2.047,2.047,0,0,1,68.668,25.687Zm0-3.346a1.3,1.3,0,1,0,.918.381A1.3,1.3,0,0,0,68.668,22.34Z" transform="translate(-18.573 -5.828)" fill="#323c6b"/>
    <path id="Path_7120" data-name="Path 7120" d="M72.363,36.578A1.673,1.673,0,1,0,70.689,34.9,1.673,1.673,0,0,0,72.363,36.578Z" transform="translate(-19.724 -9.122)" fill="#fff"/>
    <path id="Path_7121" data-name="Path 7121" d="M72.215,36.8a2.049,2.049,0,1,1,1.447-.6A2.047,2.047,0,0,1,72.215,36.8Zm0-3.346a1.3,1.3,0,1,0,.918.381A1.3,1.3,0,0,0,72.215,33.457Z" transform="translate(-19.577 -8.975)" fill="#323c6b"/>
    <path id="Path_7122" data-name="Path 7122" d="M71.15,52.805a1.673,1.673,0,1,0-1.673-1.673A1.673,1.673,0,0,0,71.15,52.805Z" transform="translate(-19.381 -13.715)" fill="#fff"/>
    <path id="Path_7123" data-name="Path 7123" d="M71,53.032a2.049,2.049,0,1,1,1.447-.6A2.047,2.047,0,0,1,71,53.032Zm0-3.347a1.3,1.3,0,1,0,.918.381A1.3,1.3,0,0,0,71,49.685Z" transform="translate(-19.233 -13.568)" fill="#323c6b"/>
    <path id="Path_7124" data-name="Path 7124" d="M67.138,50.877a4.989,4.989,0,0,1-5.126-4.808v-28.6c.328-1.87,1.833-2.894,4.089-2.866,3.014.2,5.279,2.072,6.582,5.407a6.489,6.489,0,0,1,4.805,6,4.456,4.456,0,0,1-.037.631,6.388,6.388,0,0,1,2.521,5.027,6.242,6.242,0,0,1-1.934,4.479,5.99,5.99,0,0,1,.679,2.788,6.476,6.476,0,0,1-3.873,5.76C74.411,48.176,71.072,50.877,67.138,50.877Zm-1.122-35.53c-1.086,0-2.922.292-3.261,2.185l.005,28.537a4.225,4.225,0,0,0,4.327,4.06c3.685,0,6.753-2.515,7.038-5.727a.374.374,0,0,1,.224-.31,5.755,5.755,0,0,0,3.623-5.161,5.266,5.266,0,0,0-.722-2.673.374.374,0,0,1,.075-.465,5.535,5.535,0,0,0,1.9-4.128,5.675,5.675,0,0,0-2.407-4.57.374.374,0,0,1-.141-.39,3.044,3.044,0,0,0,.06-.7A5.766,5.766,0,0,0,72.3,20.676a.374.374,0,0,1-.25-.23c-1.2-3.195-3.207-4.911-5.976-5.1Z" transform="translate(-17.268 -3.849)" fill="#323c6b"/>
    <path id="Path_7125" data-name="Path 7125" d="M48.392,50.877c-3.99,0-7.33-2.7-7.764-6.189a6.476,6.476,0,0,1-3.873-5.76,5.989,5.989,0,0,1,.679-2.788A6.242,6.242,0,0,1,35.5,31.662a6.388,6.388,0,0,1,2.521-5.027,4.457,4.457,0,0,1-.037-.628,6.49,6.49,0,0,1,4.808-6c1.3-3.335,3.566-5.2,6.558-5.406,2.266,0,3.783,1,4.105,2.8l.005,28.668a4.974,4.974,0,0,1-5.069,4.808Zm1.047-35.53h-.062c-2.747.187-4.758,1.9-5.954,5.1a.374.374,0,0,1-.25.23,5.766,5.766,0,0,0-4.441,5.332,3.037,3.037,0,0,0,.062.7.374.374,0,0,1-.141.39,5.676,5.676,0,0,0-2.406,4.568,5.535,5.535,0,0,0,1.9,4.128.374.374,0,0,1,.075.465A5.265,5.265,0,0,0,37.5,38.93a5.755,5.755,0,0,0,3.623,5.161.374.374,0,0,1,.224.31c.284,3.211,3.353,5.727,6.986,5.727a4.239,4.239,0,0,0,4.375-4.059v-28.6c-.332-1.825-2.164-2.118-3.271-2.118Z" transform="translate(-9.765 -3.85)" fill="#323c6b"/>
  </g>
</svg>
