<svg xmlns="http://www.w3.org/2000/svg" width="19.831" height="27.444" viewBox="0 0 19.831 27.444">
  <path id="Icon_metro-bitcoin" data-name="Icon metro-bitcoin" d="M26.272,12.851a3.91,3.91,0,0,1-2.161,4.255A4.953,4.953,0,0,1,27,18.805a4.888,4.888,0,0,1,.742,3.529A6.235,6.235,0,0,1,27.2,24.4a4.551,4.551,0,0,1-1.064,1.468,5.414,5.414,0,0,1-1.6.965,9.748,9.748,0,0,1-2,.569,19.873,19.873,0,0,1-2.4.247v4.206H17.6v-4.14q-1.319,0-2.012-.016v4.156h-2.54V27.645q-.3,0-.891-.008t-.907-.008h-3.3l.511-3.018H10.29a.881.881,0,0,0,.957-.841v-6.63h.264a1.677,1.677,0,0,0-.264-.016V12.389a1.31,1.31,0,0,0-1.468-1.122H7.948v-2.7l3.5.016q1.056,0,1.6-.016V4.407h2.54V8.481q1.352-.033,2.012-.033V4.407h2.54V8.563a14.714,14.714,0,0,1,2.309.371,7.5,7.5,0,0,1,1.864.742,3.778,3.778,0,0,1,1.361,1.286,4.209,4.209,0,0,1,.6,1.888ZM22.726,21.84a2.2,2.2,0,0,0-.247-1.056,2.473,2.473,0,0,0-.61-.759,3.132,3.132,0,0,0-.948-.5,8.006,8.006,0,0,0-1.08-.305,9.752,9.752,0,0,0-1.22-.148q-.726-.049-1.138-.049t-1.064.016q-.651.016-.783.016v5.575q.132,0,.61.008t.792.008q.313,0,.874-.025t.965-.066q.4-.041.94-.14a6.313,6.313,0,0,0,.915-.231,5.6,5.6,0,0,0,.783-.346,2.286,2.286,0,0,0,.651-.495,2.331,2.331,0,0,0,.4-.66,2.186,2.186,0,0,0,.157-.841Zm-1.171-7.851a2.165,2.165,0,0,0-.206-.965,2.3,2.3,0,0,0-.5-.693,2.466,2.466,0,0,0-.792-.462,5.669,5.669,0,0,0-.907-.272,9.081,9.081,0,0,0-1.014-.132q-.6-.049-.957-.041t-.891.016l-.651.008v5.063l.569.008q.487.008.767,0t.825-.033A6.975,6.975,0,0,0,18.7,16.4q.363-.066.849-.181a2.8,2.8,0,0,0,.8-.305,4.528,4.528,0,0,0,.61-.445,1.587,1.587,0,0,0,.445-.635,2.288,2.288,0,0,0,.148-.841Z" transform="translate(-7.948 -4.407)" fill="#ffa300"/>
</svg>
