<svg xmlns="http://www.w3.org/2000/svg" xmlns:xlink="http://www.w3.org/1999/xlink" width="27.097" height="19.927" viewBox="0 0 27.097 19.927">
  <defs>
    <linearGradient id="linear-gradient" x1="0.082" y1="0.189" x2="0.999" y2="1.031" gradientUnits="objectBoundingBox">
      <stop offset="0" stop-color="#144ede"/>
      <stop offset="1" stop-color="#63eafb"/>
    </linearGradient>
  </defs>
  <g id="Group_3868" data-name="Group 3868" transform="translate(-12378.265 426.438)">
    <path id="Exclusion_2" data-name="Exclusion 2" d="M24.416,19.927h-.063c-3.721-2.288-5.594-3.388-7.483-3.388-1.926,0-3.943,1.165-7.6,3.279a4.66,4.66,0,0,1-1.488-.27,2.689,2.689,0,0,1-.983-3.667l3.812-6.6,3.812-6.6a2.672,2.672,0,0,1,2.294-1.343H16.8a2.69,2.69,0,0,1,2.3,1.394l1.844,3.137,2.478,4.291L26.738,15.9a2.684,2.684,0,0,1-2.322,4.027ZM2.351,18.475h0a2.007,2.007,0,0,1-1.007-.262,2.683,2.683,0,0,1-.983-3.667l3.811-6.6,3.812-6.6L8.007,1.3l0,0,.021-.034,0-.006.021-.032,0-.007.019-.029,0,0L8.1,1.166l.012-.018.014-.018.013-.018.012-.018.014-.02.011-.015.017-.022L8.2,1.022,8.222,1,8.228.988,8.249.963l.01-.011L8.277.929,8.288.917,8.312.891l0-.006L8.345.854l0,0L8.379.818l0,0L8.411.785,8.442.754a2.691,2.691,0,0,1,.7-.489l.04-.018L9.222.23A2.7,2.7,0,0,1,10.28,0H10.4a2.689,2.689,0,0,1,2.267,1.393L13.83,3.372,7.378,14.546c-.293.507-1.124,1.579-1.159,1.624a9.887,9.887,0,0,1-1.247,1.161A4.7,4.7,0,0,1,2.351,18.475Z" transform="translate(12378.265 -426.438)" fill="url(#linear-gradient)"/>
  </g>
</svg>
