<svg xmlns="http://www.w3.org/2000/svg" width="103.425" height="37.888" viewBox="0 0 103.425 37.888">
  <g id="Group_3728" data-name="Group 3728" transform="translate(-1542 -5348)">
    <g id="yf" transform="translate(1541.588 5348)">
      <path id="Path_2805" data-name="Path 2805" d="M49.332,11.4v11.4h5.611l.008-4.586.012-4.582.094-.3a1.953,1.953,0,0,1,2.192-1.545,1.721,1.721,0,0,1,1.525,1.321l.094.285.012,4.7.008,4.708H64.5v-5.1c0-3.241-.016-5.294-.045-5.623C64.209,9.12,62.672,7.2,60.168,6.725a8.02,8.02,0,0,0-2.228,0A4.975,4.975,0,0,0,55.272,8.14l-.37.374V0h-5.57Z" transform="translate(-11.851)" fill="#fff"/>
      <path id="Path_2806" data-name="Path 2806" d="M126.236.09c-.069.175-2.423,5.867-4.842,11.7-.545,1.309-1,2.411-1,2.448-.02.069.155.073,3.286.073l3.31,0,.74-1.8c.407-.988,1.72-4.168,2.92-7.062s2.2-5.306,2.219-5.359L132.9,0h-6.627Z" transform="translate(-29.064 0)" fill="#fff"/>
      <path id="Path_2807" data-name="Path 2807" d="M30.958,8.791a7.211,7.211,0,0,0-4.643,2.492,7.723,7.723,0,0,0-1.179,1.8,8.642,8.642,0,0,0-.915,3.985,8.114,8.114,0,0,0,5.16,7.888,7.172,7.172,0,0,0,4.159.138A4.766,4.766,0,0,0,35.809,23.7l.2-.232v1.468h5.408l-.008-7.9-.012-7.9-2.692-.012-2.7-.008V10.58l-.338-.338a5.177,5.177,0,0,0-2.7-1.37A8.644,8.644,0,0,0,30.958,8.791Zm2.781,5.119a3.254,3.254,0,1,1-3.871,1.838,3.278,3.278,0,0,1,2.387-1.895A3.971,3.971,0,0,1,33.739,13.91Z" transform="translate(-5.768 -2.123)" fill="#fff"/>
      <path id="Path_2808" data-name="Path 2808" d="M78.362,8.8a9.9,9.9,0,0,0-1.821.386,8.034,8.034,0,0,0-5.558,6.566,9.9,9.9,0,0,0,.142,3.371,8.05,8.05,0,0,0,5.4,5.782,9.345,9.345,0,0,0,6.172-.2,8.033,8.033,0,0,0,4.777-5.3,9.5,9.5,0,0,0,.244-3.46,8.009,8.009,0,0,0-2.806-5.237A8.83,8.83,0,0,0,78.362,8.8Zm1.655,5.135a3,3,0,0,1,1.521.813,3.224,3.224,0,0,1-1.431,5.391,3.877,3.877,0,0,1-1.785-.061,3.212,3.212,0,0,1,.39-6.16A4.687,4.687,0,0,1,80.017,13.93Z" transform="translate(-17.075 -2.119)" fill="#fff"/>
      <path id="Path_2809" data-name="Path 2809" d="M101.922,8.8a9.071,9.071,0,0,0-2.968.854,7.981,7.981,0,0,0-4.432,6.294,11.448,11.448,0,0,0,.037,2.541,8.087,8.087,0,0,0,3.155,5.2,9.025,9.025,0,0,0,7.745,1.3,8.085,8.085,0,0,0,5.651-5.867,9.5,9.5,0,0,0-.045-4.306,8.137,8.137,0,0,0-7.27-6.022A11.094,11.094,0,0,0,101.922,8.8Zm1.911,5.2a3.075,3.075,0,0,1,2.066,2.041,2.329,2.329,0,0,1,.126,1.008,2.233,2.233,0,0,1-.13,1.016,3.858,3.858,0,0,1-.28.647,3.267,3.267,0,0,1-1.456,1.273,2.586,2.586,0,0,1-1.281.215,2.156,2.156,0,0,1-1-.13,2.88,2.88,0,0,1-1.2-.74,3.175,3.175,0,0,1-.919-2.484,3.109,3.109,0,0,1,2.448-2.911A4.375,4.375,0,0,1,103.833,13.993Z" transform="translate(-22.785 -2.121)" fill="#fff"/>
      <path id="Path_2810" data-name="Path 2810" d="M.412,9.278c.281.659,1.3,3.062,1.988,4.688.492,1.163,1.309,3.082,1.809,4.269S5.426,21.1,5.8,21.976s.825,1.948,1.012,2.391l.346.8L5.95,28.01c-.659,1.565-1.2,2.854-1.2,2.866s1.33.02,2.956.016l2.96-.012,1.021-2.46c.561-1.354,1.464-3.529,2.009-4.838s1.744-4.208,2.671-6.444c2.5-6.038,3.265-7.872,3.265-7.892s-1.325-.016-2.94-.016H13.749l-1.826,4.631c-1,2.549-1.838,4.619-1.85,4.607s-.789-1.988-1.724-4.379S6.6,9.624,6.552,9.482l-.1-.252H3.421A25.311,25.311,0,0,0,.412,9.278Z" transform="translate(0 -2.236)" fill="#fff"/>
      <path id="Path_2811" data-name="Path 2811" d="M120.707,20.811a3.791,3.791,0,0,0-2.9,2.712,4.992,4.992,0,0,0-.017,1.9,3.642,3.642,0,0,0,1.947,2.358,3.043,3.043,0,0,0,1.574.317A3.124,3.124,0,0,0,123,27.727a3.583,3.583,0,0,0,1.647-1.651,3.068,3.068,0,0,0,.378-1.708,2.532,2.532,0,0,0-.11-1.012,3.546,3.546,0,0,0-2.382-2.444,2.673,2.673,0,0,0-1-.126A6.031,6.031,0,0,0,120.707,20.811Z" transform="translate(-28.415 -5.035)" fill="#fff"/>
      <path id="Path_2812" data-name="Path 2812" d="M60.856,32.031a1.868,1.868,0,0,0-1.443,1.5,1.814,1.814,0,0,0,.5,1.521,1.834,1.834,0,0,0,3.058-.744,1.911,1.911,0,0,0-.089-1.236,1.842,1.842,0,0,0-.842-.862A1.675,1.675,0,0,0,60.856,32.031Z" transform="translate(-14.288 -7.75)" fill="#fff"/>
      <path id="Path_2813" data-name="Path 2813" d="M53.791,32.147a3.475,3.475,0,0,0-2.757,1.874,4.352,4.352,0,0,0-.459,1.919l-.028.541H49.384l-.012,1.3-.012,1.3h1.2v6.343h3.253V39.084h2.2v-2.6H53.8l.02-.338a1.235,1.235,0,0,1,.407-.943,1.812,1.812,0,0,1,1.834-.155c.065.02.069-.061.069-1.321V32.383l-.167-.065A5.187,5.187,0,0,0,53.791,32.147Z" transform="translate(-11.857 -7.776)" fill="#fff"/>
      <path id="Path_2814" data-name="Path 2814" d="M71.109,37.559a2.463,2.463,0,0,0-1,.285,2.96,2.96,0,0,0-.98.829l-.085.122,0-.5v-.5H65.75l.008,4.46.012,4.464,1.634.012,1.635.008.012-2.651.012-2.655.118-.252a1.2,1.2,0,0,1,.618-.626,1.469,1.469,0,0,1,.838.016,1.183,1.183,0,0,1,.59.63,14.522,14.522,0,0,1,.085,2.862l.012,2.675h3.253l-.016-3.261c-.012-3.224-.012-3.269-.1-3.606a4.042,4.042,0,0,0-.59-1.252A3.041,3.041,0,0,0,71.109,37.559Z" transform="translate(-15.828 -9.093)" fill="#fff"/>
      <path id="Path_2815" data-name="Path 2815" d="M82.4,37.554a4.284,4.284,0,0,0-3.651,3.513,7.792,7.792,0,0,0-.016,2.3,4.27,4.27,0,0,0,3.59,3.582,3.45,3.45,0,0,0,2.94-.968l.167-.2v.956h3.212V37.8H85.424v.9l-.232-.24a3.233,3.233,0,0,0-.919-.634A4.114,4.114,0,0,0,82.4,37.554Zm1.931,3a1.819,1.819,0,0,1,1.1,1.151,1.886,1.886,0,0,1-.281,1.639,1.733,1.733,0,0,1-1.374.7,1.708,1.708,0,0,1-1.46-.565A1.754,1.754,0,0,1,82,41.474a1.852,1.852,0,0,1,1.2-.98A2.365,2.365,0,0,1,84.327,40.559Z" transform="translate(-18.953 -9.093)" fill="#fff"/>
      <path id="Path_2816" data-name="Path 2816" d="M98.995,37.553a2.737,2.737,0,0,0-1.813.923,1.52,1.52,0,0,0-.2.264c0,.02-.016.033-.041.033a1.315,1.315,0,0,1-.041-.488V37.8H93.652v8.945h3.253V44.31c0-2.541.016-2.8.179-3.159a1.031,1.031,0,0,1,1-.647.987.987,0,0,1,.854.39c.264.362.26.313.277,3.212l.012,2.635h3.248v-2.98c0-3.147-.012-3.448-.191-4.054A2.926,2.926,0,0,0,98.995,37.553Z" transform="translate(-22.587 -9.092)" fill="#fff"/>
      <path id="Path_2817" data-name="Path 2817" d="M110.815,37.56a4.522,4.522,0,0,0-4.233,3.737,6.2,6.2,0,0,0,.017,2.013,4.36,4.36,0,0,0,2.984,3.407,5.268,5.268,0,0,0,3.468-.069c.39-.163.349.012.354-1.606,0-.785-.008-1.439-.017-1.451a.9.9,0,0,0-.28.122,2.516,2.516,0,0,1-1.317.325,1.991,1.991,0,0,1-1.228-.338,1.73,1.73,0,0,1-.74-1.708,1.8,1.8,0,0,1,1.419-1.472,3.166,3.166,0,0,1,1.22.02,3.768,3.768,0,0,1,.6.228c.187.089.346.163.346.163s0-.6,0-1.33-.012-1.4-.012-1.484V37.97l-.354-.13A5.388,5.388,0,0,0,110.815,37.56Z" transform="translate(-25.701 -9.094)" fill="#fff"/>
      <path id="Path_2818" data-name="Path 2818" d="M120.747,37.56a4.588,4.588,0,0,0-3,1.411,4.675,4.675,0,0,0-1.293,3.33,4.366,4.366,0,0,0,2.948,4.4,6.24,6.24,0,0,0,4.025-.114,4.726,4.726,0,0,0,1.318-.842,4.108,4.108,0,0,0,.736-.927,1.829,1.829,0,0,0-.5-.236c-.277-.106-.837-.321-1.252-.484-1.11-.427-.972-.407-1.2-.163a1.845,1.845,0,0,1-2.5.041,1.478,1.478,0,0,1-.39-.736l-.028-.155H125.8l.033-.272a6.9,6.9,0,0,0-.11-1.618,4.5,4.5,0,0,0-1.3-2.444A4.644,4.644,0,0,0,120.747,37.56Zm.89,2.5a1.329,1.329,0,0,1,.959.821c.139.37.273.338-1.439.338h-1.521l.036-.167a1.15,1.15,0,0,1,.309-.565A1.673,1.673,0,0,1,121.637,40.056Z" transform="translate(-28.111 -9.094)" fill="#fff"/>
      <path id="Path_2819" data-name="Path 2819" d="M59.635,42.354v4.472l1.638-.008,1.635-.012.012-4.464.008-4.46H59.635Z" transform="translate(-14.346 -9.177)" fill="#fff"/>
    </g>
  </g>
</svg>
