<svg xmlns="http://www.w3.org/2000/svg" width="151.297" height="26.995" viewBox="0 0 151.297 26.995">
  <g id="Group_3730" data-name="Group 3730" transform="translate(-978 -5353)">
    <path id="coinbase" d="M30.536,7.553a9.562,9.562,0,0,0-9.806,9.721,9.523,9.523,0,0,0,9.806,9.721,9.617,9.617,0,0,0,9.871-9.721A9.578,9.578,0,0,0,30.536,7.553ZM30.6,22.923a5.376,5.376,0,0,1-5.4-5.714,5.436,5.436,0,1,1,10.859,0A5.467,5.467,0,0,1,30.6,22.923Zm10.99-11.166h2.7V26.6H48.7V7.882H41.592ZM9.74,11.56a4.9,4.9,0,0,1,4.8,3.481h4.607A9.217,9.217,0,0,0,9.74,7.488,9.641,9.641,0,0,0,0,17.274a9.523,9.523,0,0,0,9.806,9.721,9.186,9.186,0,0,0,9.345-7.553H14.544a4.934,4.934,0,0,1-4.738,3.547,5.376,5.376,0,0,1-5.4-5.714C4.409,13.99,6.581,11.56,9.74,11.56Zm114.838,3.875-3.225-.46c-1.514-.2-2.632-.722-2.632-1.9,0-1.314,1.448-1.97,3.356-1.97,2.106,0,3.488.92,3.751,2.364h4.212c-.461-3.744-3.357-5.977-7.832-5.977-4.607,0-7.7,2.364-7.7,5.714,0,3.153,1.974,5.057,6.054,5.583l3.225.46c1.58.2,2.435.854,2.435,1.97,0,1.511-1.514,2.1-3.619,2.1-2.566,0-4.015-1.051-4.278-2.627h-4.278c.395,3.678,3.291,6.24,8.49,6.24,4.739,0,7.963-2.167,7.963-5.911C130.5,17.734,128.2,16.026,124.578,15.435ZM46.527.2A2.751,2.751,0,0,0,43.7,2.956a2.713,2.713,0,0,0,2.83,2.759,2.759,2.759,0,1,0,0-5.517Zm64.1,14.121c0-4.072-2.5-6.765-7.7-6.765-4.936,0-7.7,2.5-8.292,6.305h4.344c.2-1.511,1.382-2.693,3.882-2.693,2.238,0,3.291.985,3.291,2.167,0,1.576-1.974,1.97-4.475,2.233-3.357.394-7.5,1.511-7.5,5.846,0,3.35,2.5,5.517,6.515,5.517,3.159,0,5.068-1.314,6.054-3.35a3.219,3.219,0,0,0,3.488,3.021H112.8V22.726h-2.172Zm-4.343,4.663c0,2.5-2.172,4.335-4.87,4.335-1.645,0-3.027-.657-3.027-2.167,0-1.839,2.237-2.365,4.278-2.562,1.974-.2,3.027-.591,3.62-1.445ZM83.118,7.553a7.554,7.554,0,0,0-5.923,2.693V0H72.852V26.6h4.278v-2.43a7.594,7.594,0,0,0,5.988,2.824c5.265,0,9.213-4.138,9.213-9.721S88.316,7.553,83.118,7.553ZM82.46,22.923a5.376,5.376,0,0,1-5.4-5.714,5.436,5.436,0,1,1,10.858,0A5.391,5.391,0,0,1,82.46,22.923ZM62.388,7.553A6.7,6.7,0,0,0,56.6,10.312V7.882H52.253V26.6H56.6V16.42c0-2.89,1.843-4.86,4.541-4.86,2.5,0,4.08,1.773,4.08,4.335V26.6h4.343V15.566C69.561,10.837,67.126,7.553,62.388,7.553Zm88.909,9.13a8.858,8.858,0,0,0-9.213-9.13,9.507,9.507,0,0,0-9.74,9.721,9.483,9.483,0,0,0,9.806,9.721c4.541,0,8.095-2.693,9.016-6.5h-4.541a4.413,4.413,0,0,1-4.409,2.627,5.2,5.2,0,0,1-5.4-4.795H151.3Zm-14.215-1.445a4.879,4.879,0,0,1,4.936-3.875,4.544,4.544,0,0,1,4.8,3.875Z" transform="translate(978 5353)" fill="#fff"/>
  </g>
</svg>
