<svg xmlns="http://www.w3.org/2000/svg" xmlns:xlink="http://www.w3.org/1999/xlink" width="163" height="34" viewBox="0 0 163 34">
  <defs>
    <clipPath id="clip-path">
      <rect id="Rectangle_377" data-name="Rectangle 377" width="163" height="34" transform="translate(0.187 -0.498)" fill="#fff"/>
    </clipPath>
  </defs>
  <g id="Group_3731" data-name="Group 3731" transform="translate(-703 -5351)">
    <g id="binance" transform="translate(702.813 5351.498)" clip-path="url(#clip-path)">
      <path id="Path_2750" data-name="Path 2750" d="M15.145,13.868l6.346-6.408,6.349,6.413,3.691-3.73L21.491,0,11.452,10.141Z" transform="translate(-5.153)" fill="#fff"/>
      <path id="Path_2751" data-name="Path 2751" d="M0,26.951l3.692-3.729,3.692,3.729L3.689,30.68Z" transform="translate(0.001 -10.448)" fill="#fff"/>
      <path id="Path_2752" data-name="Path 2752" d="M15.141,34.787l6.346,6.41,6.349-6.413,3.693,3.725,0,0L21.487,48.655,11.448,38.517l-.005-.005Z" transform="translate(-5.148 -15.65)" fill="#fff"/>
      <path id="Path_2753" data-name="Path 2753" d="M45.974,26.953l3.692-3.729,3.692,3.729-3.692,3.729Z" transform="translate(-20.684 -10.449)" fill="#fff"/>
      <path id="Path_2754" data-name="Path 2754" d="M30.38,26.9l-3.745-3.785-2.769,2.8-.32.321-.656.662-.005.005.005.008,3.745,3.78L30.38,26.9l0,0Z" transform="translate(-10.297 -10.401)" fill="#fff"/>
      <path id="Path_2755" data-name="Path 2755" d="M69.868,14.539H77.9A6.058,6.058,0,0,1,82.421,16.1a4.062,4.062,0,0,1,1.185,2.951v.05a4.387,4.387,0,0,1-.183,1.324,4.084,4.084,0,0,1-.493,1.043,3.838,3.838,0,0,1-.712.813,4.623,4.623,0,0,1-.875.6,5.844,5.844,0,0,1,2.367,1.564,4.032,4.032,0,0,1,.862,2.737v.05a4.585,4.585,0,0,1-.457,2.1,4.085,4.085,0,0,1-1.308,1.5,6.176,6.176,0,0,1-2.052.9,10.912,10.912,0,0,1-2.656.3h-8.23Zm7.226,7.075a3.939,3.939,0,0,0,2.005-.438,1.506,1.506,0,0,0,.569-.6,1.525,1.525,0,0,0,.169-.813v-.05a1.559,1.559,0,0,0-.152-.752,1.542,1.542,0,0,0-.491-.586,3.156,3.156,0,0,0-1.856-.461H73.582v3.7Zm1.014,7.051A3.635,3.635,0,0,0,80.1,28.2a1.58,1.58,0,0,0,.553-.621,1.6,1.6,0,0,0,.164-.818v-.05a1.659,1.659,0,0,0-.163-.777,1.641,1.641,0,0,0-.505-.609,3.514,3.514,0,0,0-2.152-.521H73.582v3.858Z" transform="translate(-31.435 -6.541)" fill="#fff"/>
      <path id="Path_2756" data-name="Path 2756" d="M105.295,14.539h3.812v17.5h-3.812Z" transform="translate(-47.374 -6.541)" fill="#fff"/>
      <path id="Path_2757" data-name="Path 2757" d="M122.71,14.539h3.515l8.124,10.771V14.539h3.763v17.5h-3.244l-8.39-11.126V32.041H122.71Z" transform="translate(-55.21 -6.541)" fill="#fff"/>
      <path id="Path_2758" data-name="Path 2758" d="M165.616,14.312h3.51l7.425,17.627h-3.98l-1.585-3.926H163.66l-1.585,3.926h-3.887Zm4.011,10.3-2.307-5.678-2.3,5.678Z" transform="translate(-71.172 -6.439)" fill="#fff"/>
      <path id="Path_2759" data-name="Path 2759" d="M199.062,14.539h3.516L210.7,25.31V14.539h3.763v17.5h-3.244l-8.39-11.126V32.041h-3.763Z" transform="translate(-89.562 -6.541)" fill="#fff"/>
      <path id="Path_2760" data-name="Path 2760" d="M244.724,32.109a8.936,8.936,0,0,1-3.541-.7,8.554,8.554,0,0,1-2.818-1.91,8.648,8.648,0,0,1-1.861-2.866,9.347,9.347,0,0,1-.668-3.527v-.05a9.129,9.129,0,0,1,2.527-6.389,8.572,8.572,0,0,1,2.838-1.95,9.187,9.187,0,0,1,3.662-.712,11.368,11.368,0,0,1,2.214.2,9.126,9.126,0,0,1,1.822.55,7.849,7.849,0,0,1,1.509.85,10.207,10.207,0,0,1,1.29,1.1l-2.423,2.826a9.214,9.214,0,0,0-2.065-1.452,5.235,5.235,0,0,0-2.364-.521,4.775,4.775,0,0,0-3.613,1.6,5.519,5.519,0,0,0-1.042,1.739,6.021,6.021,0,0,0-.369,2.114v.05a6.112,6.112,0,0,0,.369,2.112,5.567,5.567,0,0,0,1.033,1.749,4.743,4.743,0,0,0,3.613,1.627,5.251,5.251,0,0,0,2.511-.55,9.717,9.717,0,0,0,2.041-1.5l2.426,2.476a12.412,12.412,0,0,1-1.386,1.3,8.25,8.25,0,0,1-1.572.988,8.1,8.1,0,0,1-1.869.623,11.017,11.017,0,0,1-2.266.219Z" transform="translate(-106.107 -6.302)" fill="#fff"/>
      <path id="Path_2761" data-name="Path 2761" d="M273.063,14.539H286.1v3.425h-9.291v3.551h8.181V24.94h-8.168v3.676h9.407v3.425H273.071Z" transform="translate(-122.856 -6.541)" fill="#fff"/>
    </g>
  </g>
</svg>
