<svg xmlns="http://www.w3.org/2000/svg" width="161.647" height="33.118" viewBox="0 0 161.647 33.118">
  <g id="Group_3732" data-name="Group 3732" transform="translate(-433 -5350)">
    <g id="be" transform="translate(433 5349.441)">
      <path id="Path_2747" data-name="Path 2747" d="M65.811.559V11.148l-5.518,5.528L65.811,22.2V33.677h91.471V.559Z" transform="translate(4.365)" fill="#fff" fill-rule="evenodd"/>
      <path id="Path_2748" data-name="Path 2748" d="M62.595,9.292a9.943,9.943,0,0,0-7.923-3.268c-6.089,0-10.848,4.344-10.848,10.679A10.429,10.429,0,0,0,54.638,27.382c3.75,0,6.464-1.346,8.153-3.518L59.467,20.58A5.483,5.483,0,0,1,54.6,23.039c-3.327,0-5.557-2.482-5.557-6.336s2.2-6.335,5.591-6.335a6.106,6.106,0,0,1,4.781,2.019Zm-28.521,1.5H42.16V6.417H21.029v4.376h7.987v16.2h5.058ZM13.543,16.312c2.662-.294,4.725-1.96,4.725-4.245,0-3.429-2.362-5.65-7.687-5.65H0V26.99H11.214c4.892,0,7.687-2.09,7.687-5.65C18.9,18.4,16.372,16.7,13.543,16.312Zm-.366-3.658c0,1.209-.865,2.188-3.027,2.188H4.925V10.368h5.224C12.312,10.368,13.177,11.38,13.177,12.654Zm.665,8.034c0,1.371-1.031,2.318-3.261,2.318H4.925V18.369h5.656C12.811,18.369,13.842,19.349,13.842,20.688Z" transform="translate(0 0.396)" fill="#fff" fill-rule="evenodd"/>
      <path id="Path_2749" data-name="Path 2749" d="M86.964,23.066H75.382V16.9h8.6V14.742h-8.6V9.232H86.7V7.107H72.867V25.19h14.1Zm17.548-4.219c-.672,2.87-2.574,4.535-5.909,4.535-3.743,0-6.493-2.785-6.493-7.233s2.721-7.233,6.581-7.233a5.53,5.53,0,0,1,5.644,3.99l2.135-1.378c-1.2-2.928-3.89-4.765-7.779-4.765a9.02,9.02,0,0,0-9.242,9.386A9,9,0,0,0,98.6,25.535c4.329,0,7.138-2.153,8.19-5.482Zm8.627,6.343V16.9h11.289V25.19H127V7.107h-2.574v7.635H113.14V7.107h-2.574V25.19ZM149.7,16.149a9.344,9.344,0,1,0-18.689,0,9.344,9.344,0,1,0,18.689,0Zm-2.662,0c0,4.421-2.72,7.2-6.7,7.2s-6.668-2.784-6.668-7.2,2.691-7.2,6.668-7.2S147.036,11.729,147.036,16.149Z" transform="translate(5.275 0.449)" fill="#021761" fill-rule="evenodd"/>
    </g>
  </g>
</svg>
