<svg xmlns="http://www.w3.org/2000/svg" width="142.725" height="37.073" viewBox="0 0 142.725 37.073">
  <g id="Group_3729" data-name="Group 3729" transform="translate(-1253 -5348)">
    <g id="cg" transform="translate(1250.301 5345.293)">
      <path id="Path_2766" data-name="Path 2766" d="M267.8,34.7c-2.266,0-4.505.032-6.758.086-.454,0-1.178-.285-1.315.453-.1.543.386.947.848,1.214a3.91,3.91,0,0,0,3.876.149,1.48,1.48,0,0,1,2.221.743c.49,1.119-.734,1.232-1.359,1.5-4.392,1.907-8.531-.707-8.422-5.272a4.962,4.962,0,0,1,3.5-4.91,5.844,5.844,0,0,1,6.523,1.744c.309.385.268,1.033.907,1.173Zm-8.326-2h4.619c.362,0,.866.045.907-.4a1.463,1.463,0,0,0-.454-.951c-1.21-1.268-3.4-.815-5.072,1.332Z" transform="translate(-122.394 -12.337)" fill="#fff"/>
      <path id="Path_2767" data-name="Path 2767" d="M40.185,21.209a18.786,18.786,0,0,1-18.729,18.57c-10.248,0-18.869-8.565-18.756-18.57a18.93,18.93,0,0,1,18.9-18.5A18.834,18.834,0,0,1,40.185,21.209ZM26.76,13.41c.734-1.812.1-2.831-1.713-2.989-1.3-.113-1.668-.7-1.532-1.871a13.738,13.738,0,0,0,0-1.558c0-.639-.249-.956-.929-.96s-.952.281-.934.938,0,1.187,0,1.785.041,1.3-.82,1.282-.412-.77-.512-1.2c-.068-.281.045-.607-.027-.906-.172-.675.576-1.812-.829-1.893C17.912,5.955,18.329,7.2,18.4,7.952c.163,1.735-.376,2.681-2.067,3.583-4.283,2.292-5.784,6.237-5.475,10.87.277,4.253,2.112,7.559,6.282,9.194a1.58,1.58,0,0,1,1.233,1.812c-.036.521,0,1.042,0,1.563,0,.67-.082,1.359.952,1.418s.993-.634.988-1.327V33.28c0-.4-.136-.974.521-1.028.748-.063.807.494.811,1.046a5.706,5.706,0,0,0,0,1.114c.168.725-.612,2.02,1,1.948,1.36-.059.834-1.218.816-1.893-.036-1.436.027-2.613,1.89-2.826,1.174-.131,2.085-.87,1.586-2.124-.585-1.463-1.564-.091-2.185.082-5.439,1.49-9.972-.756-11.11-5.671C12.174,17.586,15.954,12.386,21.96,12.4A24.088,24.088,0,0,1,26.76,13.41Zm-.644,4.335c-.222-1.06.607-2.169-.952-2.718-2.765-1-6.9,0-8.635,2.265a6.916,6.916,0,0,0-.807,7.555c1.174,2.527,3.422,3.356,6.1,3.379,4.2.032,4.864-.494,4.864-4,0-3.99,0-3.972-4.27-3.664-.761.054-1.292.1-1.256,1.069.027.765.113,1.359,1.083,1.218,1.478-.2,1.559.7,1.5,1.775-.068,1.25-1.011,1.119-1.813,1.11-2.411-.032-3.894-1.721-3.83-4.28a4.167,4.167,0,0,1,4.623-4.339,28.03,28.03,0,0,1,3.39.63Z" transform="translate(0 0)" fill="#fff"/>
      <path id="Path_2768" data-name="Path 2768" d="M188.6,21.614c-.834,1.535-1.781,1.7-3.427.842a4.82,4.82,0,0,0-6.055,1.463,5.631,5.631,0,0,0-.1,6.663,5.551,5.551,0,0,0,5.942,1.522,2.185,2.185,0,0,0,1.6-2.545c-.091-1.594-1.238-.883-1.976-1.006s-1.813.349-1.813-1.191c0-1.617,1.033-1.318,1.967-1.336,4.5-.082,4.41-.077,4.533,4.371a3.538,3.538,0,0,1-2.071,3.555c-3.408,1.92-8.458,1.015-10.579-1.97a8.527,8.527,0,0,1,1.405-10.97A7.919,7.919,0,0,1,188.6,21.614Z" transform="translate(-83.076 -7.973)" fill="#fff"/>
      <path id="Path_2769" data-name="Path 2769" d="M231.592,35.864c0-1.934-.032-3.863,0-5.8.032-1.73.965-2.265,2.344-1.146.662.539.906.349,1.455.1a5.19,5.19,0,0,1,6.346,1.087,6.2,6.2,0,0,1,.612,6.7,4.988,4.988,0,0,1-6.028,2.265c-2.393-.906-2.221.294-2.13,1.812.027.453,0,.906,0,1.359.032,1.024-.689.906-1.36.96-.811.045-1.265-.149-1.242-1.083C231.628,40.021,231.592,37.942,231.592,35.864Zm8.861-1.929a3,3,0,1,0-.967,2.047A3,3,0,0,0,240.453,33.934Z" transform="translate(-110.209 -12.34)" fill="#fff"/>
      <path id="Path_2770" data-name="Path 2770" d="M97.445,19.827a6.8,6.8,0,0,1,4.288,1.359c.43.3,1.323.566.68,1.3-.453.539-.861,1.544-1.958,1.01-.335-.163-.652-.371-1-.512a5.4,5.4,0,0,0-6.173,1.3,5.69,5.69,0,0,0-.154,6.477,5.4,5.4,0,0,0,6.119,1.522c.485-.177.906-.548,1.387-.725,1.074-.385,1.464.584,1.931,1.155.608.738-.281,1.01-.7,1.3a8.942,8.942,0,0,1-9.573-.149,8.048,8.048,0,0,1-2.479-9.059C90.9,21.652,93.655,19.823,97.445,19.827Z" transform="translate(-41.717 -8.242)" fill="#fff"/>
      <path id="Path_2771" data-name="Path 2771" d="M216.709,33.869v3.8c-.027,1.44-1.169,2.2-2.234,1.259-.811-.72-1.147-.376-1.781-.091a5.377,5.377,0,0,1-6.482-1.427,6.416,6.416,0,0,1,.167-7.315,5.526,5.526,0,0,1,6.577-1.137c.394.2.734,1.087,1.228-.059.354-.811,1.36-.453,2.031-.322.82.168.453.978.485,1.508C216.741,31.342,216.709,32.606,216.709,33.869Zm-2.719,0a3.105,3.105,0,0,0-6.21-.118,3.014,3.014,0,0,0,3.173,3.22,2.908,2.908,0,0,0,3.037-3.1Z" transform="translate(-97.483 -12.347)" fill="#fff"/>
      <path id="Path_2772" data-name="Path 2772" d="M122.556,39.366a5.189,5.189,0,0,1-5.4-5.53,5.214,5.214,0,0,1,5.612-5.349,5.372,5.372,0,0,1,5.439,5.566A5.242,5.242,0,0,1,122.556,39.366Zm2.978-5.322a3.141,3.141,0,0,0-2.806-3.216,2.991,2.991,0,0,0-2.969,3.012,2.893,2.893,0,1,0,5.774.2Z" transform="translate(-55.111 -12.413)" fill="#fff"/>
      <path id="Path_2773" data-name="Path 2773" d="M161.865,35.491c0,.815-.05,1.64,0,2.45.073,1.024-.453,1.232-1.36,1.241-1,0-1.306-.371-1.273-1.313.045-1.486,0-2.971-.023-4.461a2.374,2.374,0,0,0-2.461-2.613,2.436,2.436,0,0,0-2.633,2.487,42.884,42.884,0,0,0-.059,4.457c.032,1.015-.245,1.477-1.36,1.458-1.011,0-1.278-.376-1.265-1.313.046-2.677.073-5.354,0-8.026-.045-1.775,1.745-1.708,1.972-1.218.762,1.635,1.437.525,2.157.231a4.426,4.426,0,0,1,6.255,3.723,22.155,22.155,0,0,1,0,2.9Z" transform="translate(-71.616 -12.343)" fill="#fff"/>
      <path id="Path_2774" data-name="Path 2774" d="M144.568,34.027c0,1.259-.04,2.523,0,3.777.05,1.06-.362,1.427-1.437,1.427s-1.256-.453-1.246-1.359c.032-2.668.036-5.335,0-8,0-.933.286-1.332,1.283-1.3.906,0,1.428.213,1.4,1.227C144.545,31.191,144.568,32.618,144.568,34.027Z" transform="translate(-67.02 -12.45)" fill="#fff"/>
      <path id="Path_2775" data-name="Path 2775" d="M144.508,21.936a1.5,1.5,0,1,1-2.946-.571,1.359,1.359,0,0,1,1.586-1.2A1.457,1.457,0,0,1,144.508,21.936Z" transform="translate(-66.851 -8.395)" fill="#fff"/>
      <circle id="Ellipse_296" data-name="Ellipse 296" cx="16.851" cy="16.851" r="16.851" transform="translate(4.411 4.414)" fill="#fff"/>
      <path id="Path_2780" data-name="Path 2780" d="M25.259,9h2.592v4.254q.515-.071,1.037-.095V9h2.592v4.338a11.408,11.408,0,0,1,3.629,1.338L33.883,16.8a8.953,8.953,0,1,0,.209,15.382l1.284,2.091a11.407,11.407,0,0,1-3.9,1.5v3.82H28.888V35.949q-.521-.024-1.037-.095V39.59H25.259V35.18a11.407,11.407,0,0,1,0-21.252Z" transform="translate(-7.368 -3.03)" fill="#021761" fill-rule="evenodd"/>
      <path id="Path_2781" data-name="Path 2781" d="M36.774,26.006a7.151,7.151,0,1,0-3.4,13.341,8.171,8.171,0,0,0,3.449-.9,1.556,1.556,0,0,0,1.13-1.5V32.8a1.556,1.556,0,0,0-1.36-1.543,1.574,1.574,0,0,0-.2-.012H32.245v3.111h2.593V36a4.141,4.141,0,1,1,.432-7.389Z" transform="translate(-11.243 -10.758)" fill="#021761" fill-rule="evenodd"/>
    </g>
  </g>
</svg>
