<svg xmlns="http://www.w3.org/2000/svg" xmlns:xlink="http://www.w3.org/1999/xlink" width="119.002" height="34" viewBox="0 0 119.002 34">
  <defs>
    <clipPath id="clip-path">
      <rect id="Rectangle_379" data-name="Rectangle 379" width="119.002" height="34" transform="translate(0.588 0.941)" fill="#fff"/>
    </clipPath>
  </defs>
  <g id="Group_3733" data-name="Group 3733" transform="translate(-184 -5349)">
    <g id="ns" transform="translate(183.412 5348.059)" clip-path="url(#clip-path)">
      <path id="Path_2798" data-name="Path 2798" d="M112.7,29.14c-4.07,0-6.6-2.364-6.6-6.172,0-3.957,2.333-6.415,6.09-6.415l.318,0a15.248,15.248,0,0,1,2,.128V11.906h2.658V28.711A32.392,32.392,0,0,1,112.7,29.14Zm-.023-10.491c-2.572,0-3.823,1.391-3.823,4.253,0,2.568,1.507,4.163,3.934,4.163.465,0,1-.029,1.726-.093V18.819A11.652,11.652,0,0,0,112.673,18.65Z" transform="translate(-24.196 -2.514)" fill="#fff" fill-rule="evenodd"/>
      <path id="Path_2799" data-name="Path 2799" d="M64.6,29.044,57.425,16.495l0,12.549h-2.5V13.159h3.5L65.594,25.6l0-12.437h2.531V29.044Z" transform="translate(-12.46 -2.802)" fill="#fff" fill-rule="evenodd"/>
      <path id="Path_2800" data-name="Path 2800" d="M95.868,30.367a20.668,20.668,0,0,1-3.967-.425l-.159-.032V27.692l.238.052a17.5,17.5,0,0,0,3.6.525c.923,0,3.071-.147,3.071-1.507,0-1.142-1.484-1.428-2.677-1.656l-.075-.015c-.221-.044-.431-.086-.611-.131-1.749-.455-3.614-1.138-3.614-3.488,0-2.291,1.81-3.605,4.964-3.605a21.871,21.871,0,0,1,3.5.3l.432.065v2.151l-.23-.04a18.565,18.565,0,0,0-3.3-.374c-1.25,0-2.74.235-2.74,1.353,0,.926,1.217,1.192,2.627,1.5,1.97.43,4.414.965,4.414,3.659C101.339,28.949,99.345,30.367,95.868,30.367Z" transform="translate(-20.889 -3.882)" fill="#fff" fill-rule="evenodd"/>
      <path id="Path_2801" data-name="Path 2801" d="M128.559,30.367c-2.751,0-5.3-.485-5.3-4,0-3.828,3.936-3.828,6.288-3.828.235,0,1.34.05,1.681.066,0-2.147-.032-2.66-3.138-2.66a22.564,22.564,0,0,0-3.806.461l-.23.042V18.325l.157-.032a20.336,20.336,0,0,1,4.123-.426c3.01,0,5.562.3,5.562,4.048v8.166l-.184.019A44.107,44.107,0,0,1,128.559,30.367Zm.926-5.937c-2.267,0-3.672.334-3.672,2,0,1.927,1.793,2.088,3.475,2.088.63,0,1.759-.08,2.1-.106V24.5C130.9,24.477,129.638,24.43,129.485,24.43Z" transform="translate(-28.132 -3.882)" fill="#fff" fill-rule="evenodd"/>
      <path id="Path_2802" data-name="Path 2802" d="M80.217,30.367c-2.751,0-5.3-.485-5.3-4,0-3.828,3.936-3.828,6.288-3.828.235,0,1.341.05,1.681.066,0-2.147-.032-2.66-3.138-2.66a22.584,22.584,0,0,0-3.807.461l-.23.042V18.325l.158-.032A20.336,20.336,0,0,1,80,17.867c3.011,0,5.562.3,5.562,4.048v8.166l-.184.019A44.115,44.115,0,0,1,80.217,30.367Zm.926-5.937c-2.267,0-3.673.334-3.673,2,0,1.927,1.794,2.088,3.475,2.088.63,0,1.759-.08,2.1-.106V24.5C82.562,24.477,81.3,24.43,81.143,24.43Z" transform="translate(-17.047 -3.882)" fill="#fff" fill-rule="evenodd"/>
      <path id="Path_2803" data-name="Path 2803" d="M148.287,35.533v-5.21a12.788,12.788,0,0,1-2.033.146,8.412,8.412,0,0,1-3.125-.614c-2.022-.842-3.231-2.986-3.231-5.735a5.928,5.928,0,0,1,2.566-5.236,8.2,8.2,0,0,1,4.429-.958c.713,0,1.675.055,2.6.109l1.507.078V34.327Zm-1.592-15.51c-2.7,0-4.065,1.378-4.065,4.1,0,3.5,2.042,4.23,3.756,4.23a13.174,13.174,0,0,0,1.924-.131V20.1C147.5,20.044,147.125,20.024,146.695,20.024Z" transform="translate(-31.947 -3.895)" fill="#fff" fill-rule="evenodd"/>
      <path id="Path_2804" data-name="Path 2804" d="M30.6.941h9.454L31.272,25.13a1.684,1.684,0,0,1-1.583,1.113H20.406v-.014a1.682,1.682,0,0,0,1.413-1.1ZM19.651,25.873a1.593,1.593,0,0,1-1.461-.963l-1.892-5.2,3.221-8.872a1.76,1.76,0,0,1,.209-.393,1.591,1.591,0,0,1,2.768.308l1.884,5.183-3.222,8.875a1.657,1.657,0,0,1-.209.393A1.59,1.59,0,0,1,19.651,25.873ZM20.338,9.4V9.4a1.682,1.682,0,0,0-1.514,1.107L10.042,34.7H.588L9.37,10.511A1.684,1.684,0,0,1,10.954,9.4Z" transform="translate(0 0)" fill="#fff" fill-rule="evenodd"/>
    </g>
  </g>
</svg>
