<svg xmlns="http://www.w3.org/2000/svg" width="35.133" height="33" viewBox="0 0 35.133 33">
  <path id="Icon_metro-cart" data-name="Icon metro-cart" d="M15.371,32.656a3.2,3.2,0,1,1-3.2-3.2,3.2,3.2,0,0,1,3.2,3.2Zm21.333,0a3.2,3.2,0,1,1-3.2-3.2A3.2,3.2,0,0,1,36.7,32.656Zm0-13.867V5.989H11.1A2.133,2.133,0,0,0,8.971,3.856h-6.4V5.989H6.837l1.6,13.735a4.266,4.266,0,0,0,2.664,7.6H36.7V25.189H11.1a2.133,2.133,0,0,1-2.133-2.133c0-.007,0-.015,0-.022L36.7,18.789Z" transform="translate(-2.071 -3.356)" fill="none" stroke="#56d0f7" stroke-width="1"/>
</svg>
