<svg xmlns="http://www.w3.org/2000/svg" width="205" height="207" viewBox="0 0 205 207">
  <g id="Group_3867" data-name="Group 3867" transform="translate(-1583 -422)">
    <ellipse id="Ellipse_518" data-name="Ellipse 518" cx="102.5" cy="103.5" rx="102.5" ry="103.5" transform="translate(1583 422)" fill="#fff"/>
    <g id="Group_3799" data-name="Group 3799" transform="translate(227.973 -113.013)">
      <path id="Path_6106" data-name="Path 6106" d="M77.378,63.945l-40.4-40.4A97.253,97.253,0,0,1,197.3,88.786H140.029a40.511,40.511,0,0,0-62.65-24.84Z" transform="translate(1356.928 541.013)" fill="#0044a0"/>
      <path id="Path_6107" data-name="Path 6107" d="M115.495,146.611v57.275a97.286,97.286,0,0,0,88.391-88.391H146.611A40.566,40.566,0,0,1,115.495,146.611Z" transform="translate(1350.346 531.26)" fill="#c776c7"/>
      <path id="Path_6108" data-name="Path 6108" d="M56.757,100.567a40.334,40.334,0,0,1,5.865-20.929L21.97,38.992a97.276,97.276,0,0,0,66.816,158.48V140.2A40.546,40.546,0,0,1,56.757,100.567Z" transform="translate(1360.027 537.674)" fill="#ffa201"/>
    </g>
  </g>
</svg>
