<svg xmlns="http://www.w3.org/2000/svg" xmlns:xlink="http://www.w3.org/1999/xlink" width="516.621" height="553.336" viewBox="0 0 516.621 553.336">
  <defs>
    <clipPath id="clip-path">
      <rect id="Rectangle_394" data-name="Rectangle 394" width="38.408" height="45.948" fill="none"/>
    </clipPath>
    <clipPath id="clip-path-2">
      <path id="Path_4027" data-name="Path 4027" d="M61.065,39.892l19.549,12.8L99.473,85.84Z" transform="translate(-61.065 -39.892)" fill="none"/>
    </clipPath>
    <linearGradient id="linear-gradient" x1="-1.736" y1="1.92" x2="-1.705" y2="1.92" gradientUnits="objectBoundingBox">
      <stop offset="0" stop-color="#fff"/>
      <stop offset="0.005" stop-color="#fff"/>
      <stop offset="0.142" stop-color="#f3f3f3"/>
      <stop offset="0.383" stop-color="#d5d5d5"/>
      <stop offset="0.699" stop-color="#a5a5a5"/>
      <stop offset="1" stop-color="#727272"/>
    </linearGradient>
  </defs>
  <g id="Group_4216" data-name="Group 4216" transform="translate(-1260.379 -195.664)">
    <g id="Group_4041" data-name="Group 4041" transform="translate(1247.862 164.33)">
      <g id="Floor" transform="translate(52.95 314.167)" opacity="0.472">
        <ellipse id="Ellipse_533" data-name="Ellipse 533" cx="238.094" cy="135.251" rx="238.094" ry="135.251" fill="#425b95"/>
      </g>
      <g id="Shadows" transform="translate(207.255 400.574)">
        <path id="Path_7069" data-name="Path 7069" d="M363.529,471.048,185.791,368.43a10.271,10.271,0,0,1,.008-17.8l17.532-11.052a19.91,19.91,0,0,1,19.9.008L400.966,442.207a10.273,10.273,0,0,1-.007,17.8l-17.533,11.052A19.91,19.91,0,0,1,363.529,471.048Z" transform="translate(-180.655 -336.923)" fill="#0b2275"/>
      </g>
      <g id="Plants" transform="translate(446.373 353.555)">
        <g id="Group_4006" data-name="Group 4006">
          <g id="Group_4004" data-name="Group 4004">
            <path id="Path_7070" data-name="Path 7070" d="M385.323,390.676l16.924,9.728s-8.642-27.151-4.038-54.525c1.736-10.333,5.469-15.479,6.782-18.24s11.412-19.869,2.417-27.693-29.946,7.915-28.81,50.039A163.747,163.747,0,0,0,385.323,390.676Z" transform="translate(-378.553 -298.01)" fill="#ba68c8"/>
            <path id="Path_7071" data-name="Path 7071" d="M385.323,390.676l16.924,9.728s-8.642-27.151-4.038-54.525c1.736-10.333,5.469-15.479,6.782-18.24s11.412-19.869,2.417-27.693-29.946,7.915-28.81,50.039A163.747,163.747,0,0,0,385.323,390.676Z" transform="translate(-378.553 -298.01)" fill="#ffd046"/>
            <path id="Path_7072" data-name="Path 7072" d="M391.855,394.593a.6.6,0,0,1-.567-.394c-.064-.175-6.519-17.843-6.312-46.244.207-28.536,15.119-43.809,15.27-43.959a.6.6,0,0,1,.855.853c-.147.147-14.716,15.1-14.918,43.114-.2,28.16,6.172,45.641,6.237,45.813a.607.607,0,0,1-.355.778A.62.62,0,0,1,391.855,394.593Z" transform="translate(-377.216 -296.8)" fill="#fff"/>
          </g>
          <g id="Group_4005" data-name="Group 4005" transform="translate(6.823 30.137)">
            <path id="Path_7073" data-name="Path 7073" d="M391.2,389.635l23.13,13.239A11.125,11.125,0,0,0,429.1,399.7a12.038,12.038,0,0,0,1.823-8.034c-1.109-12.008-6.329-14.779.068-20.136s8.06-5.726,7.691-10.9-3.88-7.39-5.542-9.421-6.281-6.282-3.14-12.563,7.423-12.362.924-15.147c-3.88-1.664-10.345.553-14.594,5.171s-7.76,7.944-11.823,9.052-12.561,1.293-12.193,8.313,2.222,9.423.555,12.561C389.727,364.511,376.056,367.836,391.2,389.635Z" transform="translate(-384.2 -322.951)" fill="#00b3dd"/>
            <path id="Path_7074" data-name="Path 7074" d="M399.591,396.157a.6.6,0,0,1-.6-.549c-.039-.416-3.557-41.882,24.954-69.474a.6.6,0,1,1,.84.869c-28.1,27.194-24.629,68.083-24.59,68.493a.606.606,0,0,1-.545.659Z" transform="translate(-381.153 -322.324)" fill="#fff"/>
            <path id="Path_7075" data-name="Path 7075" d="M404.9,357.663a.6.6,0,0,1-.6-.553,23.758,23.758,0,0,0-8.738-16.592.6.6,0,1,1,.694-.99,24.608,24.608,0,0,1,9.248,17.479.6.6,0,0,1-.55.654Z" transform="translate(-381.887 -319.521)" fill="#fff"/>
            <path id="Path_7076" data-name="Path 7076" d="M401.72,361.7a.6.6,0,0,1-.454-1c.295-.337,7.429-8.218,24.175-6.122a.6.6,0,0,1,.524.674.616.616,0,0,1-.675.524c-16.071-2.017-23.047,5.643-23.117,5.721A.6.6,0,0,1,401.72,361.7Z" transform="translate(-380.677 -316.438)" fill="#fff"/>
          </g>
        </g>
      </g>
      <g id="Device" transform="translate(208.432 31.334)">
        <g id="Group_4010" data-name="Group 4010">
          <path id="Path_7077" data-name="Path 7077" d="M357.911,520.629,201.6,430.381c-11.029-6.366-19.969-23.449-19.969-38.155V57.506c0-14.7,8.94-21.464,19.969-15.1l156.313,90.248c11.029,6.368,19.971,23.45,19.971,38.155V505.533C377.882,520.238,368.94,527,357.911,520.629Z" transform="translate(-181.629 -29.526)" fill="#455a64"/>
          <path id="Path_7078" data-name="Path 7078" d="M374.743,123.974,218.431,33.726c-4.716-2.723-9.046-3.039-12.463-1.367h0l0,0a10.058,10.058,0,0,0-1.217.708l-17.512,10.18c3.519-2.1,8.135-1.951,13.2.969l156.313,90.248c11.029,6.368,19.971,23.45,19.971,38.155V507.341c0,7.774-2.5,13.325-6.486,15.891l17.282-10.067v0c4.4-2.343,7.205-8.082,7.205-16.314V162.129C394.714,147.424,385.773,130.341,374.743,123.974Z" transform="translate(-180.461 -31.334)" fill="#37474f"/>
          <path id="Path_7079" data-name="Path 7079" d="M345.169,150.079V484.8c0,7.774-2.5,13.325-6.486,15.891l17.282-10.067v0c4.4-2.343,7.205-8.082,7.205-16.314V139.56l-18,10.452C345.168,150.035,345.169,150.056,345.169,150.079Z" transform="translate(-148.916 -8.792)" fill="#263238"/>
          <path id="Path_7080" data-name="Path 7080" d="M362.05,161.088l-18,10.392V179.6l18-10.392Z" transform="translate(-147.798 -4.308)" fill="#37474f"/>
          <g id="Group_4007" data-name="Group 4007" transform="translate(201.224 184.055)">
            <path id="Path_7081" data-name="Path 7081" d="M352.924,210.191h0c-1.611.929-2.916-.057-2.916-2.2V190.531a6.979,6.979,0,0,1,2.916-5.57h0c1.609-.93,2.914.057,2.914,2.2V204.62A6.982,6.982,0,0,1,352.924,210.191Z" transform="translate(-347.781 -183.463)" fill="#37474f"/>
            <path id="Path_7082" data-name="Path 7082" d="M350.392,208.185V190.728a6.979,6.979,0,0,1,2.916-5.57,1.869,1.869,0,0,1,1.839-.168l0-.021-2.177-1.13,0,.018a1.848,1.848,0,0,0-1.889.141,6.983,6.983,0,0,0-2.916,5.571v17.456a2.578,2.578,0,0,0,.991,2.327l0,.018,2.286,1.191,0-.021A2.519,2.519,0,0,1,350.392,208.185Z" transform="translate(-348.165 -183.661)" fill="#455a64"/>
          </g>
          <g id="Group_4008" data-name="Group 4008" transform="translate(201.224 226.313)">
            <path id="Path_7083" data-name="Path 7083" d="M352.924,245.165h0c-1.611.929-2.916-.057-2.916-2.2V225.5a6.979,6.979,0,0,1,2.916-5.57h0c1.609-.93,2.914.057,2.914,2.2v17.456A6.982,6.982,0,0,1,352.924,245.165Z" transform="translate(-347.781 -218.437)" fill="#37474f"/>
            <path id="Path_7084" data-name="Path 7084" d="M350.392,243.159V225.7a6.979,6.979,0,0,1,2.916-5.57,1.869,1.869,0,0,1,1.839-.168l0-.021-2.177-1.13,0,.018a1.848,1.848,0,0,0-1.889.141,6.983,6.983,0,0,0-2.916,5.57V242a2.578,2.578,0,0,0,.991,2.327l0,.018,2.286,1.191,0-.021A2.52,2.52,0,0,1,350.392,243.159Z" transform="translate(-348.165 -218.635)" fill="#455a64"/>
          </g>
          <path id="Path_7085" data-name="Path 7085" d="M350.6,139.869,196.98,51.158a4.237,4.237,0,0,0-6.356,3.668v335.2c0,11.194,7.931,24.931,17.625,30.526l149.889,86.54a4.666,4.666,0,0,0,7-4.04V165.044C365.138,155.814,358.6,144.485,350.6,139.869Z" transform="translate(-179.755 -27.324)" fill="#ba68c8"/>
          <path id="Path_7086" data-name="Path 7086" d="M350.6,139.869,196.98,51.158a4.237,4.237,0,0,0-6.356,3.668v335.2c0,11.194,7.931,24.931,17.625,30.526l149.889,86.54a4.666,4.666,0,0,0,7-4.04V165.044C365.138,155.814,358.6,144.485,350.6,139.869Z" transform="translate(-179.755 -27.324)" fill="#fff" opacity="0.9"/>
          <path id="Path_7087" data-name="Path 7087" d="M233.9,70.226,236.28,80.25,287.2,109.607l8.792-4.686Z" transform="translate(-170.741 -23.233)" fill="#455a64"/>
          <g id="Group_4009" data-name="Group 4009" transform="translate(72.911 51.808)">
            <path id="Path_7088" data-name="Path 7088" d="M247.184,79.08c0,1.663-1.167,2.336-2.606,1.5a5.759,5.759,0,0,1-2.606-4.513c0-1.663,1.167-2.336,2.606-1.506A5.763,5.763,0,0,1,247.184,79.08Z" transform="translate(-241.971 -74.211)" fill="#263238"/>
            <path id="Path_7089" data-name="Path 7089" d="M279.441,98.856a1.618,1.618,0,0,1-.794-.208L252.64,84.116a1.63,1.63,0,1,1,1.59-2.847L280.237,95.8a1.631,1.631,0,0,1-.8,3.055Z" transform="translate(-239.923 -72.784)" fill="#263238"/>
          </g>
        </g>
        <g id="Group_4011" data-name="Group 4011" transform="translate(35.861 88.246)">
          <path id="Path_7090" data-name="Path 7090" d="M218.518,109.721c-1.582-.913-2.728-.12-2.728,1.9a6.136,6.136,0,0,0,2.728,5.1,2.9,2.9,0,0,0,2.993-.011l2.524,4.565c-1.469,1-3.709.9-5.743-.272a14.639,14.639,0,0,1-6.984-11.9c0-4.478,3.012-6,7.154-3.608a16.455,16.455,0,0,1,5.573,6l-2.524,2A8.976,8.976,0,0,0,218.518,109.721Z" transform="translate(-211.308 -104.368)" fill="#ffd046"/>
          <path id="Path_7091" data-name="Path 7091" d="M236.367,123.587c0,4.52-3.048,6.086-7.247,3.662s-7.247-7.489-7.247-12.032c0-4.521,3.051-6,7.247-3.575S236.367,119.088,236.367,123.587Zm-10.014-5.761a6.59,6.59,0,0,0,2.824,5.261c1.507.87,2.711.022,2.711-2.065a6.291,6.291,0,0,0-2.711-5.152C227.651,114.99,226.352,115.74,226.352,117.826Z" transform="translate(-209.108 -103.094)" fill="#ffd046"/>
          <path id="Path_7092" data-name="Path 7092" d="M238.533,117.725l5.215,10.836v-7.825l3.952,2.281v15.239l-3.65-2.108-5.2-10.783v7.783l-3.972-2.293V115.617Z" transform="translate(-206.398 -102.025)" fill="#ffd046"/>
          <path id="Path_7093" data-name="Path 7093" d="M258.228,129.1v3.979l-3.765-2.174v11.26l-4.368-2.522v-11.26l-3.746-2.163v-3.979Z" transform="translate(-204.009 -100.646)" fill="#ffd046"/>
          <path id="Path_7094" data-name="Path 7094" d="M264.965,145.518l-4.952-2.86-.677,1.762-4.48-2.587,5.573-12.021,4.48,2.587,5.364,18.336-4.648-2.685Zm-1.073-4.229-1.354-5.238-1.393,3.651Z" transform="translate(-202.237 -99.068)" fill="#ffd046"/>
          <path id="Path_7095" data-name="Path 7095" d="M274.594,142.1c-1.583-.913-2.73-.12-2.73,1.9a6.134,6.134,0,0,0,2.73,5.1,2.9,2.9,0,0,0,2.992-.011l2.524,4.565c-1.469,1-3.709.9-5.743-.272a14.642,14.642,0,0,1-6.984-11.9c0-4.478,3.012-6,7.154-3.608a16.455,16.455,0,0,1,5.573,6l-2.524,2A8.975,8.975,0,0,0,274.594,142.1Z" transform="translate(-199.628 -97.625)" fill="#ffd046"/>
          <path id="Path_7096" data-name="Path 7096" d="M289.824,147.338v3.979l-3.764-2.174V160.4l-4.367-2.522v-11.26l-3.747-2.163V140.48Z" transform="translate(-197.428 -96.846)" fill="#ffd046"/>
          <path id="Path_7097" data-name="Path 7097" d="M299.554,164.216c1.073.619,1.9.141,1.9-1.381v-8.782l4.369,2.523v8.781c0,4.044-2.466,5.25-6.289,3.044a12.455,12.455,0,0,1-6.381-10.359v-8.781l4.368,2.522v8.781A4.485,4.485,0,0,0,299.554,164.216Z" transform="translate(-194.26 -95.017)" fill="#ffd046"/>
          <path id="Path_7098" data-name="Path 7098" d="M310.525,162.5c-.491-.283-.81-.294-.81.163,0,1.913,6.833,4.663,6.833,10.183,0,3.392-2.58,3.4-5.554,1.684a21.979,21.979,0,0,1-6.607-6.249l1.62-2.848a19.737,19.737,0,0,0,5.025,5.272c.64.37,1.055.37,1.055-.174,0-1.978-6.834-4.619-6.834-9.966,0-3.042,2.221-3.673,5.646-1.7a20.9,20.9,0,0,1,5.743,5.12l-1.58,2.913A23.863,23.863,0,0,0,310.525,162.5Z" transform="translate(-191.921 -93.251)" fill="#ffd046"/>
        </g>
      </g>
      <g id="Speech_bubble" data-name="Speech bubble" transform="translate(174.402 149.354)">
        <g id="Group_4013" data-name="Group 4013">
          <path id="Path_7099" data-name="Path 7099" d="M208.592,179.675a31.029,31.029,0,1,0-8.14,7.043l15.121,6.567Z" transform="translate(-153.466 -129.009)" fill="#ba68c8"/>
          <path id="Path_7100" data-name="Path 7100" d="M208.592,179.675a31.029,31.029,0,1,0-8.14,7.043l15.121,6.567Z" transform="translate(-153.466 -129.009)" fill="#00b3dd"/>
          <g id="Group_4012" data-name="Group 4012" transform="translate(13.068 24.331)">
            <path id="Path_7101" data-name="Path 7101" d="M170.771,154.114c0-.478-.34-.738-.959-.738a6.891,6.891,0,0,0-3.813,1.8l-1.717-3.335a10.959,10.959,0,0,1,6.25-2.2c2.9,0,5.092,1.518,5.092,3.794,0,1.617-1.179,3.174-2.756,4.732l-2.156,2.136h5.111v3.555H164.84l-.019-2.916,4.891-5.052A3.288,3.288,0,0,0,170.771,154.114Z" transform="translate(-164.281 -149.043)" fill="#fff"/>
            <path id="Path_7102" data-name="Path 7102" d="M182.6,149.807l-3.334,8.007h1.358v-2.7h4.212v2.7h1.6v3.294h-1.6v2.716h-4.212v-2.716h-5.971v-2.994l3.595-8.307Z" transform="translate(-162.12 -149.008)" fill="#fff"/>
            <path id="Path_7103" data-name="Path 7103" d="M197.162,156.994v6.968h-4.492V158.29a1.32,1.32,0,0,0-1.3-1.5c-.878,0-1.438.7-1.438,1.757v5.412H185.44V149.146h4.494V154.6a3.949,3.949,0,0,1,7.228,2.4Z" transform="translate(-159.874 -149.146)" fill="#fff"/>
          </g>
        </g>
      </g>
      <g id="Character" transform="translate(191.101 197.367)">
        <g id="Group_4025" data-name="Group 4025">
          <g id="Group_4024" data-name="Group 4024">
            <path id="Path_7104" data-name="Path 7104" d="M338.148,263.112V413.237a9.686,9.686,0,0,1-14.532,8.388l-80.862-46.691-14.322-8.26A32.544,32.544,0,0,1,212.2,338.553V188.416a9.688,9.688,0,0,1,14.532-8.389l95.173,54.964A32.457,32.457,0,0,1,338.148,263.112Z" transform="translate(-157.93 -166.669)" fill="#ba68c8"/>
            <path id="Path_7105" data-name="Path 7105" d="M338.148,263.112V413.237a9.686,9.686,0,0,1-14.532,8.388l-80.862-46.691-14.322-8.26A32.544,32.544,0,0,1,212.2,338.553V188.416a9.688,9.688,0,0,1,14.532-8.389l95.173,54.964A32.457,32.457,0,0,1,338.148,263.112Z" transform="translate(-157.93 -166.669)" fill="#4595b0" opacity="0.5"/>
            <g id="Group_4023" data-name="Group 4023">
              <path id="Path_7106" data-name="Path 7106" d="M286.308,322.078s15.142,25.108,4.2,53.423l-53.02-30.427Z" transform="translate(-152.664 -136.809)" fill="#263238"/>
              <g id="Group_4015" data-name="Group 4015" transform="translate(64.917 2.316)">
                <circle id="Ellipse_535" data-name="Ellipse 535" cx="16.976" cy="16.976" r="16.976" transform="matrix(0.122, -0.993, 0.993, 0.122, 57.085, 82.833)" fill="#263238"/>
                <g id="Group_4014" data-name="Group 4014">
                  <path id="Path_7107" data-name="Path 7107" d="M283.985,188.944s5.213-8.5,6.812-7.842-1.042,8.68-1.042,8.68,7.883,1.638,6.409,3.6-11.092,1.514-11.092,1.514Z" transform="translate(-207.896 -168.496)" fill="#263238"/>
                  <path id="Path_7108" data-name="Path 7108" d="M300.769,212.91c-3.665,27.237-26.586,27.237-26.586,27.237l-48.11-21.163s-3.63-3.177-4.735-10.483a31.846,31.846,0,0,1-.011-9.017c0-.023.011-.058.011-.081,1.536-11.45,10.1-23.771,28.762-27.551a61.39,61.39,0,0,1,12.414-1.188,55.233,55.233,0,0,1,6,.3c14.555,1.419,24.666,8.191,29.505,18.709a33.632,33.632,0,0,1,2.4,7.435A47.072,47.072,0,0,1,300.769,212.91Z" transform="translate(-221.012 -170.663)" fill="#263238"/>
                </g>
              </g>
              <g id="Group_4016" data-name="Group 4016" transform="translate(0 79.296)">
                <path id="Path_7109" data-name="Path 7109" d="M195.53,249.227s-17.077-.584-23.653,16.055c0,0,7.265,4.894,16.766.022S195.53,249.227,195.53,249.227Z" transform="translate(-166.329 -231.279)" fill="#ba68c8"/>
                <path id="Path_7110" data-name="Path 7110" d="M195.53,249.227s-17.077-.584-23.653,16.055c0,0,7.265,4.894,16.766.022S195.53,249.227,195.53,249.227Z" transform="translate(-166.329 -231.279)" opacity="0.5"/>
                <path id="Path_7111" data-name="Path 7111" d="M196,260.332s-4.817-20.993-7.373-21.254c-2.685-.273-3.047,6.409-2.839,10.163L179.7,236.247a3.264,3.264,0,0,0-4.541-1.464c-6.051,3.323-16.639,13.423,5.709,38.4Z" transform="translate(-167.286 -234.373)" fill="#945959"/>
                <path id="Path_7112" data-name="Path 7112" d="M256.908,243.957l-3.6-.477a20.779,20.779,0,0,0-19.343,8.122L212.4,280.314,195.53,250.462s-2.036,20.3-23.653,16.055l23.22,39.062a17.861,17.861,0,0,0,29.21,2.142l19.862-24.426Z" transform="translate(-166.329 -232.513)" fill="#00b3dd"/>
              </g>
              <path id="Path_7113" data-name="Path 7113" d="M293.592,311.066c-4.828,12.251-5.364,14.648-2.362,20.768a78.817,78.817,0,0,1,4.863,14.066s-22.4,25.108-54.288,15.7l-14.322-8.26a32.187,32.187,0,0,1-7.959-6.481l4.282-32.461a11.308,11.308,0,0,0-.512-5.1l-4.572-13.414a36.672,36.672,0,0,1,9.086-38.082L243.2,242.757l40.431,5.1,6,1.734a17.113,17.113,0,0,1,12.217,18.778C299.863,282.689,296.628,303.364,293.592,311.066Z" transform="translate(-156.981 -153.33)" fill="#ba68c8"/>
              <path id="Path_7114" data-name="Path 7114" d="M293.592,311.066c-4.828,12.251-5.364,14.648-2.362,20.768a78.817,78.817,0,0,1,4.863,14.066s-22.4,25.108-54.288,15.7l-14.322-8.26a32.187,32.187,0,0,1-7.959-6.481l4.282-32.461a11.308,11.308,0,0,0-.512-5.1l-4.572-13.414a36.672,36.672,0,0,1,9.086-38.082L243.2,242.757l40.431,5.1,6,1.734a17.113,17.113,0,0,1,12.217,18.778C299.863,282.689,296.628,303.364,293.592,311.066Z" transform="translate(-156.981 -153.33)" fill="#4595b0"/>
              <path id="Path_7115" data-name="Path 7115" d="M266.705,275.863l-8.1-6.9a6.5,6.5,0,0,0-6.327-1.2l-9.788,3.364-1.316-5.48a6.5,6.5,0,0,0-8.117-4.729l-4.242,1.223L236,248.394a25.7,25.7,0,0,1,10.372-10.606l2.812-1.55,23.261,1.2s8.672,3.592,8.672,11.782l-14.415,26.648" transform="translate(-154.469 -154.688)" fill="#00b3dd"/>
              <g id="Group_4018" data-name="Group 4018" transform="translate(88.024 53.316)">
                <g id="Group_4017" data-name="Group 4017" transform="translate(6.732)">
                  <path id="Path_7116" data-name="Path 7116" d="M269.034,252.557l-23.327,18.174v-57.86h23.327Z" transform="translate(-245.707 -212.871)" fill="#945959"/>
                </g>
                <path id="Path_7117" data-name="Path 7117" d="M247.23,241.774l-7.094,28.2,29.955-23.442Z" transform="translate(-240.136 -206.851)" fill="#945959"/>
              </g>
              <path id="Path_7118" data-name="Path 7118" d="M245.707,243.6a40.868,40.868,0,0,0,23.327-22.185v-8.544H245.707Z" transform="translate(-150.951 -159.555)" fill="#703838"/>
              <path id="Path_7119" data-name="Path 7119" d="M255.145,177.383c-8.847,0-27.655,4.93-29.827,28.076s-.075,41.108,11.871,42.829,39.68-6.927,43.395-36.891S263.775,177.383,255.145,177.383Z" transform="translate(-155.355 -166.947)" fill="#945959"/>
              <path id="Path_7120" data-name="Path 7120" d="M239.724,208.727v13.65l-7.993-2.454Z" transform="translate(-153.862 -160.418)" fill="#703838"/>
              <g id="Group_4019" data-name="Group 4019" transform="translate(72.922 38.427)">
                <circle id="Ellipse_536" data-name="Ellipse 536" cx="2.781" cy="2.781" r="2.781" transform="translate(19.053 9.461)" fill="#263238"/>
                <path id="Path_7121" data-name="Path 7121" d="M233.829,209.556a2.781,2.781,0,1,1-2.781-2.781A2.782,2.782,0,0,1,233.829,209.556Z" transform="translate(-227.506 -199.252)" fill="#263238"/>
                <path id="Path_7122" data-name="Path 7122" d="M227.79,205.061l5.437-3.23s-2.087-2.169-4.164-.865S227.79,205.061,227.79,205.061Z" transform="translate(-227.637 -200.549)" fill="#263238"/>
              </g>
              <path id="Path_7123" data-name="Path 7123" d="M235.235,224.949s4.415.4,7.49-2.006c0,0,.511,3.945-2.794,4.7S235.235,224.949,235.235,224.949Z" transform="translate(-153.133 -157.457)" fill="#703838"/>
              <path id="Path_7124" data-name="Path 7124" d="M231.311,185.989s3.326,31.965,46.783,32.962c0,0,13.129-31.761-12.82-42.08S231.311,185.989,231.311,185.989Z" transform="translate(-153.95 -167.683)" fill="#263238"/>
              <g id="Group_4022" data-name="Group 4022" transform="translate(89.626)">
                <g id="Group_4020" data-name="Group 4020" transform="translate(22.828 41.906)">
                  <path id="Path_7125" data-name="Path 7125" d="M284.835,207.885h0l-.024-.014-.018-.011-5.343-3.085v0c-2.024-1.194-4.83-1.039-7.934.754-6.165,3.558-11.162,12.215-11.162,19.333,0,3.563,1.253,6.066,3.278,7.229h0l5.246,3.012c.1.062.2.12.3.175l.179.1.008-.014c1.986.962,4.63.733,7.542-.947,6.163-3.56,11.161-12.215,11.161-19.333C288.073,211.55,286.836,209.06,284.835,207.885Z" transform="translate(-260.355 -203.307)" fill="#00b3dd"/>
                  <ellipse id="Ellipse_537" data-name="Ellipse 537" cx="15.785" cy="9.113" rx="15.785" ry="9.113" transform="matrix(0.5, -0.866, 0.866, 0.5, 0.772, 27.341)" fill="#ba68c8"/>
                  <ellipse id="Ellipse_538" data-name="Ellipse 538" cx="15.785" cy="9.113" rx="15.785" ry="9.113" transform="matrix(0.5, -0.866, 0.866, 0.5, 0.772, 27.341)" fill="#1a86a2" opacity="0.5"/>
                  <path id="Path_7126" data-name="Path 7126" d="M285.281,213.222h0l-.017-.008-.012-.008-3.656-2.111v0c-1.383-.817-3.3-.71-5.428.516a16.88,16.88,0,0,0-7.638,13.228c0,2.438.857,4.15,2.243,4.947h0l3.587,2.061c.07.042.139.082.211.121l.121.069.006-.01c1.359.659,3.168.5,5.161-.648a16.88,16.88,0,0,0,7.638-13.228C287.5,215.729,286.65,214.026,285.281,213.222Z" transform="translate(-258.652 -201.941)" fill="#00b3dd"/>
                  <path id="Path_7127" data-name="Path 7127" d="M286.86,217.785a16.88,16.88,0,0,1-7.638,13.228c-4.218,2.436-7.638.462-7.638-4.409a16.88,16.88,0,0,1,7.638-13.228C283.441,210.94,286.86,212.914,286.86,217.785Z" transform="translate(-258.016 -201.574)" fill="#ba68c8"/>
                  <path id="Path_7128" data-name="Path 7128" d="M286.86,217.785a16.88,16.88,0,0,1-7.638,13.228c-4.218,2.436-7.638.462-7.638-4.409a16.88,16.88,0,0,1,7.638-13.228C283.441,210.94,286.86,212.914,286.86,217.785Z" transform="translate(-258.016 -201.574)" fill="#00b3dd" opacity="0.3"/>
                </g>
                <path id="Path_7129" data-name="Path 7129" d="M271.427,172.938a20.067,20.067,0,0,0-12.088-4.183q-.524-.009-1.054-.008a65.306,65.306,0,0,0-13.2,1.263c.794-.031,1.589-.029,2.384,0h-2.384v2.241h2.243a29.866,29.866,0,0,1,28.845,29.889v9.506a2.678,2.678,0,0,0,2.959,2.673,2.207,2.207,0,0,0,.272-.057l2.384-.741v0a2.675,2.675,0,0,1-.5.1,2.973,2.973,0,0,0,2.557-3.009v-8.819C283.847,185.836,276.949,177.255,271.427,172.938Z" transform="translate(-240.707 -168.746)" fill="#00b3dd"/>
                <g id="Group_4021" data-name="Group 4021" transform="translate(0 69.538)">
                  <path id="Path_7130" data-name="Path 7130" d="M256.194,237.434a6.885,6.885,0,0,1-2.894-.638l-7.555-3.493a.9.9,0,0,1,.755-1.634l7.555,3.493a5.1,5.1,0,0,0,5.82-1.095l7.207-7.5a.9.9,0,0,1,1.3,1.248l-7.207,7.5A6.909,6.909,0,0,1,256.194,237.434Z" transform="translate(-240.679 -226.297)" fill="#ba68c8"/>
                  <path id="Path_7131" data-name="Path 7131" d="M256.194,237.434a6.885,6.885,0,0,1-2.894-.638l-7.555-3.493a.9.9,0,0,1,.755-1.634l7.555,3.493a5.1,5.1,0,0,0,5.82-1.095l7.207-7.5a.9.9,0,0,1,1.3,1.248l-7.207,7.5A6.909,6.909,0,0,1,256.194,237.434Z" transform="translate(-240.679 -226.297)" opacity="0.5"/>
                  <path id="Path_7132" data-name="Path 7132" d="M248.518,230.584a3.528,3.528,0,1,1-3.528-3.528A3.529,3.529,0,0,1,248.518,230.584Z" transform="translate(-241.462 -226.139)" fill="#ba68c8"/>
                  <path id="Path_7133" data-name="Path 7133" d="M248.518,230.584a3.528,3.528,0,1,1-3.528-3.528A3.529,3.529,0,0,1,248.518,230.584Z" transform="translate(-241.462 -226.139)" opacity="0.5"/>
                </g>
                <path id="Path_7134" data-name="Path 7134" d="M283.847,201.793v8.819a2.973,2.973,0,0,1-2.557,3.009,2.848,2.848,0,0,1-3.146-2.843v-8.985a31.776,31.776,0,0,0-33.059-31.784,65.306,65.306,0,0,1,13.2-1.263q.529,0,1.054.008a20.067,20.067,0,0,1,12.088,4.183C276.949,177.255,283.847,185.836,283.847,201.793Z" transform="translate(-240.707 -168.746)" fill="#ba68c8"/>
                <path id="Path_7135" data-name="Path 7135" d="M283.847,201.793v8.819a2.973,2.973,0,0,1-2.557,3.009,2.848,2.848,0,0,1-3.146-2.843v-8.985a31.776,31.776,0,0,0-33.059-31.784,65.306,65.306,0,0,1,13.2-1.263q.529,0,1.054.008a20.067,20.067,0,0,1,12.088,4.183C276.949,177.255,283.847,185.836,283.847,201.793Z" transform="translate(-240.707 -168.746)" fill="#00b3dd"/>
              </g>
              <path id="Path_7136" data-name="Path 7136" d="M266.057,333.771s-5.851,16.128,15.056,23.336c0,0,6.829-10.02,0-18.223S266.057,333.771,266.057,333.771Z" transform="translate(-146.87 -134.492)" fill="#ba68c8"/>
              <path id="Path_7137" data-name="Path 7137" d="M266.057,333.771s-5.851,16.128,15.056,23.336c0,0,6.829-10.02,0-18.223S266.057,333.771,266.057,333.771Z" transform="translate(-146.87 -134.492)" opacity="0.7"/>
              <path id="Path_7138" data-name="Path 7138" d="M275.817,334.277s-20.414,7.488-20.311,10.379,8.682.924,8.682.924l-3.135,2.049a19.171,19.171,0,0,0-7.305,8.921h0a3.512,3.512,0,0,0,1.617,4.409l7.757,4.109a3.705,3.705,0,0,0,5.058-1.637h0a7.262,7.262,0,0,1,4.246-3.65c4.216-1.406,12.048-5.446,15.233-16.482Z" transform="translate(-149.329 -134.268)" fill="#945959"/>
              <path id="Path_7139" data-name="Path 7139" d="M279.391,248.409s-10.864,6.06-5.1,24.387,16.621,46.8,16.621,46.8l-24.984,31.837a19.094,19.094,0,0,1,13.428,8.017,16.892,16.892,0,0,1,1.629,15.319l31-39.828a28.09,28.09,0,0,0,4.4-26.381l-13.335-38.815A32.517,32.517,0,0,0,282.5,249.436Z" transform="translate(-146.74 -152.153)" fill="#00b3dd"/>
            </g>
          </g>
        </g>
      </g>
      <g id="Icons" transform="translate(75.4 61.615)">
        <g id="Group_4040" data-name="Group 4040">
          <g id="Group_4029" data-name="Group 4029" transform="translate(0 95.184)">
            <g id="Group_4026" data-name="Group 4026">
              <path id="Path_7140" data-name="Path 7140" d="M136.321,163.649,88.268,135.906a4.017,4.017,0,0,0-3.831-.419h0a2.984,2.984,0,0,0-.375.217l-10.449,6.125c.021-.012.044-.019.064-.031-1.312.743-2.146,2.484-2.146,4.971V200.2c0,4.52,2.748,9.773,6.138,11.73l48.052,27.742c1.641.947,3.127.942,4.228.18-.028.02-.053.046-.083.065l10.38-6.091h0c1.353-.72,2.215-2.484,2.215-5.014V175.378C142.459,170.858,139.711,165.607,136.321,163.649Z" transform="translate(-71.53 -135.171)" fill="#ffd046"/>
              <path id="Path_7141" data-name="Path 7141" d="M140.382,168.713a12.266,12.266,0,0,0-4.42-5.064L87.91,135.906a4.017,4.017,0,0,0-3.832-.419h0a2.984,2.984,0,0,0-.375.217l-10.449,6.125a3.909,3.909,0,0,1,4.056.3l48.052,27.744a12.416,12.416,0,0,1,4.534,5.3h0Z" transform="translate(-71.171 -135.171)" fill="#ba68c8"/>
              <path id="Path_7142" data-name="Path 7142" d="M121.8,229.248c0,2.39-.77,4.1-1.995,4.886l10.38-6.091h0c1.353-.72,2.215-2.484,2.215-5.014V169.6a15.12,15.12,0,0,0-1.718-6.665L120.2,169.386h0a15.009,15.009,0,0,1,1.606,6.432Z" transform="translate(-61.474 -129.389)" fill="#ba68c8"/>
              <path id="Path_7143" data-name="Path 7143" d="M140.382,168.713a12.266,12.266,0,0,0-4.42-5.064L87.91,135.906a4.017,4.017,0,0,0-3.832-.419h0a2.984,2.984,0,0,0-.375.217l-10.449,6.125a3.909,3.909,0,0,1,4.056.3l48.052,27.744a12.416,12.416,0,0,1,4.534,5.3h0Z" transform="translate(-71.171 -135.171)" fill="#ffd046"/>
              <path id="Path_7144" data-name="Path 7144" d="M121.8,229.248c0,2.39-.77,4.1-1.995,4.886l10.38-6.091h0c1.353-.72,2.215-2.484,2.215-5.014V169.6a15.12,15.12,0,0,0-1.718-6.665L120.2,169.386h0a15.009,15.009,0,0,1,1.606,6.432Z" transform="translate(-61.474 -129.389)" fill="#ffd046"/>
            </g>
            <g id="Group_4027" data-name="Group 4027" transform="translate(14.22 33.154)">
              <path id="Path_7145" data-name="Path 7145" d="M115.325,191.2c0,6.917-2.745,9.275-6.861,6.9a9.727,9.727,0,0,1-4.584-6.009c-1.172,1.487-3.08,1.584-5.724.058-4.316-2.493-7.731-8.4-7.731-14.24,0-5.8,3.381-7.786,7.731-5.274a13.2,13.2,0,0,1,5.155,5.525v-2.28l4.55,2.628v12.519a3.587,3.587,0,0,0,1.607,3.4c1.539.888,2.476-.619,2.476-5.1,0-7.844-5.019-16.151-12.448-20.441-7.464-4.309-12.45-1.315-12.45,6.762a25.379,25.379,0,0,0,12.316,21.176,14.183,14.183,0,0,0,6.592,2.1l1.072,4.173c-2.042.019-5.02-1.043-7.664-2.569C89.69,194.949,83.3,183.685,83.3,173.484c0-10.086,6.458-13.892,16.2-8.268C108.9,170.644,115.325,181.5,115.325,191.2Zm-11.948-5.815a8.874,8.874,0,0,0-4.183-7.67c-2.443-1.41-4.149-.425-4.149,2.86a8.947,8.947,0,0,0,4.149,7.728C101.6,189.694,103.377,188.786,103.377,185.385Z" transform="translate(-83.299 -162.61)" fill="#ba68c8"/>
            </g>
            <g id="Group_4028" data-name="Group 4028" transform="translate(14.22 33.154)" opacity="0.9">
              <path id="Path_7146" data-name="Path 7146" d="M115.325,191.2c0,6.917-2.745,9.275-6.861,6.9a9.727,9.727,0,0,1-4.584-6.009c-1.172,1.487-3.08,1.584-5.724.058-4.316-2.493-7.731-8.4-7.731-14.24,0-5.8,3.381-7.786,7.731-5.274a13.2,13.2,0,0,1,5.155,5.525v-2.28l4.55,2.628v12.519a3.587,3.587,0,0,0,1.607,3.4c1.539.888,2.476-.619,2.476-5.1,0-7.844-5.019-16.151-12.448-20.441-7.464-4.309-12.45-1.315-12.45,6.762a25.379,25.379,0,0,0,12.316,21.176,14.183,14.183,0,0,0,6.592,2.1l1.072,4.173c-2.042.019-5.02-1.043-7.664-2.569C89.69,194.949,83.3,183.685,83.3,173.484c0-10.086,6.458-13.892,16.2-8.268C108.9,170.644,115.325,181.5,115.325,191.2Zm-11.948-5.815a8.874,8.874,0,0,0-4.183-7.67c-2.443-1.41-4.149-.425-4.149,2.86a8.947,8.947,0,0,0,4.149,7.728C101.6,189.694,103.377,188.786,103.377,185.385Z" transform="translate(-83.299 -162.61)" fill="#fff"/>
            </g>
          </g>
          <g id="Group_4033" data-name="Group 4033" transform="translate(0 190.367)">
            <g id="Group_4030" data-name="Group 4030">
              <path id="Path_7147" data-name="Path 7147" d="M136.321,242.424,88.268,214.682a4.018,4.018,0,0,0-3.831-.42h0a3.139,3.139,0,0,0-.375.216L73.612,220.6c.021-.012.044-.021.064-.033-1.312.744-2.146,2.485-2.146,4.971v53.432c0,4.52,2.748,9.771,6.138,11.729l48.052,27.744c1.641.947,3.127.941,4.228.18-.028.019-.053.045-.083.064l10.38-6.091h0c1.353-.72,2.215-2.484,2.215-5.016V254.154C142.459,249.633,139.711,244.382,136.321,242.424Z" transform="translate(-71.53 -213.946)" fill="#ffd046"/>
              <path id="Path_7148" data-name="Path 7148" d="M140.382,247.489a12.27,12.27,0,0,0-4.42-5.065L87.91,214.682a4.018,4.018,0,0,0-3.832-.42h0a3.139,3.139,0,0,0-.375.216L73.253,220.6a3.908,3.908,0,0,1,4.056.3l48.052,27.744a12.416,12.416,0,0,1,4.534,5.3h0Z" transform="translate(-71.171 -213.946)" fill="#ba68c8"/>
              <path id="Path_7149" data-name="Path 7149" d="M121.8,308.024c0,2.39-.77,4.1-1.995,4.885l10.38-6.091h0c1.353-.72,2.215-2.484,2.215-5.016V248.372a15.116,15.116,0,0,0-1.718-6.665L120.2,248.16h0a15.013,15.013,0,0,1,1.606,6.432Z" transform="translate(-61.474 -208.164)" fill="#ba68c8"/>
              <path id="Path_7150" data-name="Path 7150" d="M140.382,247.489a12.27,12.27,0,0,0-4.42-5.065L87.91,214.682a4.018,4.018,0,0,0-3.832-.42h0a3.139,3.139,0,0,0-.375.216L73.253,220.6a3.908,3.908,0,0,1,4.056.3l48.052,27.744a12.416,12.416,0,0,1,4.534,5.3h0Z" transform="translate(-71.171 -213.946)" fill="#ffd046"/>
              <path id="Path_7151" data-name="Path 7151" d="M121.8,308.024c0,2.39-.77,4.1-1.995,4.885l10.38-6.091h0c1.353-.72,2.215-2.484,2.215-5.016V248.372a15.116,15.116,0,0,0-1.718-6.665L120.2,248.16h0a15.013,15.013,0,0,1,1.606,6.432Z" transform="translate(-61.474 -208.164)" fill="#ffd046"/>
            </g>
            <g id="Group_4031" data-name="Group 4031" transform="translate(13.204 32.716)">
              <path id="Path_7152" data-name="Path 7152" d="M94.042,260.533,82.457,241.707v25.514Z" transform="translate(-82.457 -240.881)" fill="#ba68c8"/>
              <path id="Path_7153" data-name="Path 7153" d="M100.96,262.714l11.565,20.03v-25.47Z" transform="translate(-78.604 -237.638)" fill="#ba68c8"/>
              <path id="Path_7154" data-name="Path 7154" d="M83.914,241.023l11.9,19.337a.911.911,0,0,1,.135.153.949.949,0,0,1,.05.146l3.487,5.668,3-1.409a.934.934,0,0,1,.155-.137.97.97,0,0,1,.391-.121L115.058,259Z" transform="translate(-82.154 -241.023)" fill="#ba68c8"/>
              <path id="Path_7155" data-name="Path 7155" d="M102.893,263.254l-3.23,1.519a.954.954,0,0,1-.41.092.968.968,0,0,1-.824-.459l-3.542-5.756-11.631,6.716,31.283,18.061Z" transform="translate(-82.291 -237.352)" fill="#ba68c8"/>
            </g>
            <g id="Group_4032" data-name="Group 4032" transform="translate(13.204 32.716)" opacity="0.9">
              <path id="Path_7156" data-name="Path 7156" d="M94.042,260.533,82.457,241.707v25.514Z" transform="translate(-82.457 -240.881)" fill="#fff"/>
              <path id="Path_7157" data-name="Path 7157" d="M100.96,262.714l11.565,20.03v-25.47Z" transform="translate(-78.604 -237.638)" fill="#fff"/>
              <path id="Path_7158" data-name="Path 7158" d="M83.914,241.023l11.9,19.337a.911.911,0,0,1,.135.153.949.949,0,0,1,.05.146l3.487,5.668,3-1.409a.934.934,0,0,1,.155-.137.97.97,0,0,1,.391-.121L115.058,259Z" transform="translate(-82.154 -241.023)" fill="#fff"/>
              <path id="Path_7159" data-name="Path 7159" d="M102.893,263.254l-3.23,1.519a.954.954,0,0,1-.41.092.968.968,0,0,1-.824-.459l-3.542-5.756-11.631,6.716,31.283,18.061Z" transform="translate(-82.291 -237.352)" fill="#fff"/>
            </g>
          </g>
          <g id="Group_4039" data-name="Group 4039">
            <g id="Group_4034" data-name="Group 4034">
              <path id="Path_7160" data-name="Path 7160" d="M136.321,84.874,88.268,57.131a4.018,4.018,0,0,0-3.831-.42h0a2.986,2.986,0,0,0-.375.217L73.612,63.054c.021-.012.044-.021.064-.031-1.312.743-2.146,2.484-2.146,4.97v53.432c0,4.52,2.748,9.771,6.138,11.729L125.721,160.9c1.641.947,3.127.942,4.228.18-.028.019-.053.046-.083.064l10.38-6.091h0c1.353-.72,2.215-2.484,2.215-5.016V96.6C142.459,92.083,139.711,86.831,136.321,84.874Z" transform="translate(-71.53 -56.395)" fill="#ffd046"/>
              <path id="Path_7161" data-name="Path 7161" d="M140.382,89.938a12.259,12.259,0,0,0-4.42-5.064L87.91,57.131a4.018,4.018,0,0,0-3.832-.42h0a2.986,2.986,0,0,0-.375.217L73.253,63.054a3.906,3.906,0,0,1,4.056.3l48.052,27.742a12.416,12.416,0,0,1,4.534,5.3h0Z" transform="translate(-71.171 -56.395)" fill="#ba68c8"/>
              <path id="Path_7162" data-name="Path 7162" d="M121.8,150.473c0,2.39-.77,4.1-1.995,4.885l10.38-6.091h0c1.353-.72,2.215-2.484,2.215-5.016V90.821a15.12,15.12,0,0,0-1.718-6.665L120.2,90.609h0a15.018,15.018,0,0,1,1.606,6.433Z" transform="translate(-61.474 -50.613)" fill="#ba68c8"/>
              <path id="Path_7163" data-name="Path 7163" d="M140.382,89.938a12.259,12.259,0,0,0-4.42-5.064L87.91,57.131a4.018,4.018,0,0,0-3.832-.42h0a2.986,2.986,0,0,0-.375.217L73.253,63.054a3.906,3.906,0,0,1,4.056.3l48.052,27.742a12.416,12.416,0,0,1,4.534,5.3h0Z" transform="translate(-71.171 -56.395)" fill="#ffd046"/>
              <path id="Path_7164" data-name="Path 7164" d="M121.8,150.473c0,2.39-.77,4.1-1.995,4.885l10.38-6.091h0c1.353-.72,2.215-2.484,2.215-5.016V90.821a15.12,15.12,0,0,0-1.718-6.665L120.2,90.609h0a15.018,15.018,0,0,1,1.606,6.433Z" transform="translate(-61.474 -50.613)" fill="#ffd046"/>
            </g>
            <g id="Group_4036" data-name="Group 4036" transform="translate(14.675 27.925)">
              <g id="Group_4035" data-name="Group 4035">
                <path id="Path_7165" data-name="Path 7165" d="M113.614,128.392c-1.846-3.038-3.711-6.063-5.561-9.1a4.718,4.718,0,0,0-2.91-2.44c-.9-.192-1.794-.388-2.707-.662a1.712,1.712,0,0,1-.794-.673,76.584,76.584,0,0,1-7.16-16.436.876.876,0,0,1,.1-.733c.568-.569,1.17-1.09,1.781-1.6.753-.622.883-1.684.463-3.2-.893-3.227-1.756-6.45-2.64-9.676-.579-2.111-1.886-3.636-3.461-4.018a9.765,9.765,0,0,0-5.922.215c-.739.286-1.12.952-1.129,2.094.3,2.212.516,4.4.93,6.643q4.482,24.31,21.52,44.76a3.431,3.431,0,0,0,2.691,1.541,8.017,8.017,0,0,0,5.1-1.965C115,132.2,114.886,130.484,113.614,128.392Z" transform="translate(-83.675 -79.506)" fill="#ba68c8"/>
                <path id="Path_7166" data-name="Path 7166" d="M109.814,109.323a25.743,25.743,0,0,0-2.856-9.96,29.887,29.887,0,0,0-4.525-6.654c-.478-.53-.881-.7-1.112-.295s-.007.964.457,1.485c.158.178.315.356.469.543a25.433,25.433,0,0,1,6.021,13.687,4.276,4.276,0,0,0,.106,1.1,2.754,2.754,0,0,0,.715,1.094c.25.178.538,0,.744-.017C109.825,109.833,109.83,109.583,109.814,109.323Z" transform="translate(-80.019 -76.865)" fill="#ba68c8"/>
                <path id="Path_7167" data-name="Path 7167" d="M99.348,98.434a10.155,10.155,0,0,1,2.621,6,3.755,3.755,0,0,0,.379.973c.735.609,1.1.4,1.1-.355a13.409,13.409,0,0,0-3.4-7.751c-.456-.471-.839-.615-1.055-.219A1.256,1.256,0,0,0,99.348,98.434Z" transform="translate(-80.503 -75.895)" fill="#ba68c8"/>
              </g>
            </g>
            <g id="Group_4038" data-name="Group 4038" transform="translate(14.675 27.925)" opacity="0.9">
              <g id="Group_4037" data-name="Group 4037">
                <path id="Path_7168" data-name="Path 7168" d="M113.614,128.392c-1.846-3.038-3.711-6.063-5.561-9.1a4.718,4.718,0,0,0-2.91-2.44c-.9-.192-1.794-.388-2.707-.662a1.712,1.712,0,0,1-.794-.673,76.584,76.584,0,0,1-7.16-16.436.876.876,0,0,1,.1-.733c.568-.569,1.17-1.09,1.781-1.6.753-.622.883-1.684.463-3.2-.893-3.227-1.756-6.45-2.64-9.676-.579-2.111-1.886-3.636-3.461-4.018a9.765,9.765,0,0,0-5.922.215c-.739.286-1.12.952-1.129,2.094.3,2.212.516,4.4.93,6.643q4.482,24.31,21.52,44.76a3.431,3.431,0,0,0,2.691,1.541,8.017,8.017,0,0,0,5.1-1.965C115,132.2,114.886,130.484,113.614,128.392Z" transform="translate(-83.675 -79.506)" fill="#fff"/>
                <path id="Path_7169" data-name="Path 7169" d="M109.814,109.323a25.743,25.743,0,0,0-2.856-9.96,29.887,29.887,0,0,0-4.525-6.654c-.478-.53-.881-.7-1.112-.295s-.007.964.457,1.485c.158.178.315.356.469.543a25.433,25.433,0,0,1,6.021,13.687,4.276,4.276,0,0,0,.106,1.1,2.754,2.754,0,0,0,.715,1.094c.25.178.538,0,.744-.017C109.825,109.833,109.83,109.583,109.814,109.323Z" transform="translate(-80.019 -76.865)" fill="#fff"/>
                <path id="Path_7170" data-name="Path 7170" d="M99.348,98.434a10.155,10.155,0,0,1,2.621,6,3.755,3.755,0,0,0,.379.973c.735.609,1.1.4,1.1-.355a13.409,13.409,0,0,0-3.4-7.751c-.456-.471-.839-.615-1.055-.219A1.256,1.256,0,0,0,99.348,98.434Z" transform="translate(-80.503 -75.895)" fill="#fff"/>
              </g>
            </g>
          </g>
        </g>
      </g>
      <g id="Clouds" transform="translate(381.501 51.955)">
        <path id="Path_7171" data-name="Path 7171" d="M330.1,54.538l11.324,6.443V56.973c-.017-.285-.035-.572-.035-.852s.018-.545.035-.81v-.094l0,0c.407-5.312,4.43-7.348,9.339-4.513a18.124,18.124,0,0,1,5.575,5.355c1.108-7.215,6.992-9.819,14.107-5.71,7.9,4.562,14.31,15.659,14.31,24.784l.007,8.586a3.9,3.9,0,0,0,1.926,3.361l6.663,3.909a9.6,9.6,0,0,1,4.744,8.284,3.955,3.955,0,0,1-5.933,3.426L330.27,66.947a10.816,10.816,0,0,1-5.406-9.365A3.5,3.5,0,0,1,330.1,54.538Z" transform="translate(-324.864 -48.4)" fill="#fff"/>
        <path id="Path_7172" data-name="Path 7172" d="M401.282,52.863l8.236,4.686V54.635c-.013-.208-.027-.416-.027-.62s.013-.4.027-.588v-.069l0,0c.3-3.863,3.221-5.343,6.792-3.283a13.179,13.179,0,0,1,4.055,3.9c.8-5.248,5.084-7.141,10.258-4.153,5.747,3.318,10.406,11.387,10.406,18.024l0,6.243a2.838,2.838,0,0,0,1.4,2.444l4.844,2.842a6.985,6.985,0,0,1,3.451,6.025,2.878,2.878,0,0,1-4.316,2.492l-45.01-26a7.867,7.867,0,0,1-3.931-6.811A2.547,2.547,0,0,1,401.282,52.863Z" transform="translate(-309.74 -48.4)" fill="#fff"/>
      </g>
    </g>
    <g id="Group_4001" data-name="Group 4001" transform="translate(1260.379 582.711)">
      <path id="Path_4024" data-name="Path 4024" d="M79.14,20.593l.326,56.978-48.6,29.674Z" transform="translate(-30.869 -20.593)" fill="#00b3dd"/>
      <path id="Path_4025" data-name="Path 4025" d="M56.963,77.571l48.53,28.908L56.637,20.593Z" transform="translate(-8.365 -20.593)" fill="#42d6f9"/>
      <path id="Path_4026" data-name="Path 4026" d="M30.87,80.682l48.6-29.674L128,79.915Z" transform="translate(-30.869 5.971)" fill="#35859e"/>
      <g id="Group_3745" data-name="Group 3745" transform="translate(56.567 36.154)" opacity="0.5" style="mix-blend-mode: multiply;isolation: isolate">
        <g id="Group_3744" data-name="Group 3744">
          <g id="Group_3743" data-name="Group 3743" clip-path="url(#clip-path)">
            <g id="Group_3742" data-name="Group 3742" transform="translate(0.001)">
              <g id="Group_3741" data-name="Group 3741" clip-path="url(#clip-path-2)">
                <rect id="Rectangle_393" data-name="Rectangle 393" width="59.739" height="58.047" transform="matrix(0.586, -0.81, 0.81, 0.586, -21.817, 30.173)" fill="url(#linear-gradient)"/>
              </g>
            </g>
          </g>
        </g>
      </g>
    </g>
    <g id="Group_4002" data-name="Group 4002" transform="translate(1316.946 588.683)">
      <path id="Path_4031" data-name="Path 4031" d="M119.738,23.781,98.912,55.45,61.065,53.963Z" transform="translate(-61.065 -23.78)" fill="#ffe189"/>
      <path id="Path_4032" data-name="Path 4032" d="M81.268,55.45l16.212,33.9,4.614-65.566Z" transform="translate(-43.42 -23.781)" fill="#dda708"/>
      <path id="Path_4033" data-name="Path 4033" d="M61.065,39.892l37.848,1.487,16.212,33.9Z" transform="translate(-61.064 -9.71)" fill="#ffd046"/>
    </g>
  </g>
</svg>
