<svg xmlns="http://www.w3.org/2000/svg" width="22.649" height="16.48" viewBox="0 0 22.649 16.48">
  <g id="Group_3862" data-name="Group 3862" transform="translate(-12377.64 426.939)">
    <path id="Path_3552" data-name="Path 3552" d="M183.924,0a2.082,2.082,0,0,0-1.782,1.043l-2.961,5.128L176.22,11.3a2.086,2.086,0,0,0,1.756,3.128h.1l.079-.046c5.881-3.4,6-3.448,11.707.062a2.086,2.086,0,0,0,1.852-3.128l-2.577-4.463-1.925-3.334-1.432-2.436A2.087,2.087,0,0,0,183.99,0Z" transform="translate(12207.792 -425.404)" fill="none" stroke="#6d80c4" stroke-width="1"/>
    <path id="Path_3559" data-name="Path 3559" d="M17.051,0a2.114,2.114,0,0,0-.819.178h0L16.2.192h0l-.03.014h0a2.076,2.076,0,0,0-.544.379h0L15.6.61h0l-.023.024,0,0L15.55.662l0,0-.022.024,0,0L15.5.712,15.5.722,15.481.74l-.007.009-.016.02,0,.006-.016.02L15.428.8l-.013.018-.008.011-.012.016-.01.014-.011.015-.01.014-.01.014-.011.016,0,0-.015.023,0,.006-.016.025,0,0-.017.027v0l-.018.03L12.308,6.171,9.347,11.3a2.086,2.086,0,0,0,.763,2.849c1.616.921,3.091-.918,4.422-1.562A2.076,2.076,0,0,1,14.8,11.3L19.808,2.62l-.9-1.538A2.088,2.088,0,0,0,17.143,0h-.092Z" transform="translate(12369.199 -426.439)" fill="none" stroke="#6d80c4" stroke-width="1"/>
  </g>
</svg>
