<svg xmlns="http://www.w3.org/2000/svg" xmlns:xlink="http://www.w3.org/1999/xlink" width="609.475" height="609.322" viewBox="0 0 609.475 609.322">
  <defs>
    <clipPath id="clip-path">
      <path id="Path_6989" data-name="Path 6989" d="M290.327,19.14C160.223,36.147,96.211,142.2,84.093,161.3,17.843,265.761,4.543,424,89.954,524.445c56.454,66.389,134.54,82.248,174.936,90.453a383.7,383.7,0,0,0,75.509,7.374h.231c53.218-.018,124.673-10.879,189.116-57.118,9.254-6.64,20.967-15.044,33.346-28.076,44.242-46.577,69.828-123.716,69.879-204.485v-.466c-.054-90.349-32.065-185.179-105.657-246.834C471.748,38.739,398.5,16.6,329.963,16.6a306.33,306.33,0,0,0-39.636,2.541" transform="translate(-30.117 -16.599)" fill="#02256e"/>
    </clipPath>
    <clipPath id="clip-path-2">
      <rect id="Rectangle_494" data-name="Rectangle 494" width="609.475" height="609.322" fill="none"/>
    </clipPath>
    <clipPath id="clip-path-3">
      <rect id="Rectangle_491" data-name="Rectangle 491" width="124.046" height="307.396" fill="none"/>
    </clipPath>
    <clipPath id="clip-path-4">
      <rect id="Rectangle_492" data-name="Rectangle 492" width="123.991" height="133.394" fill="none"/>
    </clipPath>
    <clipPath id="clip-path-5">
      <rect id="Rectangle_493" data-name="Rectangle 493" width="105.446" height="70.964" fill="none"/>
    </clipPath>
    <clipPath id="clip-path-6">
      <path id="Path_6996" data-name="Path 6996" d="M728.812,207.715a26.418,26.418,0,0,0-24.1,26.265c-.237,83.614-.628,372.019,4.822,474.1A20.514,20.514,0,0,0,729.8,727.5c53.561.577,207.629,1.636,295.094-3.959a34.543,34.543,0,0,0,32.372-34.509c-.106-87.755-1.508-334.553-13.529-447.362a28.191,28.191,0,0,0-25.857-25.122c-45.442-3.54-149.416-10.9-228.908-10.9-22.7,0-43.388.6-60.163,2.058" transform="translate(-704.594 -205.657)" fill="none"/>
    </clipPath>
    <clipPath id="clip-path-7">
      <path id="Path_6997" data-name="Path 6997" d="M817.664,321.241c-11.823.985-20.982,11.149-21.164,23.532-1.052,71.524-4.047,309.454,1.181,397.271.764,12.835,10.734,22.969,23.045,23.4,50.688,1.767,180.67,5.185,254.736-2.965,13.337-1.468,23.53-13.028,23.885-27.026,1.853-72.99,6.857-294.595,1.776-381.429-.811-13.853-11.394-24.906-24.66-25.8-42.566-2.868-136.9-8.642-206.474-8.642-20.134,0-38.192.483-52.327,1.66" transform="translate(-794.69 -319.581)" fill="none"/>
    </clipPath>
    <clipPath id="clip-path-8">
      <path id="Path_6998" data-name="Path 6998" d="M1363.448,253.268c-3.4.2-3.586,4.064-3.475,3.791a3.709,3.709,0,0,0,3.595,3.632c9.753.3,37.229,1.137,49.509,1.58a3.712,3.712,0,0,0,3.761-4.5,3.786,3.786,0,0,0-3.458-3.327c-6.434-.447-22.921-1.483-37.723-1.483-4.309,0-8.474.088-12.208.3" transform="translate(-1359.951 -252.965)" fill="#1a0f80"/>
    </clipPath>
    <clipPath id="clip-path-10">
      <path id="Path_7000" data-name="Path 7000" d="M1098.908,609.137a28.6,28.6,0,1,0,28.6-28.6,28.6,28.6,0,0,0-28.6,28.6" transform="translate(-1098.908 -580.538)" fill="#00ccf9"/>
    </clipPath>
    <clipPath id="clip-path-11">
      <path id="Path_7001" data-name="Path 7001" d="M1073,888.411c-22.229.745-37.011,13.6-46.04,25.641a65.26,65.26,0,0,0,90.914-2.574c-8.852-11.6-22.748-23.1-43.049-23.1q-.9,0-1.826.031" transform="translate(-1026.956 -888.38)" fill="#00ccf9"/>
    </clipPath>
    <clipPath id="clip-path-13">
      <rect id="Rectangle_501" data-name="Rectangle 501" width="90.334" height="92.2" fill="none"/>
    </clipPath>
    <clipPath id="clip-path-14">
      <path id="Rectangle_504" data-name="Rectangle 504" d="M18.378,0H83.6a18.378,18.378,0,0,1,18.378,18.378v0A18.377,18.377,0,0,1,83.6,36.756H18.377A18.377,18.377,0,0,1,0,18.378v0A18.378,18.378,0,0,1,18.378,0Z" fill="#01ccf9"/>
    </clipPath>
    <clipPath id="clip-path-16">
      <rect id="Rectangle_505" data-name="Rectangle 505" width="250.97" height="138.465" fill="none"/>
    </clipPath>
    <clipPath id="clip-path-17">
      <path id="Path_7064" data-name="Path 7064" d="M1722.106,1754.776l17.685-41.663-49.718-4.785Z" transform="translate(-1690.073 -1708.328)" fill="none"/>
    </clipPath>
    <clipPath id="clip-path-18">
      <path id="Path_7065" data-name="Path 7065" d="M1345.14,1070.774a5.724,5.724,0,0,0,1.06,10.558l195.446,57.189a14.279,14.279,0,0,0,17.856-10.214l49.557-196.53Z" transform="translate(-1342.083 -931.777)" fill="none"/>
    </clipPath>
    <clipPath id="clip-path-19">
      <path id="Path_7066" data-name="Path 7066" d="M1690.159,1102.475l39.848,22.586-8.335-13.259L1880.62,931.777Z" transform="translate(-1690.159 -931.777)" fill="none"/>
    </clipPath>
    <clipPath id="clip-path-20">
      <path id="Path_7067" data-name="Path 7067" d="M1834.016,1787.861l18.226-31.737-18.726-5.388Z" transform="translate(-1833.515 -1750.736)" fill="none"/>
    </clipPath>
    <clipPath id="clip-path-21">
      <rect id="Rectangle_394" data-name="Rectangle 394" width="48.41" height="57.914" fill="none"/>
    </clipPath>
    <clipPath id="clip-path-22">
      <path id="Path_4027" data-name="Path 4027" d="M61.065,39.892,85.7,56.019l23.77,41.786Z" transform="translate(-61.065 -39.892)" fill="none"/>
    </clipPath>
    <linearGradient id="linear-gradient" x1="-1.736" y1="1.92" x2="-1.705" y2="1.92" gradientUnits="objectBoundingBox">
      <stop offset="0" stop-color="#fff"/>
      <stop offset="0.005" stop-color="#fff"/>
      <stop offset="0.142" stop-color="#f3f3f3"/>
      <stop offset="0.383" stop-color="#d5d5d5"/>
      <stop offset="0.699" stop-color="#a5a5a5"/>
      <stop offset="1" stop-color="#727272"/>
    </linearGradient>
  </defs>
  <g id="Group_4003" data-name="Group 4003" transform="translate(-1169.525 -180.794)">
    <g id="Group_3999" data-name="Group 3999" transform="translate(1169.525 180.794)">
      <g id="Group_4000" data-name="Group 4000">
        <g id="Group_3954" data-name="Group 3954" transform="translate(6.62 3.649)" opacity="0.242">
          <g id="Group_3953" data-name="Group 3953" clip-path="url(#clip-path)">
            <rect id="Rectangle_490" data-name="Rectangle 490" width="869.332" height="865.88" transform="matrix(0.779, -0.627, 0.627, 0.779, -321.439, 238.227)" fill="#4c77d1"/>
          </g>
        </g>
        <g id="Group_3965" data-name="Group 3965">
          <g id="Group_3964" data-name="Group 3964" clip-path="url(#clip-path-2)">
            <path id="Path_6990" data-name="Path 6990" d="M240.681,539s1.869-78.594-34.33-99.629S101.323,405.181,98.743,292.328C97.233,226.258,95.6,197.372,94.5,184.776a7.439,7.439,0,0,1,8.785-7.967c34.284,6.459,145.658,33.042,169.008,109.06C299.978,375.989,240.681,539,240.681,539" transform="translate(-73.706 -137.84)" fill="#00b3dd" opacity="0.414"/>
            <g id="Group_3957" data-name="Group 3957" transform="translate(53.669 70.009)" opacity="0.5">
              <g id="Group_3956" data-name="Group 3956">
                <g id="Group_3955" data-name="Group 3955" clip-path="url(#clip-path-3)">
                  <path id="Path_6991" data-name="Path 6991" d="M246.573,318.837C284.206,352.4,327.723,411.8,350.917,471.2c2.977,9.79,11.686,30.609,15.468,67.6,3.378,30.85,1.7,63.449-2.4,85.028a2.514,2.514,0,0,1-2.939,2,2.55,2.55,0,0,1-2.013-2.888c4.678-36.868,2.736-82.757-7.982-124.161-13.694-50.84-44.236-100.131-75.827-141.938l-3.251-4.117c-24.475-31.432-29.628-31.663-27.34-33.855a1.432,1.432,0,0,1,1.936-.034" transform="translate(-244.146 -318.478)" fill="#fff"/>
                </g>
              </g>
            </g>
            <path id="Path_6992" data-name="Path 6992" d="M225.149,1432.27c4.9,2.4-46.366-62.063-62.425-163.309-7.567-47.71-7.666-107.486-34.843-130.522-22.619-19.172-99.589-7.068-124.774-2.468a3.777,3.777,0,0,0-1.757,6.607c12.077,10.143,37.913,34.068,44.645,58.179,8.873,31.781,39.088,52,66.138,57.466s42.1,10.78,55.275,54.038,43.825,113.185,57.741,120.009" transform="translate(0 -880.006)" fill="#35859e" opacity="0.719"/>
            <g id="Group_3960" data-name="Group 3960" transform="translate(37.807 269.391)" opacity="0.5">
              <g id="Group_3959" data-name="Group 3959">
                <g id="Group_3958" data-name="Group 3958" clip-path="url(#clip-path-4)">
                  <path id="Path_6993" data-name="Path 6993" d="M172.711,1225.5c32.132,1.346,66.622,16,84.125,43.5l1.652,2.624c3.816,6.152,25.44,49.884,37.45,86.135a.863.863,0,0,1-.547,1.09.879.879,0,0,1-1.079-.516c-8.368-20.479-20.386-46.444-29.957-65.86-10.265-21.187-17.448-35.536-40.861-49.28-26.06-14.8-50.956-16.325-50.881-16.31a.692.692,0,0,1,.1-1.379" transform="translate(-171.99 -1225.494)" fill="#fff"/>
                </g>
              </g>
            </g>
            <path id="Path_6994" data-name="Path 6994" d="M215.909,1862.195c2.906,1.532-16.371-31.648-17.85-60.881s-8.074-79.126-33.283-108.972-52.815-32.569-87.6-5.436c-28.988,22.61-47.069,34.021-57.674,36.142a4.007,4.007,0,0,0-2.688,5.843c6.8,12.525,26.031,41.3,58.317,39.27,41.184-2.584,91.1-29.356,106.308-7.022s13.259,34.831,13.727,45.415,1.509,45.5,20.743,55.641" transform="translate(-12.736 -1301.451)" fill="#99784c" opacity="0.406"/>
            <g id="Group_3963" data-name="Group 3963" transform="translate(75.879 399.258)" opacity="0.5">
              <g id="Group_3962" data-name="Group 3962">
                <g id="Group_3961" data-name="Group 3961" clip-path="url(#clip-path-5)">
                  <path id="Path_6995" data-name="Path 6995" d="M345.43,1838.307c12.617-12.1,33.165-23.982,51.123-21.765,23.365,3.763,38.929,19.366,47.419,42.592a141.712,141.712,0,0,1,6.647,27.215.769.769,0,0,1-1.5.312c-1.428-5.678-2.842-11.624-4.958-17.773-12.315-39.672-38.6-45.016-39.627-45.827-1.987.2-14.036-8.824-42.626,6.56a126.89,126.89,0,0,0-15.414,9.882l-.027.02a.8.8,0,0,1-1.032-1.216" transform="translate(-345.184 -1816.273)" fill="#fff"/>
                </g>
              </g>
            </g>
          </g>
        </g>
        <g id="Group_3967" data-name="Group 3967" transform="translate(154.886 45.208)">
          <g id="Group_3966" data-name="Group 3966" clip-path="url(#clip-path-6)">
            <rect id="Rectangle_495" data-name="Rectangle 495" width="488.314" height="602.702" transform="matrix(0.958, -0.286, 0.286, 0.958, -144.13, 42.92)" fill="#ffd046"/>
          </g>
        </g>
        <g id="Group_3969" data-name="Group 3969" transform="translate(174.691 70.251)">
          <g id="Group_3968" data-name="Group 3968" clip-path="url(#clip-path-7)">
            <rect id="Rectangle_496" data-name="Rectangle 496" width="477.62" height="542.263" transform="translate(-177.764 83.922) rotate(-25.553)" fill="#ffe189"/>
          </g>
        </g>
        <g id="Group_3971" data-name="Group 3971" transform="translate(298.948 55.607)">
          <g id="Group_3970" data-name="Group 3970" clip-path="url(#clip-path-8)">
            <rect id="Rectangle_497" data-name="Rectangle 497" width="14.009" height="58.057" transform="translate(-0.845 9.332) rotate(-85.365)" fill="#1a0f80"/>
          </g>
        </g>
        <g id="Group_3973" data-name="Group 3973">
          <g id="Group_3972" data-name="Group 3972" clip-path="url(#clip-path-2)">
            <path id="Path_6999" data-name="Path 6999" d="M1040.927,526.4a73.277,73.277,0,1,1-73.278-73.277,73.277,73.277,0,0,1,73.278,73.277" transform="translate(-697.769 -353.512)" fill="#fff"/>
          </g>
        </g>
        <g id="Group_3975" data-name="Group 3975" transform="translate(241.565 127.615)">
          <g id="Group_3974" data-name="Group 3974" clip-path="url(#clip-path-10)">
            <rect id="Rectangle_499" data-name="Rectangle 499" width="74.414" height="74.414" transform="translate(-19.807 7.969) rotate(-21.917)" fill="#00ccf9"/>
          </g>
        </g>
        <g id="Group_3977" data-name="Group 3977" transform="translate(225.748 195.286)">
          <g id="Group_3976" data-name="Group 3976" clip-path="url(#clip-path-11)">
            <rect id="Rectangle_500" data-name="Rectangle 500" width="100.277" height="81.691" transform="matrix(0.874, -0.487, 0.487, 0.874, -18.223, 10.155)" fill="#00ccf9"/>
          </g>
        </g>
        <g id="Group_3982" data-name="Group 3982">
          <g id="Group_3981" data-name="Group 3981" clip-path="url(#clip-path-2)">
            <g id="Group_3980" data-name="Group 3980" transform="translate(367.805 129.548)" opacity="0.8">
              <g id="Group_3979" data-name="Group 3979">
                <g id="Group_3978" data-name="Group 3978" clip-path="url(#clip-path-13)">
                  <path id="Path_7002" data-name="Path 7002" d="M1764.622,608.451l-83.764-1.279a2.639,2.639,0,0,1-2.591-2.671l.192-12.578a2.639,2.639,0,0,1,2.671-2.591l83.764,1.279a2.639,2.639,0,0,1,2.591,2.671l-.192,12.578a2.639,2.639,0,0,1-2.671,2.591" transform="translate(-1677.151 -589.332)" fill="#fff"/>
                  <path id="Path_7003" data-name="Path 7003" d="M1762.232,774.679l-83.764-1.278a2.639,2.639,0,0,1-2.591-2.671l.192-12.578a2.639,2.639,0,0,1,2.671-2.591l83.764,1.279a2.639,2.639,0,0,1,2.59,2.671l-.192,12.578a2.638,2.638,0,0,1-2.671,2.59" transform="translate(-1675.287 -719.019)" fill="#fff"/>
                  <path id="Path_7004" data-name="Path 7004" d="M1759.547,940.906l-83.764-1.279a2.639,2.639,0,0,1-2.591-2.671l.192-12.578a2.639,2.639,0,0,1,2.671-2.591l83.764,1.279a2.639,2.639,0,0,1,2.591,2.671l-.192,12.578a2.639,2.639,0,0,1-2.671,2.591" transform="translate(-1673.192 -848.706)" fill="#fff"/>
                </g>
              </g>
            </g>
            <path id="Path_7005" data-name="Path 7005" d="M1733.836,405.894a.8.8,0,0,1-.521-.688c-.078-1.049-.136-2.116-.171-3.174a.778.778,0,0,1,.774-.8c1.07-.024.781,1.044.993,3.882a.777.777,0,0,1-.739.831.817.817,0,0,1-.335-.051" transform="translate(-1352.16 -313.032)" fill="#bdd0fb"/>
            <path id="Path_7006" data-name="Path 7006" d="M1734.581,113.07c.2-2.011.476-4.038.832-6.026a.786.786,0,0,1,.927-.624c1.185.229.412.9-.166,6.823a.782.782,0,0,1-.873.695.8.8,0,0,1-.72-.868m3.191-15.61c.61-1.935,1.308-3.882,2.053-5.718a.8.8,0,0,1,1.488.6c-.741,1.831-1.414,3.71-2.011,5.6a.8.8,0,0,1-1.529-.486m6.336-14.607c.992-1.756,2.068-3.5,3.2-5.169a.8.8,0,0,1,1.337.884c-1.108,1.64-2.163,3.344-3.135,5.064a.8.8,0,0,1-1.4-.779m9.348-11.875a.779.779,0,0,1-.085-1.11c1.341-1.514,2.761-2.995,4.222-4.4.751-.723,1.879.41,1.129,1.132-1.431,1.378-2.823,2.829-4.137,4.312a.806.806,0,0,1-1.128.067m11.566-10.817a.774.774,0,0,1,.146-1.1c1.632-1.21,3.333-2.371,5.056-3.45a.8.8,0,0,1,.874,1.33c-1.688,1.058-3.355,2.195-4.954,3.381a.814.814,0,0,1-1.122-.16m14.034-7.849a.806.806,0,0,1-.443-.4.772.772,0,0,1,.37-1.045c1.853-.857,3.762-1.651,5.675-2.362a.815.815,0,0,1,1.037.46.772.772,0,0,1-.452,1.013c-1.875.7-3.746,1.475-5.562,2.315a.808.808,0,0,1-.626.021m15.1-5.194a.808.808,0,0,1-.5-.553.774.774,0,0,1,.579-.947c1.994-.466,4.033-.86,6.061-1.171a.811.811,0,0,1,.923.656.774.774,0,0,1-.654.9c-1.987.3-3.984.691-5.938,1.148a.816.816,0,0,1-.473-.032m15.386-2.759a.778.778,0,0,1,.766-.807c2.053-.054,4.138-.028,6.2.077a.786.786,0,1,1-.059,1.571c-2.017-.1-4.059-.128-6.071-.075a.809.809,0,0,1-.833-.765M1860.8,61.443c-4.792-3.659-5.869-3.6-5.212-4.592a.8.8,0,0,1,1.106-.219c1.73,1.121,3.438,2.324,5.076,3.575a.786.786,0,1,1-.969,1.237M1825.6,45.4a.785.785,0,0,1,.92-.633c2.028.36,4.069.8,6.069,1.317a.784.784,0,1,1-.383,1.521c-1.959-.5-3.961-.938-5.947-1.291a.8.8,0,0,1-.659-.914m21.6,7.687c-5.423-2.621-6.479-2.352-6.042-3.462a.815.815,0,0,1,1.034-.437c1.926.756,3.843,1.594,5.7,2.489a.785.785,0,1,1-.688,1.41" transform="translate(-1353.278 -33.957)" fill="#bdd0fb"/>
            <path id="Path_7007" data-name="Path 7007" d="M2344.142,152.122c-1.837-1.962-2.977-2.627-2.213-3.376a.808.808,0,0,1,1.131.01c1.982,1.953,2.976,2.732,2.213,3.421a.913.913,0,0,1-1.131-.055" transform="translate(-1826.932 -115.872)" fill="#bdd0fb"/>
            <path id="Path_7008" data-name="Path 7008" d="M2448.339,409.1a.8.8,0,0,1-.521-.787c.056-1.033.09-2.079.1-3.109a.779.779,0,0,1,.809-.765.809.809,0,0,1,.791.808c-.013,1.051-.048,2.118-.105,3.173a.781.781,0,0,1-.841.731.813.813,0,0,1-.235-.051" transform="translate(-1909.731 -315.534)" fill="#bdd0fb"/>
            <path id="Path_7009" data-name="Path 7009" d="M1884.719,523.374c-2.058-.842-4.105-1.779-6.084-2.786a.788.788,0,0,1-.356-1.061c.56-1.085,1.013-.068,7.035,2.4a.791.791,0,0,1,.445,1.029.814.814,0,0,1-1.04.422m9.728,2.481c.3-1.18,1-.279,7.37.847a.8.8,0,0,1,.66.913.785.785,0,0,1-.919.635c-2.179-.385-4.376-.867-6.53-1.432a.8.8,0,0,1-.581-.963m-25.141-10.832c-1.823-1.262-3.617-2.617-5.331-4.026a.78.78,0,0,1-.11-1.109c.791-.934,1,.154,6.349,3.853a.783.783,0,0,1,.205,1.1.805.805,0,0,1-1.113.185m42.783,14.344a.8.8,0,0,1-.522-.766.78.78,0,0,1,.821-.753c2.173.088,4.372.085,6.535-.007a.809.809,0,0,1,.846.751.777.777,0,0,1-.752.82c-2.208.095-4.452.1-6.671.007a.82.82,0,0,1-.256-.052m17.236-1.185a.807.807,0,0,1-.508-.593.774.774,0,0,1,.629-.915c2.127-.383,4.264-.86,6.352-1.419a.815.815,0,0,1,.99.553.773.773,0,0,1-.548.965c-2.131.571-4.312,1.058-6.484,1.448a.81.81,0,0,1-.432-.04m16.5-4.879a.809.809,0,0,1-.455-.427.771.771,0,0,1,.409-1.031c1.985-.832,3.958-1.759,5.865-2.753a.816.816,0,0,1,1.085.33.772.772,0,0,1-.319,1.062c-1.945,1.014-3.959,1.959-5.985,2.809a.81.81,0,0,1-.6.009m14.971-8.314a.814.814,0,0,1-.366-.276.774.774,0,0,1,.169-1.1c1.748-1.24,3.462-2.57,5.1-3.951a.81.81,0,0,1,1.129.09.774.774,0,0,1-.075,1.108c-1.667,1.41-3.417,2.767-5.2,4.033a.807.807,0,0,1-.752.093m12.473-11.5c-.939-.815.166-.978,3.993-6.078a.8.8,0,0,1,1.292.946c-1.306,1.74-2.7,3.447-4.157,5.071a.808.808,0,0,1-1.128.062m9.974-13.766c-1.1-.593-.063-.985,2.517-6.811a.8.8,0,0,1,1.469.645c-.881,1.988-1.857,3.96-2.9,5.861a.8.8,0,0,1-1.083.305m6.553-15.643a.8.8,0,0,1-.492-.957c.588-2.056,1.093-4.153,1.5-6.234a.787.787,0,0,1,.937-.61.8.8,0,0,1,.635.93c-.416,2.123-.931,4.263-1.531,6.36a.789.789,0,0,1-.986.53c-.021-.006-.042-.013-.062-.021" transform="translate(-1454.002 -363.768)" fill="#bdd0fb"/>
            <path id="Path_7010" data-name="Path 7010" d="M1820.709,622.584c-1.892-2.043-2.846-2.863-2.051-3.515.827-.679,1.29.374,3.227,2.467a.775.775,0,0,1-.046,1.11.811.811,0,0,1-1.13-.061" transform="translate(-1418.656 -482.823)" fill="#bdd0fb"/>
            <path id="Path_7011" data-name="Path 7011" d="M1833.5,221.266l11.37-1.408a50.894,50.894,0,0,0,12.33,10.52c.444,10.963-.3,11.764.87,12.154l13.1,4.365a.943.943,0,0,0,1.044-.309l6.9-8.909a50.71,50.71,0,0,0,16.154-1.031l8.272,7.951a.962.962,0,0,0,1.083.174L1916.9,238.8a.908.908,0,0,0,.505-.948l-1.6-11.2a48.326,48.326,0,0,0,10.516-11.962l11.473-.043a.925.925,0,0,0,.88-.628l4.243-12.816a.927.927,0,0,0-.33-1.031l-9.168-6.919a48.506,48.506,0,0,0-1.293-15.9c7.612-7.988,8.682-7.995,8.125-9.074-6.354-11.808-5.992-12.813-7.237-12.66l-11.37,1.408a50.9,50.9,0,0,0-12.33-10.52c-.443-10.957.3-11.763-.869-12.154-13.094-4.114-13.406-5.014-14.148-4.056l-6.9,8.909a50.689,50.689,0,0,0-16.154,1.031c-8.142-7.511-8.249-8.664-9.355-8.125-12.033,6.127-12.944,5.714-12.771,6.923l1.6,11.2A48.327,48.327,0,0,0,1840.2,162.2c-10.952.265-11.966-.5-12.353.671-3.97,12.753-4.9,13.1-3.913,13.847l9.168,6.919a48.53,48.53,0,0,0,1.294,15.9c-7.586,7.961-8.684,7.989-8.125,9.074,6.354,11.808,5.992,12.814,7.237,12.66" transform="translate(-1422.704 -101.384)" fill="#019df2"/>
            <path id="Path_7012" data-name="Path 7012" d="M2034.038,348.124a13.134,13.134,0,0,1,14.285-12.09,13.537,13.537,0,0,1,12.517,14.226,13.134,13.134,0,0,1-14.285,12.09,13.534,13.534,0,0,1-12.517-14.227m12.6,13.051.008,0Zm1.531-22.789a10.774,10.774,0,0,0-11.732,9.929A11.114,11.114,0,0,0,2046.713,360a10.786,10.786,0,0,0,11.732-9.929,11.116,11.116,0,0,0-10.28-11.684" transform="translate(-1586.887 -262.132)" fill="#fff"/>
            <path id="Path_7013" data-name="Path 7013" d="M1962.068,307.056h0a35.485,35.485,0,0,1-5.366-2.557,1.184,1.184,0,0,1-.525-1.435,1.1,1.1,0,0,1,.089-.183,1.2,1.2,0,0,1,1.64-.4,33.205,33.205,0,0,0,6.232,2.82c16.387,5.459,34-2.789,39.916-18.442q.226-.6.43-1.214c5.475-16.536-3.831-34.367-20.608-39.961-16.754-5.581-34.877,3.164-40.345,19.655-3.249,9.817-.41,16.405-.791,17.416a1.209,1.209,0,0,1-2.3-.176,33.188,33.188,0,0,1,1.265-19.3c10.356-27.415,49.369-29.084,62.964-2.721a33.212,33.212,0,0,1,2.094,25.853q-.219.664-.465,1.316a33.1,33.1,0,0,1-16.631,18.144,34.647,34.647,0,0,1-26.272,1.667q-.67-.223-1.331-.473" transform="translate(-1513.207 -188.576)" fill="#fff"/>
            <path id="Path_7014" data-name="Path 7014" d="M2429.588,90.833a27.864,27.864,0,0,0,7.275,5.354l.58,6.37c.064.707.649.39,7.853,2.3.666.164.551-.439,4.037-5.6a27.885,27.885,0,0,0,8.93-1.366l4.918,4.1c.546.455.735-.184,7.177-3.928a.526.526,0,0,0,.242-.561l-1.347-6.257a27.894,27.894,0,0,0,5.354-7.276c6.076-.681,6.666-.3,6.833-.978,1.687-7.414,2.19-7.648,1.609-8.023l-5.374-3.47a27.869,27.869,0,0,0-1.365-8.93l4.1-4.918c.455-.545-.184-.735-3.928-7.178-.353-.584-.673-.084-6.818,1.105a27.88,27.88,0,0,0-7.276-5.354l-.58-6.37c-.064-.708-.65-.39-7.853-2.3-.662-.163-.533.413-4.037,5.6a27.876,27.876,0,0,0-8.93,1.366l-4.918-4.1a.525.525,0,0,0-.609-.046l-6.569,3.974a.525.525,0,0,0-.242.561L2430,51.167a27.888,27.888,0,0,0-5.354,7.276c-6.076.681-6.667.3-6.833.978-1.687,7.411-2.19,7.647-1.61,8.022l5.374,3.47a27.883,27.883,0,0,0,1.365,8.93c-3.815,4.778-4.506,4.927-4.143,5.526l3.974,6.569c.355.587.705.078,6.819-1.105" transform="translate(-1884.883 -29.28)" fill="#019df2"/>
            <path id="Path_7015" data-name="Path 7015" d="M2532.634,162.333a8.011,8.011,0,1,1,8.059,7.963,8.007,8.007,0,0,1-8.059-7.963m8.052,6.769.007,0Zm-5.664-6.784a5.624,5.624,0,1,0,9.576-4.033,5.631,5.631,0,0,0-9.576,4.033" transform="translate(-1975.903 -120.361)" fill="#fff"/>
            <path id="Path_7016" data-name="Path 7016" d="M2386.711,243.425c-.38-1.006-.725-2.041-1.025-3.078a.8.8,0,0,1,.542-.986c1.062-.308.994.907,1.972,3.5a.8.8,0,1,1-1.489.562" transform="translate(-1861.233 -186.708)" fill="#bdd0fb"/>
            <path id="Path_7017" data-name="Path 7017" d="M2378.262,43.127a42.524,42.524,0,0,1,.319-6.548.8.8,0,0,1,1.579.2c-.734,5.766.251,7.084-1.081,7.121a.8.8,0,0,1-.818-.773m3.436-15.812a.8.8,0,0,1-.442-1.036,41.97,41.97,0,0,1,2.916-5.874.8.8,0,0,1,1.366.818,40.346,40.346,0,0,0-2.8,5.65.809.809,0,0,1-1.035.442m9.322-13.961a.8.8,0,0,1-.277-1.311,42.191,42.191,0,0,1,5.011-4.226.8.8,0,0,1,.929,1.293,40.651,40.651,0,0,0-4.822,4.067.8.8,0,0,1-.841.178m14.1-9.107a.8.8,0,0,1-.005-1.487A41.719,41.719,0,0,1,2411.4.889a.8.8,0,0,1,.332,1.557,40.084,40.084,0,0,0-6.045,1.8.792.792,0,0,1-.567,0M2421.165.763a.8.8,0,0,1,.829-.762,42.157,42.157,0,0,1,6.511.785.8.8,0,0,1-.314,1.561,40.518,40.518,0,0,0-6.264-.754.8.8,0,0,1-.762-.829" transform="translate(-1855.453 0)" fill="#bdd0fb"/>
            <path id="Path_7018" data-name="Path 7018" d="M2650.778,21.78c-2.515-1.483-3.584-1.579-3.112-2.544a.788.788,0,0,1,1.064-.365c.963.471,1.924.988,2.856,1.538a.8.8,0,0,1-.808,1.371" transform="translate(-2065.564 -14.657)" fill="#bdd0fb"/>
            <path id="Path_7019" data-name="Path 7019" d="M2746.548,140.1c-.576-2.874-1.216-3.725-.182-4.017a.8.8,0,0,1,.982.55c.292,1.033.548,2.094.76,3.154a.8.8,0,0,1-1.561.313" transform="translate(-2142.224 -106.149)" fill="#bdd0fb"/>
            <path id="Path_7020" data-name="Path 7020" d="M2519.194,235.087c.325-1.281,1.356-.058,7.081.486a.8.8,0,0,1-.151,1.585,41.967,41.967,0,0,1-6.354-1.1.8.8,0,0,1-.575-.968m16.478,1.1a.8.8,0,0,1,.666-.907c5.731-.882,6.636-2.161,7.038-.9a.8.8,0,0,1-.518,1,41.822,41.822,0,0,1-6.279,1.47.8.8,0,0,1-.907-.666m15.583-5.449c-.7-1.124.881-1.011,5.246-4.778a.8.8,0,0,1,1.041,1.206,42.269,42.269,0,0,1-5.189,3.826.8.8,0,0,1-1.1-.253m12.189-11.14c-1.088-.761.418-1.277,2.958-6.451a.8.8,0,0,1,1.429.7,42.086,42.086,0,0,1-3.278,5.554.8.8,0,0,1-1.109.2m6.223-15.972c1.177-5.673.3-6.976,1.624-6.909a.8.8,0,0,1,.755.835,42.063,42.063,0,0,1-.82,6.4.8.8,0,0,1-1.559-.324" transform="translate(-1965.398 -153.476)" fill="#bdd0fb"/>
            <path id="Path_7021" data-name="Path 7021" d="M2466.3,347c-.945-.519-1.88-1.08-2.781-1.668a.8.8,0,0,1-.231-1.1c.606-.926,1.342.038,3.778,1.374a.8.8,0,1,1-.766,1.4" transform="translate(-1921.7 -268.276)" fill="#bdd0fb"/>
            <path id="Path_7022" data-name="Path 7022" d="M2491.066,138.027a1.194,1.194,0,1,1,1-2.167,17.364,17.364,0,0,0,16.585-.745c13.15-7.957,10.112-27.985-4.83-31.66a17.359,17.359,0,0,0-20.354,10.7c-3.074,8.141,1.322,11.953-1.15,12.712a1.193,1.193,0,0,1-1.492-.79,19.724,19.724,0,1,1,14.141,13.36h0a19.861,19.861,0,0,1-3.9-1.407" transform="translate(-1934.809 -78.457)" fill="#fff"/>
          </g>
        </g>
        <g id="Group_3984" data-name="Group 3984" transform="translate(284.152 460.542)">
          <g id="Group_3983" data-name="Group 3983" clip-path="url(#clip-path-14)">
            <rect id="Rectangle_503" data-name="Rectangle 503" width="87.925" height="104.915" transform="matrix(0.565, -0.825, 0.825, 0.565, -17.131, 25.032)" fill="#01ccf9"/>
          </g>
        </g>
        <g id="Group_3989" data-name="Group 3989">
          <g id="Group_3988" data-name="Group 3988" clip-path="url(#clip-path-2)">
            <g id="Group_3987" data-name="Group 3987" transform="translate(200.939 305.002)" opacity="0.8">
              <g id="Group_3986" data-name="Group 3986">
                <g id="Group_3985" data-name="Group 3985" clip-path="url(#clip-path-16)">
                  <path id="Path_7023" data-name="Path 7023" d="M1301.951,1417.789H1096.333a2.982,2.982,0,0,1-2.973-2.973v-14.292a2.982,2.982,0,0,1,2.973-2.973h205.618a2.982,2.982,0,0,1,2.973,2.973v14.292a2.982,2.982,0,0,1-2.973,2.973" transform="translate(-1053.954 -1395.339)" fill="#fff"/>
                  <path id="Path_7024" data-name="Path 7024" d="M938.634,1399.758a12.269,12.269,0,1,1-12.269-12.269,12.269,12.269,0,0,1,12.269,12.269" transform="translate(-914.096 -1387.489)" fill="#fff"/>
                  <path id="Path_7025" data-name="Path 7025" d="M1301.951,1590.545H1096.333a2.982,2.982,0,0,1-2.973-2.973V1573.28a2.982,2.982,0,0,1,2.973-2.973h205.618a2.982,2.982,0,0,1,2.973,2.973v14.292a2.982,2.982,0,0,1-2.973,2.973" transform="translate(-1053.954 -1530.12)" fill="#fff"/>
                  <path id="Path_7026" data-name="Path 7026" d="M938.634,1572.514a12.269,12.269,0,1,1-12.269-12.269,12.269,12.269,0,0,1,12.269,12.269" transform="translate(-914.096 -1522.27)" fill="#fff"/>
                  <path id="Path_7027" data-name="Path 7027" d="M1301.951,1763.3H1096.333a2.982,2.982,0,0,1-2.973-2.973v-14.292a2.982,2.982,0,0,1,2.973-2.973h205.618a2.982,2.982,0,0,1,2.973,2.973v14.292a2.982,2.982,0,0,1-2.973,2.973" transform="translate(-1053.954 -1664.899)" fill="#fff"/>
                  <path id="Path_7028" data-name="Path 7028" d="M938.634,1745.269A12.269,12.269,0,1,1,926.365,1733a12.269,12.269,0,0,1,12.269,12.269" transform="translate(-914.096 -1657.049)" fill="#fff"/>
                  <path id="Path_7029" data-name="Path 7029" d="M1301.951,1936.056H1096.333a2.982,2.982,0,0,1-2.973-2.973v-14.292a2.982,2.982,0,0,1,2.973-2.973h205.618a2.982,2.982,0,0,1,2.973,2.973v14.292a2.982,2.982,0,0,1-2.973,2.973" transform="translate(-1053.954 -1799.68)" fill="#fff"/>
                  <path id="Path_7030" data-name="Path 7030" d="M938.634,1918.025a12.269,12.269,0,1,1-12.269-12.269,12.269,12.269,0,0,1,12.269,12.269" transform="translate(-914.096 -1791.829)" fill="#fff"/>
                </g>
              </g>
            </g>
            <path id="Path_7031" data-name="Path 7031" d="M642.513,587.423,638.4,590.6l-.011.008a.671.671,0,1,1-.821-1.062l.01-.007,4.2-3.121a.623.623,0,0,1,.753.993Z" transform="translate(-497.209 -457.417)" fill="#fff"/>
            <path id="Path_7032" data-name="Path 7032" d="M563.091,639.721q-3.9,3.412-7.676,6.969A.886.886,0,1,1,554.2,645.4l.009-.009q3.852-3.517,7.846-6.874a.794.794,0,0,1,1.035,1.205" transform="translate(-432.158 -498.009)" fill="#fff"/>
            <path id="Path_7033" data-name="Path 7033" d="M485.92,713.013q-3.606,3.722-7.073,7.573a1.049,1.049,0,0,1-1.56-1.4l.01-.011q3.545-3.831,7.228-7.529a.978.978,0,0,1,1.4,1.371" transform="translate(-372.159 -554.982)" fill="#fff"/>
            <path id="Path_7034" data-name="Path 7034" d="M415.451,792.726q-3.276,4.01-6.4,8.142a1.212,1.212,0,1,1-1.935-1.462l.01-.013q3.206-4.124,6.566-8.123a1.141,1.141,0,0,1,1.757,1.456" transform="translate(-317.433 -617.014)" fill="#fff"/>
            <path id="Path_7035" data-name="Path 7035" d="M352.433,878.335q-2.91,4.279-5.648,8.669a1.375,1.375,0,0,1-2.334-1.455l.01-.016q2.827-4.4,5.826-8.679a1.3,1.3,0,0,1,2.147,1.481" transform="translate(-268.57 -683.667)" fill="#fff"/>
            <path id="Path_7036" data-name="Path 7036" d="M297.863,969.447q-2.514,4.517-4.84,9.135a1.5,1.5,0,0,1-2.672-1.346l.005-.011q2.392-4.653,4.975-9.2a1.452,1.452,0,0,1,2.532,1.423" transform="translate(-226.4 -754.656)" fill="#fff"/>
            <path id="Path_7037" data-name="Path 7037" d="M252.478,1065.659q-2.068,4.735-3.93,9.554a1.6,1.6,0,0,1-2.977-1.15l0-.013q1.928-4.867,4.063-9.647a1.552,1.552,0,0,1,2.839,1.255" transform="translate(-191.504 -829.707)" fill="#fff"/>
            <path id="Path_7038" data-name="Path 7038" d="M217,1166.11q-1.587,4.914-2.957,9.893a1.7,1.7,0,1,1-3.269-.9l0-.014q1.431-5.038,3.083-10.009A1.652,1.652,0,0,1,217,1166.11" transform="translate(-164.395 -908.088)" fill="#fff"/>
            <path id="Path_7039" data-name="Path 7039" d="M191.955,1269.905q-1.084,5.047-1.946,10.137a1.795,1.795,0,1,1-3.539-.6l0-.015q.918-5.159,2.061-10.273a1.751,1.751,0,0,1,3.421.75" transform="translate(-145.46 -989.097)" fill="#fff"/>
            <path id="Path_7040" data-name="Path 7040" d="M178.1,1376.051q-.535,5.138-.892,10.3a1.895,1.895,0,0,1-3.78-.263l0-.017q.408-5.214.991-10.416a1.851,1.851,0,0,1,3.68.4" transform="translate(-135.299 -1071.97)" fill="#fff"/>
            <path id="Path_7041" data-name="Path 7041" d="M173.058,1483.407c-.1,3.445-.138,6.891-.142,10.336a1.987,1.987,0,1,1-3.974,0v0c.006-3.488.091-6.975.217-10.459a1.95,1.95,0,0,1,3.9.129" transform="translate(-131.805 -1155.754)" fill="#fff"/>
            <path id="Path_7042" data-name="Path 7042" d="M174.044,1591.167q.216,5.162.606,10.313a2.02,2.02,0,0,1-4.028.307v-.006q-.383-5.221-.585-10.452a2.006,2.006,0,0,1,4.008-.162" transform="translate(-132.657 -1239.893)" fill="#fff"/>
            <path id="Path_7043" data-name="Path 7043" d="M182.578,1698.648q.63,5.123,1.457,10.216a2.053,2.053,0,0,1-4.053.66v-.006q-.828-5.175-1.452-10.377a2.039,2.039,0,0,1,4.048-.493" transform="translate(-139.273 -1323.85)" fill="#fff"/>
            <path id="Path_7044" data-name="Path 7044" d="M200.362,1804.943q1.1,5.035,2.428,10.014a2.086,2.086,0,0,1-4.031,1.077l0-.006q-1.34-5.075-2.445-10.205a2.072,2.072,0,0,1,4.049-.88" transform="translate(-153.122 -1406.904)" fill="#fff"/>
            <path id="Path_7045" data-name="Path 7045" d="M228.746,1908.851q1.641,4.876,3.539,9.657a2.119,2.119,0,0,1-3.938,1.566l0-.005q-1.931-4.893-3.59-9.881a2.1,2.1,0,0,1,3.991-1.337" transform="translate(-175.264 -1488.123)" fill="#fff"/>
            <path id="Path_7046" data-name="Path 7046" d="M269.255,2008.577q2.251,4.615,4.786,9.079a2.152,2.152,0,1,1-3.741,2.127l0-.005q-2.593-4.588-4.887-9.332a2.138,2.138,0,0,1,3.845-1.869" transform="translate(-206.899 -1566.108)" fill="#fff"/>
            <path id="Path_7047" data-name="Path 7047" d="M323.244,2101.6q2.911,4.217,6.114,8.217a2.185,2.185,0,1,1-3.41,2.733l0,0q-3.291-4.129-6.276-8.485a2.171,2.171,0,0,1,3.576-2.461" transform="translate(-249.1 -1638.89)" fill="#fff"/>
            <path id="Path_7048" data-name="Path 7048" d="M391.286,2184.806q3.568,3.668,7.406,7.057a2.218,2.218,0,0,1-2.935,3.326l0,0q-3.953-3.508-7.629-7.31a2.2,2.2,0,0,1,3.163-3.068" transform="translate(-302.321 -1704.014)" fill="#fff"/>
            <path id="Path_7049" data-name="Path 7049" d="M472.537,2255.106q2.069,1.5,4.194,2.929c1.412.957,2.868,1.847,4.3,2.77l.067.043a2.215,2.215,0,0,1-2.388,3.732c-1.485-.946-2.99-1.862-4.453-2.844s-2.914-1.978-4.344-3.009a2.235,2.235,0,0,1,2.615-3.626Z" transform="translate(-365.893 -1759.049)" fill="#fff"/>
            <path id="Path_7050" data-name="Path 7050" d="M564.95,2310.7q4.594,2.256,9.35,4.164a2.171,2.171,0,0,1-1.609,4.033q-4.909-1.948-9.665-4.26a2.191,2.191,0,0,1,1.916-3.94Z" transform="translate(-438.298 -1802.578)" fill="#fff"/>
            <path id="Path_7051" data-name="Path 7051" d="M665.483,2349.767q4.914,1.453,9.925,2.558a2.126,2.126,0,0,1-.91,4.154q-5.153-1.118-10.224-2.594a2.146,2.146,0,0,1,1.2-4.12Z" transform="translate(-517.045 -1833.165)" fill="#fff"/>
            <path id="Path_7052" data-name="Path 7052" d="M771.05,2372.067q5.088.678,10.217,1.038a2.082,2.082,0,0,1-.286,4.154q-5.251-.352-10.478-1.025a2.1,2.1,0,0,1,.539-4.168Z" transform="translate(-599.699 -1850.618)" fill="#fff"/>
            <path id="Path_7053" data-name="Path 7053" d="M878.787,2377.763q5.144-.015,10.287-.3a2.037,2.037,0,0,1,.234,4.068q-5.243.312-10.5.351a2.057,2.057,0,0,1-.028-4.114Z" transform="translate(-684.009 -1854.836)" fill="#fff"/>
            <path id="Path_7054" data-name="Path 7054" d="M986.578,2366.971q5.118-.608,10.208-1.448a1.993,1.993,0,0,1,.655,3.931q-5.171.871-10.38,1.513a2.012,2.012,0,0,1-.49-3.995Z" transform="translate(-768.322 -1845.506)" fill="#fff"/>
            <path id="Path_7055" data-name="Path 7055" d="M1093.187,2345.732q5.046-1.089,10.05-2.374a1.875,1.875,0,0,1,.952,3.627q-5.056,1.357-10.165,2.522a1.934,1.934,0,0,1-.859-3.772l.022,0" transform="translate(-851.689 -1828.189)" fill="#fff"/>
            <path id="Path_7056" data-name="Path 7056" d="M1197.986,2315.507q4.942-1.514,9.832-3.2a1.74,1.74,0,0,1,1.151,3.284q-4.925,1.757-9.91,3.348a1.8,1.8,0,0,1-1.093-3.428l.02-.006" transform="translate(-933.648 -1803.937)" fill="#fff"/>
            <path id="Path_7057" data-name="Path 7057" d="M1300.261,2277.356q4.817-1.887,9.573-3.928a1.605,1.605,0,0,1,1.283,2.943q-4.779,2.115-9.624,4.078a1.664,1.664,0,0,1-1.249-3.085l.017-.007" transform="translate(-1013.609 -1773.575)" fill="#fff"/>
            <path id="Path_7058" data-name="Path 7058" d="M1399.592,2231.834q4.667-2.238,9.26-4.632a1.47,1.47,0,0,1,1.368,2.6c-3.068,1.635-6.165,3.238-9.289,4.779a1.529,1.529,0,1,1-1.356-2.741l.017-.008" transform="translate(-1091.252 -1737.483)" fill="#fff"/>
            <path id="Path_7059" data-name="Path 7059" d="M1495.329,2178.647q4.464-2.612,8.816-5.412a1.282,1.282,0,0,1,1.406,2.144q-4.345,2.906-8.812,5.63a1.376,1.376,0,0,1-1.432-2.349l.021-.013" transform="translate(-1166.09 -1695.349)" fill="#fff"/>
            <path id="Path_7060" data-name="Path 7060" d="M1586.148,2116.925q4.2-3.03,8.268-6.233a1.069,1.069,0,0,1,1.337,1.667q-4.046,3.3-8.227,6.437a1.162,1.162,0,0,1-1.394-1.859l.017-.012" transform="translate(-1237.1 -1646.535)" fill="#fff"/>
            <path id="Path_7061" data-name="Path 7061" d="M1670.936,2047.233c2.6-2.273,5.148-4.608,7.665-6.976a.848.848,0,0,1,1.178,1.219c-2.47,2.449-5.007,4.832-7.581,7.172a.948.948,0,0,1-1.276-1.4l.014-.012" transform="translate(-1303.373 -1591.582)" fill="#fff"/>
            <path id="Path_7062" data-name="Path 7062" d="M1749.341,1984.15l3.565-3.792.008-.009a.623.623,0,0,1,.918.843l-3.489,3.9a.686.686,0,0,1-1.023-.916l.009-.01Z" transform="translate(-1364.644 -1544.87)" fill="#fff"/>
            <path id="Path_7063" data-name="Path 7063" d="M1080.2,1237.858H918.924a2.646,2.646,0,0,1-2.638-2.638v-14.962a2.646,2.646,0,0,1,2.638-2.638H1080.2a2.646,2.646,0,0,1,2.638,2.638v14.962a2.646,2.646,0,0,1-2.638,2.638" transform="translate(-714.866 -949.959)" fill="#fff"/>
          </g>
        </g>
        <g id="Group_3991" data-name="Group 3991" transform="translate(371.516 375.529)">
          <g id="Group_3990" data-name="Group 3990" clip-path="url(#clip-path-17)">
            <rect id="Rectangle_507" data-name="Rectangle 507" width="62.222" height="60.208" transform="translate(-14.418 5.017) rotate(-19.188)" fill="#00b3dd"/>
          </g>
        </g>
        <g id="Group_3993" data-name="Group 3993" transform="translate(295.02 204.826)">
          <g id="Group_3992" data-name="Group 3992" clip-path="url(#clip-path-18)">
            <rect id="Rectangle_508" data-name="Rectangle 508" width="278.401" height="317.215" transform="translate(-59.671 189.137) rotate(-72.546)" fill="#00b3dd"/>
          </g>
        </g>
        <g id="Group_3995" data-name="Group 3995" transform="translate(371.535 204.826)">
          <g id="Group_3994" data-name="Group 3994" clip-path="url(#clip-path-19)">
            <path id="Path_7068" data-name="Path 7068" d="M0,0H243.406V245.145H0Z" transform="translate(-59.997 20.879) rotate(-19.188)" fill="#1a86a2"/>
          </g>
        </g>
        <g id="Group_3997" data-name="Group 3997" transform="translate(403.048 384.852)">
          <g id="Group_3996" data-name="Group 3996" clip-path="url(#clip-path-20)">
            <rect id="Rectangle_510" data-name="Rectangle 510" width="41.481" height="35.07" transform="translate(-16.309 27.428) rotate(-59.264)" fill="#0088a8"/>
          </g>
        </g>
      </g>
    </g>
    <g id="Group_4001" data-name="Group 4001" transform="translate(1212.374 675)">
      <path id="Path_4024" data-name="Path 4024" d="M91.711,20.593l.411,71.816-61.252,37.4Z" transform="translate(-30.869 -20.593)" fill="#00b3dd"/>
      <path id="Path_4025" data-name="Path 4025" d="M57.048,92.409l61.167,36.436L56.637,20.593Z" transform="translate(4.206 -20.592)" fill="#42d6f9"/>
      <path id="Path_4026" data-name="Path 4026" d="M30.87,88.409l61.252-37.4,61.167,36.436Z" transform="translate(-30.869 20.809)" fill="#35859e"/>
      <g id="Group_3745" data-name="Group 3745" transform="translate(71.298 45.57)" opacity="0.5" style="mix-blend-mode: multiply;isolation: isolate">
        <g id="Group_3744" data-name="Group 3744">
          <g id="Group_3743" data-name="Group 3743" clip-path="url(#clip-path-21)">
            <g id="Group_3742" data-name="Group 3742" transform="translate(0.001)">
              <g id="Group_3741" data-name="Group 3741" clip-path="url(#clip-path-22)">
                <rect id="Rectangle_393" data-name="Rectangle 393" width="75.296" height="73.163" transform="matrix(0.586, -0.81, 0.81, 0.586, -27.499, 38.03)" fill="url(#linear-gradient)"/>
              </g>
            </g>
          </g>
        </g>
      </g>
    </g>
    <g id="Group_4002" data-name="Group 4002" transform="translate(1283.672 682.527)">
      <path id="Path_4031" data-name="Path 4031" d="M135.018,23.781,108.768,63.7l-47.7-1.875Z" transform="translate(-61.065 -23.78)" fill="#ffe189"/>
      <path id="Path_4032" data-name="Path 4032" d="M81.268,63.7,101.7,106.421l5.816-82.64Z" transform="translate(-33.564 -23.781)" fill="#dda708"/>
      <path id="Path_4033" data-name="Path 4033" d="M61.065,39.892l47.7,1.875L129.2,84.49Z" transform="translate(-61.064 -1.85)" fill="#ffd046"/>
    </g>
  </g>
</svg>
