<svg xmlns="http://www.w3.org/2000/svg" width="806.135" height="527.571" viewBox="0 0 806.135 527.571">
  <g id="Group_5208" data-name="Group 5208" transform="translate(-140 -872.745)">
    <path id="Path_3635" data-name="Path 3635" d="M3006.062,2319.4c-198.088-32.973-284.358-217.779-381.968-62.737s56.142,410.876,350.866,435.415,514.054-171.627,391.129-394.007S3204.149,2352.369,3006.062,2319.4Z" transform="translate(-2454.801 -1293.838)" fill="#0b2275"/>
    <g id="Objects" transform="translate(269.227 823.746)">
      <g id="Group_5176" data-name="Group 5176" transform="translate(19.629 48.999)">
        <g id="Group_5053" data-name="Group 5053" transform="translate(29.061 1.278)">
          <g id="Group_5052" data-name="Group 5052">
            <g id="Group_5042" data-name="Group 5042" transform="translate(0 256.498)">
              <path id="Path_8190" data-name="Path 8190" d="M53.558,290.391a8.67,8.67,0,1,1,8.67-8.67A8.682,8.682,0,0,1,53.558,290.391Zm0-13.1a4.434,4.434,0,1,0,4.434,4.434A4.44,4.44,0,0,0,53.558,277.287Z" transform="translate(-44.888 -273.052)" fill="#1fd3a4"/>
            </g>
            <g id="Group_5043" data-name="Group 5043" transform="translate(373.737 417.431)">
              <path id="Path_8191" data-name="Path 8191" d="M378.4,430.27a8.67,8.67,0,1,1,8.67-8.669A8.68,8.68,0,0,1,378.4,430.27Zm0-13.1a4.434,4.434,0,1,0,4.434,4.435A4.441,4.441,0,0,0,378.4,417.166Z" transform="translate(-369.731 -412.931)" fill="#1fd3a4"/>
            </g>
            <g id="Group_5044" data-name="Group 5044" transform="translate(447.978 34.075)">
              <path id="Path_8192" data-name="Path 8192" d="M442.929,97.066A8.67,8.67,0,1,1,451.6,88.4,8.681,8.681,0,0,1,442.929,97.066Zm0-13.1a4.434,4.434,0,1,0,4.434,4.435A4.441,4.441,0,0,0,442.929,83.962Z" transform="translate(-434.259 -79.727)" fill="#1fd3a4"/>
            </g>
            <g id="Group_5045" data-name="Group 5045" transform="translate(177.407 443.891)">
              <path id="Path_8193" data-name="Path 8193" d="M207.756,453.27a8.67,8.67,0,1,1,8.67-8.67A8.682,8.682,0,0,1,207.756,453.27Zm0-13.106a4.435,4.435,0,1,0,4.435,4.435A4.44,4.44,0,0,0,207.756,440.164Z" transform="translate(-199.086 -435.929)" fill="#1fd3a4"/>
            </g>
            <g id="Group_5046" data-name="Group 5046" transform="translate(41.911 41.761)">
              <path id="Path_8194" data-name="Path 8194" d="M89.986,103.747a8.67,8.67,0,1,1,8.671-8.669A8.681,8.681,0,0,1,89.986,103.747Zm0-13.1a4.434,4.434,0,1,0,4.435,4.435A4.44,4.44,0,0,0,89.986,90.643Z" transform="translate(-81.316 -86.408)" fill="#1fd3a4"/>
            </g>
            <g id="Group_5047" data-name="Group 5047" transform="translate(15.023 157.837)">
              <path id="Path_8195" data-name="Path 8195" d="M68.011,187.3a1.777,1.777,0,0,0-1.776,1.776v5.843a1.776,1.776,0,0,0,3.553,0v-5.843A1.776,1.776,0,0,0,68.011,187.3Z" transform="translate(-56.698 -187.298)" fill="#1fd3a4"/>
              <path id="Path_8196" data-name="Path 8196" d="M68.011,198.8a1.777,1.777,0,0,0-1.776,1.776v5.843a1.776,1.776,0,1,0,3.553,0v-5.843A1.776,1.776,0,0,0,68.011,198.8Z" transform="translate(-56.698 -185.567)" fill="#1fd3a4"/>
              <path id="Path_8197" data-name="Path 8197" d="M77.065,195.587H71.222a1.776,1.776,0,1,0,0,3.553h5.842a1.776,1.776,0,1,0,0-3.553Z" transform="translate(-56.215 -186.05)" fill="#1fd3a4"/>
              <path id="Path_8198" data-name="Path 8198" d="M65.565,195.587H59.722a1.776,1.776,0,0,0,0,3.553h5.842a1.776,1.776,0,1,0,0-3.553Z" transform="translate(-57.946 -186.05)" fill="#1fd3a4"/>
            </g>
            <g id="Group_5048" data-name="Group 5048" transform="translate(104.985)">
              <path id="Path_8199" data-name="Path 8199" d="M146.2,50.11a1.776,1.776,0,0,0-1.776,1.776v5.842a1.776,1.776,0,1,0,3.553,0V51.886A1.776,1.776,0,0,0,146.2,50.11Z" transform="translate(-134.89 -50.11)" fill="#1fd3a4"/>
              <path id="Path_8200" data-name="Path 8200" d="M146.2,61.61a1.776,1.776,0,0,0-1.776,1.776v5.842a1.776,1.776,0,1,0,3.553,0V63.386A1.776,1.776,0,0,0,146.2,61.61Z" transform="translate(-134.89 -48.379)" fill="#1fd3a4"/>
              <path id="Path_8201" data-name="Path 8201" d="M155.258,58.4h-5.843a1.776,1.776,0,1,0,0,3.553h5.843a1.776,1.776,0,0,0,0-3.553Z" transform="translate(-134.407 -48.862)" fill="#1fd3a4"/>
              <path id="Path_8202" data-name="Path 8202" d="M143.758,58.4h-5.843a1.776,1.776,0,1,0,0,3.553h5.843a1.776,1.776,0,0,0,0-3.553Z" transform="translate(-136.138 -48.862)" fill="#1fd3a4"/>
            </g>
            <g id="Group_5049" data-name="Group 5049" transform="translate(418.863 276.235)">
              <path id="Path_8203" data-name="Path 8203" d="M419.018,290.207a1.776,1.776,0,0,0-1.776,1.776v5.842a1.776,1.776,0,0,0,3.553,0v-5.842A1.775,1.775,0,0,0,419.018,290.207Z" transform="translate(-407.705 -290.207)" fill="#729424"/>
              <path id="Path_8204" data-name="Path 8204" d="M419.018,301.707a1.776,1.776,0,0,0-1.776,1.776v5.842a1.776,1.776,0,0,0,3.553,0v-5.842A1.775,1.775,0,0,0,419.018,301.707Z" transform="translate(-407.705 -288.476)" fill="#729424"/>
              <path id="Path_8205" data-name="Path 8205" d="M428.072,298.5h-5.842a1.776,1.776,0,1,0,0,3.553h5.842a1.776,1.776,0,0,0,0-3.553Z" transform="translate(-407.222 -288.959)" fill="#729424"/>
              <path id="Path_8206" data-name="Path 8206" d="M416.572,298.5h-5.842a1.776,1.776,0,1,0,0,3.553h5.842a1.776,1.776,0,0,0,0-3.553Z" transform="translate(-408.953 -288.959)" fill="#729424"/>
            </g>
            <g id="Group_5050" data-name="Group 5050" transform="translate(370.952 61.526)">
              <path id="Path_8207" data-name="Path 8207" d="M377.375,103.587a1.776,1.776,0,0,0-1.776,1.776v5.843a1.776,1.776,0,1,0,3.552,0v-5.843A1.776,1.776,0,0,0,377.375,103.587Z" transform="translate(-366.062 -103.587)" fill="#1fd3a4"/>
              <path id="Path_8208" data-name="Path 8208" d="M377.375,115.087a1.776,1.776,0,0,0-1.776,1.776v5.843a1.776,1.776,0,1,0,3.552,0v-5.843A1.776,1.776,0,0,0,377.375,115.087Z" transform="translate(-366.062 -101.856)" fill="#1fd3a4"/>
              <path id="Path_8209" data-name="Path 8209" d="M386.429,111.876h-5.843a1.776,1.776,0,0,0,0,3.553h5.843a1.776,1.776,0,1,0,0-3.553Z" transform="translate(-365.579 -102.339)" fill="#1fd3a4"/>
              <path id="Path_8210" data-name="Path 8210" d="M374.929,111.876h-5.843a1.776,1.776,0,0,0,0,3.553h5.843a1.776,1.776,0,1,0,0-3.553Z" transform="translate(-367.31 -102.339)" fill="#1fd3a4"/>
            </g>
            <g id="Group_5051" data-name="Group 5051" transform="translate(298.651 429.58)">
              <path id="Path_8211" data-name="Path 8211" d="M314.533,423.49a1.776,1.776,0,0,0-1.775,1.776v5.844a1.776,1.776,0,0,0,3.553,0v-5.844A1.778,1.778,0,0,0,314.533,423.49Z" transform="translate(-303.22 -423.49)" fill="#1fd3a4"/>
              <path id="Path_8212" data-name="Path 8212" d="M314.533,434.99a1.776,1.776,0,0,0-1.775,1.776v5.844a1.776,1.776,0,1,0,3.553,0v-5.844A1.778,1.778,0,0,0,314.533,434.99Z" transform="translate(-303.22 -421.759)" fill="#1fd3a4"/>
              <path id="Path_8213" data-name="Path 8213" d="M323.588,431.779h-5.843a1.776,1.776,0,0,0,0,3.553h5.843a1.776,1.776,0,1,0,0-3.553Z" transform="translate(-302.737 -422.242)" fill="#1fd3a4"/>
              <path id="Path_8214" data-name="Path 8214" d="M312.088,431.779h-5.843a1.776,1.776,0,0,0,0,3.553h5.843a1.776,1.776,0,0,0,0-3.553Z" transform="translate(-304.468 -422.242)" fill="#1fd3a4"/>
            </g>
          </g>
        </g>
        <g id="Group_5089" data-name="Group 5089" transform="translate(160.841 137.994)">
          <g id="Group_5072" data-name="Group 5072" transform="translate(0 10.232)">
            <g id="Group_5071" data-name="Group 5071">
              <g id="Group_5054" data-name="Group 5054" transform="translate(96.297 2.33)">
                <rect id="Rectangle_1985" data-name="Rectangle 1985" width="18.787" height="13.861" fill="#1fd3a4"/>
                <rect id="Rectangle_1986" data-name="Rectangle 1986" width="18.787" height="13.862" transform="translate(0 24.431)" fill="#1fd3a4"/>
                <rect id="Rectangle_1987" data-name="Rectangle 1987" width="18.787" height="13.862" transform="translate(0 48.862)" fill="#1fd3a4"/>
                <rect id="Rectangle_1988" data-name="Rectangle 1988" width="18.787" height="13.862" transform="translate(0 73.294)" fill="#1fd3a4"/>
                <rect id="Rectangle_1989" data-name="Rectangle 1989" width="18.787" height="13.861" transform="translate(0 97.725)" fill="#1fd3a4"/>
              </g>
              <g id="Group_5070" data-name="Group 5070">
                <g id="Group_5057" data-name="Group 5057" transform="translate(9.896 80.578)">
                  <g id="Group_5055" data-name="Group 5055" transform="translate(9.917)">
                    <path id="Path_8215" data-name="Path 8215" d="M179.372,275.666l-2.724-2.869,26.283-24.927h56.162v3.955H204.507Z" transform="translate(-176.648 -247.869)" fill="#1fd3a4"/>
                  </g>
                  <g id="Group_5056" data-name="Group 5056" transform="translate(0 21.451)">
                    <path id="Path_8216" data-name="Path 8216" d="M176.124,282.705a8.1,8.1,0,1,1,8.1-8.1A8.105,8.105,0,0,1,176.124,282.705Zm0-12.236a4.14,4.14,0,1,0,4.142,4.141A4.145,4.145,0,0,0,176.124,270.47Z" transform="translate(-168.029 -266.514)" fill="#1fd3a4"/>
                  </g>
                </g>
                <g id="Group_5060" data-name="Group 5060" transform="translate(12.887 49.843)">
                  <g id="Group_5058" data-name="Group 5058" transform="translate(12.736 6.118)">
                    <rect id="Rectangle_1990" data-name="Rectangle 1990" width="76.634" height="3.956" fill="#1fd3a4"/>
                  </g>
                  <g id="Group_5059" data-name="Group 5059">
                    <path id="Path_8217" data-name="Path 8217" d="M178.725,237.347a8.1,8.1,0,1,1,8.1-8.1A8.106,8.106,0,0,1,178.725,237.347Zm0-12.237a4.141,4.141,0,1,0,4.141,4.141A4.147,4.147,0,0,0,178.725,225.11Z" transform="translate(-170.629 -221.155)" fill="#1fd3a4"/>
                  </g>
                </g>
                <g id="Group_5063" data-name="Group 5063" transform="translate(0 31.713)">
                  <g id="Group_5061" data-name="Group 5061" transform="translate(12.769)">
                    <path id="Path_8218" data-name="Path 8218" d="M213.525,216.285h-43V212.33h41.545l8.158-6.932h39.785v3.956H221.683Z" transform="translate(-170.526 -205.398)" fill="#1fd3a4"/>
                  </g>
                  <g id="Group_5062" data-name="Group 5062" transform="translate(0 1.547)">
                    <path id="Path_8219" data-name="Path 8219" d="M167.524,222.934a8.1,8.1,0,1,1,8.1-8.1A8.106,8.106,0,0,1,167.524,222.934Zm0-12.236a4.14,4.14,0,1,0,4.14,4.14A4.145,4.145,0,0,0,167.524,210.7Z" transform="translate(-159.428 -206.742)" fill="#1fd3a4"/>
                  </g>
                </g>
                <g id="Group_5066" data-name="Group 5066" transform="translate(38.106)">
                  <g id="Group_5064" data-name="Group 5064" transform="translate(12.98 6.119)">
                    <rect id="Rectangle_1991" data-name="Rectangle 1991" width="51.171" height="3.955" fill="#1fd3a4"/>
                  </g>
                  <g id="Group_5065" data-name="Group 5065">
                    <path id="Path_8220" data-name="Path 8220" d="M200.644,194.024a8.1,8.1,0,1,1,8.1-8.1A8.105,8.105,0,0,1,200.644,194.024Zm0-12.237a4.141,4.141,0,1,0,4.142,4.142A4.148,4.148,0,0,0,200.644,181.787Z" transform="translate(-192.549 -177.833)" fill="#1fd3a4"/>
                  </g>
                </g>
                <g id="Group_5069" data-name="Group 5069" transform="translate(45.23 91.349)">
                  <g id="Group_5067" data-name="Group 5067" transform="translate(7.931 8.413)">
                    <path id="Path_8221" data-name="Path 8221" d="M254.731,273.746H212.146l-6.511-6.376,2.77-2.827,5.356,5.247h40.97Z" transform="translate(-205.635 -264.543)" fill="#1fd3a4"/>
                  </g>
                  <g id="Group_5068" data-name="Group 5068">
                    <path id="Path_8222" data-name="Path 8222" d="M205.931,271.61a7.19,7.19,0,1,1,7.191-7.188A7.2,7.2,0,0,1,205.931,271.61Zm0-10.423a3.234,3.234,0,1,0,3.235,3.234A3.237,3.237,0,0,0,205.931,261.188Z" transform="translate(-198.741 -257.231)" fill="#1fd3a4"/>
                  </g>
                </g>
              </g>
            </g>
          </g>
          <g id="Group_5088" data-name="Group 5088" transform="translate(250.64)">
            <g id="Group_5087" data-name="Group 5087">
              <g id="Group_5086" data-name="Group 5086">
                <g id="Group_5075" data-name="Group 5075" transform="translate(12.305)">
                  <g id="Group_5073" data-name="Group 5073" transform="translate(0 5.213)">
                    <path id="Path_8223" data-name="Path 8223" d="M418.035,189.729H387.974v-3.956h27.949l8.239-12.3h30.392v3.955h-28.28Z" transform="translate(-387.974 -173.471)" fill="#1fd3a4"/>
                  </g>
                  <g id="Group_5074" data-name="Group 5074" transform="translate(63.772)">
                    <path id="Path_8224" data-name="Path 8224" d="M443.4,176.131a7.189,7.189,0,1,1,7.188,7.191A7.2,7.2,0,0,1,443.4,176.131Zm10.424,0a3.234,3.234,0,1,0-3.235,3.234A3.238,3.238,0,0,0,453.827,176.131Z" transform="translate(-443.403 -168.94)" fill="#1fd3a4"/>
                  </g>
                </g>
                <g id="Group_5078" data-name="Group 5078" transform="translate(12.305 19.116)">
                  <g id="Group_5076" data-name="Group 5076" transform="translate(0 8.648)">
                    <path id="Path_8225" data-name="Path 8225" d="M433.1,211.209h-45.13v-3.956h43.369L444.1,193.071l2.94,2.646Z" transform="translate(-387.974 -193.071)" fill="#1fd3a4"/>
                  </g>
                  <g id="Group_5077" data-name="Group 5077" transform="translate(52.51)">
                    <path id="Path_8226" data-name="Path 8226" d="M433.614,192.745a7.19,7.19,0,1,1,7.188,7.191A7.2,7.2,0,0,1,433.614,192.745Zm10.424,0a3.234,3.234,0,1,0-3.235,3.234A3.238,3.238,0,0,0,444.038,192.745Z" transform="translate(-433.614 -185.555)" fill="#1fd3a4"/>
                  </g>
                </g>
                <g id="Group_5081" data-name="Group 5081" transform="translate(14.035 65.746)">
                  <g id="Group_5079" data-name="Group 5079">
                    <path id="Path_8227" data-name="Path 8227" d="M454.328,251.227H430.685l-21.259-21.186H389.477v-3.956H411.06l21.26,21.187h22.008Z" transform="translate(-389.477 -226.085)" fill="#1fd3a4"/>
                  </g>
                  <g id="Group_5080" data-name="Group 5080" transform="translate(61.348 15.974)">
                    <path id="Path_8228" data-name="Path 8228" d="M442.8,247.16a7.189,7.189,0,1,1,7.188,7.191A7.2,7.2,0,0,1,442.8,247.16Zm10.423,0a3.234,3.234,0,1,0-3.234,3.234A3.237,3.237,0,0,0,453.223,247.16Z" transform="translate(-442.8 -239.969)" fill="#1fd3a4"/>
                  </g>
                </g>
                <g id="Group_5084" data-name="Group 5084" transform="translate(14.035 116.103)">
                  <g id="Group_5082" data-name="Group 5082">
                    <path id="Path_8229" data-name="Path 8229" d="M454.045,291.236,437.572,273.81H389.477v-3.956h49.8l17.642,18.667Z" transform="translate(-389.477 -269.854)" fill="#1fd3a4"/>
                  </g>
                  <g id="Group_5083" data-name="Group 5083" transform="translate(61.348 15.472)">
                    <path id="Path_8230" data-name="Path 8230" d="M442.8,290.491a7.189,7.189,0,1,1,7.188,7.191A7.2,7.2,0,0,1,442.8,290.491Zm10.423,0a3.234,3.234,0,1,0-3.234,3.234A3.237,3.237,0,0,0,453.223,290.491Z" transform="translate(-442.8 -283.301)" fill="#1fd3a4"/>
                  </g>
                </g>
                <g id="Group_5085" data-name="Group 5085" transform="translate(0 12.562)">
                  <rect id="Rectangle_1992" data-name="Rectangle 1992" width="18.787" height="13.861" fill="#1fd3a4"/>
                  <rect id="Rectangle_1993" data-name="Rectangle 1993" width="18.787" height="13.862" transform="translate(0 24.431)" fill="#1fd3a4"/>
                  <rect id="Rectangle_1994" data-name="Rectangle 1994" width="18.787" height="13.862" transform="translate(0 48.862)" fill="#1fd3a4"/>
                  <rect id="Rectangle_1995" data-name="Rectangle 1995" width="18.787" height="13.862" transform="translate(0 73.294)" fill="#1fd3a4"/>
                  <rect id="Rectangle_1996" data-name="Rectangle 1996" width="18.787" height="13.861" transform="translate(0 97.725)" fill="#1fd3a4"/>
                </g>
              </g>
            </g>
          </g>
        </g>
        <g id="Group_5125" data-name="Group 5125" transform="translate(0 294.08)">
          <g id="Group_5108" data-name="Group 5108" transform="translate(0 9.12)">
            <g id="Group_5107" data-name="Group 5107">
              <g id="Group_5090" data-name="Group 5090" transform="translate(82.384 2.077)">
                <rect id="Rectangle_1997" data-name="Rectangle 1997" width="16.746" height="12.357" fill="#1fd3a4"/>
                <rect id="Rectangle_1998" data-name="Rectangle 1998" width="16.746" height="12.356" transform="translate(0 21.778)" fill="#1fd3a4"/>
                <rect id="Rectangle_1999" data-name="Rectangle 1999" width="16.746" height="12.356" transform="translate(0 43.554)" fill="#1fd3a4"/>
                <rect id="Rectangle_2000" data-name="Rectangle 2000" width="16.746" height="12.356" transform="translate(0 65.332)" fill="#1fd3a4"/>
                <rect id="Rectangle_2001" data-name="Rectangle 2001" width="16.746" height="12.356" transform="translate(0 87.109)" fill="#1fd3a4"/>
              </g>
              <g id="Group_5106" data-name="Group 5106">
                <g id="Group_5093" data-name="Group 5093" transform="translate(8.821 71.823)">
                  <g id="Group_5091" data-name="Group 5091" transform="translate(8.839)">
                    <path id="Path_8231" data-name="Path 8231" d="M37.407,396.286l-2.428-2.558L54.955,374.96h50.06v3.526H56.36Z" transform="translate(-34.979 -374.96)" fill="#1fd3a4"/>
                  </g>
                  <g id="Group_5092" data-name="Group 5092" transform="translate(0 15.669)">
                    <path id="Path_8232" data-name="Path 8232" d="M34.512,403.012a7.217,7.217,0,1,1,7.217-7.216A7.225,7.225,0,0,1,34.512,403.012Zm0-10.907A3.691,3.691,0,1,0,38.2,395.8,3.7,3.7,0,0,0,34.512,392.105Z" transform="translate(-27.296 -388.579)" fill="#1fd3a4"/>
                  </g>
                </g>
                <g id="Group_5096" data-name="Group 5096" transform="translate(11.487 44.427)">
                  <g id="Group_5094" data-name="Group 5094" transform="translate(11.354 5.454)">
                    <rect id="Rectangle_2002" data-name="Rectangle 2002" width="64.856" height="3.526" fill="#1fd3a4"/>
                  </g>
                  <g id="Group_5095" data-name="Group 5095">
                    <path id="Path_8233" data-name="Path 8233" d="M36.83,365.581a7.217,7.217,0,1,1,7.216-7.216A7.226,7.226,0,0,1,36.83,365.581Zm0-10.907a3.691,3.691,0,1,0,3.691,3.691A3.695,3.695,0,0,0,36.83,354.674Z" transform="translate(-29.613 -351.148)" fill="#1fd3a4"/>
                  </g>
                </g>
                <g id="Group_5099" data-name="Group 5099" transform="translate(0 28.269)">
                  <g id="Group_5097" data-name="Group 5097" transform="translate(11.383)">
                    <path id="Path_8234" data-name="Path 8234" d="M64.4,346.808H29.523v-3.526H63.1l7.272-6.178h35.461v3.526H71.669Z" transform="translate(-29.523 -337.104)" fill="#1fd3a4"/>
                  </g>
                  <g id="Group_5098" data-name="Group 5098" transform="translate(0 1.379)">
                    <path id="Path_8235" data-name="Path 8235" d="M26.845,352.735a7.217,7.217,0,1,1,7.217-7.217A7.226,7.226,0,0,1,26.845,352.735Zm0-10.908a3.691,3.691,0,1,0,3.691,3.691A3.7,3.7,0,0,0,26.845,341.827Z" transform="translate(-19.629 -338.302)" fill="#1fd3a4"/>
                  </g>
                </g>
                <g id="Group_5102" data-name="Group 5102" transform="translate(30.514)">
                  <g id="Group_5100" data-name="Group 5100" transform="translate(11.571 5.454)">
                    <rect id="Rectangle_2003" data-name="Rectangle 2003" width="45.612" height="3.526" fill="#1fd3a4"/>
                  </g>
                  <g id="Group_5101" data-name="Group 5101">
                    <path id="Path_8236" data-name="Path 8236" d="M53.368,326.966a7.217,7.217,0,1,1,7.216-7.216A7.227,7.227,0,0,1,53.368,326.966Zm0-10.907a3.69,3.69,0,1,0,3.691,3.691A3.695,3.695,0,0,0,53.368,316.059Z" transform="translate(-46.151 -312.533)" fill="#1fd3a4"/>
                  </g>
                </g>
                <g id="Group_5105" data-name="Group 5105" transform="translate(36.865 81.425)">
                  <g id="Group_5103" data-name="Group 5103" transform="translate(7.07 7.497)">
                    <path id="Path_8237" data-name="Path 8237" d="M101.578,398.025H63.62l-5.8-5.683,2.468-2.52,4.774,4.677h36.519Z" transform="translate(-57.816 -389.822)" fill="#1fd3a4"/>
                  </g>
                  <g id="Group_5104" data-name="Group 5104">
                    <path id="Path_8238" data-name="Path 8238" d="M58.081,396.122a6.408,6.408,0,1,1,6.41-6.406A6.415,6.415,0,0,1,58.081,396.122Zm0-9.29a2.883,2.883,0,1,0,2.883,2.884A2.887,2.887,0,0,0,58.081,386.831Z" transform="translate(-51.671 -383.306)" fill="#1fd3a4"/>
                  </g>
                </g>
              </g>
            </g>
          </g>
          <g id="Group_5124" data-name="Group 5124" transform="translate(301.736)">
            <g id="Group_5123" data-name="Group 5123">
              <g id="Group_5122" data-name="Group 5122">
                <g id="Group_5111" data-name="Group 5111" transform="translate(10.969)">
                  <g id="Group_5109" data-name="Group 5109" transform="translate(0 4.646)">
                    <path id="Path_8239" data-name="Path 8239" d="M318.22,323.136h-26.8V319.61h24.913l7.344-10.966h27.091v3.526H325.565Z" transform="translate(-291.425 -308.645)" fill="#1fd3a4"/>
                  </g>
                  <g id="Group_5110" data-name="Group 5110" transform="translate(56.845)">
                    <path id="Path_8240" data-name="Path 8240" d="M340.833,311.016a6.408,6.408,0,1,1,6.406,6.408A6.414,6.414,0,0,1,340.833,311.016Zm9.29,0a2.883,2.883,0,1,0-2.884,2.883A2.886,2.886,0,0,0,350.123,311.016Z" transform="translate(-340.833 -304.606)" fill="#1fd3a4"/>
                  </g>
                </g>
                <g id="Group_5114" data-name="Group 5114" transform="translate(10.969 17.038)">
                  <g id="Group_5112" data-name="Group 5112" transform="translate(0 7.71)">
                    <path id="Path_8241" data-name="Path 8241" d="M331.651,342.283H291.425v-3.526h38.657l11.374-12.641,2.62,2.358Z" transform="translate(-291.425 -326.116)" fill="#1fd3a4"/>
                  </g>
                  <g id="Group_5113" data-name="Group 5113" transform="translate(46.806)">
                    <path id="Path_8242" data-name="Path 8242" d="M332.107,325.825a6.408,6.408,0,1,1,6.408,6.41A6.416,6.416,0,0,1,332.107,325.825Zm9.292,0a2.883,2.883,0,1,0-2.883,2.883A2.886,2.886,0,0,0,341.4,325.825Z" transform="translate(-332.107 -319.415)" fill="#1fd3a4"/>
                  </g>
                </g>
                <g id="Group_5117" data-name="Group 5117" transform="translate(12.511 58.604)">
                  <g id="Group_5115" data-name="Group 5115">
                    <path id="Path_8243" data-name="Path 8243" d="M350.57,377.953H329.5l-18.95-18.885H292.765v-3.526H312l18.951,18.885H350.57Z" transform="translate(-292.765 -355.543)" fill="#1fd3a4"/>
                  </g>
                  <g id="Group_5116" data-name="Group 5116" transform="translate(54.685 14.239)">
                    <path id="Path_8244" data-name="Path 8244" d="M340.3,374.327a6.408,6.408,0,1,1,6.406,6.41A6.415,6.415,0,0,1,340.3,374.327Zm9.29,0a2.883,2.883,0,1,0-2.884,2.884A2.886,2.886,0,0,0,349.585,374.327Z" transform="translate(-340.295 -367.919)" fill="#1fd3a4"/>
                  </g>
                </g>
                <g id="Group_5120" data-name="Group 5120" transform="translate(12.511 103.49)">
                  <g id="Group_5118" data-name="Group 5118">
                    <path id="Path_8245" data-name="Path 8245" d="M350.317,413.615l-14.683-15.533h-42.87v-3.526h44.389L352.879,411.2Z" transform="translate(-292.765 -394.557)" fill="#1fd3a4"/>
                  </g>
                  <g id="Group_5119" data-name="Group 5119" transform="translate(54.685 13.789)">
                    <path id="Path_8246" data-name="Path 8246" d="M340.3,412.952a6.408,6.408,0,1,1,6.406,6.41A6.415,6.415,0,0,1,340.3,412.952Zm9.29,0a2.883,2.883,0,1,0-2.884,2.883A2.887,2.887,0,0,0,349.585,412.952Z" transform="translate(-340.295 -406.542)" fill="#1fd3a4"/>
                  </g>
                </g>
                <g id="Group_5121" data-name="Group 5121" transform="translate(0 11.197)">
                  <rect id="Rectangle_2004" data-name="Rectangle 2004" width="16.747" height="12.357" fill="#1fd3a4"/>
                  <rect id="Rectangle_2005" data-name="Rectangle 2005" width="16.747" height="12.356" transform="translate(0 21.778)" fill="#1fd3a4"/>
                  <rect id="Rectangle_2006" data-name="Rectangle 2006" width="16.747" height="12.356" transform="translate(0 43.554)" fill="#1fd3a4"/>
                  <rect id="Rectangle_2007" data-name="Rectangle 2007" width="16.747" height="12.356" transform="translate(0 65.332)" fill="#1fd3a4"/>
                  <rect id="Rectangle_2008" data-name="Rectangle 2008" width="16.747" height="12.356" transform="translate(0 87.109)" fill="#1fd3a4"/>
                </g>
              </g>
            </g>
          </g>
        </g>
        <g id="Group_5132" data-name="Group 5132" transform="translate(111.354 53.881)">
          <g id="Group_5128" data-name="Group 5128" transform="translate(0 18.654)">
            <g id="Group_5126" data-name="Group 5126">
              <rect id="Rectangle_2009" data-name="Rectangle 2009" width="131.547" height="163.89" fill="#894923"/>
            </g>
            <rect id="Rectangle_2010" data-name="Rectangle 2010" width="105.868" height="138.438" transform="translate(12.842 9.455)" fill="#fff"/>
            <g id="Group_5127" data-name="Group 5127" transform="translate(21.017 25.525)">
              <line id="Line_12" data-name="Line 12" x2="90.485" y2="0.072" transform="translate(0.088)" fill="none" stroke="#c6d2e5" stroke-width="2"/>
              <line id="Line_13" data-name="Line 13" x2="90.484" y2="0.071" transform="translate(0.08 11.265)" fill="none" stroke="#c6d2e5" stroke-width="2"/>
              <line id="Line_14" data-name="Line 14" x2="90.485" y2="0.071" transform="translate(0.071 22.529)" fill="none" stroke="#c6d2e5" stroke-width="2"/>
              <line id="Line_15" data-name="Line 15" x2="90.485" y2="0.072" transform="translate(0.062 33.794)" fill="none" stroke="#c6d2e5" stroke-width="2"/>
              <line id="Line_16" data-name="Line 16" x2="90.485" y2="0.073" transform="translate(0.053 45.059)" fill="none" stroke="#c6d2e5" stroke-width="2"/>
              <line id="Line_17" data-name="Line 17" x2="90.484" y2="0.072" transform="translate(0.045 56.325)" fill="none" stroke="#c6d2e5" stroke-width="2"/>
              <line id="Line_18" data-name="Line 18" x2="90.485" y2="0.071" transform="translate(0.035 67.589)" fill="none" stroke="#c6d2e5" stroke-width="2"/>
              <line id="Line_19" data-name="Line 19" x2="90.484" y2="0.072" transform="translate(0.027 78.855)" fill="none" stroke="#c6d2e5" stroke-width="2"/>
              <line id="Line_20" data-name="Line 20" x2="90.484" y2="0.071" transform="translate(0.018 90.12)" fill="none" stroke="#c6d2e5" stroke-width="2"/>
              <line id="Line_21" data-name="Line 21" x2="90.485" y2="0.071" transform="translate(0.008 101.386)" fill="none" stroke="#c6d2e5" stroke-width="2"/>
              <line id="Line_22" data-name="Line 22" x2="90.484" y2="0.07" transform="translate(0 112.652)" fill="none" stroke="#c6d2e5" stroke-width="2"/>
            </g>
          </g>
          <g id="Group_5131" data-name="Group 5131" transform="translate(34.006)">
            <g id="Group_5129" data-name="Group 5129">
              <path id="Path_8247" data-name="Path 8247" d="M201.306,111.706l-15.082-.013a9.8,9.8,0,0,0,1.8-5.652,10.734,10.734,0,0,0-21.441-.016,9.8,9.8,0,0,0,1.794,5.654l-14.072-.01c-4.6,0-8.329,2.909-8.333,8.881s3.721,9.531,8.319,9.534l47,.037c4.6,0,8.331-3.549,8.334-9.523S205.907,111.709,201.306,111.706Zm-24-10.411a4.744,4.744,0,1,1-4.985,4.733A4.866,4.866,0,0,1,177.309,101.295Z" transform="translate(-145.972 -95.831)" fill="#2e323b"/>
              <path id="Path_8248" data-name="Path 8248" d="M177.309,100.916a4.951,4.951,0,0,1,4.788,3.458,4.583,4.583,0,0,0,.191-1.286,4.987,4.987,0,0,0-9.962-.008,4.508,4.508,0,0,0,.189,1.285A4.952,4.952,0,0,1,177.309,100.916Zm32.252,18.023c-.5,5.185-4.012,8.234-8.266,8.231l-47-.036c-4.255,0-7.756-3.059-8.251-8.246-.04.412-.068.835-.069,1.282,0,5.972,3.721,9.531,8.319,9.534l47,.037c4.6,0,8.331-3.549,8.334-9.523C209.628,119.773,209.6,119.35,209.561,118.939Z" transform="translate(-145.972 -95.452)" fill="#282f39"/>
            </g>
            <path id="Union_2" data-name="Union 2" d="M1.021,2.418A1.127,1.127,0,0,1,0,1.209,1.128,1.128,0,0,1,1.022,0L19.646.017a1.123,1.123,0,0,1,1.019,1.21,1.124,1.124,0,0,1-1.02,1.2Zm23.047.005H21.984c-.481,0-.87-.537-.87-1.2s.391-1.2.871-1.2h2.084c.48,0,.87.537.869,1.2s-.39,1.195-.868,1.195Z" transform="translate(6.592 27.225)" fill="#4c5866"/>
          </g>
        </g>
        <g id="Group_5137" data-name="Group 5137" transform="translate(274.924 114.096)">
          <g id="Group_5134" data-name="Group 5134">
            <path id="Rectangle_2011" data-name="Rectangle 2011" d="M14.724,0H122.189a14.723,14.723,0,0,1,14.723,14.723V250.812a14.724,14.724,0,0,1-14.724,14.724H14.724A14.724,14.724,0,0,1,0,250.812V14.724A14.724,14.724,0,0,1,14.724,0Z" fill="#2e323b"/>
            <rect id="Rectangle_2012" data-name="Rectangle 2012" width="120.229" height="192.711" transform="translate(7.478 33.131)" fill="#fff"/>
            <g id="Group_5133" data-name="Group 5133" transform="translate(43.623 13.38)">
              <path id="Rectangle_2013" data-name="Rectangle 2013" d="M1.747,0H46.2A1.748,1.748,0,0,1,47.95,1.748V3.6A1.748,1.748,0,0,1,46.2,5.35H1.748A1.748,1.748,0,0,1,0,3.6V1.747A1.747,1.747,0,0,1,1.747,0Z" transform="translate(5.166)" fill="#4c5866"/>
              <path id="Path_8251" data-name="Path 8251" d="M298.513,165.311h0A2.011,2.011,0,0,1,296.5,163.3v-1.491a2.01,2.01,0,0,1,2.011-2.011h0a2.01,2.01,0,0,1,2.011,2.011V163.3A2.011,2.011,0,0,1,298.513,165.311Z" transform="translate(-296.502 -159.798)" fill="#4c5866"/>
            </g>
          </g>
          <g id="Group_5136" data-name="Group 5136" transform="translate(25.638 52.485)">
            <g id="Group_5135" data-name="Group 5135" transform="translate(3.104 35.414)">
              <rect id="Rectangle_2014" data-name="Rectangle 2014" width="20.726" height="59.192" transform="translate(0 59.192)" fill="#edb82b"/>
              <rect id="Rectangle_2015" data-name="Rectangle 2015" width="20.727" height="93.743" transform="translate(30.901 24.641)" fill="#729424"/>
              <rect id="Rectangle_2016" data-name="Rectangle 2016" width="20.726" height="118.384" transform="translate(61.803)" fill="#edb82b"/>
            </g>
            <path id="Path_8252" data-name="Path 8252" d="M365.353,193.787l-16.873,2.505,4.655,4.788-24.911,21.195-12.576-11.507L280.87,240.431l2.986,3.5,31.683-27.025,12.574,11.5,28.237-24.024L361.9,210.1Z" transform="translate(-280.87 -193.787)" fill="#cb2636"/>
          </g>
          <circle id="Ellipse_592" data-name="Ellipse 592" cx="8.197" cy="8.197" r="8.197" transform="translate(59.258 236.215)" fill="#4c5866"/>
        </g>
        <g id="Group_5140" data-name="Group 5140" transform="translate(421.772 330.231)">
          <path id="Path_8253" data-name="Path 8253" d="M482.463,384.148a48.12,48.12,0,1,1-48.12-48.12A48.121,48.121,0,0,1,482.463,384.148Z" transform="translate(-386.223 -336.028)" fill="#fff"/>
          <g id="Group_5139" data-name="Group 5139" transform="translate(22.925 14.06)">
            <g id="Group_5138" data-name="Group 5138">
              <path id="Path_8254" data-name="Path 8254" d="M452.832,371.361h.067c-.1-12.781-9.556-23.112-21.22-23.112s-21.121,10.331-21.221,23.112h-.6a3.705,3.705,0,0,0-3.7,3.7v33.571a3.706,3.706,0,0,0,3.7,3.706h42.979a3.7,3.7,0,0,0,3.7-3.706V375.065A3.7,3.7,0,0,0,452.832,371.361Zm-35.742,0c.1-8.759,6.589-15.829,14.589-15.829s14.49,7.07,14.589,15.829Z" transform="translate(-406.149 -348.249)" fill="#b51d32"/>
              <path id="Path_8255" data-name="Path 8255" d="M446.268,384.7a35.386,35.386,0,0,0-2.91-13.391H417.09c.1-8.759,6.589-15.829,14.589-15.829a13.3,13.3,0,0,1,2.268.213c-2.094-2.673-4.207-5.067-6.133-7.1-9.817,1.985-17.266,11.385-17.356,22.719h-.6a3.705,3.705,0,0,0-3.7,3.7v33.571a3.706,3.706,0,0,0,3.7,3.706h36.414Z" transform="translate(-406.149 -348.198)" fill="#cb2636"/>
            </g>
            <path id="Path_8256" data-name="Path 8256" d="M435.606,382.788a6.685,6.685,0,1,0-9.506,6.04v12.2h5.643v-12.2A6.673,6.673,0,0,0,435.606,382.788Z" transform="translate(-403.728 -344.057)" fill="#771223"/>
          </g>
        </g>
        <g id="Group_5147" data-name="Group 5147" transform="translate(415.403 89.751)">
          <g id="Group_5141" data-name="Group 5141" transform="translate(0)">
            <circle id="Ellipse_593" data-name="Ellipse 593" cx="52.14" cy="52.14" r="52.14" transform="translate(0 101.596) rotate(-76.975)" fill="#fff"/>
          </g>
          <g id="Group_5146" data-name="Group 5146" transform="translate(29.404 26.327)">
            <g id="Group_5144" data-name="Group 5144">
              <g id="Group_5142" data-name="Group 5142" transform="translate(3.459 4.092)">
                <path id="Path_8258" data-name="Path 8258" d="M438.937,222.724l-.354-.145c-7.355-3.006-33.781-21.985-28.684-59.9l.1-.749.755-.058a66.64,66.64,0,0,0,27.723-8.171l.459-.255.457.255a66.649,66.649,0,0,0,27.725,8.171l.752.058.1.749c5.1,37.913-21.327,56.892-28.682,59.9Zm-27.28-59.049c-4.43,35.643,19.806,53.716,27.28,57.023,7.473-3.308,31.707-21.38,27.279-57.023a68.4,68.4,0,0,1-27.279-8.087A68.415,68.415,0,0,1,411.657,163.675Z" transform="translate(-409.251 -153.448)" fill="#edb82b"/>
              </g>
              <g id="Group_5143" data-name="Group 5143" transform="translate(14.919 24.207)">
                <path id="Path_8259" data-name="Path 8259" d="M431.5,199.978,419.211,185.56l4.092-3.488,8.421,9.879,20.048-21.021,3.891,3.711Z" transform="translate(-419.211 -170.931)" fill="#edb82b"/>
              </g>
            </g>
          </g>
        </g>
        <g id="Group_5150" data-name="Group 5150" transform="translate(272.439)">
          <g id="Group_5148" data-name="Group 5148">
            <path id="Path_8263" data-name="Path 8263" d="M352.666,97.118A48.12,48.12,0,1,1,304.546,49,48.119,48.119,0,0,1,352.666,97.118Z" transform="translate(-256.426 -48.999)" fill="#fff"/>
          </g>
          <g id="Group_5149" data-name="Group 5149" transform="translate(12.659 12.697)">
            <path id="Path_8264" data-name="Path 8264" d="M298.616,92.415l18.618,29.331s8.762-4.509,13.558-16.459c4.029-10.042,2.63-18.025,2.63-18.025Z" transform="translate(-262.735 -55.937)" fill="#ffba01"/>
            <path id="Path_8265" data-name="Path 8265" d="M311.215,62.182,299.007,96.15l34.365-4.927s-.7-9.8-6.981-17.452A40.3,40.3,0,0,0,311.215,62.182Z" transform="translate(-262.676 -59.712)" fill="#82b6f4"/>
            <path id="Path_8266" data-name="Path 8266" d="M303.384,96.78,269.519,82.839s5.19-13.447,18.76-19.521c15.6-6.982,27.7-.657,27.7-.657Z" transform="translate(-267.114 -60.035)" fill="#729424"/>
            <path id="Path_8267" data-name="Path 8267" d="M268.677,100.513l34.548-8.753L321.9,121.018s-12.543,7.2-26.285,4.471S271.73,110.875,268.677,100.513Z" transform="translate(-267.241 -55.26)" fill="#e7972b"/>
            <path id="Path_8268" data-name="Path 8268" d="M269.792,79.886l33.976,13.578-34.9,8.836A34.5,34.5,0,0,1,269.792,79.886Z" transform="translate(-267.429 -57.047)" fill="#cb2636"/>
          </g>
        </g>
        <g id="Group_5163" data-name="Group 5163" transform="translate(67.462 0.124)">
          <g id="Group_5153" data-name="Group 5153" transform="translate(0 215.444)">
            <g id="Group_5152" data-name="Group 5152">
              <path id="Path_8269" data-name="Path 8269" d="M142.317,268.393a32.026,32.026,0,1,1-32.025-32.027A32.025,32.025,0,0,1,142.317,268.393Z" transform="translate(-78.265 -236.366)" fill="#edb82b"/>
              <path id="Path_8270" data-name="Path 8270" d="M136.9,267.766a27.236,27.236,0,1,1-27.235-27.237A27.236,27.236,0,0,1,136.9,267.766Z" transform="translate(-77.638 -235.739)" fill="none" stroke="#e7972b" stroke-width="2"/>
              <g id="Group_5151" data-name="Group 5151" transform="translate(8.178 25.38)">
                <path id="Path_8271" data-name="Path 8271" d="M91.992,277.914c-5.189-6.146-4.371-14.9-4.362-14.985a1.1,1.1,0,0,0-2.185-.225c-.04.4-.933,9.755,4.869,16.626a1.1,1.1,0,1,0,1.677-1.415Z" transform="translate(-85.373 -257.93)" fill="#f2ce56"/>
                <path id="Path_8272" data-name="Path 8272" d="M86.719,261.352a1.481,1.481,0,1,0-1.206-1.506A1.374,1.374,0,0,0,86.719,261.352Z" transform="translate(-85.352 -258.425)" fill="#f2ce56"/>
              </g>
            </g>
            <path id="Path_8273" data-name="Path 8273" d="M114.342,265.744v-.089a6.189,6.189,0,0,0,3.391-2.186,6.5,6.5,0,0,0,1.108-3.924V258.3a6.2,6.2,0,0,0-2.471-5.419q-2.15-1.534-6.513-1.732V247.2H106.22v3.911h-1.644V247.2H100.94v3.911H97.992v31.22h2.948v3.987h3.637v-3.987h1.644v3.987h3.636v-4.006a12.857,12.857,0,0,0,6.989-1.874,6.321,6.321,0,0,0,2.692-5.509v-2.676Q119.538,266.994,114.342,265.744Zm-9.38-10.169h3.358a3.984,3.984,0,0,1,2.693.759,3.12,3.12,0,0,1,.856,2.453v1.738a2.928,2.928,0,0,1-1.046,2.543,5.33,5.33,0,0,1-3.136.757h-2.726Zm7.606,19.225a2.855,2.855,0,0,1-.888,2.385,4.417,4.417,0,0,1-2.726.69h-3.992v-9.588h3.105a5.648,5.648,0,0,1,3.454.825,3.589,3.589,0,0,1,1.047,2.966Z" transform="translate(-75.296 -234.735)" fill="#fff"/>
          </g>
          <g id="Group_5156" data-name="Group 5156" transform="translate(114.515 146.11)">
            <g id="Group_5155" data-name="Group 5155" transform="translate(0 0)">
              <path id="Path_8274" data-name="Path 8274" d="M241.852,208.128A32.026,32.026,0,1,1,209.825,176.1,32.027,32.027,0,0,1,241.852,208.128Z" transform="translate(-177.799 -176.102)" fill="#edb82b"/>
              <path id="Path_8275" data-name="Path 8275" d="M236.435,207.5A27.237,27.237,0,1,1,209.2,180.265,27.237,27.237,0,0,1,236.435,207.5Z" transform="translate(-177.172 -175.475)" fill="none" stroke="#e7972b" stroke-width="2"/>
              <g id="Group_5154" data-name="Group 5154" transform="translate(8.179 25.377)">
                <path id="Path_8276" data-name="Path 8276" d="M191.526,217.648c-5.189-6.145-4.372-14.9-4.363-14.985a1.1,1.1,0,0,0-2.183-.223c-.041.393-.934,9.753,4.868,16.625a1.1,1.1,0,1,0,1.677-1.416Z" transform="translate(-184.908 -197.664)" fill="#f2ce56"/>
                <path id="Path_8277" data-name="Path 8277" d="M186.254,201.086a1.48,1.48,0,1,0-1.208-1.5A1.372,1.372,0,0,0,186.254,201.086Z" transform="translate(-184.887 -198.16)" fill="#f2ce56"/>
              </g>
            </g>
            <path id="Path_8278" data-name="Path 8278" d="M213.876,205.479v-.089a6.18,6.18,0,0,0,3.391-2.187,6.486,6.486,0,0,0,1.108-3.924V198.03a6.209,6.209,0,0,0-2.471-5.42q-2.15-1.533-6.513-1.73v-3.942h-3.636v3.912h-1.645v-3.912h-3.636v3.912h-2.948v31.22h2.948v3.985h3.636V222.07h1.645v3.985h3.636v-4.006a12.836,12.836,0,0,0,6.988-1.875,6.311,6.311,0,0,0,2.693-5.508v-2.676Q219.072,206.727,213.876,205.479Zm-9.38-10.169h3.358a4,4,0,0,1,2.694.758,3.125,3.125,0,0,1,.855,2.453v1.74a2.927,2.927,0,0,1-1.045,2.543,5.342,5.342,0,0,1-3.137.758H204.5Zm7.6,19.224a2.853,2.853,0,0,1-.887,2.385,4.4,4.4,0,0,1-2.724.693H204.5V208.02H207.6a5.641,5.641,0,0,1,3.454.826,3.587,3.587,0,0,1,1.045,2.966Z" transform="translate(-174.83 -174.471)" fill="#fff"/>
          </g>
          <g id="Group_5159" data-name="Group 5159" transform="translate(114.515)">
            <g id="Group_5158" data-name="Group 5158">
              <path id="Path_8279" data-name="Path 8279" d="M241.852,81.133a32.026,32.026,0,1,1-32.027-32.026A32.027,32.027,0,0,1,241.852,81.133Z" transform="translate(-177.799 -49.107)" fill="#ffd046"/>
              <path id="Path_8280" data-name="Path 8280" d="M236.435,80.506A27.237,27.237,0,1,1,209.2,53.27,27.237,27.237,0,0,1,236.435,80.506Z" transform="translate(-177.172 -48.48)" fill="none" stroke="#e7972b" stroke-width="2"/>
              <g id="Group_5157" data-name="Group 5157" transform="translate(8.179 25.379)">
                <path id="Path_8281" data-name="Path 8281" d="M191.526,90.654c-5.189-6.146-4.372-14.9-4.363-14.985a1.1,1.1,0,0,0-2.183-.224c-.041.395-.934,9.754,4.868,16.626a1.1,1.1,0,1,0,1.677-1.416Z" transform="translate(-184.908 -70.67)" fill="#f2ce56"/>
                <path id="Path_8282" data-name="Path 8282" d="M186.254,74.092a1.48,1.48,0,1,0-1.208-1.506A1.372,1.372,0,0,0,186.254,74.092Z" transform="translate(-184.887 -71.165)" fill="#f2ce56"/>
              </g>
            </g>
            <path id="Path_8283" data-name="Path 8283" d="M213.876,78.485v-.09a6.172,6.172,0,0,0,3.391-2.186,6.486,6.486,0,0,0,1.108-3.924V71.036a6.208,6.208,0,0,0-2.471-5.42q-2.15-1.532-6.513-1.73V59.943h-3.636v3.913h-1.645V59.943h-3.636v3.913h-2.948v31.22h2.948v3.984h3.636V95.076h1.645v3.984h3.636v-4a12.836,12.836,0,0,0,6.988-1.875,6.313,6.313,0,0,0,2.693-5.508V85Q219.072,79.733,213.876,78.485ZM204.5,68.315h3.358a4,4,0,0,1,2.694.758,3.124,3.124,0,0,1,.855,2.453v1.74a2.927,2.927,0,0,1-1.045,2.543,5.342,5.342,0,0,1-3.137.758H204.5Zm7.6,19.224a2.853,2.853,0,0,1-.887,2.385,4.407,4.407,0,0,1-2.724.693H204.5V81.026H207.6a5.65,5.65,0,0,1,3.454.825,3.591,3.591,0,0,1,1.045,2.967Z" transform="translate(-174.83 -47.476)" fill="#fff"/>
          </g>
          <g id="Group_5162" data-name="Group 5162" transform="translate(0.747 89.662)">
            <g id="Group_5161" data-name="Group 5161">
              <path id="Path_8284" data-name="Path 8284" d="M142.967,159.065a32.026,32.026,0,1,1-32.027-32.026A32.027,32.027,0,0,1,142.967,159.065Z" transform="translate(-78.914 -127.039)" fill="#ffd046"/>
              <path id="Path_8285" data-name="Path 8285" d="M137.55,158.438A27.237,27.237,0,1,1,110.313,131.2,27.238,27.238,0,0,1,137.55,158.438Z" transform="translate(-78.287 -126.412)" fill="none" stroke="#e7972b" stroke-width="2"/>
              <g id="Group_5160" data-name="Group 5160" transform="translate(8.179 25.38)">
                <path id="Path_8286" data-name="Path 8286" d="M92.641,168.586c-5.188-6.146-4.371-14.9-4.363-14.985a1.1,1.1,0,1,0-2.183-.224c-.041.395-.934,9.754,4.868,16.625a1.1,1.1,0,1,0,1.677-1.415Z" transform="translate(-86.023 -148.603)" fill="#f2ce56"/>
                <path id="Path_8287" data-name="Path 8287" d="M87.369,152.024a1.48,1.48,0,1,0-1.208-1.506A1.374,1.374,0,0,0,87.369,152.024Z" transform="translate(-86.002 -149.098)" fill="#f2ce56"/>
              </g>
            </g>
            <path id="Path_8288" data-name="Path 8288" d="M114.991,156.416v-.089a6.183,6.183,0,0,0,3.391-2.185,6.49,6.49,0,0,0,1.109-3.926v-1.248a6.209,6.209,0,0,0-2.471-5.419q-2.152-1.534-6.513-1.732v-3.943H106.87v3.912h-1.645v-3.912h-3.636v3.912H98.64v31.22h2.949v3.985h3.636v-3.985h1.645v3.985h3.637v-4a12.838,12.838,0,0,0,6.987-1.875,6.315,6.315,0,0,0,2.695-5.508v-2.677Q120.188,157.666,114.991,156.416Zm-9.379-10.169h3.358a3.993,3.993,0,0,1,2.693.759,3.123,3.123,0,0,1,.855,2.452V151.2a2.928,2.928,0,0,1-1.046,2.543,5.327,5.327,0,0,1-3.136.757h-2.724Zm7.6,19.224a2.852,2.852,0,0,1-.887,2.386,4.41,4.41,0,0,1-2.724.691h-3.992v-9.59h3.1a5.647,5.647,0,0,1,3.454.825,3.59,3.59,0,0,1,1.046,2.966Z" transform="translate(-75.945 -125.408)" fill="#fff"/>
          </g>
        </g>
        <g id="Group_5175" data-name="Group 5175" transform="translate(73.099 270.166)">
          <g id="Group_5165" data-name="Group 5165" transform="translate(0 18.66)">
            <path id="Rectangle_2017" data-name="Rectangle 2017" d="M8.962,0H192.87a8.962,8.962,0,0,1,8.962,8.962V120.615a8.962,8.962,0,0,1-8.962,8.962H8.963A8.963,8.963,0,0,1,0,120.614V8.962A8.962,8.962,0,0,1,8.962,0Z" transform="translate(17.477)" fill="#4c5866"/>
            <g id="Group_5164" data-name="Group 5164" transform="translate(114.255 2.436)">
              <path id="Path_8289" data-name="Path 8289" d="M186.628,304.235a2.077,2.077,0,1,1-2.078-2.078A2.078,2.078,0,0,1,186.628,304.235Z" transform="translate(-182.473 -302.157)" fill="#575b5b"/>
              <path id="Path_8290" data-name="Path 8290" d="M192.21,304.235a2.077,2.077,0,1,1-2.078-2.078A2.078,2.078,0,0,1,192.21,304.235Z" transform="translate(-181.633 -302.157)" fill="#575b5b"/>
              <path id="Path_8291" data-name="Path 8291" d="M197.792,304.235a2.077,2.077,0,1,1-2.078-2.078A2.078,2.078,0,0,1,197.792,304.235Z" transform="translate(-180.793 -302.157)" fill="#575b5b"/>
              <path id="Path_8292" data-name="Path 8292" d="M203.375,304.235a2.078,2.078,0,1,1-2.079-2.078A2.079,2.079,0,0,1,203.375,304.235Z" transform="translate(-179.952 -302.157)" fill="#575b5b"/>
            </g>
            <rect id="Rectangle_2018" data-name="Rectangle 2018" width="184.008" height="113.929" transform="translate(26.389 8.422)" fill="#fff"/>
            <path id="Path_8293" data-name="Path 8293" d="M303.091,429.246H100.025a16.86,16.86,0,0,1-16.86-16.86H319.95A16.86,16.86,0,0,1,303.091,429.246Z" transform="translate(-83.165 -283.13)" fill="#2e323b"/>
            <path id="Path_8294" data-name="Path 8294" d="M211.239,419.52H168.126a6.063,6.063,0,0,1-6.062-6.062h0a6.063,6.063,0,0,1,6.062-6.061h43.113a6.061,6.061,0,0,1,6.06,6.061h0A6.061,6.061,0,0,1,211.239,419.52Z" transform="translate(-71.289 -283.881)" fill="#2e323b"/>
          </g>
          <g id="Group_5174" data-name="Group 5174" transform="translate(62.565)">
            <g id="Group_5168" data-name="Group 5168" transform="translate(23.802)">
              <g id="Group_5167" data-name="Group 5167">
                <path id="Path_8295" data-name="Path 8295" d="M222.285,315.847a32.026,32.026,0,1,1-32.026-32.026A32.026,32.026,0,0,1,222.285,315.847Z" transform="translate(-158.233 -283.821)" fill="#edb82b"/>
                <path id="Path_8296" data-name="Path 8296" d="M216.87,315.22a27.237,27.237,0,1,1-27.237-27.236A27.237,27.237,0,0,1,216.87,315.22Z" transform="translate(-157.607 -283.194)" fill="none" stroke="#e7972b" stroke-width="2"/>
                <g id="Group_5166" data-name="Group 5166" transform="translate(8.178 25.38)">
                  <path id="Path_8297" data-name="Path 8297" d="M171.961,325.369c-5.19-6.146-4.372-14.9-4.363-14.985a1.1,1.1,0,0,0-2.185-.226c-.04.4-.933,9.755,4.87,16.626a1.1,1.1,0,0,0,1.677-1.415Z" transform="translate(-165.341 -305.385)" fill="#f2ce56"/>
                  <path id="Path_8298" data-name="Path 8298" d="M166.687,308.807a1.481,1.481,0,1,0-1.207-1.506A1.373,1.373,0,0,0,166.687,308.807Z" transform="translate(-165.321 -305.88)" fill="#f2ce56"/>
                </g>
              </g>
              <path id="Path_8299" data-name="Path 8299" d="M194.31,313.2v-.09a6.183,6.183,0,0,0,3.391-2.186A6.486,6.486,0,0,0,198.809,307V305.75a6.2,6.2,0,0,0-2.47-5.419q-2.152-1.534-6.514-1.732v-3.943h-3.636v3.913h-1.644v-3.913h-3.637v3.913h-2.949v31.219h2.949v3.985h3.637v-3.985h1.644v3.985h3.636v-4a12.846,12.846,0,0,0,6.989-1.875,6.314,6.314,0,0,0,2.693-5.508v-2.676Q199.507,314.447,194.31,313.2Zm-9.379-10.168h3.358a3.983,3.983,0,0,1,2.692.758,3.116,3.116,0,0,1,.856,2.452v1.74a2.92,2.92,0,0,1-1.046,2.542,5.321,5.321,0,0,1-3.136.758h-2.724Zm7.6,19.223a2.851,2.851,0,0,1-.887,2.385,4.409,4.409,0,0,1-2.726.691h-3.991v-9.59h3.1a5.651,5.651,0,0,1,3.455.825,3.592,3.592,0,0,1,1.045,2.966Z" transform="translate(-155.264 -282.19)" fill="#fff"/>
            </g>
            <g id="Group_5173" data-name="Group 5173" transform="translate(0 38.62)">
              <g id="Group_5172" data-name="Group 5172" transform="translate(4.473)">
                <rect id="Rectangle_2019" data-name="Rectangle 2019" width="99.963" height="78" rx="6.378" fill="#cb2636"/>
                <g id="Group_5171" data-name="Group 5171" transform="translate(6.157 4.25)">
                  <g id="Group_5169" data-name="Group 5169">
                    <path id="Path_8300" data-name="Path 8300" d="M233.162,323.623h-5.081a1.27,1.27,0,0,1,0-2.54h5.081a1.27,1.27,0,1,1,0,2.54Zm-11.432,0H216.65a1.27,1.27,0,1,1,0-2.54h5.081a1.27,1.27,0,1,1,0,2.54Zm-11.433,0h-5.081a1.27,1.27,0,1,1,0-2.54H210.3a1.27,1.27,0,1,1,0,2.54Zm-11.432,0h-5.082a1.27,1.27,0,1,1,0-2.54h5.082a1.27,1.27,0,0,1,0,2.54Zm-11.434,0h-5.081a1.27,1.27,0,1,1,0-2.54h5.081a1.27,1.27,0,1,1,0,2.54Zm-11.432,0H170.92a1.27,1.27,0,0,1,0-2.54H176a1.27,1.27,0,0,1,0,2.54Zm-11.433,0h-5.082a1.27,1.27,0,0,1,0-2.54h5.082a1.27,1.27,0,0,1,0,2.54Zm-11.433,0h-5.081a1.27,1.27,0,1,1,0-2.54h5.081a1.27,1.27,0,1,1,0,2.54Z" transform="translate(-146.784 -321.083)" fill="#fff"/>
                  </g>
                  <g id="Group_5170" data-name="Group 5170" transform="translate(0 66.958)">
                    <path id="Path_8301" data-name="Path 8301" d="M233.162,381.823h-5.081a1.271,1.271,0,0,1,0-2.541h5.081a1.271,1.271,0,1,1,0,2.541Zm-11.432,0H216.65a1.271,1.271,0,1,1,0-2.541h5.081a1.271,1.271,0,0,1,0,2.541Zm-11.433,0h-5.081a1.271,1.271,0,0,1,0-2.541H210.3a1.271,1.271,0,0,1,0,2.541Zm-11.432,0h-5.082a1.271,1.271,0,0,1,0-2.541h5.082a1.271,1.271,0,0,1,0,2.541Zm-11.434,0h-5.081a1.271,1.271,0,0,1,0-2.541h5.081a1.271,1.271,0,1,1,0,2.541Zm-11.432,0H170.92a1.271,1.271,0,0,1,0-2.541H176a1.271,1.271,0,0,1,0,2.541Zm-11.433,0h-5.082a1.271,1.271,0,0,1,0-2.541h5.082a1.271,1.271,0,0,1,0,2.541Zm-11.433,0h-5.081a1.271,1.271,0,1,1,0-2.541h5.081a1.271,1.271,0,0,1,0,2.541Z" transform="translate(-146.784 -379.281)" fill="#fff"/>
                  </g>
                </g>
              </g>
              <rect id="Rectangle_2020" data-name="Rectangle 2020" width="23.1" height="36.504" rx="4.341" transform="translate(36.504 28.922) rotate(90)" fill="#771223"/>
              <path id="Rectangle_2021" data-name="Rectangle 2021" d="M3.764,0H7.669a3.763,3.763,0,0,1,3.763,3.763v9.253a3.763,3.763,0,0,1-3.763,3.763H3.764A3.764,3.764,0,0,1,0,13.014V3.764A3.764,3.764,0,0,1,3.764,0Z" transform="translate(22.063 32.207)" fill="#edb82b"/>
            </g>
          </g>
        </g>
      </g>
    </g>
  </g>
</svg>
