<svg xmlns="http://www.w3.org/2000/svg" width="23.625" height="17.178" viewBox="0 0 23.625 17.178">
  <g id="Group_3780" data-name="Group 3780" transform="translate(-12377.635 426.939)">
    <path id="Path_3552" data-name="Path 3552" d="M184.284,0a2.176,2.176,0,0,0-1.863,1.09l-3.095,5.36-3.095,5.36a2.18,2.18,0,0,0,1.836,3.269h.1l.083-.048c6.146-3.548,6.271-3.6,12.235.065a2.18,2.18,0,0,0,1.936-3.269l-2.693-4.664-2.012-3.484-1.5-2.546A2.181,2.181,0,0,0,184.353,0Z" transform="translate(12208.039 -425.357)" fill="none" stroke="#6d80c4" stroke-width="1"/>
    <path id="Path_3559" data-name="Path 3559" d="M17.411,0a2.21,2.21,0,0,0-.856.186h0L16.522.2h0L16.49.216h0a2.17,2.17,0,0,0-.569.4h0l-.025.025h0L15.87.663l0,0-.025.027,0,0-.023.025,0,0-.019.021-.009.01L15.77.773l-.008.009L15.746.8l-.005.006L15.724.83l-.009.011L15.7.859l-.009.012L15.68.888,15.67.9l-.011.016-.01.015-.01.015-.011.016,0,0L15.609.99,15.6,1l-.017.026,0,0-.018.029v0l-.018.031-3.094,5.36-3.095,5.36a2.18,2.18,0,0,0,.8,2.978c1.689.963,3.23-.959,4.621-1.633a2.17,2.17,0,0,1,.277-1.345l5.237-9.071-.945-1.607A2.182,2.182,0,0,0,17.507,0h-.1Z" transform="translate(12369.199 -426.439)" fill="none" stroke="#6d80c4" stroke-width="1"/>
  </g>
</svg>
