<svg xmlns="http://www.w3.org/2000/svg" width="18.346" height="20.134" viewBox="0 0 18.346 20.134">
  <g id="levels-01" transform="translate(-23.711 -1)">
    <path id="Path_4124" data-name="Path 4124" d="M26.278,21.132a.416.416,0,0,1-.236-.433c.008-.642,0-1.285,0-1.927,0-.317.108-.427.424-.427h2.842v-.215c0-.5.006-1.009,0-1.513a.583.583,0,0,1,.243-.5,3.874,3.874,0,0,0,1.431-2.237.216.216,0,0,0-.157-.293A5.9,5.9,0,0,1,27.8,10.88a.253.253,0,0,0-.173-.12,3.43,3.43,0,0,1-3.043-2.114,8.382,8.382,0,0,1-.775-2.927c-.058-.59-.071-1.189-.095-1.784-.013-.335.089-.43.429-.431q1.366,0,2.733,0h.254c0-.085.009-.154.01-.223,0-.616.005-1.232,0-1.848A.457.457,0,0,1,27.34,1H38.389a.471.471,0,0,1,.2.453c-.008.674,0,1.347,0,2.051H41.6c.374,0,.457.089.454.466a12.652,12.652,0,0,1-.485,3.7,5.4,5.4,0,0,1-.936,1.843,3.28,3.28,0,0,1-2.468,1.234.263.263,0,0,0-.258.157,5.7,5.7,0,0,1-2.971,2.674l-.163.068a.583.583,0,0,0-.055.035c.023.118.039.245.075.369a3.853,3.853,0,0,0,1.358,2.04.717.717,0,0,1,.31.65c-.021.523-.006,1.047-.006,1.6h2.789c.349,0,.437.09.438.445,0,.642,0,1.284,0,1.927a.448.448,0,0,1-.2.416Zm1.5-19.48V7.783c0,.294,0,.59.027.883a5.082,5.082,0,0,0,10.145-.452c.013-2.128,0-4.258,0-6.386,0-.056-.009-.112-.014-.176ZM39.026,19.013H26.711v1.461H39.026ZM38.59,4.156v.221c0,1.265.007,2.529,0,3.793a8.987,8.987,0,0,1-.093,1.153,7.459,7.459,0,0,1-.2.786,2.815,2.815,0,0,0,1.618-.745,3.757,3.757,0,0,0,.913-1.427,10.074,10.074,0,0,0,.55-2.922c.02-.285.029-.57.043-.859ZM24.383,4.151c.017.372.024.725.049,1.076a9.063,9.063,0,0,0,.589,2.811,3.214,3.214,0,0,0,1.621,1.836,7.184,7.184,0,0,0,.779.26l.032-.052a7,7,0,0,1-.317-2.537c.011-1.062,0-2.121,0-3.182V4.151Zm5.589,14.182h5.817V16.824H29.972Zm.5-2.178h4.794a4.569,4.569,0,0,1-1.192-2.32,6.567,6.567,0,0,1-2.411,0A4.665,4.665,0,0,1,30.472,16.155Z" transform="translate(0 0)" fill="#6d80c4"/>
    <path id="Path_4125" data-name="Path 4125" d="M170.036,66.338c-.584.428-1.156.854-1.738,1.266a.546.546,0,0,1-.34.1c-.191-.018-.275-.227-.2-.451.2-.642.407-1.284.619-1.923a.19.19,0,0,0-.084-.258c-.526-.367-1.046-.743-1.57-1.112-.15-.105-.262-.225-.208-.423s.163-.264.423-.264h2.133l.556-1.8a2.527,2.527,0,0,1,.089-.282.346.346,0,0,1,.328-.238.33.33,0,0,1,.33.254c.206.634.419,1.266.619,1.9a.2.2,0,0,0,.231.168c.648-.008,1.3,0,1.945,0,.185,0,.344.033.4.233a.368.368,0,0,1-.185.433c-.524.37-1.042.747-1.573,1.11a.234.234,0,0,0-.1.322c.21.626.405,1.258.612,1.884a.32.32,0,0,1-.09.4.34.34,0,0,1-.433-.034C171.214,67.194,170.626,66.769,170.036,66.338Zm0-4.033c-.151.481-.284.911-.421,1.34a.368.368,0,0,1-.433.307c-.387-.008-.773-.018-1.159-.026-.047,0-.093.007-.171.015.384.292.734.566,1.093.828a.364.364,0,0,1,.144.461c-.088.26-.169.523-.253.784l-.166.521c.4-.291.751-.544,1.1-.8a.376.376,0,0,1,.535,0c.165.118.328.238.493.357l.605.433c-.14-.436-.262-.814-.384-1.192-.115-.354-.1-.411.192-.629l.72-.546.275-.211c-.444,0-.862,0-1.28,0-.283,0-.393-.07-.477-.335-.135-.415-.266-.832-.416-1.31Z" transform="translate(-137.171 -57.592)" fill="#6d80c4"/>
  </g>
</svg>
