<svg xmlns="http://www.w3.org/2000/svg" width="23.218" height="32.132" viewBox="0 0 23.218 32.132">
  <path id="Icon_metro-bitcoin" data-name="Icon metro-bitcoin" d="M29.4,14.294a4.577,4.577,0,0,1-2.53,4.982,5.8,5.8,0,0,1,3.379,1.989A5.723,5.723,0,0,1,31.12,25.4a7.3,7.3,0,0,1-.628,2.414,5.328,5.328,0,0,1-1.246,1.719,6.338,6.338,0,0,1-1.873,1.13,11.412,11.412,0,0,1-2.346.666,23.267,23.267,0,0,1-2.81.29v4.924H19.245V31.692q-1.545,0-2.356-.019v4.866H13.915V31.615q-.348,0-1.043-.01T11.81,31.6H7.948l.6-3.534H10.69a1.031,1.031,0,0,0,1.12-.985V19.314h.309a1.964,1.964,0,0,0-.309-.019V13.753a1.534,1.534,0,0,0-1.719-1.313H7.948V9.273l4.094.019q1.236,0,1.873-.019V4.407h2.974v4.77q1.583-.039,2.356-.039V4.407h2.974V9.273a17.228,17.228,0,0,1,2.7.434,8.781,8.781,0,0,1,2.182.869A4.424,4.424,0,0,1,28.7,12.083a4.928,4.928,0,0,1,.7,2.211ZM25.25,24.818a2.577,2.577,0,0,0-.29-1.236,2.9,2.9,0,0,0-.715-.888,3.667,3.667,0,0,0-1.11-.589,9.374,9.374,0,0,0-1.265-.357,11.419,11.419,0,0,0-1.429-.174q-.85-.058-1.332-.058t-1.246.019q-.763.019-.917.019v6.527q.154,0,.714.01t.927.01q.367,0,1.023-.029t1.13-.077q.473-.048,1.1-.164a7.391,7.391,0,0,0,1.072-.27,6.562,6.562,0,0,0,.917-.406,2.676,2.676,0,0,0,.763-.579,2.729,2.729,0,0,0,.473-.772,2.56,2.56,0,0,0,.183-.985Zm-1.371-9.192a2.535,2.535,0,0,0-.241-1.13,2.691,2.691,0,0,0-.589-.811,2.887,2.887,0,0,0-.927-.541,6.637,6.637,0,0,0-1.062-.319,10.632,10.632,0,0,0-1.188-.154q-.7-.058-1.12-.048t-1.043.019q-.628.01-.763.01v5.928l.666.01q.57.01.9,0t.965-.039a8.166,8.166,0,0,0,1.062-.106q.425-.077.994-.212a3.274,3.274,0,0,0,.937-.357,5.3,5.3,0,0,0,.714-.521,1.858,1.858,0,0,0,.521-.743,2.678,2.678,0,0,0,.174-.985Z" transform="translate(-7.948 -4.407)" fill="#ffa300"/>
</svg>
