<svg xmlns="http://www.w3.org/2000/svg" width="23.635" height="15.757" viewBox="0 0 23.635 15.757">
  <path id="Icon_awesome-eye" data-name="Icon awesome-eye" d="M23.492,11.779A13.161,13.161,0,0,0,11.818,4.5,13.163,13.163,0,0,0,.143,11.78a1.327,1.327,0,0,0,0,1.2,13.161,13.161,0,0,0,11.675,7.279,13.163,13.163,0,0,0,11.675-7.28A1.327,1.327,0,0,0,23.492,11.779ZM11.818,18.287a5.909,5.909,0,1,1,5.909-5.909A5.909,5.909,0,0,1,11.818,18.287Zm0-9.848a3.911,3.911,0,0,0-1.039.156A1.963,1.963,0,0,1,8.034,11.34a3.93,3.93,0,1,0,3.784-2.9Z" transform="translate(0 -4.5)" fill="rgba(109,128,196,0.37)"/>
</svg>
