<svg xmlns="http://www.w3.org/2000/svg" width="17.871" height="20.105" viewBox="0 0 17.871 20.105">
  <g id="Exchange-01" transform="translate(-107.329 -89.243)">
    <path id="Path_4067" data-name="Path 4067" d="M111.309,293.667a1.315,1.315,0,0,1,.2.145,1.156,1.156,0,0,1-1.639,1.627q-1.112-1.091-2.2-2.2a1.128,1.128,0,0,1-.007-1.6q1.057-1.087,2.144-2.144a1.165,1.165,0,0,1,1.608.007,1.153,1.153,0,0,1,.055,1.6c-.039.046-.081.091-.141.159h11.544v-3.319a1.13,1.13,0,0,1,0-.186.287.287,0,0,1,.285-.272.291.291,0,0,1,.315.263.8.8,0,0,1,.006.165v3.528c0,.348-.088.435-.441.435H110.7a.3.3,0,0,1-.122,0c-.1-.05-.239-.093-.27-.174a.393.393,0,0,1,.06-.333c.179-.216.393-.4.589-.6a.561.561,0,0,0,.044-.81.575.575,0,0,0-.829.03q-1.019,1.01-2.03,2.03a.554.554,0,0,0,0,.855q1.008,1.019,2.03,2.03a.57.57,0,0,0,.829.033.56.56,0,0,0-.042-.811c-.172-.179-.346-.354-.525-.525-.123-.119-.211-.245-.136-.418s.222-.184.381-.184h13.91v-5.039a1.19,1.19,0,0,1,.008-.226.3.3,0,0,1,.577-.016.943.943,0,0,1,.014.226v5.2c0,.394-.075.468-.469.468H111.357Z" transform="translate(0 -186.406)" fill="#6d80c4"/>
    <path id="Path_4068" data-name="Path 4068" d="M107.981,91.943v5.045a1.1,1.1,0,0,1-.01.226.252.252,0,0,1-.292.228.585.585,0,0,1-.28-.221c-.039-.048-.018-.146-.018-.221V91.8c0-.385.072-.457.456-.457H121.2a4,4,0,0,1-.344-.648,1.121,1.121,0,0,1,.5-1.284,1.182,1.182,0,0,1,1.414.149c.261.244.508.5.761.756.438.438.877.873,1.313,1.313a1.157,1.157,0,0,1,0,1.738q-1,1-2,2a1.162,1.162,0,1,1-1.672-1.611c.018-.019.033-.041.064-.081H109.7V96.99a1.194,1.194,0,0,1,0,.185.3.3,0,0,1-.6.015.837.837,0,0,1-.007-.164V93.477c0-.328.1-.426.435-.426h12.358a.234.234,0,0,1,.082,0c.107.06.264.1.3.2a.416.416,0,0,1-.084.346c-.164.2-.365.373-.547.561a.555.555,0,1,0,.783.782q1-.995,2-2a.563.563,0,0,0-.005-.885q-1-1-2-2a.576.576,0,0,0-.844-.039.564.564,0,0,0,.063.824c.164.167.328.334.5.495.128.119.224.251.144.433s-.244.176-.406.176H107.981Z" transform="translate(-0.044 0)" fill="#6d80c4"/>
    <path id="Path_4069" data-name="Path 4069" d="M218.723,187.6a6.61,6.61,0,0,1,.722.287,1.782,1.782,0,0,1,.97,1.591.433.433,0,0,1-.073.288.42.42,0,0,1-.305.146c-.094-.015-.193-.137-.239-.236a3.255,3.255,0,0,1-.093-.418,1.509,1.509,0,0,0-.97-.991v2.826a2.22,2.22,0,0,1,1.507.955,2.069,2.069,0,0,1,.251,1.294c-.072.823-.644,1.343-1.773,1.608,0,.124,0,.254,0,.383a.376.376,0,0,1-.39.389.351.351,0,0,1-.358-.39c0-.122,0-.245,0-.337-.4-.108-.787-.179-1.148-.317a1.9,1.9,0,0,1-1.254-1.419c-.057-.246-.009-.382.156-.425a.353.353,0,0,1,.46.262,1.723,1.723,0,0,0,1.774,1.205v-2.632a8.97,8.97,0,0,1-.955-.29,1.907,1.907,0,0,1-.67-3.1,2.385,2.385,0,0,1,1.31-.644c.1-.018.2-.033.327-.053,0-.146-.005-.29,0-.432a.37.37,0,0,1,.358-.376.389.389,0,0,1,.389.375c.006.082,0,.165,0,.248S218.723,187.544,218.723,187.6Zm-.761.626a1.434,1.434,0,0,0-1.475,1.484,1.473,1.473,0,0,0,1.475,1.246Zm.776,6.073a1.143,1.143,0,0,0,1.134-1.179,1.251,1.251,0,0,0-1.134-1.347Z" transform="translate(-101.757 -91.705)" fill="#6d80c4"/>
  </g>
</svg>
