<svg xmlns="http://www.w3.org/2000/svg" xmlns:xlink="http://www.w3.org/1999/xlink" width="23.819" height="17.517" viewBox="0 0 23.819 17.517">
  <defs>
    <linearGradient id="linear-gradient" x1="0.082" y1="0.189" x2="0.999" y2="1.031" gradientUnits="objectBoundingBox">
      <stop offset="0" stop-color="#144ede"/>
      <stop offset="1" stop-color="#63eafb"/>
    </linearGradient>
  </defs>
  <g id="Group_3856" data-name="Group 3856" transform="translate(0)">
    <path id="Exclusion_2" data-name="Exclusion 2" d="M21.463,17.517h-.055c-3.271-2.012-4.917-2.979-6.578-2.979-1.693,0-3.466,1.024-6.685,2.882a4.1,4.1,0,0,1-1.308-.237,2.364,2.364,0,0,1-.864-3.224l3.351-5.8,3.351-5.8a2.349,2.349,0,0,1,2.017-1.18h.074A2.365,2.365,0,0,1,16.789,2.4L18.41,5.154l2.178,3.772L23.5,13.977a2.36,2.36,0,0,1-2.041,3.54Zm-19.4-1.276h0a1.764,1.764,0,0,1-.885-.23,2.358,2.358,0,0,1-.864-3.224l3.35-5.8,3.351-5.8.02-.033,0,0,.019-.03,0-.005.019-.028,0-.007L7.1,1.047l0,0,.012-.018.011-.016L7.139.993,7.151.976,7.162.96,7.174.943,7.184.93,7.2.91,7.209.9,7.228.876,7.233.868,7.251.847,7.26.837,7.276.816l.01-.011L7.306.783l0-.005L7.336.751l0,0L7.366.719l0,0L7.394.69,7.421.663a2.366,2.366,0,0,1,.617-.43L8.073.217,8.107.2a2.376,2.376,0,0,1,.93-.2h.1a2.364,2.364,0,0,1,1.993,1.225l1.024,1.74L6.485,12.787c-.258.446-.988,1.388-1.019,1.428a8.691,8.691,0,0,1-1.1,1.021A4.129,4.129,0,0,1,2.067,16.241Z" transform="translate(0)" fill="url(#linear-gradient)"/>
  </g>
</svg>
