<svg xmlns="http://www.w3.org/2000/svg" width="18.986" height="17.98" viewBox="0 0 18.986 17.98">
  <g id="_5105995-01" data-name="5105995-01" transform="translate(-17.12 -18.325)">
    <path id="Path_4053" data-name="Path 4053" d="M35.467,257.74H29.622a1.481,1.481,0,0,1-.178,0,.31.31,0,0,1-.29-.317.3.3,0,0,1,.288-.3,1.105,1.105,0,0,1,.158,0h6.054c.359,0,.452.095.452.46v8.547c0,.4-.083.483-.489.483H17.575c-.362,0-.455-.093-.455-.456v-7.3c0-.309.1-.46.306-.464s.317.15.317.473v7.107H35.467Z" transform="translate(0 -230.303)" fill="#6d80c4"/>
    <path id="Path_4054" data-name="Path 4054" d="M57.211,296.046H50.7c-.346,0-.392-.04-.486-.383A1.527,1.527,0,0,0,49.3,294.6a.426.426,0,0,1-.3-.452q.01-1.592,0-3.184a.39.39,0,0,1,.267-.41,1.543,1.543,0,0,0,.963-1.145c.055-.237.149-.317.4-.317H63.826c.252,0,.349.076.4.315a1.532,1.532,0,0,0,.945,1.137.418.418,0,0,1,.288.439q-.009,1.583,0,3.166a.428.428,0,0,1-.3.452,1.516,1.516,0,0,0-.932,1.1c-.068.28-.145.345-.437.345Zm0-.624,6.27,0c.128,0,.2-.025.244-.158a1.885,1.885,0,0,1,.995-1.148c.107-.051.116-.122.116-.219q0-1.335,0-2.67a.2.2,0,0,0-.123-.214,1.91,1.91,0,0,1-.986-1.131.21.21,0,0,0-.234-.173q-6.261.008-12.52,0a.209.209,0,0,0-.237.169,1.9,1.9,0,0,1-.983,1.134.2.2,0,0,0-.125.212q.006,1.345,0,2.691a.2.2,0,0,0,.133.208,1.9,1.9,0,0,1,.97,1.121.232.232,0,0,0,.269.18q3.106-.009,6.21,0Z" transform="translate(-30.618 -261.011)" fill="#6d80c4"/>
    <path id="Path_4055" data-name="Path 4055" d="M182.549,20.883l-2.279-2.852-2.28,2.851h.6c.3,0,.41.087.41.323v3.93a.312.312,0,1,1-.623,0V21.385c-.3,0-.583.013-.863-.006a.655.655,0,0,1-.35-.131c-.108-.092-.035-.207.044-.306l2.749-3.438a.371.371,0,0,1,.633,0l2.725,3.411c.083.1.168.207.079.338s-.249.138-.412.136c-.262,0-.525,0-.815,0v2.693a.555.555,0,0,1-.009.159.284.284,0,0,1-.292.2.292.292,0,0,1-.313-.2.461.461,0,0,1-.009-.142V21.247c0-.289.093-.363.46-.363Z" transform="translate(-153.655 1)" fill="#6d80c4"/>
    <path id="Path_4058" data-name="Path 4058" d="M20.674,193.688H17.667a.959.959,0,0,1-.2-.008.308.308,0,0,1,0-.607,1.04,1.04,0,0,1,.217-.008H23.7c.046,0,.093,0,.139,0a.317.317,0,0,1,.32.31.31.31,0,0,1-.32.309c-.369.007-.738,0-1.108,0Z" transform="translate(-0.086 -168.784)" fill="#6d80c4"/>
    <path id="Path_4059" data-name="Path 4059" d="M324.676,193.078h3.007a1.1,1.1,0,0,1,.178.006.31.31,0,0,1,.271.317.3.3,0,0,1-.269.3.975.975,0,0,1-.177.006h-6.054a1.156,1.156,0,0,1-.178-.006.309.309,0,0,1-.27-.317.3.3,0,0,1,.269-.3.948.948,0,0,1,.178-.006Z" transform="translate(-292.03 -168.797)" fill="#6d80c4"/>
    <path id="Path_4062" data-name="Path 4062" d="M20.711,257.7h-3a1.088,1.088,0,0,1-.2-.006.309.309,0,0,1,.011-.615,1,1,0,0,1,.158,0h6.066c.046,0,.092,0,.138,0a.31.31,0,0,1,.009.619,1.39,1.39,0,0,1-.158,0Z" transform="translate(-0.113 -230.267)" fill="#6d80c4"/>
    <path id="Path_4063" data-name="Path 4063" d="M289.447,257.17a.31.31,0,1,1-.317.294A.317.317,0,0,1,289.447,257.17Z" transform="translate(-261.247 -230.354)" fill="#6d80c4"/>
    <path id="Path_4065" data-name="Path 4065" d="M205.549,323.342a2.21,2.21,0,1,1-2.2-2.213A2.21,2.21,0,0,1,205.549,323.342Zm-3.8-.021a1.587,1.587,0,1,0,1.6-1.569A1.587,1.587,0,0,0,201.752,323.322Z" transform="translate(-176.727 -291.783)" fill="#6d80c4"/>
  </g>
</svg>
