<svg xmlns="http://www.w3.org/2000/svg" width="11.017" height="15.247" viewBox="0 0 11.017 15.247">
  <path id="Icon_metro-bitcoin" data-name="Icon metro-bitcoin" d="M18.128,9.1a2.172,2.172,0,0,1-1.2,2.364,2.752,2.752,0,0,1,1.6.944,2.716,2.716,0,0,1,.412,1.961,3.464,3.464,0,0,1-.3,1.145,2.528,2.528,0,0,1-.591.815,3.008,3.008,0,0,1-.889.536,5.415,5.415,0,0,1-1.113.316,11.04,11.04,0,0,1-1.333.137v2.336H13.308v-2.3q-.733,0-1.118-.009v2.309H10.779V17.317q-.165,0-.495,0t-.5,0H7.948l.284-1.677H9.249a.489.489,0,0,0,.531-.467V11.481h.147a.932.932,0,0,0-.147-.009V8.842a.728.728,0,0,0-.815-.623H7.948v-1.5l1.942.009q.586,0,.889-.009V4.407H12.19V6.67q.751-.018,1.118-.018V4.407h1.411V6.716A8.175,8.175,0,0,1,16,6.922a4.167,4.167,0,0,1,1.035.412,2.1,2.1,0,0,1,.756.715A2.338,2.338,0,0,1,18.128,9.1Zm-1.97,4.994a1.223,1.223,0,0,0-.137-.586,1.374,1.374,0,0,0-.339-.421,1.74,1.74,0,0,0-.527-.279,4.448,4.448,0,0,0-.6-.17,5.418,5.418,0,0,0-.678-.082q-.4-.027-.632-.027t-.591.009q-.362.009-.435.009v3.1l.339,0q.266,0,.44,0t.486-.014q.312-.014.536-.037t.522-.078a3.507,3.507,0,0,0,.509-.128,3.113,3.113,0,0,0,.435-.192,1.27,1.27,0,0,0,.362-.275,1.3,1.3,0,0,0,.224-.367,1.215,1.215,0,0,0,.087-.467ZM15.507,9.73a1.2,1.2,0,0,0-.115-.536,1.277,1.277,0,0,0-.279-.385,1.37,1.37,0,0,0-.44-.257,3.149,3.149,0,0,0-.5-.151,5.045,5.045,0,0,0-.564-.073q-.334-.027-.531-.023l-.495.009-.362,0v2.813l.316,0q.27,0,.426,0t.458-.018a3.875,3.875,0,0,0,.5-.05q.2-.037.472-.1a1.553,1.553,0,0,0,.444-.17,2.516,2.516,0,0,0,.339-.247.882.882,0,0,0,.247-.353,1.271,1.271,0,0,0,.082-.467Z" transform="translate(-7.948 -4.407)" fill="#ffa300"/>
</svg>
