<svg xmlns="http://www.w3.org/2000/svg" width="51.489" height="76.713" viewBox="0 0 51.489 76.713">
  <g id="money-bag-svgrepo-com" transform="translate(-67.407)">
    <path id="Path_8050" data-name="Path 8050" d="M103,20.667c1.035-1.481,2.27-3.3,3.467-5.176C111.847,7.034,112,4.353,110.5,2.771,107.616-.275,99.809-.739,95.678,1.032a24.362,24.362,0,0,0-2.737,1.461c-2.383,1.4-3.619,1.993-4.659,1.316C85.229,1.82,81.038,1.2,78.317,2.34A4.866,4.866,0,0,0,75.292,5.9c-.267,1.311-.125,3.638,3.374,10.063,1.283,2.356,2.592,4.477,3.278,5.563-8.6,5.833-14.537,17.969-14.537,30.815,0,17.905,2.8,24.375,25.744,24.375S118.9,70.243,118.9,52.338C118.9,38.823,112.329,26.1,103,20.667ZM82.239,14.111c-3.2-5.868-3.015-7.355-3.006-7.41.03-.147.086-.419.637-.65C81.188,5.5,84,5.821,86.087,7.179c3.243,2.113,6.511.185,8.9-1.222a21.175,21.175,0,0,1,2.278-1.228c2.943-1.261,8.177-.744,9.987.527-.146.752-.91,3.057-4.774,9-1.128,1.734-2.268,3.389-3.193,4.7a18.667,18.667,0,0,0-6.131-1.048,18.952,18.952,0,0,0-7.686,1.657C84.861,18.611,83.527,16.468,82.239,14.111ZM95.863,60.3v.759A2.265,2.265,0,0,1,93.6,63.323H93.1a2.265,2.265,0,0,1-2.265-2.265V60.3A9.616,9.616,0,0,1,85.6,56.428a2.264,2.264,0,0,1,.5-3.053l.411-.317a2.265,2.265,0,0,1,3.276.55,4.352,4.352,0,0,0,3.583,2.051c1.581,0,2.643-.91,2.643-2.265,0-1.4-1.151-2.072-3.777-3.278-2.732-1.254-6.473-2.972-6.473-7.524a6.667,6.667,0,0,1,5.081-6.327v-.845A2.265,2.265,0,0,1,93.1,33.154H93.6a2.265,2.265,0,0,1,2.265,2.265v.7c2.455.573,4.733,2.066,4.733,4.877v.9a2.265,2.265,0,0,1-2.265,2.265h-.494a2.265,2.265,0,0,1-2.265-2.265v-.506a2.942,2.942,0,0,0-1.945-.539c-1.925,0-2.787.861-2.787,1.714,0,1.157.9,1.761,3.6,2.989,2.8,1.274,6.646,3.018,6.646,7.783A7.235,7.235,0,0,1,95.863,60.3Z" transform="translate(0 0)" fill="#fafbff"/>
  </g>
</svg>
