<svg id="call-center-operator-svgrepo-com" xmlns="http://www.w3.org/2000/svg" width="48.606" height="53.617" viewBox="0 0 48.606 53.617">
  <path id="Path_7287" data-name="Path 7287" d="M50.187,46.486v7.131H1.581V46.485c0-3.368,2.9-7.513,6.45-9.2l7.892-3.749L21.4,44.954l2.8-7.605a8.985,8.985,0,0,0,1.678.244,9,9,0,0,0,1.678-.244l2.662,7.231L35.6,33.411l8.147,3.875C47.284,38.97,50.187,43.115,50.187,46.486ZM8.75,21.492v-5.15a2.467,2.467,0,0,1,1.141-2.079,16.1,16.1,0,0,1,32,0,2.469,2.469,0,0,1,1.139,2.079v5.15a2.477,2.477,0,1,1-4.954,0V20.41c-1.341,6.743-6.277,13-12.183,13s-10.843-6.26-12.183-13v1.082a2.471,2.471,0,0,1-1.743,2.353A14.453,14.453,0,0,0,18.156,32a2.526,2.526,0,0,1,1.944.206c1.1.57,1.656,1.68,1.241,2.472s-1.637.97-2.74.4a2.4,2.4,0,0,1-1.369-1.784,16.053,16.053,0,0,1-6.925-9.505A2.473,2.473,0,0,1,8.75,21.492Zm2.829-7.808a.722.722,0,0,1,.217.033.787.787,0,0,1,.4.345,2.468,2.468,0,0,1,1.228,1.162c.731-6.848,6.024-10.47,12.461-10.47s11.73,3.623,12.461,10.47A2.457,2.457,0,0,1,40.223,13.9a14.505,14.505,0,0,0-28.644-.214Z" transform="translate(-1.581)" fill="#fff"/>
</svg>
