<svg xmlns="http://www.w3.org/2000/svg" width="76.522" height="30.538" viewBox="0 0 76.522 30.538">
  <path id="Path_302" data-name="Path 302" d="M2725.449,1528.224l2.865-5.156,1.719-1.432s5.442,4.583,5.442,6.588,3.438-.286,5.156,0,4.87,5.156,4.87,5.156l5.729-2.578,1.719,2.578s3.438-2.578,5.729,0,1.433,4.3,5.729,0,1.529-5.371,2.292-7.161,5.341,1.276,6.584.388,1.651-13.708,4.015-18.148,3.151,2.578,5.729,0c1.222-1.222,3.879,4.114,7.168,4.592,1.275.185,4.237-3.384,5.776-2.006,1.556,1.387,4.769,5.276,4.769,5.276" transform="translate(-2724.794 -1506.198)" fill="none" stroke="#1fd3a4" stroke-width="1.5"/>
</svg>
