<svg xmlns="http://www.w3.org/2000/svg" width="74.505" height="28.838" viewBox="0 0 74.505 28.838">
  <path id="Path_302" data-name="Path 302" d="M2725.449,1528.224l2.865-5.156,1.719-1.432s5.442,4.583,5.442,6.588,3.438-.286,5.156,0,4.87,5.156,4.87,5.156l5.729-2.578,1.719,2.578a13.12,13.12,0,0,1,3.979-9.344c4.3-4.3,3.473-10.248,4.235-12.038s10.877,15.5,12.12,14.609,2.682,4.44,5.045,0,2.326,6.773,4.9,4.195c1.222-1.222,2.062,2.1,5.35,2.578,1.275.185,5.372-.022,6.911,1.356,1.556,1.387,3.121,4.9,3.121,4.9" transform="translate(-2724.794 -1511.107)" fill="none" stroke="#ff3f03" stroke-width="1.5"/>
</svg>
