<svg xmlns="http://www.w3.org/2000/svg" width="87.701" height="70.996" viewBox="0 0 87.701 70.996">
  <g id="referral-svgrepo-com" transform="translate(-3 -7)">
    <path id="Path_8048" data-name="Path 8048" d="M13.441,11.176A4.176,4.176,0,0,1,17.617,7h16.7A4.176,4.176,0,0,1,38.5,11.176v2.088H48.938V52.938H3V13.264H13.441ZM7.176,17.441h6.264v4.176H7.176Zm31.322,0v4.176h6.264V17.441ZM13.441,27.881V25.793H7.176V48.762H44.762V25.793H38.5v2.088a4.176,4.176,0,0,1-4.176,4.176h-16.7A4.176,4.176,0,0,1,13.441,27.881Zm10.441-16.7v6.264H17.617v4.176h6.264v6.264h4.176V21.617h6.264V17.441H28.057V11.176ZM80.26,40.41A10.441,10.441,0,1,1,69.82,29.969,10.438,10.438,0,0,1,80.26,40.41ZM48.938,66.163c0-7.406,13.912-11.137,20.881-11.137S90.7,58.757,90.7,66.163V78H23.881V62.156l-6.876,6.876-2.953-2.953L24.493,55.638l1.477-1.477,1.477,1.477L37.886,66.079l-2.953,2.953-6.876-6.876V73.82H48.938Z" fill="#fff" fill-rule="evenodd"/>
    <path id="Path_8049" data-name="Path 8049" d="M11,21H23.529V35.617H11Z" transform="translate(8.705 15.234)" fill="#ffd046"/>
  </g>
</svg>
