<svg xmlns="http://www.w3.org/2000/svg" width="23.934" height="14.412" viewBox="0 0 23.934 14.412">
  <g id="Group_3781" data-name="Group 3781" transform="translate(-12904 451.96)">
    <g id="Path_4131" data-name="Path 4131" transform="translate(12904 -451.96)" fill="none">
      <path d="M.92,0,19.579.028c.031.016,4.355-.015,4.355,0l-.016,13.465a.92.92,0,0,1-.92.92H.92a.92.92,0,0,1-.92-.92V.92A.92.92,0,0,1,.92,0Z" stroke="none"/>
      <path d="M 1.000001907348633 1.000121116638184 L 1.000001907348633 13.41247844696045 L 22.91867256164551 13.41247844696045 L 22.93308258056641 1.02470588684082 C 22.60572242736816 1.025521278381348 22.22766876220703 1.026849746704102 21.84609031677246 1.028188705444336 C 21.20914077758789 1.030428886413574 20.56240081787109 1.032698631286621 20.12335205078125 1.032698631286621 C 19.87224006652832 1.032698631286621 19.7020378112793 1.032698631286621 19.5772819519043 1.027831077575684 L 19.5772819519043 1.027978897094727 L 1.000001907348633 1.000121116638184 M 0.9199409484863281 -9.5367431640625e-07 L 19.57878112792969 0.02797889709472656 C 19.60366439819336 0.04060745239257812 22.34727668762207 0.02390575408935547 23.46678161621094 0.02390193939208984 C 23.75408363342285 0.02390193939208984 23.93424034118652 0.02500152587890625 23.93424034118652 0.02797889709472656 L 23.91858100891113 13.49252891540527 C 23.91858100891113 14.0005989074707 23.50670051574707 14.41247844696045 22.99863052368164 14.41247844696045 L 0.9199409484863281 14.41247844696045 C 0.4118709564208984 14.41247844696045 1.9073486328125e-06 14.0005989074707 1.9073486328125e-06 13.49252891540527 L 1.9073486328125e-06 0.9199485778808594 C 1.9073486328125e-06 0.4118690490722656 0.4118709564208984 -9.5367431640625e-07 0.9199409484863281 -9.5367431640625e-07 Z" stroke="none" fill="#6d80c4"/>
    </g>
    <path id="Path_4126" data-name="Path 4126" d="M12833.057-439.261h-3.817a1.459,1.459,0,0,1-1.038,1.26v4.484a2.6,2.6,0,0,1,1.038,1.371c.037.037,3.817,0,3.817,0" transform="translate(79.521 -9.31)" fill="none" stroke="#6d80c4" stroke-width="1"/>
    <path id="Path_4127" data-name="Path 4127" d="M12828.2-439.261h3.979a1.52,1.52,0,0,0,1.08,1.313v4.674a2.708,2.708,0,0,0-1.08,1.429c-.039.039-3.979,0-3.979,0" transform="translate(91.069 -9.31)" fill="none" stroke="#6d80c4" stroke-width="1"/>
    <g id="Ellipse_306" data-name="Ellipse 306" transform="translate(12910.518 -445.226)" fill="none" stroke="#6d80c4" stroke-width="1">
      <circle cx="0.454" cy="0.454" r="0.454" stroke="none"/>
      <circle cx="0.454" cy="0.454" r="0.046" fill="none"/>
    </g>
    <g id="Ellipse_307" data-name="Ellipse 307" transform="translate(12919.597 -445.226)" fill="none" stroke="#6d80c4" stroke-width="1">
      <circle cx="0.454" cy="0.454" r="0.454" stroke="none"/>
      <circle cx="0.454" cy="0.454" r="0.046" fill="none"/>
    </g>
    <g id="Icon_feather-dollar-sign" data-name="Icon feather-dollar-sign" transform="translate(12914.426 -447.361)">
      <path id="Path_4128" data-name="Path 4128" d="M18,1.5V6.712" transform="translate(-16.578 -1.5)" fill="none" stroke="#6d80c4" stroke-linecap="round" stroke-linejoin="round" stroke-width="0.7"/>
      <path id="Path_4129" data-name="Path 4129" d="M11.606,7.5H9.829a.829.829,0,0,0,0,1.658h1.185a.829.829,0,1,1,0,1.658H9" transform="translate(-9 -6.552)" fill="none" stroke="#6d80c4" stroke-linecap="round" stroke-linejoin="round" stroke-width="0.7"/>
    </g>
  </g>
</svg>
