<svg xmlns="http://www.w3.org/2000/svg" xmlns:xlink="http://www.w3.org/1999/xlink" width="37.546" height="40.729" viewBox="0 0 37.546 40.729">
  <defs>
    <filter id="Path_6896" x="0.083" y="0" width="37.421" height="40.729" filterUnits="userSpaceOnUse">
      <feOffset dy="1" input="SourceAlpha"/>
      <feGaussianBlur stdDeviation="1" result="blur"/>
      <feFlood flood-opacity="0.451"/>
      <feComposite operator="in" in2="blur"/>
      <feComposite in="SourceGraphic"/>
    </filter>
    <linearGradient id="linear-gradient" x1="1.026" y1="0.5" x2="0" y2="0.446" gradientUnits="objectBoundingBox">
      <stop offset="0" stop-color="#113e7b"/>
      <stop offset="1" stop-color="#0b2275"/>
    </linearGradient>
    <filter id="Path_6898" x="4.944" y="5.092" width="27.697" height="30.545" filterUnits="userSpaceOnUse">
      <feOffset dy="1" input="SourceAlpha"/>
      <feGaussianBlur stdDeviation="0.5" result="blur-2"/>
      <feFlood flood-opacity="0.31"/>
      <feComposite operator="in" in2="blur-2"/>
      <feComposite in="SourceGraphic"/>
    </filter>
    <linearGradient id="linear-gradient-2" y1="0.5" x2="1.001" y2="0.5" gradientUnits="objectBoundingBox">
      <stop offset="0" stop-color="#113e7b"/>
      <stop offset="0" stop-color="#021761"/>
      <stop offset="0.36" stop-color="#2c4a84"/>
      <stop offset="1" stop-color="#304cb2"/>
    </linearGradient>
    <filter id="Path_6901" x="25.066" y="29.606" width="12.481" height="10.887" filterUnits="userSpaceOnUse">
      <feOffset dy="1" input="SourceAlpha"/>
      <feGaussianBlur stdDeviation="0.5" result="blur-3"/>
      <feFlood flood-opacity="0.412"/>
      <feComposite operator="in" in2="blur-3"/>
      <feComposite in="SourceGraphic"/>
    </filter>
    <filter id="Path_6904" x="0" y="29.606" width="12.48" height="10.887" filterUnits="userSpaceOnUse">
      <feOffset dy="1" input="SourceAlpha"/>
      <feGaussianBlur stdDeviation="0.5" result="blur-4"/>
      <feFlood flood-opacity="0.412"/>
      <feComposite operator="in" in2="blur-4"/>
      <feComposite in="SourceGraphic"/>
    </filter>
  </defs>
  <g id="basic-1" transform="translate(1.5 2)">
    <g transform="matrix(1, 0, 0, 1, -1.5, -2)" filter="url(#Path_6896)">
      <path id="Path_6896-2" data-name="Path 6896" d="M20.915.345q3.258,1.6,6.406,3.417T33.49,7.6a3.19,3.19,0,0,1,1.445,2.5c.155,2.271.246,4.715.246,7.269s-.082,4.989-.246,7.27a3.191,3.191,0,0,1-1.445,2.5q-3.017,2.023-6.169,3.834t-6.407,3.417a3.189,3.189,0,0,1-2.888,0q-3.259-1.6-6.407-3.417t-6.17-3.834A3.19,3.19,0,0,1,4,24.634q-.246-3.63-.246-7.27c0-2.553.082-4.988.246-7.269A3.19,3.19,0,0,1,5.449,7.6c1.89-1.272,3.962-2.563,6.17-3.835Q14.763,1.946,18.025.345a3.189,3.189,0,0,1,2.888,0Z" transform="translate(-0.68 2)" fill="#6d80c4" fill-rule="evenodd"/>
    </g>
    <path id="Path_6897" data-name="Path 6897" d="M20.631.87a2.426,2.426,0,0,0-2.208,0q-3.3,1.613-6.488,3.453T5.692,8.195A2.408,2.408,0,0,0,4.584,10.1q-.246,3.657-.246,7.324c0,2.444.073,4.889.246,7.324a2.408,2.408,0,0,0,1.109,1.908q3.053,2.044,6.243,3.871t6.488,3.453a2.426,2.426,0,0,0,2.208,0q3.3-1.613,6.488-3.453t6.242-3.871a2.409,2.409,0,0,0,1.109-1.908q.246-3.652.246-7.324c0-2.444-.073-4.888-.246-7.323A2.407,2.407,0,0,0,33.36,8.195q-3.052-2.044-6.242-3.871T20.631.87Z" transform="translate(-2.234 -0.06)" fill="#6d80c4" fill-rule="evenodd"/>
    <g transform="matrix(1, 0, 0, 1, -1.5, -2)" filter="url(#Path_6898)">
      <path id="Path_6898-2" data-name="Path 6898" d="M19.107,31.358q-2.76-1.4-5.452-2.926T8.412,25.2a1.6,1.6,0,0,1-.735-1.272,104.281,104.281,0,0,1,0-12.321,1.6,1.6,0,0,1,.735-1.272q2.571-1.7,5.243-3.235t5.452-2.925a1.6,1.6,0,0,1,1.472,0Q23.305,5.552,26.031,7.1q2.682,1.517,5.243,3.234A1.6,1.6,0,0,1,32.01,11.6a104.3,104.3,0,0,1,0,12.321,1.6,1.6,0,0,1-.737,1.272q-2.57,1.7-5.242,3.235t-5.453,2.926a1.6,1.6,0,0,1-1.471,0Z" transform="translate(-1.05 1.6)" fill-rule="evenodd" fill="url(#linear-gradient)"/>
    </g>
    <path id="Path_6899" data-name="Path 6899" d="M19.483,5.038q-2.7,1.328-5.288,2.852T9.078,11.044a1,1,0,0,0-.472.809q-.182,3-.173,6.006t.173,6.006a1,1,0,0,0,.472.808q2.509,1.654,5.116,3.153t5.288,2.853a1,1,0,0,0,.909,0q2.7-1.328,5.288-2.852t5.115-3.154a1,1,0,0,0,.472-.808q.182-3,.173-6.006t-.173-6.006a1,1,0,0,0-.472-.809Q28.286,9.39,25.68,7.891T20.391,5.039a1,1,0,0,0-.909,0Z" transform="translate(-2.644 -0.494)" fill-rule="evenodd" fill="url(#linear-gradient-2)"/>
    <path id="Path_6900" data-name="Path 6900" d="M24.744,17.23V19.3a8.273,8.273,0,0,1-.287,2.322,4.225,4.225,0,0,1-.828,1.591,3.27,3.27,0,0,1-1.271.911,4.381,4.381,0,0,1-1.64.3,4.818,4.818,0,0,1-1.345-.18,3.387,3.387,0,0,1-1.123-.583,3.7,3.7,0,0,1-.853-.992,5.077,5.077,0,0,1-.542-1.443,8.758,8.758,0,0,1-.189-1.919V17.23a8.085,8.085,0,0,1,.288-2.3,4.285,4.285,0,0,1,.828-1.584,3.26,3.26,0,0,1,1.28-.9,4.379,4.379,0,0,1,1.64-.3,4.535,4.535,0,0,1,1.337.189,3.278,3.278,0,0,1,1.976,1.558,4.951,4.951,0,0,1,.542,1.435,8.6,8.6,0,0,1,.189,1.9Zm-2.37,2.379v-2.7a7.549,7.549,0,0,0-.074-1.131,3.32,3.32,0,0,0-.205-.82,1.732,1.732,0,0,0-.344-.558,1.255,1.255,0,0,0-.468-.312,1.647,1.647,0,0,0-.582-.1,1.575,1.575,0,0,0-.714.156,1.33,1.33,0,0,0-.516.5,2.7,2.7,0,0,0-.328.9,7.389,7.389,0,0,0-.106,1.361v2.7a8.647,8.647,0,0,0,.066,1.139,3.875,3.875,0,0,0,.212.846,2.106,2.106,0,0,0,.345.565,1.255,1.255,0,0,0,.468.312,1.714,1.714,0,0,0,.59.1,1.51,1.51,0,0,0,.7-.156,1.38,1.38,0,0,0,.525-.508,2.658,2.658,0,0,0,.328-.919A7.591,7.591,0,0,0,22.374,19.609Z" transform="translate(-3.469 -1.217)" fill="#ffd046"/>
    <g transform="matrix(1, 0, 0, 1, -1.5, -2)" filter="url(#Path_6901)">
      <path id="Path_6901-2" data-name="Path 6901" d="M39.328,33.37c-.681-.082-5.061-.718-5.061-1.754a.527.527,0,0,1,.2-.382,12.984,12.984,0,0,0-4.4,4.306,1.026,1.026,0,0,0-.173.909,1.129,1.129,0,0,0,.545.618,20.3,20.3,0,0,0,5.615,2.053,10.342,10.342,0,0,0,.237-3.335,6.243,6.243,0,0,0,3.044-2.381l-.009-.036Z" transform="translate(-3.29 -1.13)" fill="#6d80c4" fill-rule="evenodd"/>
    </g>
    <path id="Path_6902" data-name="Path 6902" d="M30.743,35.585c.265,1.036,4.054,2.053,5.571,2.417a2.03,2.03,0,0,1-.081.563c-1.363-.318-5.561-1.444-5.879-2.544a.982.982,0,0,1,.173-.828l.4-.39a.908.908,0,0,0-.182.781Zm7.806-1.172c-1.19-.191-4.961-.909-5.025-1.881a.61.61,0,0,1,.2-.472l.4-.391a.564.564,0,0,0-.2.427c0,1.018,4.153,1.7,5.079,1.818a6.16,6.16,0,0,1-.454.49Z" transform="translate(-4.838 -3.173)" fill="#fff" fill-rule="evenodd"/>
    <path id="Path_6903" data-name="Path 6903" d="M32.368,35.549c-.572.391-2.645-.309-2.472.745a1.028,1.028,0,0,1,.173-.909,18.682,18.682,0,0,1,5.215-5.251.525.525,0,0,0-.2.382c0,.3.355.563.909.772A18.925,18.925,0,0,1,32.358,35.5l.009.045Z" transform="translate(-4.791 -3.019)" fill="#ded7dd" fill-rule="evenodd"/>
    <g transform="matrix(1, 0, 0, 1, -1.5, -2)" filter="url(#Path_6904)">
      <path id="Path_6904-2" data-name="Path 6904" d="M2.009,33.37c.681-.082,5.061-.718,5.061-1.754a.527.527,0,0,0-.2-.382,12.984,12.984,0,0,1,4.4,4.306,1.028,1.028,0,0,1,.173.909,1.127,1.127,0,0,1-.545.618,20.3,20.3,0,0,1-5.615,2.054,10.359,10.359,0,0,1-.237-3.335A6.243,6.243,0,0,1,2,33.406l.009-.036Z" transform="translate(-0.5 -1.13)" fill="#6d80c4" fill-rule="evenodd"/>
    </g>
    <path id="Path_6905" data-name="Path 6905" d="M10.746,35.585c-.264,1.036-4.053,2.053-5.57,2.417a2.03,2.03,0,0,0,.081.563c1.364-.318,5.561-1.444,5.879-2.544a.981.981,0,0,0-.172-.828l-.4-.39a.909.909,0,0,1,.182.781ZM2.969,34.413c1.19-.191,4.962-.909,5.025-1.881a.609.609,0,0,0-.2-.472l-.4-.391a.564.564,0,0,1,.2.427c0,1.018-4.153,1.7-5.079,1.818a6.159,6.159,0,0,0,.454.49Z" transform="translate(-2.052 -3.173)" fill="#fff" fill-rule="evenodd"/>
    <path id="Path_6906" data-name="Path 6906" d="M9.392,35.549c.572.391,2.645-.309,2.472.745a1.028,1.028,0,0,0-.173-.909,18.681,18.681,0,0,0-5.215-5.251.526.526,0,0,1,.2.382c0,.3-.355.563-.909.772A18.925,18.925,0,0,0,9.4,35.5l-.009.045Z" transform="translate(-2.377 -3.019)" fill="#ded7dd" fill-rule="evenodd"/>
    <path id="Path_6907" data-name="Path 6907" d="M30.325,27.076c-.373.6-1.818,3.025-2.244,3.579s-.463.754-1.381.819-2.861.126-3.634.135c-.355,0-.663-.135-.636-.544s.373-.409.645-.418c.7,0,2.335-.09,3.117-.145a2.737,2.737,0,0,0,.8-.119,2.271,2.271,0,0,0,.7-.654c.4-.454,1.818-2.617,2.144-3.016s.745,0,.509.364h-.018Z" transform="translate(-4.047 -2.659)" fill="#fff" fill-rule="evenodd"/>
    <path id="Path_6908" data-name="Path 6908" d="M21.187,25.216a40.454,40.454,0,0,1,7.8.7c1.281.264,6.279,1.554,6.787,2.816a1.009,1.009,0,0,1,0,.81,15.264,15.264,0,0,1-4.288,5.524c.645-.527.136-1.326-.454-1.717a10.976,10.976,0,0,0-3.862-1.29,33.786,33.786,0,0,0-5.979-.5q-.079-1.666-.081-3.335,0-1.59.081-3Z" transform="translate(-3.914 -2.526)" fill="#6d80c4" fill-rule="evenodd"/>
    <path id="Path_6909" data-name="Path 6909" d="M19.565,25.216a40.454,40.454,0,0,0-7.8.7c-1.28.264-6.278,1.554-6.787,2.816a1.009,1.009,0,0,0,0,.81,15.264,15.264,0,0,0,4.288,5.524c-.645-.527-.136-1.326.454-1.717a10.976,10.976,0,0,1,3.862-1.29,33.786,33.786,0,0,1,5.979-.5q.081-1.744.081-3.335t-.081-3Z" transform="translate(-2.29 -2.526)" fill="#6d80c4" fill-rule="evenodd"/>
    <path id="Path_6910" data-name="Path 6910" d="M8.946,32.4a1.435,1.435,0,0,0-.718,1.754l.282.273A1.608,1.608,0,0,1,9.337,32.9a12.087,12.087,0,0,1,4.088-1.381,34.289,34.289,0,0,1,6.17-.526v-.609a34.522,34.522,0,0,0-6.36.554,13.209,13.209,0,0,0-4.316,1.454l.027.009ZM5.4,30.346a1.653,1.653,0,0,1,.909-1.29,21.809,21.809,0,0,1,5.833-1.972,37.616,37.616,0,0,1,7.468-.717v-.545a38.062,38.062,0,0,0-7.632.736A23.189,23.189,0,0,0,5.939,28.6a1.817,1.817,0,0,0-.909,1.054l.09.182.283.509Z" transform="translate(-2.304 -2.587)" fill="#fff" fill-rule="evenodd"/>
    <path id="Path_6911" data-name="Path 6911" d="M19.8,25.731a37.628,37.628,0,0,0-6.887.618,25.22,25.22,0,0,0-5.67,1.709A26.15,26.15,0,0,1,12.92,26.4a38.693,38.693,0,0,1,6.878-.6v-.072ZM10.339,31.8a19.082,19.082,0,0,1,4.1-1.036,35.86,35.86,0,0,1,5.351-.382,28.736,28.736,0,0,0-5.37.336,18.077,18.077,0,0,0-4.08,1.082Z" transform="translate(-2.525 -2.578)" fill="#fff" fill-rule="evenodd"/>
    <path id="Path_6912" data-name="Path 6912" d="M9.816,33.6A22.71,22.71,0,0,1,7.645,30.87a15.945,15.945,0,0,1-1.49-2.726,3.813,3.813,0,0,0-.846.582l-.117.136a.909.909,0,0,0,0,.155,14.782,14.782,0,0,0,1.562,2.662,13.789,13.789,0,0,0,2.353,2.663,1.982,1.982,0,0,1,.609-.646l.1-.1Z" transform="translate(-2.319 -2.82)" fill="#fff" fill-rule="evenodd"/>
    <path id="Path_6913" data-name="Path 6913" d="M31.885,32.4a1.435,1.435,0,0,1,.717,1.754l-.282.273a1.608,1.608,0,0,0-.827-1.527A12.092,12.092,0,0,0,27.4,31.519a34.288,34.288,0,0,0-6.17-.526v-.609a34.6,34.6,0,0,1,6.362.554,13.216,13.216,0,0,1,4.315,1.454l-.027.009Zm3.543-2.053a1.653,1.653,0,0,0-.91-1.29,21.81,21.81,0,0,0-5.833-1.972,37.617,37.617,0,0,0-7.468-.717v-.545a38,38,0,0,1,7.632.736A23.19,23.19,0,0,1,34.891,28.6a1.818,1.818,0,0,1,.909,1.054l-.091.182-.282.509Z" transform="translate(-3.925 -2.587)" fill="#fff" fill-rule="evenodd"/>
    <path id="Path_6914" data-name="Path 6914" d="M21.2,25.731a37.689,37.689,0,0,1,6.887.618,25.22,25.22,0,0,1,5.671,1.709,26.15,26.15,0,0,0-5.68-1.654,38.692,38.692,0,0,0-6.878-.6v-.072Zm9.459,6.07a19.083,19.083,0,0,0-4.1-1.036,35.951,35.951,0,0,0-5.352-.382,28.737,28.737,0,0,1,5.37.336A18.079,18.079,0,0,1,30.656,31.8Z" transform="translate(-3.923 -2.578)" fill="#fff" fill-rule="evenodd"/>
    <path id="Path_6915" data-name="Path 6915" d="M32.123,33.6a22.792,22.792,0,0,0,2.171-2.726,15.94,15.94,0,0,0,1.49-2.726,3.834,3.834,0,0,1,.846.582l.117.136a.889.889,0,0,1,0,.155,14.778,14.778,0,0,1-1.562,2.662,13.728,13.728,0,0,1-2.354,2.663,1.971,1.971,0,0,0-.608-.646l-.1-.1Z" transform="translate(-5.018 -2.82)" fill="#fff" fill-rule="evenodd"/>
  </g>
</svg>
