<svg xmlns="http://www.w3.org/2000/svg" width="638.744" height="435.945" viewBox="0 0 638.744 435.945">
  <g id="Group_4315" data-name="Group 4315" transform="translate(-67.328 -69.334)">
    <g id="Group_4218" data-name="Group 4218" transform="translate(609.702 227.763)">
      <path id="Path_7422" data-name="Path 7422" d="M2398.072,758.489l-7.9-23.27s-14.171-1.128-23.276,14c-5.644,9.375-20,12.339-20,12.339l7.943,23.393s18.4-1.786,24.669-12.612A30.305,30.305,0,0,1,2398.072,758.489Z" transform="translate(-2346.891 -735.2)" fill="#d4deff"/>
      <path id="Path_7423" data-name="Path 7423" d="M2414.76,812.5c3.267,3.823,9.53,3.833,13.991.022s5.428-10,2.162-13.823-9.531-3.833-13.991-.022S2411.494,808.681,2414.76,812.5Z" transform="translate(-2397.138 -781.404)" fill="#e3eaff"/>
    </g>
    <path id="Path_7424" data-name="Path 7424" d="M652.785,607.781c27.6-44.031,56.045-79.254,53.073-141.671-2.547-53.489-62.929-68.936-78.961-91.7-19.621-27.855,3.4-80.659-31.414-128.2-38.122-52.069-99.2-50.923-149.431-24.622-36.684,19.206-74.347,25.82-111.224,14.434C272.5,216.778,187.1,211.4,178.605,287.813c-5.9,53.136-34.811,69.621-80.659,105.281-61.845,48.1-14.782,143.2,9.059,210.4Z" transform="translate(0 -102.501)" fill="#121176" opacity="0.455"/>
    <rect id="Rectangle_494" data-name="Rectangle 494" width="582.668" height="6.284" rx="3.142" transform="translate(72.985 498.995)" fill="#95a6db"/>
    <g id="Group_4222" data-name="Group 4222" transform="translate(282.809 293.001)">
      <path id="Path_7427" data-name="Path 7427" d="M1097.522,1098.861l-23.672,16.781-74.44,52.77-7.707,5.464,5.867,8.348,32.551,46.319,56.921-40.433,28.979-20.585.341-.24,2.936-37.439Z" transform="translate(-987.247 -1077.573)" fill="#f2c789"/>
      <path id="Path_7428" data-name="Path 7428" d="M1182.3,1209.066l-14.738-20.971a11.248,11.248,0,0,1-15.669-2.734l-69.007,49.142a11.25,11.25,0,0,1-2.736,15.672l14.739,20.97a11.25,11.25,0,0,1,15.669,2.734l69.007-49.142A11.248,11.248,0,0,1,1182.3,1209.066Z" transform="translate(-1054.648 -1143.492)" fill="#ffd046"/>
      <path id="Path_7429" data-name="Path 7429" d="M1263.33,1294.786a18.672,18.672,0,1,0-4.54,26.013A18.672,18.672,0,0,0,1263.33,1294.786Z" transform="translate(-1168.374 -1220.833)" fill="#f2c789"/>
      <path id="Path_7430" data-name="Path 7430" d="M1460.474,1229.088,1439.4,1249.24l17.8,17.527.3.3.042-.535Z" transform="translate(-1328.425 -1176.815)" fill="#f2c789"/>
      <g id="Group_4221" data-name="Group 4221" transform="translate(110.975 50.218)">
        <path id="Path_7431" data-name="Path 7431" d="M1449.763,1336.539l-10.363-22.752,17.8,17.527Z" transform="translate(-1439.4 -1291.58)" fill="#193f1e" opacity="0.2" style="mix-blend-mode: color-burn;isolation: isolate"/>
        <path id="Path_7432" data-name="Path 7432" d="M1460.474,1222.505l-21.074,20.152,19.63-22.207Z" transform="translate(-1439.4 -1220.45)" fill="#193f1e" opacity="0.2" style="mix-blend-mode: color-burn;isolation: isolate"/>
      </g>
      <path id="Path_7433" data-name="Path 7433" d="M1092.641,1169.391l-74.44,52.77-1.841,13.812,32.551,46.319,56.921-40.433-2.907-11.013c-1.1-4.161-8.474-6-17.817-4.945Z" transform="translate(-1006.038 -1131.322)" fill="#193f1e" opacity="0.2" style="mix-blend-mode: color-burn;isolation: isolate"/>
      <rect id="Rectangle_495" data-name="Rectangle 495" width="156.022" height="66.815" transform="translate(0 154.654) rotate(-82.408)" fill="#f2c789"/>
      <path id="Path_7434" data-name="Path 7434" d="M1077.107,1071.076l-25.407-3.387a11.249,11.249,0,0,1-12.634,9.664l-14.672,110.053a11.249,11.249,0,0,1,9.664,12.637l25.407,3.385a11.249,11.249,0,0,1,12.634-9.663l14.672-110.053A11.248,11.248,0,0,1,1077.107,1071.076Z" transform="translate(-1012.161 -1053.818)" fill="#ffd046"/>
      <circle id="Ellipse_552" data-name="Ellipse 552" cx="18.672" cy="18.672" r="18.672" transform="translate(22.625 96.997) rotate(-78.527)" fill="#f2c789"/>
      <path id="Path_7435" data-name="Path 7435" d="M1051.493,1423.827l-63.637,16.8,17.05,64.6,63.637-16.8-12-45.464c12.713-3.405,21.869-10.384,20.482-15.641s-12.8-6.81-25.533-3.5Z" transform="translate(-984.316 -1323.895)" fill="#ffd046"/>
      <rect id="Rectangle_496" data-name="Rectangle 496" width="47.011" height="73.981" transform="translate(33.084 167.792) rotate(-104.785)" fill="#ffd046"/>
      <circle id="Ellipse_553" data-name="Ellipse 553" cx="16.678" cy="16.678" r="16.678" transform="matrix(0.839, -0.544, 0.544, 0.839, 35.667, 131.785)" fill="#f2c789"/>
      <path id="Path_7436" data-name="Path 7436" d="M1234.438,1423.827l-6.519,1.72,17.051,64.6,29.526-7.793-14.525-55.032c-1.387-5.257-12.8-6.81-25.533-3.5Z" transform="translate(-1167.262 -1323.895)" fill="#193f1e" opacity="0.2" style="mix-blend-mode: color-burn;isolation: isolate"/>
      <path id="Path_7437" data-name="Path 7437" d="M1297.029,1444.1c1.387,5.257-7.768,12.237-20.482,15.641l17.051,64.605,0,0c12.712-3.4,21.867-10.384,20.479-15.641Z" transform="translate(-1204.319 -1340.67)" fill="#f2c789"/>
      <path id="Path_7438" data-name="Path 7438" d="M1348.839,1493.1c.614,2.325-.954,4.925-3.83,6.945a6.613,6.613,0,0,1-4.5,8.058l-.016,0,8.621,32.663.016,0a6.549,6.549,0,0,1,7.589,3.95c2.918-2.026,4.515-4.649,3.9-6.993Z" transform="translate(-1253.052 -1378.011)" fill="#ffd046"/>
    </g>
    <g id="Group_4223" data-name="Group 4223" transform="translate(174.264 216.246)">
      <path id="Path_7439" data-name="Path 7439" d="M658.465,969.373l-93.621.059a26.737,26.737,0,0,1-26.754-26.72l-.145-229.1a26.737,26.737,0,0,1,26.72-26.754l93.621-.059a26.737,26.737,0,0,1,26.754,26.72l.145,229.1A26.737,26.737,0,0,1,658.465,969.373Z" transform="translate(-532.907 -686.795)" fill="#2c2858"/>
      <path id="Path_7440" data-name="Path 7440" d="M681.746,984.885l-95.557.06a18.8,18.8,0,0,1-18.813-18.79l-.148-234.122a18.8,18.8,0,0,1,18.79-18.814l95.557-.06a18.8,18.8,0,0,1,18.814,18.79l.148,234.122A18.8,18.8,0,0,1,681.746,984.885Z" transform="translate(-555.223 -706.887)" fill="#95a6db"/>
      <path id="Path_7441" data-name="Path 7441" d="M520.944,905.879h0a4.172,4.172,0,0,1-4.172-4.172v-21.63a4.172,4.172,0,0,1,4.172-4.172h0a4.172,4.172,0,0,1,4.172,4.172v21.63A4.172,4.172,0,0,1,520.944,905.879Z" transform="translate(-516.772 -830.911)" fill="#2c2858"/>
      <path id="Path_7442" data-name="Path 7442" d="M1146.186,905.879h0a4.172,4.172,0,0,1-4.172-4.172v-21.63a4.172,4.172,0,0,1,4.172-4.172h0a4.171,4.171,0,0,1,4.172,4.172v21.63A4.172,4.172,0,0,1,1146.186,905.879Z" transform="translate(-993.251 -830.911)" fill="#2c2858"/>
    </g>
    <g id="Group_4224" data-name="Group 4224" transform="translate(427.625 216.246)">
      <path id="Path_7443" data-name="Path 7443" d="M1723.324,969.373l-93.622.059a26.737,26.737,0,0,1-26.754-26.72l-.145-229.1a26.737,26.737,0,0,1,26.72-26.754l93.622-.059a26.737,26.737,0,0,1,26.754,26.72l.145,229.1A26.737,26.737,0,0,1,1723.324,969.373Z" transform="translate(-1597.765 -686.795)" fill="#2c2858"/>
      <path id="Path_7444" data-name="Path 7444" d="M1746.6,984.885l-95.556.06a18.8,18.8,0,0,1-18.813-18.79l-.148-234.122a18.8,18.8,0,0,1,18.79-18.814l95.557-.06a18.8,18.8,0,0,1,18.814,18.79l.148,234.122A18.8,18.8,0,0,1,1746.6,984.885Z" transform="translate(-1620.081 -706.887)" fill="#95a6db"/>
      <path id="Path_7445" data-name="Path 7445" d="M1585.8,905.879h0a4.172,4.172,0,0,1-4.172-4.172v-21.63a4.172,4.172,0,0,1,4.172-4.172h0a4.172,4.172,0,0,1,4.172,4.172v21.63A4.172,4.172,0,0,1,1585.8,905.879Z" transform="translate(-1581.63 -830.911)" fill="#2c2858"/>
      <path id="Path_7446" data-name="Path 7446" d="M2211.044,905.879h0a4.172,4.172,0,0,1-4.172-4.172v-21.63a4.172,4.172,0,0,1,4.172-4.172h0a4.171,4.171,0,0,1,4.172,4.172v21.63A4.172,4.172,0,0,1,2211.044,905.879Z" transform="translate(-2058.109 -830.911)" fill="#2c2858"/>
      <path id="Path_7447" data-name="Path 7447" d="M1585.8,1040.352h0a4.172,4.172,0,0,1-4.172-4.172v-21.63a4.172,4.172,0,0,1,4.172-4.171h0a4.172,4.172,0,0,1,4.172,4.171v21.63A4.172,4.172,0,0,1,1585.8,1040.352Z" transform="translate(-1581.63 -933.389)" fill="#2c2858"/>
    </g>
    <g id="Group_4233" data-name="Group 4233" transform="translate(111.503 291.054)">
      <g id="Group_4225" data-name="Group 4225" transform="translate(11.551 100.516)">
        <path id="Path_7448" data-name="Path 7448" d="M313.9,1811.623c-3.146,13.209-14.389,5.944-12.038,14.292a1.494,1.494,0,0,0,1.4,1.051l6.6.253a2.974,2.974,0,0,0,1.791-.518c3.483-2.385,5.846-5.744,13.369-6.152-.057-3.211.089-7.8-.972-9.437Z" transform="translate(-301.539 -1718.93)" fill="#2c2858"/>
        <path id="Path_7449" data-name="Path 7449" d="M354.3,1423.672s-19.2,29.286-21.852,38.4,2.894,24.545,1.891,55.653c6,1.558,14,.219,14,.219s4.816-39.019-.849-48.233c8.488-12.951,29.807-41.227,29.807-41.227Z" transform="translate(-324.538 -1423.672)" fill="#4595b0"/>
      </g>
      <g id="Group_4226" data-name="Group 4226" transform="translate(35.351 94.596)">
        <path id="Path_7450" data-name="Path 7450" d="M418.175,1831.154c-4.886,6.65-17.081,2.717-16.592,11.644,18.484-.294,26.168-.255,26.168-.255a63.362,63.362,0,0,0-.9-8.817Z" transform="translate(-401.569 -1728.282)" fill="#2c2858"/>
        <path id="Path_7451" data-name="Path 7451" d="M431.53,1398.789s-6.123,47.779-4.71,57.161,5.793,16.725,5.946,47.848c6.055,1.334,15.309,2.532,15.309,2.532s3.9-37.539-4.124-47.875c2.274-15.317,13.114-53.844,13.114-53.844Z" transform="translate(-420.651 -1398.789)" fill="#4595b0"/>
      </g>
      <g id="Group_4232" data-name="Group 4232" transform="translate(0)">
        <path id="Path_7452" data-name="Path 7452" d="M267.852,1282.532l-7.465-8.37a.875.875,0,0,0-.636-.29l-6.146-.036c-.175,0-.717.969-.6,1.1l5.265,4.679a.2.2,0,0,0,.09.057l9.03,3.35C267.585,1283.079,267.988,1282.682,267.852,1282.532Z" transform="translate(-252.99 -1208.969)" fill="#c4204a"/>
        <path id="Path_7453" data-name="Path 7453" d="M267.3,1286.177l-7.111-7.891a.876.876,0,0,0-.636-.29l-6.336-.114a.2.2,0,0,0-.152.334l5.007,5.521a.2.2,0,0,0,.09.057l8.931,2.708A.2.2,0,0,0,267.3,1286.177Z" transform="translate(-253.006 -1212.053)" fill="#e62552"/>
        <path id="Path_7454" data-name="Path 7454" d="M295.99,1305.006l-5.143-2.521s-5.073-5.134-5.826-6.281c-1.129-.571-3.264-2.009-3.744-2.064a7.908,7.908,0,0,0-1.463.093l2.381,2.709a3.806,3.806,0,0,1-2.574-.692c-1.443-.916-3.992-3.374-5.24-2.9l-.443.391s-.788-.841-1.531-.529.734,4.019,4.928,7.947a12.441,12.441,0,0,0,1.66,2.887l8.48,2.978Z" transform="translate(-267.647 -1223.685)" fill="#f37a50"/>
        <path id="Path_7455" data-name="Path 7455" d="M277.446,1281.022a.616.616,0,1,0-.124-.967A.7.7,0,0,0,277.446,1281.022Z" transform="translate(-271.423 -1213.6)" fill="#c4204a"/>
        <path id="Path_7456" data-name="Path 7456" d="M472.34,1134.731c-1.526,1.978,10.427,4.129,12.029.018s-1.149-15.416-1.149-15.416l-10.9,2.313S474.326,1132.157,472.34,1134.731Z" transform="translate(-420.048 -1091.229)" fill="#f37a50"/>
        <g id="Group_4231" data-name="Group 4231" transform="translate(31.263)">
          <ellipse id="Ellipse_554" data-name="Ellipse 554" cx="12.502" cy="15.918" rx="12.502" ry="15.918" transform="translate(7.763 5.655) rotate(-5.99)" fill="#f37a50"/>
          <path id="Path_7457" data-name="Path 7457" d="M432.951,1096.756a1.3,1.3,0,1,1-.785-1.665A1.3,1.3,0,0,1,432.951,1096.756Z" transform="translate(-419.47 -1072.696)"/>
          <path id="Path_7458" data-name="Path 7458" d="M468.153,1088.462a1.409,1.409,0,1,1-.85-1.8A1.408,1.408,0,0,1,468.153,1088.462Z" transform="translate(-446.138 -1066.265)"/>
          <path id="Path_7459" data-name="Path 7459" d="M449.377,1101.194c-.276,2.049-.659,4.571-.659,4.571a3.151,3.151,0,0,0,3.58.438c-1.117.037-2.333-.176-2.517-1.6S449.377,1101.194,449.377,1101.194Z" transform="translate(-433.411 -1077.405)" fill="#de623c"/>
          <g id="Group_4227" data-name="Group 4227" transform="translate(9.719 19.943)">
            <path id="Path_7460" data-name="Path 7460" d="M428.614,1086.174a.5.5,0,0,1-.494.012,1.45,1.45,0,0,0-1.066-.091,1.632,1.632,0,0,0-.852,1.045.5.5,0,1,1-.936-.348,2.557,2.557,0,0,1,1.445-1.636,2.462,2.462,0,0,1,1.885.151.5.5,0,0,1,.018.866Z" transform="translate(-425.235 -1085.028)" fill="#020205"/>
          </g>
          <g id="Group_4228" data-name="Group 4228" transform="translate(19.195 18.078)">
            <path id="Path_7461" data-name="Path 7461" d="M465.456,1078.78a.5.5,0,0,0,.47-.152,1.454,1.454,0,0,1,.977-.437,1.633,1.633,0,0,1,1.149.707.5.5,0,0,0,.769-.636,2.559,2.559,0,0,0-1.9-1.069,2.463,2.463,0,0,0-1.73.763.5.5,0,0,0,.268.824Z" transform="translate(-465.059 -1077.192)" fill="#020205"/>
          </g>
          <path id="Path_7462" data-name="Path 7462" d="M416.124,1025.64c-4.524-3.787-3.275-9.574-3.275-9.574-2.194.144-2.809,1.082-2.809,1.082a4.789,4.789,0,0,1-1.335-3.934c-4.755-.518-6.146,2.845-9.776,4.83-4.97,2.718-12.107,2.366-14.47-3.958a1.148,1.148,0,0,1,1.453-1.489,5.061,5.061,0,0,0,3.124.067,5.4,5.4,0,0,1-1.977-2.679,1.147,1.147,0,0,1,1.6-1.355c1.353.622,3.638.939,7.109-.731,2.31-1.111,6.83-6.508,10.5-6.682,3-.142,5.9,1.666,7.8,4.86a9.23,9.23,0,0,1,9.932,6.329c2.718,7.353-7.469,18.713-7.469,18.713S417.32,1026.8,416.124,1025.64Z" transform="translate(-384.384 -1001.209)" fill="#020205"/>
          <path id="Path_7463" data-name="Path 7463" d="M453.249,1125.834a.383.383,0,0,1,.115-.694,27.12,27.12,0,0,0,6.749-2.53.383.383,0,0,1,.543.448,4.776,4.776,0,0,1-7.406,2.776Z" transform="translate(-436.729 -1093.692)" fill="#fff"/>
          <g id="Group_4230" data-name="Group 4230" transform="translate(27.245 18.045)">
            <path id="Path_7464" data-name="Path 7464" d="M500.166,1078.285c-1.472,1.452-1.7,3.606-.513,4.81s3.344,1,4.816-.449,1.7-3.6.513-4.81S501.638,1076.833,500.166,1078.285Z" transform="translate(-498.893 -1077.05)" fill="#f37a50"/>
            <g id="Group_4229" data-name="Group 4229" transform="translate(1.839 1.711)">
              <path id="Path_7465" data-name="Path 7465" d="M507.487,1087.955a.448.448,0,0,1-.174-.113,2.045,2.045,0,0,1-.45-2.47,2.179,2.179,0,0,1,2.274-1.093.452.452,0,0,1-.181.886,1.289,1.289,0,0,0-1.3.645,1.157,1.157,0,0,0,.313,1.408.452.452,0,0,1-.48.737Z" transform="translate(-506.623 -1084.241)" fill="#de623c"/>
            </g>
          </g>
        </g>
        <path id="Path_7466" data-name="Path 7466" d="M416.938,1227.811c8.525,1.74,23.852,4.743,31.958,1.582,3.068-4.4,3.845-29.309,3.845-29.309.887-25.634-2.187-29.438-9.12-38.027-2.909,1.337-10.191,2.476-13.392,2.5,0,0-7.254,10.071-8.669,17.385-1.435,7.416-1.6,20.6-1.731,28.152C419.681,1218.483,418.024,1222.528,416.938,1227.811Z" transform="translate(-377.93 -1123.787)" fill="#00b3dd"/>
        <path id="Path_7467" data-name="Path 7467" d="M460.347,1186.283c4.987,9.707,3.858,20.457-10.642,41.62-10.154-.886-12.145-9.349-12.145-9.349s2.79-10.507,6.414-23.724S458.165,1182.035,460.347,1186.283Z" transform="translate(-393.645 -1140.231)" fill="#4595b0"/>
        <path id="Path_7468" data-name="Path 7468" d="M338.107,1321.882l21.741,1.735s9.324-1.7,11.946,9.64c-4.667,3.633-16.712,5-36.47-2.339C337.414,1328.071,338.107,1321.882,338.107,1321.882Z" transform="translate(-315.733 -1245.585)" fill="#4595b0"/>
        <path id="Path_7469" data-name="Path 7469" d="M472.412,1153.372l-.207,5.847,14.709-6.167-1.781-4.73Z" transform="translate(-420.048 -1113.32)" fill="#95a6db"/>
      </g>
    </g>
    <g id="Group_4235" data-name="Group 4235" transform="translate(232.067 159.02)">
      <path id="Path_7470" data-name="Path 7470" d="M801.3,476.685a21.7,21.7,0,1,1-11.173-28.58A21.7,21.7,0,0,1,801.3,476.685Z" transform="translate(-759.715 -446.277)" fill="#faba23"/>
      <path id="Path_7471" data-name="Path 7471" d="M810.152,487.5a17.826,17.826,0,1,1-9.178-23.476A17.874,17.874,0,0,1,810.152,487.5Z" transform="translate(-772.121 -458.648)" fill="#fad332"/>
      <g id="Group_4234" data-name="Group 4234" transform="translate(14.88 6.691)">
        <path id="Path_7472" data-name="Path 7472" d="M827.859,504.4l-.01-3.69a10.639,10.639,0,0,1-5.594-1.591l.87-2.45a9.735,9.735,0,0,0,5.265,1.556c2.594-.007,4.343-1.51,4.337-3.592-.005-2.009-1.434-3.247-4.14-4.336-3.73-1.451-6.036-3.125-6.045-6.3-.009-3.032,2.14-5.34,5.5-5.9l-.01-3.69,2.265-.006.01,3.543a9.749,9.749,0,0,1,4.753,1.265l-.906,2.414a8.831,8.831,0,0,0-4.606-1.229c-2.813.008-3.868,1.691-3.863,3.152.005,1.9,1.36,2.846,4.542,4.152,3.767,1.524,5.672,3.418,5.681,6.669.008,2.886-1.993,5.595-5.755,6.226l.011,3.8Z" transform="translate(-822.255 -474.399)" fill="#faba23"/>
      </g>
    </g>
    <g id="Group_4237" data-name="Group 4237" transform="translate(270.991 96.072)">
      <path id="Path_7473" data-name="Path 7473" d="M964.892,212.117a21.7,21.7,0,1,1-11.174-28.58A21.7,21.7,0,0,1,964.892,212.117Z" transform="translate(-923.311 -181.709)" fill="#faba23"/>
      <path id="Path_7474" data-name="Path 7474" d="M973.747,222.933a17.826,17.826,0,1,1-9.178-23.476A17.874,17.874,0,0,1,973.747,222.933Z" transform="translate(-935.716 -194.079)" fill="#fad332"/>
      <g id="Group_4236" data-name="Group 4236" transform="translate(14.88 6.691)">
        <path id="Path_7475" data-name="Path 7475" d="M991.454,239.83l-.01-3.69a10.64,10.64,0,0,1-5.594-1.592l.87-2.45a9.739,9.739,0,0,0,5.265,1.556c2.594-.007,4.343-1.51,4.337-3.592-.005-2.009-1.434-3.247-4.14-4.336-3.73-1.451-6.036-3.125-6.045-6.3-.008-3.032,2.14-5.34,5.5-5.9l-.01-3.69,2.265-.006.01,3.543a9.747,9.747,0,0,1,4.753,1.265l-.906,2.414a8.83,8.83,0,0,0-4.606-1.229c-2.813.008-3.868,1.691-3.863,3.152.005,1.9,1.36,2.846,4.541,4.152,3.767,1.524,5.672,3.418,5.681,6.669.008,2.886-1.994,5.6-5.754,6.227l.011,3.8Z" transform="translate(-985.85 -209.831)" fill="#faba23"/>
      </g>
    </g>
    <g id="Group_4239" data-name="Group 4239" transform="translate(433.54 92.986)">
      <circle id="Ellipse_555" data-name="Ellipse 555" cx="21.699" cy="21.699" r="21.699" transform="translate(0 6.704) rotate(-8.886)" fill="#faba23"/>
      <path id="Path_7476" data-name="Path 7476" d="M1669.9,222.933a17.826,17.826,0,1,1-9.178-23.476A17.874,17.874,0,0,1,1669.9,222.933Z" transform="translate(-1628.783 -190.993)" fill="#fad332"/>
      <g id="Group_4238" data-name="Group 4238" transform="translate(17.966 9.777)">
        <path id="Path_7477" data-name="Path 7477" d="M1687.607,239.83l-.01-3.69a10.639,10.639,0,0,1-5.594-1.592l.87-2.45a9.738,9.738,0,0,0,5.265,1.556c2.594-.007,4.343-1.51,4.337-3.592-.006-2.009-1.434-3.247-4.141-4.336-3.73-1.451-6.036-3.125-6.045-6.3-.008-3.032,2.14-5.34,5.5-5.9l-.01-3.69,2.265-.006.01,3.543a9.744,9.744,0,0,1,4.752,1.265l-.906,2.414a8.831,8.831,0,0,0-4.606-1.229c-2.813.008-3.868,1.691-3.864,3.152.006,1.9,1.36,2.846,4.542,4.152,3.767,1.524,5.672,3.418,5.681,6.669.008,2.886-1.994,5.6-5.755,6.227l.011,3.8Z" transform="translate(-1682.003 -209.831)" fill="#faba23"/>
      </g>
    </g>
    <g id="Group_4241" data-name="Group 4241" transform="translate(480.847 159.02)">
      <path id="Path_7478" data-name="Path 7478" d="M1846.9,476.685a21.7,21.7,0,1,1-11.173-28.58A21.7,21.7,0,0,1,1846.9,476.685Z" transform="translate(-1805.321 -446.277)" fill="#faba23"/>
      <path id="Path_7479" data-name="Path 7479" d="M1855.757,487.5a17.826,17.826,0,1,1-9.178-23.476A17.874,17.874,0,0,1,1855.757,487.5Z" transform="translate(-1817.726 -458.648)" fill="#fad332"/>
      <g id="Group_4240" data-name="Group 4240" transform="translate(14.88 6.691)">
        <path id="Path_7480" data-name="Path 7480" d="M1873.463,504.4l-.01-3.69a10.641,10.641,0,0,1-5.594-1.591l.87-2.45a9.736,9.736,0,0,0,5.265,1.556c2.594-.007,4.343-1.51,4.338-3.592-.006-2.009-1.434-3.247-4.14-4.336-3.73-1.451-6.036-3.125-6.046-6.3-.008-3.032,2.141-5.34,5.5-5.9l-.01-3.69,2.265-.006.01,3.543a9.749,9.749,0,0,1,4.753,1.265l-.907,2.414a8.831,8.831,0,0,0-4.606-1.229c-2.813.008-3.868,1.691-3.864,3.152.005,1.9,1.36,2.846,4.542,4.152,3.767,1.524,5.672,3.418,5.681,6.669.008,2.886-1.993,5.595-5.754,6.226l.011,3.8Z" transform="translate(-1867.859 -474.399)" fill="#faba23"/>
      </g>
    </g>
    <g id="Group_4243" data-name="Group 4243" transform="translate(360.219 69.334)">
      <path id="Path_7481" data-name="Path 7481" d="M1339.911,99.742a21.7,21.7,0,1,1-11.173-28.58A21.7,21.7,0,0,1,1339.911,99.742Z" transform="translate(-1298.33 -69.334)" fill="#faba23"/>
      <path id="Path_7482" data-name="Path 7482" d="M1348.767,110.559a17.826,17.826,0,1,1-9.178-23.476A17.874,17.874,0,0,1,1348.767,110.559Z" transform="translate(-1310.736 -81.705)" fill="#fad332"/>
      <g id="Group_4242" data-name="Group 4242" transform="translate(14.88 6.691)">
        <path id="Path_7483" data-name="Path 7483" d="M1366.474,127.455l-.01-3.69a10.639,10.639,0,0,1-5.594-1.592l.87-2.45A9.737,9.737,0,0,0,1367,121.28c2.594-.007,4.343-1.51,4.337-3.592-.006-2.009-1.434-3.247-4.14-4.335-3.73-1.451-6.037-3.125-6.045-6.3-.009-3.032,2.14-5.339,5.5-5.9l-.011-3.69,2.265-.006.01,3.543a9.744,9.744,0,0,1,4.753,1.265l-.907,2.414a8.829,8.829,0,0,0-4.606-1.229c-2.813.008-3.868,1.691-3.864,3.153.005,1.9,1.36,2.846,4.542,4.152,3.767,1.524,5.672,3.418,5.681,6.669.008,2.886-1.993,5.6-5.754,6.227l.011,3.8Z" transform="translate(-1360.87 -97.456)" fill="#faba23"/>
      </g>
    </g>
    <g id="Group_4256" data-name="Group 4256" transform="translate(282.154 119.01)">
      <g id="Group_4248" data-name="Group 4248" transform="translate(0 0)">
        <g id="Group_4247" data-name="Group 4247">
          <g id="Group_4244" data-name="Group 4244" transform="translate(183.797 87.08)">
            <path id="Path_7484" data-name="Path 7484" d="M1744.74,652.675a1.9,1.9,0,0,1-1.9-1.9c0-1.55-.04-3.118-.118-4.66a1.9,1.9,0,1,1,3.8-.194c.082,1.606.124,3.239.124,4.854A1.9,1.9,0,0,1,1744.74,652.675Z" transform="translate(-1742.715 -644.111)" fill="#95a6db"/>
          </g>
          <g id="Group_4245" data-name="Group 4245" transform="translate(1.123)">
            <path id="Path_7485" data-name="Path 7485" d="M1158.533,359.425a1.9,1.9,0,0,1-1.878-1.609,90.027,90.027,0,0,0-1.945-9.224,1.9,1.9,0,1,1,3.678-.98,93.736,93.736,0,0,1,2.028,9.616,1.9,1.9,0,0,1-1.586,2.175A1.932,1.932,0,0,1,1158.533,359.425Zm-181.679-.08a1.93,1.93,0,0,1-.3-.023,1.9,1.9,0,0,1-1.584-2.176,93.806,93.806,0,0,1,2.037-9.614,1.9,1.9,0,0,1,3.677.984,89.9,89.9,0,0,0-1.954,9.222A1.9,1.9,0,0,1,976.855,359.345Zm176.725-18.5a1.9,1.9,0,0,1-1.778-1.223,89.924,89.924,0,0,0-3.837-8.615,1.9,1.9,0,0,1,3.392-1.73,93.852,93.852,0,0,1,4,8.982,1.9,1.9,0,0,1-1.777,2.586Zm-171.756-.072a1.9,1.9,0,0,1-1.776-2.587,93.641,93.641,0,0,1,4-8.971,1.9,1.9,0,0,1,3.39,1.732,89.915,89.915,0,0,0-3.84,8.6A1.9,1.9,0,0,1,981.824,340.771Zm163.021-17.065a1.9,1.9,0,0,1-1.6-.866,90.755,90.755,0,0,0-5.546-7.628,1.9,1.9,0,0,1,2.958-2.4,94.7,94.7,0,0,1,5.78,7.949,1.9,1.9,0,0,1-1.594,2.941Zm-154.278-.053a1.9,1.9,0,0,1-1.593-2.942,94.574,94.574,0,0,1,5.783-7.942,1.9,1.9,0,0,1,2.957,2.4,90.729,90.729,0,0,0-5.549,7.622A1.9,1.9,0,0,1,990.566,323.654Zm142.171-14.892a1.9,1.9,0,0,1-1.347-.558,91.021,91.021,0,0,0-7-6.314,1.9,1.9,0,0,1,2.4-2.956,94.9,94.9,0,0,1,7.3,6.58,1.9,1.9,0,0,1-1.346,3.249Zm-130.057-.041a1.9,1.9,0,0,1-1.345-3.25,94.8,94.8,0,0,1,7.3-6.576,1.9,1.9,0,1,1,2.4,2.958,90.989,90.989,0,0,0-7.008,6.31A1.9,1.9,0,0,1,1002.68,308.721ZM1117.8,296.648a1.893,1.893,0,0,1-1.037-.309,90.4,90.4,0,0,0-8.156-4.723,1.9,1.9,0,1,1,1.732-3.39,94.2,94.2,0,0,1,8.5,4.923,1.9,1.9,0,0,1-1.04,3.5Zm-100.18-.034a1.9,1.9,0,0,1-1.039-3.5,94.131,94.131,0,0,1,8.51-4.92,1.9,1.9,0,1,1,1.73,3.391,90.335,90.335,0,0,0-8.164,4.72A1.894,1.894,0,0,1,1017.624,296.614Zm83.066-8.711a1.9,1.9,0,0,1-.683-.127,89.616,89.616,0,0,0-8.965-2.915,1.9,1.9,0,0,1,.984-3.677,93.567,93.567,0,0,1,9.347,3.04,1.9,1.9,0,0,1-.684,3.681Zm-65.933-.027a1.9,1.9,0,0,1-.682-3.681,93.422,93.422,0,0,1,9.353-3.033,1.9,1.9,0,1,1,.981,3.678,89.616,89.616,0,0,0-8.971,2.909A1.906,1.906,0,0,1,1034.757,287.876Zm47.362-4.947a1.9,1.9,0,0,1-.3-.024,90.779,90.779,0,0,0-9.378-.979,1.9,1.9,0,0,1,.2-3.8,94.644,94.644,0,0,1,9.772,1.02,1.9,1.9,0,0,1-.294,3.784Zm-28.783-.012a1.9,1.9,0,0,1-.292-3.784,94.58,94.58,0,0,1,9.773-1.012,1.9,1.9,0,1,1,.195,3.8,90.758,90.758,0,0,0-9.378.971A1.934,1.934,0,0,1,1053.336,282.916Z" transform="translate(-974.949 -278.118)" fill="#95a6db"/>
          </g>
          <g id="Group_4246" data-name="Group 4246" transform="translate(0 87.08)">
            <path id="Path_7486" data-name="Path 7486" d="M972.131,652.674a1.9,1.9,0,0,1-1.9-1.9c0-1.614.041-3.247.123-4.854a1.9,1.9,0,1,1,3.8.194c-.079,1.543-.118,3.111-.118,4.66A1.9,1.9,0,0,1,972.131,652.674Z" transform="translate(-970.228 -644.11)" fill="#95a6db"/>
          </g>
        </g>
      </g>
      <g id="Group_4253" data-name="Group 4253" transform="translate(25.765 25.808)">
        <g id="Group_4252" data-name="Group 4252">
          <g id="Group_4249" data-name="Group 4249" transform="translate(0 61.275)">
            <path id="Path_7487" data-name="Path 7487" d="M1080.421,652.682a1.9,1.9,0,0,1-1.9-1.9c0-1.627.058-3.273.173-4.89a1.9,1.9,0,1,1,3.8.269c-.109,1.528-.163,3.082-.163,4.62A1.9,1.9,0,0,1,1080.421,652.682Z" transform="translate(-1078.518 -644.12)" fill="#95a6db"/>
          </g>
          <g id="Group_4250" data-name="Group 4250" transform="translate(1.505)">
            <path id="Path_7488" data-name="Path 7488" d="M1086.748,442.321a1.9,1.9,0,0,1-1.862-2.307,67.811,67.811,0,0,1,2.738-9.325,1.9,1.9,0,1,1,3.566,1.332,64.022,64.022,0,0,0-2.584,8.8A1.9,1.9,0,0,1,1086.748,442.321Zm129.362-.05a1.9,1.9,0,0,1-1.858-1.5,64.015,64.015,0,0,0-2.589-8.793,1.9,1.9,0,0,1,3.565-1.335,67.879,67.879,0,0,1,2.743,9.317,1.906,1.906,0,0,1-1.861,2.309Zm-122.774-17.6a1.9,1.9,0,0,1-1.668-2.818,68.4,68.4,0,0,1,5.261-8.165,1.9,1.9,0,1,1,3.045,2.285,64.633,64.633,0,0,0-4.967,7.709A1.9,1.9,0,0,1,1093.336,424.672Zm116.179-.032a1.9,1.9,0,0,1-1.671-.989,64.586,64.586,0,0,0-4.969-7.7,1.9,1.9,0,0,1,3.044-2.286,68.422,68.422,0,0,1,5.263,8.158,1.9,1.9,0,0,1-1.667,2.819ZM1104.64,409.6a1.9,1.9,0,0,1-1.346-3.25,68.645,68.645,0,0,1,7.337-6.36,1.9,1.9,0,0,1,2.283,3.046,64.819,64.819,0,0,0-6.929,6.006A1.9,1.9,0,0,1,1104.64,409.6Zm93.568-.021a1.9,1.9,0,0,1-1.345-.556,64.894,64.894,0,0,0-6.933-6,1.9,1.9,0,0,1,2.282-3.047,68.681,68.681,0,0,1,7.34,6.357,1.9,1.9,0,0,1-1.345,3.25Zm-78.5-11.27a1.9,1.9,0,0,1-.915-3.574,67.989,67.989,0,0,1,8.828-4.038,1.9,1.9,0,0,1,1.331,3.567,64.2,64.2,0,0,0-8.332,3.811A1.9,1.9,0,0,1,1119.71,398.313Zm63.418-.017a1.893,1.893,0,0,1-.911-.234,64.208,64.208,0,0,0-8.342-3.81,1.9,1.9,0,1,1,1.329-3.567,67.992,67.992,0,0,1,8.838,4.037,1.9,1.9,0,0,1-.914,3.574Zm-45.784-6.565a1.9,1.9,0,0,1-.4-3.764,68.326,68.326,0,0,1,9.613-1.373,1.9,1.9,0,0,1,.269,3.8,64.466,64.466,0,0,0-9.075,1.3A1.9,1.9,0,0,1,1137.344,391.731Zm28.131-.01a1.909,1.909,0,0,1-.4-.043,64.5,64.5,0,0,0-9.076-1.29,1.9,1.9,0,1,1,.266-3.8,68.25,68.25,0,0,1,9.614,1.366,1.9,1.9,0,0,1-.4,3.764Z" transform="translate(-1084.842 -386.585)" fill="#95a6db"/>
          </g>
          <g id="Group_4251" data-name="Group 4251" transform="translate(132.219 61.275)">
            <path id="Path_7489" data-name="Path 7489" d="M1636.3,652.681a1.9,1.9,0,0,1-1.9-1.9c0-1.539-.055-3.093-.163-4.62a1.9,1.9,0,1,1,3.8-.269c.115,1.616.173,3.262.173,4.89A1.9,1.9,0,0,1,1636.3,652.681Z" transform="translate(-1634.226 -644.119)" fill="#95a6db"/>
          </g>
        </g>
      </g>
      <g id="Group_4254" data-name="Group 4254" transform="translate(172.148 78.042)">
        <path id="Path_7490" data-name="Path 7490" d="M1707.091,624.84h-.023a1.188,1.188,0,0,1-.931-.479l-12.15-16.339a1.189,1.189,0,1,1,1.908-1.419l11.233,15.107,11.186-13.886a1.189,1.189,0,0,1,1.852,1.491l-12.15,15.082A1.189,1.189,0,0,1,1707.091,624.84Z" transform="translate(-1693.753 -606.124)" fill="#95a6db"/>
      </g>
      <g id="Group_4255" data-name="Group 4255" transform="translate(14.293 78.042)">
        <path id="Path_7491" data-name="Path 7491" d="M1043.639,624.839h-.023a1.188,1.188,0,0,1-.931-.479l-12.15-16.339a1.189,1.189,0,1,1,1.908-1.418l11.233,15.107,11.186-13.886a1.188,1.188,0,0,1,1.851,1.491L1044.565,624.4A1.189,1.189,0,0,1,1043.639,624.839Z" transform="translate(-1030.301 -606.123)" fill="#95a6db"/>
      </g>
    </g>
    <g id="Group_4267" data-name="Group 4267" transform="translate(442.623 387.462)">
      <g id="Group_4265" data-name="Group 4265" transform="translate(37.963)">
        <g id="Group_4257" data-name="Group 4257" transform="translate(5.096 81.246)">
          <path id="Path_7492" data-name="Path 7492" d="M1891.3,1751.287v4.82a3.411,3.411,0,0,1-3.41,3.41h-58.833a3.411,3.411,0,0,1-3.41-3.41v-4.82a3.41,3.41,0,0,1,3.41-3.41h58.833a3.41,3.41,0,0,1,3.41,3.41Z" transform="translate(-1825.643 -1747.877)" fill="#fad332"/>
          <rect id="Rectangle_497" data-name="Rectangle 497" width="1.709" height="11.641" transform="translate(3.261)" fill="#faba23"/>
          <rect id="Rectangle_498" data-name="Rectangle 498" width="1.709" height="11.641" transform="translate(10.427)" fill="#faba23"/>
          <rect id="Rectangle_499" data-name="Rectangle 499" width="1.709" height="11.641" transform="translate(17.593)" fill="#faba23"/>
          <rect id="Rectangle_500" data-name="Rectangle 500" width="1.709" height="11.641" transform="translate(24.759)" fill="#faba23"/>
          <rect id="Rectangle_501" data-name="Rectangle 501" width="1.709" height="11.641" transform="translate(31.926)" fill="#faba23"/>
          <rect id="Rectangle_502" data-name="Rectangle 502" width="1.709" height="11.641" transform="translate(39.092)" fill="#faba23"/>
          <rect id="Rectangle_503" data-name="Rectangle 503" width="1.709" height="11.641" transform="translate(46.258)" fill="#faba23"/>
          <rect id="Rectangle_504" data-name="Rectangle 504" width="1.709" height="11.641" transform="translate(53.424)" fill="#faba23"/>
          <rect id="Rectangle_505" data-name="Rectangle 505" width="1.709" height="11.641" transform="translate(60.59)" fill="#faba23"/>
          <path id="Path_7493" data-name="Path 7493" d="M1893.07,1749.086h-64.043a3.4,3.4,0,0,1,2.605-1.209h58.833A3.4,3.4,0,0,1,1893.07,1749.086Z" transform="translate(-1828.222 -1747.877)" fill="#faba23"/>
          <path id="Path_7494" data-name="Path 7494" d="M1893.07,1791.722h-64.043a3.406,3.406,0,0,0,2.605,1.209h58.833A3.4,3.4,0,0,0,1893.07,1791.722Z" transform="translate(-1828.222 -1781.29)" fill="#faba23"/>
        </g>
        <g id="Group_4258" data-name="Group 4258" transform="translate(9.211 69.604)">
          <path id="Path_7495" data-name="Path 7495" d="M1908.591,1702.359v4.82a3.411,3.411,0,0,1-3.41,3.41h-58.833a3.411,3.411,0,0,1-3.411-3.41v-4.82a3.41,3.41,0,0,1,3.411-3.41h58.833a3.41,3.41,0,0,1,3.41,3.41Z" transform="translate(-1842.937 -1698.949)" fill="#fad332"/>
          <rect id="Rectangle_506" data-name="Rectangle 506" width="1.709" height="11.641" transform="translate(3.261 0)" fill="#faba23"/>
          <rect id="Rectangle_507" data-name="Rectangle 507" width="1.709" height="11.641" transform="translate(10.427 0)" fill="#faba23"/>
          <rect id="Rectangle_508" data-name="Rectangle 508" width="1.709" height="11.641" transform="translate(17.593 0)" fill="#faba23"/>
          <rect id="Rectangle_509" data-name="Rectangle 509" width="1.709" height="11.641" transform="translate(24.76 0)" fill="#faba23"/>
          <rect id="Rectangle_510" data-name="Rectangle 510" width="1.709" height="11.641" transform="translate(31.926 0)" fill="#faba23"/>
          <rect id="Rectangle_511" data-name="Rectangle 511" width="1.709" height="11.641" transform="translate(39.092 0)" fill="#faba23"/>
          <rect id="Rectangle_512" data-name="Rectangle 512" width="1.709" height="11.641" transform="translate(46.258 0)" fill="#faba23"/>
          <rect id="Rectangle_513" data-name="Rectangle 513" width="1.709" height="11.641" transform="translate(53.424 0)" fill="#faba23"/>
          <rect id="Rectangle_514" data-name="Rectangle 514" width="1.709" height="11.641" transform="translate(60.591 0)" fill="#faba23"/>
          <path id="Path_7496" data-name="Path 7496" d="M1910.365,1700.158h-64.043a3.406,3.406,0,0,1,2.6-1.209h58.833A3.406,3.406,0,0,1,1910.365,1700.158Z" transform="translate(-1845.517 -1698.949)" fill="#faba23"/>
          <path id="Path_7497" data-name="Path 7497" d="M1910.365,1742.793h-64.043a3.4,3.4,0,0,0,2.6,1.209h58.833A3.405,3.405,0,0,0,1910.365,1742.793Z" transform="translate(-1845.517 -1732.361)" fill="#faba23"/>
        </g>
        <g id="Group_4259" data-name="Group 4259" transform="translate(6.021 57.984)">
          <path id="Path_7498" data-name="Path 7498" d="M1895.182,1653.517v4.821a3.411,3.411,0,0,1-3.411,3.411h-58.833a3.411,3.411,0,0,1-3.41-3.411v-4.821a3.41,3.41,0,0,1,3.41-3.411h58.833a3.411,3.411,0,0,1,3.411,3.411Z" transform="translate(-1829.528 -1650.107)" fill="#fad332"/>
          <rect id="Rectangle_515" data-name="Rectangle 515" width="1.709" height="11.641" transform="translate(3.261 0.001)" fill="#faba23"/>
          <rect id="Rectangle_516" data-name="Rectangle 516" width="1.709" height="11.641" transform="translate(10.427 0.001)" fill="#faba23"/>
          <rect id="Rectangle_517" data-name="Rectangle 517" width="1.709" height="11.641" transform="translate(17.593 0.001)" fill="#faba23"/>
          <rect id="Rectangle_518" data-name="Rectangle 518" width="1.709" height="11.641" transform="translate(24.759 0.001)" fill="#faba23"/>
          <rect id="Rectangle_519" data-name="Rectangle 519" width="1.709" height="11.641" transform="translate(31.926 0.001)" fill="#faba23"/>
          <rect id="Rectangle_520" data-name="Rectangle 520" width="1.709" height="11.641" transform="translate(39.092 0.001)" fill="#faba23"/>
          <rect id="Rectangle_521" data-name="Rectangle 521" width="1.709" height="11.641" transform="translate(46.258 0.001)" fill="#faba23"/>
          <rect id="Rectangle_522" data-name="Rectangle 522" width="1.709" height="11.641" transform="translate(53.424 0.001)" fill="#faba23"/>
          <rect id="Rectangle_523" data-name="Rectangle 523" width="1.709" height="11.641" transform="translate(60.59 0.001)" fill="#faba23"/>
          <path id="Path_7499" data-name="Path 7499" d="M1896.956,1651.316h-64.043a3.405,3.405,0,0,1,2.6-1.209h58.833A3.405,3.405,0,0,1,1896.956,1651.316Z" transform="translate(-1832.108 -1650.107)" fill="#faba23"/>
          <path id="Path_7500" data-name="Path 7500" d="M1896.956,1693.953h-64.043a3.406,3.406,0,0,0,2.6,1.209h58.833A3.406,3.406,0,0,0,1896.956,1693.953Z" transform="translate(-1832.108 -1683.521)" fill="#faba23"/>
        </g>
        <g id="Group_4260" data-name="Group 4260" transform="translate(7.334 46.574)">
          <path id="Path_7501" data-name="Path 7501" d="M1900.7,1605.564v4.82a3.411,3.411,0,0,1-3.411,3.411h-58.833a3.411,3.411,0,0,1-3.411-3.411v-4.82a3.41,3.41,0,0,1,3.411-3.41h58.833a3.409,3.409,0,0,1,3.411,3.41Z" transform="translate(-1835.047 -1602.154)" fill="#fad332"/>
          <rect id="Rectangle_524" data-name="Rectangle 524" width="1.709" height="11.641" transform="translate(3.261 0)" fill="#faba23"/>
          <rect id="Rectangle_525" data-name="Rectangle 525" width="1.709" height="11.641" transform="translate(10.427 0)" fill="#faba23"/>
          <rect id="Rectangle_526" data-name="Rectangle 526" width="1.709" height="11.641" transform="translate(17.593 0)" fill="#faba23"/>
          <rect id="Rectangle_527" data-name="Rectangle 527" width="1.709" height="11.641" transform="translate(24.759 0)" fill="#faba23"/>
          <rect id="Rectangle_528" data-name="Rectangle 528" width="1.709" height="11.641" transform="translate(31.926 0)" fill="#faba23"/>
          <rect id="Rectangle_529" data-name="Rectangle 529" width="1.709" height="11.641" transform="translate(39.092 0)" fill="#faba23"/>
          <rect id="Rectangle_530" data-name="Rectangle 530" width="1.709" height="11.641" transform="translate(46.258 0)" fill="#faba23"/>
          <rect id="Rectangle_531" data-name="Rectangle 531" width="1.709" height="11.641" transform="translate(53.424 0)" fill="#faba23"/>
          <rect id="Rectangle_532" data-name="Rectangle 532" width="1.709" height="11.641" transform="translate(60.591 0)" fill="#faba23"/>
          <path id="Path_7502" data-name="Path 7502" d="M1902.475,1603.363h-64.043a3.405,3.405,0,0,1,2.605-1.209h58.833A3.406,3.406,0,0,1,1902.475,1603.363Z" transform="translate(-1837.627 -1602.154)" fill="#faba23"/>
          <path id="Path_7503" data-name="Path 7503" d="M1902.475,1646h-64.043a3.405,3.405,0,0,0,2.605,1.209h58.833A3.406,3.406,0,0,0,1902.475,1646Z" transform="translate(-1837.627 -1635.567)" fill="#faba23"/>
        </g>
        <g id="Group_4261" data-name="Group 4261" transform="translate(0 34.758)">
          <path id="Path_7504" data-name="Path 7504" d="M1869.876,1555.9v4.82a3.411,3.411,0,0,1-3.411,3.41h-58.832a3.411,3.411,0,0,1-3.411-3.41v-4.82a3.41,3.41,0,0,1,3.411-3.411h58.832a3.41,3.41,0,0,1,3.411,3.411Z" transform="translate(-1804.223 -1552.491)" fill="#fad332"/>
          <rect id="Rectangle_533" data-name="Rectangle 533" width="1.709" height="11.641" transform="translate(3.261 0)" fill="#faba23"/>
          <rect id="Rectangle_534" data-name="Rectangle 534" width="1.709" height="11.641" transform="translate(10.427 0)" fill="#faba23"/>
          <rect id="Rectangle_535" data-name="Rectangle 535" width="1.709" height="11.641" transform="translate(17.593 0)" fill="#faba23"/>
          <rect id="Rectangle_536" data-name="Rectangle 536" width="1.709" height="11.641" transform="translate(24.759 0)" fill="#faba23"/>
          <rect id="Rectangle_537" data-name="Rectangle 537" width="1.709" height="11.641" transform="translate(31.925 0)" fill="#faba23"/>
          <rect id="Rectangle_538" data-name="Rectangle 538" width="1.709" height="11.641" transform="translate(39.092 0)" fill="#faba23"/>
          <rect id="Rectangle_539" data-name="Rectangle 539" width="1.709" height="11.641" transform="translate(46.258 0)" fill="#faba23"/>
          <rect id="Rectangle_540" data-name="Rectangle 540" width="1.709" height="11.641" transform="translate(53.424 0)" fill="#faba23"/>
          <rect id="Rectangle_541" data-name="Rectangle 541" width="1.709" height="11.641" transform="translate(60.59 0)" fill="#faba23"/>
          <path id="Path_7505" data-name="Path 7505" d="M1871.65,1553.7h-64.043a3.4,3.4,0,0,1,2.605-1.209h58.832A3.4,3.4,0,0,1,1871.65,1553.7Z" transform="translate(-1806.802 -1552.491)" fill="#faba23"/>
          <path id="Path_7506" data-name="Path 7506" d="M1871.65,1596.336h-64.043a3.4,3.4,0,0,0,2.605,1.209h58.832A3.4,3.4,0,0,0,1871.65,1596.336Z" transform="translate(-1806.802 -1585.904)" fill="#faba23"/>
        </g>
        <g id="Group_4262" data-name="Group 4262" transform="translate(7.217 23.253)">
          <path id="Path_7507" data-name="Path 7507" d="M1900.208,1507.547v4.82a3.411,3.411,0,0,1-3.411,3.41h-58.833a3.411,3.411,0,0,1-3.411-3.41v-4.82a3.409,3.409,0,0,1,3.411-3.41H1896.8a3.41,3.41,0,0,1,3.411,3.41Z" transform="translate(-1834.555 -1504.137)" fill="#fad332"/>
          <rect id="Rectangle_542" data-name="Rectangle 542" width="1.709" height="11.64" transform="translate(3.261 0)" fill="#faba23"/>
          <rect id="Rectangle_543" data-name="Rectangle 543" width="1.709" height="11.64" transform="translate(10.427 0)" fill="#faba23"/>
          <rect id="Rectangle_544" data-name="Rectangle 544" width="1.709" height="11.64" transform="translate(17.593 0)" fill="#faba23"/>
          <rect id="Rectangle_545" data-name="Rectangle 545" width="1.709" height="11.64" transform="translate(24.759 0)" fill="#faba23"/>
          <rect id="Rectangle_546" data-name="Rectangle 546" width="1.709" height="11.64" transform="translate(31.926 0)" fill="#faba23"/>
          <rect id="Rectangle_547" data-name="Rectangle 547" width="1.709" height="11.64" transform="translate(39.092 0)" fill="#faba23"/>
          <rect id="Rectangle_548" data-name="Rectangle 548" width="1.709" height="11.64" transform="translate(46.258 0)" fill="#faba23"/>
          <rect id="Rectangle_549" data-name="Rectangle 549" width="1.709" height="11.64" transform="translate(53.424 0)" fill="#faba23"/>
          <rect id="Rectangle_550" data-name="Rectangle 550" width="1.709" height="11.64" transform="translate(60.59 0)" fill="#faba23"/>
          <path id="Path_7508" data-name="Path 7508" d="M1901.982,1505.346h-64.043a3.4,3.4,0,0,1,2.605-1.209h58.833A3.4,3.4,0,0,1,1901.982,1505.346Z" transform="translate(-1837.134 -1504.137)" fill="#faba23"/>
          <path id="Path_7509" data-name="Path 7509" d="M1901.982,1547.98h-64.043a3.4,3.4,0,0,0,2.605,1.209h58.833A3.4,3.4,0,0,0,1901.982,1547.98Z" transform="translate(-1837.134 -1537.549)" fill="#faba23"/>
        </g>
        <g id="Group_4263" data-name="Group 4263" transform="translate(4.657 11.576)">
          <path id="Path_7510" data-name="Path 7510" d="M1889.451,1458.471v4.82a3.411,3.411,0,0,1-3.41,3.41h-58.833a3.411,3.411,0,0,1-3.411-3.41v-4.82a3.41,3.41,0,0,1,3.411-3.411h58.833a3.41,3.41,0,0,1,3.41,3.411Z" transform="translate(-1823.797 -1455.06)" fill="#fad332"/>
          <rect id="Rectangle_551" data-name="Rectangle 551" width="1.709" height="11.641" transform="translate(3.261 0.001)" fill="#faba23"/>
          <rect id="Rectangle_552" data-name="Rectangle 552" width="1.709" height="11.641" transform="translate(10.427 0.001)" fill="#faba23"/>
          <rect id="Rectangle_553" data-name="Rectangle 553" width="1.709" height="11.641" transform="translate(17.593 0.001)" fill="#faba23"/>
          <rect id="Rectangle_554" data-name="Rectangle 554" width="1.709" height="11.641" transform="translate(24.759 0.001)" fill="#faba23"/>
          <rect id="Rectangle_555" data-name="Rectangle 555" width="1.709" height="11.641" transform="translate(31.926 0.001)" fill="#faba23"/>
          <rect id="Rectangle_556" data-name="Rectangle 556" width="1.709" height="11.641" transform="translate(39.092 0.001)" fill="#faba23"/>
          <rect id="Rectangle_557" data-name="Rectangle 557" width="1.709" height="11.641" transform="translate(46.258 0.001)" fill="#faba23"/>
          <rect id="Rectangle_558" data-name="Rectangle 558" width="1.709" height="11.641" transform="translate(53.424 0.001)" fill="#faba23"/>
          <rect id="Rectangle_559" data-name="Rectangle 559" width="1.709" height="11.641" transform="translate(60.591 0.001)" fill="#faba23"/>
          <path id="Path_7511" data-name="Path 7511" d="M1891.225,1456.269h-64.043a3.4,3.4,0,0,1,2.605-1.209h58.833A3.405,3.405,0,0,1,1891.225,1456.269Z" transform="translate(-1826.377 -1455.06)" fill="#faba23"/>
          <path id="Path_7512" data-name="Path 7512" d="M1891.225,1498.906h-64.043a3.406,3.406,0,0,0,2.605,1.209h58.833A3.406,3.406,0,0,0,1891.225,1498.906Z" transform="translate(-1826.377 -1488.474)" fill="#faba23"/>
        </g>
        <g id="Group_4264" data-name="Group 4264" transform="translate(8.173)">
          <path id="Path_7513" data-name="Path 7513" d="M1904.228,1409.816v4.82a3.411,3.411,0,0,1-3.41,3.411h-58.833a3.411,3.411,0,0,1-3.41-3.411v-4.82a3.409,3.409,0,0,1,3.41-3.41h58.833a3.409,3.409,0,0,1,3.41,3.41Z" transform="translate(-1838.574 -1406.406)" fill="#fad332"/>
          <rect id="Rectangle_560" data-name="Rectangle 560" width="1.709" height="11.641" transform="translate(3.261 0)" fill="#faba23"/>
          <rect id="Rectangle_561" data-name="Rectangle 561" width="1.709" height="11.641" transform="translate(10.427 0)" fill="#faba23"/>
          <rect id="Rectangle_562" data-name="Rectangle 562" width="1.709" height="11.641" transform="translate(17.593 0)" fill="#faba23"/>
          <rect id="Rectangle_563" data-name="Rectangle 563" width="1.709" height="11.641" transform="translate(24.76 0)" fill="#faba23"/>
          <rect id="Rectangle_564" data-name="Rectangle 564" width="1.709" height="11.641" transform="translate(31.926 0)" fill="#faba23"/>
          <rect id="Rectangle_565" data-name="Rectangle 565" width="1.709" height="11.641" transform="translate(39.092 0)" fill="#faba23"/>
          <rect id="Rectangle_566" data-name="Rectangle 566" width="1.709" height="11.641" transform="translate(46.258 0)" fill="#faba23"/>
          <rect id="Rectangle_567" data-name="Rectangle 567" width="1.709" height="11.641" transform="translate(53.424 0)" fill="#faba23"/>
          <rect id="Rectangle_568" data-name="Rectangle 568" width="1.709" height="11.641" transform="translate(60.591 0)" fill="#faba23"/>
          <path id="Path_7514" data-name="Path 7514" d="M1906,1407.615h-64.043a3.4,3.4,0,0,1,2.6-1.209H1903.4A3.406,3.406,0,0,1,1906,1407.615Z" transform="translate(-1841.154 -1406.406)" fill="#faba23"/>
          <path id="Path_7515" data-name="Path 7515" d="M1906,1450.25h-64.043a3.4,3.4,0,0,0,2.6,1.209H1903.4A3.405,3.405,0,0,0,1906,1450.25Z" transform="translate(-1841.154 -1439.818)" fill="#faba23"/>
        </g>
      </g>
      <g id="Group_4266" data-name="Group 4266" transform="translate(0 13.974)">
        <circle id="Ellipse_556" data-name="Ellipse 556" cx="35.111" cy="35.111" r="35.111" transform="translate(0 21.992) rotate(-18.251)" fill="#faba23"/>
        <path id="Path_7516" data-name="Path 7516" d="M1766.072,1567.964A28.852,28.852,0,0,1,1718.746,1580a29.381,29.381,0,0,1-2.055-2.171,28.848,28.848,0,0,1,39.744-41.426,28.356,28.356,0,0,1,2.25,1.963,28.891,28.891,0,0,1,7.386,29.595Z" transform="translate(-1694.286 -1514.76)" fill="#fad332"/>
        <path id="Path_7517" data-name="Path 7517" d="M1756.435,1536.406l-39.744,41.426a28.9,28.9,0,0,1-6.873-20.245l26.1-27.207a28.943,28.943,0,0,1,20.515,6.027Z" transform="translate(-1694.286 -1514.76)" fill="#faee6c"/>
        <path id="Path_7518" data-name="Path 7518" d="M1792.323,1570.674l-38.352,39.977a28.592,28.592,0,0,1-6.5-4.65l39.939-41.634A28.806,28.806,0,0,1,1792.323,1570.674Z" transform="translate(-1723.009 -1540.758)" fill="#faee6c"/>
        <path id="Path_7519" data-name="Path 7519" d="M1811.741,1518.478c-3.407-.358-4.029-.022-5.56,3,.38-3.366.044-3.988-3-5.56,3.407.358,4.029.022,5.559-3C1808.384,1516.325,1808.719,1516.948,1811.741,1518.478Z" transform="translate(-1765.466 -1501.55)" fill="#fff"/>
        <path id="Path_7520" data-name="Path 7520" d="M1765.342,1748.934c-2.875-.3-3.4-.019-4.691,2.531.32-2.84.037-3.365-2.532-4.691,2.875.3,3.4.018,4.691-2.532C1762.508,1747.118,1762.792,1747.643,1765.342,1748.934Z" transform="translate(-1731.125 -1677.836)" fill="#fff"/>
      </g>
    </g>
    <g id="Group_4271" data-name="Group 4271" transform="translate(471.185 231.614)">
      <g id="Group_4268" data-name="Group 4268" transform="translate(0 20.531)">
        <path id="Path_7521" data-name="Path 7521" d="M1803.249,914.745a38.536,38.536,0,1,1,38.535-38.536A38.579,38.579,0,0,1,1803.249,914.745Zm0-75.168a36.632,36.632,0,1,0,36.632,36.632A36.674,36.674,0,0,0,1803.249,839.577Z" transform="translate(-1764.713 -837.674)" fill="#e3eaff"/>
      </g>
      <g id="Group_4270" data-name="Group 4270" transform="translate(33.42)">
        <g id="Group_4269" data-name="Group 4269">
          <path id="Path_7522" data-name="Path 7522" d="M1910.292,832.321a5.116,5.116,0,0,1-5.115-5.115V756.5a5.115,5.115,0,1,1,10.231,0v70.706A5.116,5.116,0,0,1,1910.292,832.321Z" transform="translate(-1905.176 -751.384)" fill="#e3eaff"/>
        </g>
      </g>
    </g>
    <g id="Group_4276" data-name="Group 4276" transform="translate(471.185 231.614)">
      <g id="Group_4272" data-name="Group 4272" transform="translate(0 20.531)">
        <path id="Path_7523" data-name="Path 7523" d="M1803.249,914.745a38.536,38.536,0,1,1,38.535-38.536A38.579,38.579,0,0,1,1803.249,914.745Zm0-75.168a36.632,36.632,0,1,0,36.632,36.632A36.674,36.674,0,0,0,1803.249,839.577Z" transform="translate(-1764.713 -837.674)" fill="#e3eaff"/>
      </g>
      <g id="Group_4275" data-name="Group 4275" transform="translate(12.527)">
        <g id="Group_4273" data-name="Group 4273" transform="translate(20.893)">
          <path id="Path_7524" data-name="Path 7524" d="M1910.292,832.321a5.116,5.116,0,0,1-5.115-5.115V756.5a5.115,5.115,0,1,1,10.231,0v70.706A5.116,5.116,0,0,1,1910.292,832.321Z" transform="translate(-1905.176 -751.384)" fill="#e3eaff"/>
        </g>
        <g id="Group_4274" data-name="Group 4274" transform="translate(0 47.687)">
          <path id="Path_7525" data-name="Path 7525" d="M1843.724,989.26c-.066,0-.132,0-.2,0a5.115,5.115,0,0,1-3.937-2.1l-21.243-27.218a5.115,5.115,0,1,1,8.271-6.022l17.428,21.979,16.332-22.291a5.115,5.115,0,1,1,7.778,6.646l-20.541,27.219A5.118,5.118,0,0,1,1843.724,989.26Z" transform="translate(-1817.365 -951.81)" fill="#e3eaff"/>
        </g>
      </g>
    </g>
    <g id="Group_4279" data-name="Group 4279" transform="translate(214.908 247.324)">
      <g id="Group_4277" data-name="Group 4277" transform="translate(0.903 0.903)">
        <path id="Path_7526" data-name="Path 7526" d="M729.929,898.278a38.535,38.535,0,1,1,38.535-38.535A38.579,38.579,0,0,1,729.929,898.278Zm0-75.167a36.632,36.632,0,1,0,36.632,36.632A36.674,36.674,0,0,0,729.929,823.11Z" transform="translate(-691.393 -821.207)" fill="#e3eaff"/>
      </g>
      <g id="Group_4278" data-name="Group 4278" transform="translate(0 0)">
        <circle id="Ellipse_557" data-name="Ellipse 557" cx="27.887" cy="27.887" r="27.887" transform="translate(0 39.439) rotate(-45)" fill="#e3eaff"/>
        <path id="Path_7527" data-name="Path 7527" d="M806.824,929.7a24.094,24.094,0,0,1-42.245,0,24.3,24.3,0,0,1,11.535-10.392,12.952,12.952,0,1,1,19.175,0A24.3,24.3,0,0,1,806.824,929.7Z" transform="translate(-746.263 -878.56)" fill="#95a6db"/>
      </g>
    </g>
    <g id="Group_4280" data-name="Group 4280" transform="translate(532.295 343.744)">
      <path id="Path_7528" data-name="Path 7528" d="M2039.176,1233.031l-16.168-8.7-1.368,2.543h0c-.661,1.229,2.443,4.183,6.933,6.6s8.665,3.375,9.327,2.146C2037.96,1235.51,2039.176,1233.031,2039.176,1233.031Z" transform="translate(-2021.551 -1223.937)" fill="#faba23"/>
      <path id="Path_7529" data-name="Path 7529" d="M2043.339,1231.939c-.661,1.229-4.836.268-9.326-2.147s-7.593-5.368-6.933-6.6,4.837-.268,9.326,2.147S2044,1230.71,2043.339,1231.939Z" transform="translate(-2025.698 -1222.66)" fill="#fad332"/>
    </g>
    <g id="Group_4281" data-name="Group 4281" transform="translate(461.71 384.354)">
      <path id="Path_7530" data-name="Path 7530" d="M1741.251,1398.219l-16.363,2.658.418,2.574h0c.2,1.244,4.05,1.654,8.594.916s8.064-2.345,7.862-3.589C1741.742,1400.663,1741.251,1398.219,1741.251,1398.219Z" transform="translate(-1724.888 -1397.059)" fill="#faba23"/>
      <path id="Path_7531" data-name="Path 7531" d="M1741.411,1394.626c.2,1.244-3.318,2.851-7.862,3.588s-8.392.328-8.594-.916,3.318-2.85,7.862-3.589S1741.208,1393.382,1741.411,1394.626Z" transform="translate(-1724.933 -1393.343)" fill="#fad332"/>
    </g>
    <g id="Group_4282" data-name="Group 4282" transform="translate(481.531 349.077)">
      <path id="Path_7532" data-name="Path 7532" d="M1824.286,1254.1l-14.872-7.325-1.152,2.339h0c-.557,1.131,2.339,3.7,6.469,5.73s7.929,2.767,8.486,1.636C1823.269,1256.381,1824.286,1254.1,1824.286,1254.1Z" transform="translate(-1808.194 -1246.373)" fill="#faba23"/>
      <path id="Path_7533" data-name="Path 7533" d="M1827.8,1252.971c-.557,1.13-4.356.4-8.486-1.636s-7.026-4.6-6.47-5.73,4.356-.4,8.486,1.636S1828.358,1251.84,1827.8,1252.971Z" transform="translate(-1811.687 -1245.073)" fill="#fad332"/>
    </g>
    <g id="Group_4283" data-name="Group 4283" transform="translate(458.327 327.963)">
      <path id="Path_7534" data-name="Path 7534" d="M1727.8,1161.438l-17.128,2.782q.218,1.347.438,2.694h0c.211,1.3,4.239,1.731,8.995.958s8.441-2.454,8.229-3.756C1728.311,1164,1727.8,1161.438,1727.8,1161.438Z" transform="translate(-1710.669 -1160.224)" fill="#faba23"/>
      <path id="Path_7535" data-name="Path 7535" d="M1727.964,1157.677c.212,1.3-3.473,2.984-8.229,3.756s-8.783.343-8.995-.959,3.473-2.984,8.229-3.756S1727.752,1156.375,1727.964,1157.677Z" transform="translate(-1710.716 -1156.335)" fill="#fad332"/>
    </g>
    <g id="Group_4285" data-name="Group 4285" transform="translate(193.155 348.025)">
      <rect id="Rectangle_569" data-name="Rectangle 569" width="120.582" height="38.682" rx="19.341" fill="#e3eaff"/>
      <g id="Group_4284" data-name="Group 4284" transform="translate(6.257 8.589)">
        <path id="Path_7536" data-name="Path 7536" d="M653.669,1282.064v10.883a5.31,5.31,0,0,1-5.311,5.311H627.777a5.31,5.31,0,0,1-5.308-5.311v-10.883a5.309,5.309,0,0,1,5.308-5.311h20.581a5.316,5.316,0,0,1,5.311,5.311Z" transform="translate(-622.469 -1276.754)" fill="#faba23"/>
        <path id="Path_7537" data-name="Path 7537" d="M806.349,1312.192H772.2a4.427,4.427,0,0,1-4.427-4.427h0a4.427,4.427,0,0,1,4.427-4.427h34.151a4.427,4.427,0,0,1,4.427,4.427h0A4.427,4.427,0,0,1,806.349,1312.192Z" transform="translate(-733.199 -1297.013)" fill="#220b8b"/>
        <path id="Path_7538" data-name="Path 7538" d="M989.076,1312.192H971.963a4.427,4.427,0,0,1-4.427-4.427h0a4.427,4.427,0,0,1,4.427-4.427h17.113a4.426,4.426,0,0,1,4.427,4.427h0A4.427,4.427,0,0,1,989.076,1312.192Z" transform="translate(-885.435 -1297.013)" fill="#6d80c4"/>
      </g>
      <path id="Path_7539" data-name="Path 7539" d="M651.549,1277.822l-26.7,19.555a5.3,5.3,0,0,1-2.382-4.43v-10.883a5.309,5.309,0,0,1,5.308-5.311h20.581A5.275,5.275,0,0,1,651.549,1277.822Z" transform="translate(-616.212 -1268.165)" fill="#fad332"/>
      <path id="Path_7540" data-name="Path 7540" d="M701.7,1329.975a3.571,3.571,0,1,1-3.571-3.571A3.571,3.571,0,0,1,701.7,1329.975Z" transform="translate(-671.15 -1306.002)" fill="#1fd3a4"/>
      <path id="Path_7541" data-name="Path 7541" d="M719.524,1329.975a3.571,3.571,0,1,1-3.571-3.571A3.571,3.571,0,0,1,719.524,1329.975Z" transform="translate(-684.732 -1306.002)" fill="#56d0f7"/>
    </g>
    <g id="Group_4300" data-name="Group 4300" transform="translate(561.517 302.029)">
      <path id="Path_7542" data-name="Path 7542" d="M2196.919,1068.57c2.076-6.5,1.567-12.8-2.993-17.048-4.622-4.3-12.031-2.953-12.031-2.953h0s-5.185-3.379-11.683,1.046-3.809,10.34-6.9,13.963c-1.833,2.146-8.283,1.129-8.562,9.484-.08,2.41,2.31,4.619,4.613,5.335,4.045,1.257,8.526.437,9.538,2.577,3.48,7.358,16.854,7.585,19.707,3.2.885-1.359,11.138,4.145,12.477-6.231C2201.761,1072.69,2195.064,1074.378,2196.919,1068.57Z" transform="translate(-2152.277 -1047.335)" fill="#020205"/>
      <g id="Group_4288" data-name="Group 4288" transform="translate(18.057 5.341)">
        <path id="Path_7543" data-name="Path 7543" d="M2220.367,1083.122c-.842,8,3.57,15.022,9.853,15.683s12.06-5.288,12.9-13.289-3.57-15.022-9.853-15.683S2221.209,1075.122,2220.367,1083.122Z" transform="translate(-2220.264 -1069.783)" fill="#f37a50"/>
        <path id="Path_7544" data-name="Path 7544" d="M2302.016,1136.069a1.1,1.1,0,1,0,.957-1.225A1.1,1.1,0,0,0,2302.016,1136.069Z" transform="translate(-2282.558 -1119.358)"/>
        <path id="Path_7545" data-name="Path 7545" d="M2264.834,1132.088a1.19,1.19,0,1,0,1.036-1.326A1.19,1.19,0,0,0,2264.834,1132.088Z" transform="translate(-2254.222 -1116.247)"/>
        <g id="Group_4286" data-name="Group 4286" transform="translate(9.235 12.769)">
          <path id="Path_7546" data-name="Path 7546" d="M2259.545,1125.156a.414.414,0,0,0,.245-.121,3.152,3.152,0,0,1,2.609-.71.414.414,0,0,0,.163-.811,3.934,3.934,0,0,0-3.363.943.413.413,0,0,0,.346.7Z" transform="translate(-2259.081 -1123.452)" fill="#020205"/>
        </g>
        <g id="Group_4287" data-name="Group 4287" transform="translate(19.671 13.789)">
          <path id="Path_7547" data-name="Path 7547" d="M2305.516,1129.958a.414.414,0,0,0,.322-.591,2.905,2.905,0,0,0-2.482-1.627.414.414,0,0,0-.008.827,2.074,2.074,0,0,1,1.746,1.161A.414.414,0,0,0,2305.516,1129.958Z" transform="translate(-2302.939 -1127.739)" fill="#020205"/>
        </g>
        <path id="Path_7548" data-name="Path 7548" d="M2288.738,1148.129a10.987,10.987,0,0,0,1.069,2.1.436.436,0,0,1-.059.595,5.977,5.977,0,0,1-3.122.866.116.116,0,0,1-.05-.224,5.641,5.641,0,0,0,1.8-1.036.52.52,0,0,0,.155-.444c-.049-.378-.141-1.147-.168-1.766A.2.2,0,0,1,2288.738,1148.129Z" transform="translate(-2270.743 -1129.401)" fill="#de623c"/>
        <path id="Path_7549" data-name="Path 7549" d="M2260.192,1162.321a.329.329,0,0,1,.46-.394,23.359,23.359,0,0,0,5.855,2.07.33.33,0,0,1,.11.6,4.115,4.115,0,0,1-6.426-2.272Z" transform="translate(-2250.68 -1139.976)" fill="#fff"/>
      </g>
      <path id="Path_7550" data-name="Path 7550" d="M2220.753,1076.71c7.242,1.518,19.408-2.105,21.479-5.441.2-4.815-6.156-9.518-10.891-8.928S2219.756,1070.21,2220.753,1076.71Z" transform="translate(-2202.505 -1058.733)" fill="#020205"/>
      <path id="Path_7551" data-name="Path 7551" d="M2310.658,1213.785c7.453,1.86,20.192,19.275,21.385,32.333-4.089.846-8.762-2.414-8.762-2.414l-10.125-14.564Z" transform="translate(-2271.093 -1174.182)" fill="#de623c"/>
      <g id="Group_4289" data-name="Group 4289" transform="translate(10.424 81.988)">
        <path id="Path_7552" data-name="Path 7552" d="M2319.289,1786.955l3.992-15.723-9.9-1.363c-.34,7.436-.9,14.757-.847,16.74Z" transform="translate(-2282.942 -1679.945)" fill="#f37a50"/>
        <path id="Path_7553" data-name="Path 7553" d="M2208.5,1769.49h-10.341c.34,2.478,1.7,15.9,1.7,15.9.874,1.983,8.58,1.53,8.58.415C2207.85,1783.386,2208.449,1769.8,2208.5,1769.49Z" transform="translate(-2195.783 -1679.657)" fill="#f37a50"/>
        <path id="Path_7554" data-name="Path 7554" d="M2265.838,1503.93l10.2,1.506,7.072-42.289c-1.457-16.049-15.585-50.191-15.585-50.191l-15.925,5.577-.388,15.058,19.177,32.469C2267.888,1472.338,2266.178,1492.64,2265.838,1503.93Z" transform="translate(-2236.215 -1407.951)" fill="#4595b0"/>
        <path id="Path_7555" data-name="Path 7555" d="M2209.925,1398.06c-.146-.991-.195-1.3-1.02-1.8l-15.293-4.337-3.641,3.594c-3.447,12.517-1.311,29.929,1.408,43.747-3.981,11.96-2.424,36.614-.821,48.2h10.875c.631-7.746.433-22.114.482-29.054h0c1.408-5.577,2.767-11.525,3.981-17.784,1.554-7.993,3.5-15.739,4.03-22.989A114.306,114.306,0,0,0,2209.925,1398.06Z" transform="translate(-2188.184 -1391.926)" fill="#4595b0"/>
      </g>
      <path id="Path_7556" data-name="Path 7556" d="M2157.245,1205.767c-3.6,2.358-18.749,22.074-10.4,38.312.386.215,7.075-11.119,7.075-11.119l7.895-15.629Z" transform="translate(-2144.37 -1168.071)" fill="#f37a50"/>
      <path id="Path_7557" data-name="Path 7557" d="M2230.459,1162.658l9.494,5.392s.843,3.844,1.263,5.092c.868,2.574-2.457,3.7-5.268,2.1a19.12,19.12,0,0,1-4.631-3.746Z" transform="translate(-2209.976 -1135.219)" fill="#f37a50"/>
      <path id="Path_7558" data-name="Path 7558" d="M2216.965,1251.69a60.3,60.3,0,0,1-4.58,4.986l-3.509-3.831-.025.066-.832,2.192-.973,2.561c-.814,0-25.281-5.48-25.281-5.48.05-2.206,2.124-9.35,5.48-16.956-.814-6.442-.032-13.138-.287-16.852,1.976-9.962.566-13.786-1.217-18.479l6.208-1.833,11.173,3.94.83-2.694s7.006,1.68,8.479,2.494l2.647,11.046-.573,23.469A118.5,118.5,0,0,0,2216.965,1251.69Z" transform="translate(-2172.868 -1162.201)" fill="#00b3dd"/>
      <path id="Path_7559" data-name="Path 7559" d="M2219.619,1192.84l-4.378,1.859c.462,5.257,12.225,8.4,12.225,8.4l1.167-5.074Z" transform="translate(-2198.379 -1158.22)" fill="#4595b0"/>
      <path id="Path_7560" data-name="Path 7560" d="M2271.531,1200.631l3.464,3.848s3-3.1,1.911-5.012-5.053-3.206-5.053-3.206Z" transform="translate(-2241.276 -1160.828)" fill="#4595b0"/>
      <g id="Group_4290" data-name="Group 4290" transform="translate(39.383 185.722)">
        <path id="Path_7561" data-name="Path 7561" d="M2314.873,1830.934a4.462,4.462,0,0,1,3.25-3.022c4.3,5.74,14.873,2.218,14.523,9.983-16.073-.1-22.753,0-22.753,0a55.159,55.159,0,0,1,.71-7.674l.837.149Z" transform="translate(-2309.894 -1827.912)" fill="#2c2858"/>
        <path id="Rectangle_570" data-name="Rectangle 570" d="M0,0H22.761a0,0,0,0,1,0,0V0a2.286,2.286,0,0,1-2.286,2.286H2.287A2.287,2.287,0,0,1,0,0V0A0,0,0,0,1,0,0Z" transform="translate(0 9.769)" fill="#2c2858"/>
      </g>
      <g id="Group_4291" data-name="Group 4291" transform="translate(29.708 39.647)">
        <path id="Path_7562" data-name="Path 7562" d="M2275.506,1265.03l-.832,2.192c-.755-5.043-3.568-26.149-1.98-31.977,1.49-5.473-.373-11.244-2.176-16.824-.439-1.365-.9-2.774-1.287-4.141l.548-.157.546-.156c.386,1.348.839,2.749,1.275,4.1,1.853,5.739,3.768,11.674,2.19,17.474C2272.42,1240.575,2274.519,1257.9,2275.506,1265.03Z" transform="translate(-2269.23 -1213.967)" fill="#4595b0"/>
      </g>
      <g id="Group_4296" data-name="Group 4296" transform="translate(12.368 185.568)">
        <path id="Path_7563" data-name="Path 7563" d="M2209.8,1837.476s-1.291-4.814-1.4-5.432c-.129-.7-.508-2.366-.586-3.218a6.971,6.971,0,0,0-3.926-1.562,6.867,6.867,0,0,0-4.422,1.582,50.8,50.8,0,0,1-.717,5.06c-.326,1.163-1.212,3.875-1.212,3.875Z" transform="translate(-2197.253 -1827.264)" fill="#2c2858"/>
        <g id="Group_4295" data-name="Group 4295" transform="translate(0 9.692)">
          <g id="Group_4294" data-name="Group 4294">
            <g id="Group_4293" data-name="Group 4293">
              <g id="Group_4292" data-name="Group 4292">
                <path id="Path_7564" data-name="Path 7564" d="M2208.9,1868.145c-.3.956-4.011-.147-6.718-.146-2.273,0-5.214.881-5.549.538-.568,1-.1,3.084-.1,3.084s2.369.123,5.21,0,6.124.059,7.361-.308C2209.884,1870.008,2208.9,1868.145,2208.9,1868.145Z" transform="translate(-2196.352 -1867.999)" fill="#2c2858"/>
              </g>
            </g>
          </g>
        </g>
      </g>
      <g id="Group_4297" data-name="Group 4297" transform="translate(1.835 46.68)">
        <path id="Path_7565" data-name="Path 7565" d="M2179.913,1291.883s-19.58,19.628-27.188,16.217c-2.508-3.391,2.818-10.195,7.806-12.475,4.968-2.271,13.307-5.849,13.307-5.849Z" transform="translate(-2152.084 -1278.773)" fill="#f37a50"/>
        <path id="Path_7566" data-name="Path 7566" d="M2284.507,1249.971l8.136-6.277a.8.8,0,0,1,.622-.154l5.541,1.005c.158.026.483.993.355,1.09l-5.532,3.324a.181.181,0,0,1-.091.036l-8.7,1.492C2284.656,1250.509,2284.36,1250.084,2284.507,1249.971Z" transform="translate(-2252.97 -1243.529)" fill="#f9cd2d"/>
        <path id="Path_7567" data-name="Path 7567" d="M2286.16,1253.69l7.738-5.906a.8.8,0,0,1,.622-.154l5.726.968a.183.183,0,0,1,.08.326l-5.442,4.126a.182.182,0,0,1-.09.036l-8.5.931A.183.183,0,0,1,2286.16,1253.69Z" transform="translate(-2254.205 -1246.645)" fill="#f9f93a"/>
        <path id="Path_7568" data-name="Path 7568" d="M2242.624,1265.679l4.572-2.29s2.9-3.154,3.805-4.1c1.157-.337,3.41-1.309,3.87-1.276a6.405,6.405,0,0,1,1.235.3l-2.646,2.07a3.467,3.467,0,0,0,2.591-.107c1.513-.6,4.333-2.46,5.419-1.795l.346.445s.954-.739,1.528-.226c1.774,1.582-9.668,8.4-9.668,8.4l-4.766.571Z" transform="translate(-2221.082 -1254.569)" fill="#f37a50"/>
        <path id="Path_7569" data-name="Path 7569" d="M2319.349,1250.267a.565.565,0,1,1,.275-.85A.642.642,0,0,1,2319.349,1250.267Z" transform="translate(-2278.814 -1247.862)" fill="#f9cd2d"/>
      </g>
      <path id="Path_7570" data-name="Path 7570" d="M2342.815,1338.337s-10.15,11.607-17.215,13.246c-.421-2.326-.807-4.107-.807-4.107l9.631-12.68Z" transform="translate(-2281.865 -1266.401)" fill="#de623c"/>
      <path id="c" d="M2316.133,1385.646a1,1,0,0,1,.146-.27l-.051-.014c-1-.333-1.622-1.186-1.382-1.905a1.01,1.01,0,0,1,.178-.319,1.414,1.414,0,0,1-.629-1.506,1.066,1.066,0,0,1,.372-.507,1.413,1.413,0,0,1-.652-1.582,1.657,1.657,0,0,1,3.1,1.029,1.177,1.177,0,0,1-.3.471,1.61,1.61,0,0,1,1.107,1.794,1,1,0,0,1-.178.319,1.414,1.414,0,0,1,.629,1.506,1.049,1.049,0,0,1-.336.478,1.208,1.208,0,0,1,.61,1.374,1.4,1.4,0,0,1-2.618-.869Z" transform="translate(-2273.682 -1299.825)" fill="#de623c"/>
      <g id="Group_4299" data-name="Group 4299" transform="translate(14.347 17.153)">
        <path id="Path_7571" data-name="Path 7571" d="M2210.857,1121.444c1.178,1.839.914,4.112-.591,5.076s-3.681.255-4.858-1.584-.913-4.111.592-5.076S2209.679,1119.605,2210.857,1121.444Z" transform="translate(-2204.671 -1119.43)" fill="#f37a50"/>
        <g id="Group_4298" data-name="Group 4298" transform="translate(2.405 1.827)">
          <path id="Path_7572" data-name="Path 7572" d="M2216.112,1131.279a.478.478,0,0,0,.206-.077,2.159,2.159,0,0,0,1.039-2.44,2.3,2.3,0,0,0-2.088-1.656.478.478,0,1,0-.02.955,1.363,1.363,0,0,1,1.191.968,1.221,1.221,0,0,1-.65,1.378.478.478,0,0,0,.323.872Z" transform="translate(-2214.781 -1127.107)" fill="#de623c"/>
        </g>
      </g>
    </g>
    <g id="Group_4312" data-name="Group 4312" transform="translate(193.155 394.894)">
      <rect id="Rectangle_571" data-name="Rectangle 571" width="120.582" height="38.682" rx="19.341" fill="#e3eaff"/>
      <g id="Group_4311" data-name="Group 4311" transform="translate(6.257 8.589)">
        <path id="Path_7587" data-name="Path 7587" d="M653.669,1479.048v10.883a5.31,5.31,0,0,1-5.311,5.31H627.777a5.309,5.309,0,0,1-5.308-5.31v-10.883a5.309,5.309,0,0,1,5.308-5.31h20.581a5.316,5.316,0,0,1,5.311,5.31Z" transform="translate(-622.469 -1473.738)" fill="#1fd3a4"/>
        <path id="Path_7588" data-name="Path 7588" d="M806.349,1509.174H772.2a4.427,4.427,0,0,1-4.427-4.427h0a4.427,4.427,0,0,1,4.427-4.427h34.151a4.427,4.427,0,0,1,4.427,4.427h0A4.427,4.427,0,0,1,806.349,1509.174Z" transform="translate(-733.199 -1493.995)" fill="#220b8b"/>
        <path id="Path_7589" data-name="Path 7589" d="M989.076,1509.174H971.963a4.427,4.427,0,0,1-4.427-4.427h0a4.427,4.427,0,0,1,4.427-4.427h17.113a4.427,4.427,0,0,1,4.427,4.427h0A4.427,4.427,0,0,1,989.076,1509.174Z" transform="translate(-885.435 -1493.995)" fill="#6d80c4"/>
      </g>
      <path id="Path_7590" data-name="Path 7590" d="M651.549,1474.806l-26.7,19.556a5.3,5.3,0,0,1-2.382-4.43v-10.883a5.309,5.309,0,0,1,5.308-5.31h20.581A5.276,5.276,0,0,1,651.549,1474.806Z" transform="translate(-616.212 -1465.149)" fill="#56d0f7"/>
      <circle id="Ellipse_558" data-name="Ellipse 558" cx="3.571" cy="3.571" r="3.571" transform="matrix(1, -0.029, 0.029, 1, 23.307, 20.509)" fill="#ffd046"/>
      <path id="Path_7591" data-name="Path 7591" d="M719.524,1526.959a3.571,3.571,0,1,1-3.571-3.571A3.571,3.571,0,0,1,719.524,1526.959Z" transform="translate(-684.732 -1502.986)" fill="#56d0f7"/>
    </g>
    <g id="Group_4314" data-name="Group 4314" transform="translate(193.155 441.762)">
      <path id="Rectangle_572" data-name="Rectangle 572" d="M19.341,0h81.9a19.341,19.341,0,0,1,19.341,19.341v0a19.341,19.341,0,0,1-19.341,19.341h-81.9A19.341,19.341,0,0,1,0,19.341v0A19.341,19.341,0,0,1,19.341,0Z" fill="#e3eaff"/>
      <g id="Group_4313" data-name="Group 4313" transform="translate(6.257 8.589)">
        <path id="Path_7592" data-name="Path 7592" d="M653.669,1676.032v10.883a5.31,5.31,0,0,1-5.311,5.31H627.777a5.31,5.31,0,0,1-5.308-5.31v-10.883a5.309,5.309,0,0,1,5.308-5.311h20.581a5.317,5.317,0,0,1,5.311,5.311Z" transform="translate(-622.469 -1670.721)" fill="#faba23"/>
        <path id="Path_7593" data-name="Path 7593" d="M806.349,1706.159H772.2a4.427,4.427,0,0,1-4.427-4.427h0a4.427,4.427,0,0,1,4.427-4.427h34.151a4.427,4.427,0,0,1,4.427,4.427h0A4.427,4.427,0,0,1,806.349,1706.159Z" transform="translate(-733.199 -1690.98)" fill="#220b8b"/>
        <path id="Path_7594" data-name="Path 7594" d="M989.076,1706.159H971.963a4.427,4.427,0,0,1-4.427-4.427h0a4.427,4.427,0,0,1,4.427-4.427h17.113a4.427,4.427,0,0,1,4.427,4.427h0A4.427,4.427,0,0,1,989.076,1706.159Z" transform="translate(-885.435 -1690.98)" fill="#6d80c4"/>
      </g>
      <path id="Path_7595" data-name="Path 7595" d="M651.549,1671.789l-26.7,19.555a5.3,5.3,0,0,1-2.382-4.43v-10.883a5.309,5.309,0,0,1,5.308-5.311h20.581A5.274,5.274,0,0,1,651.549,1671.789Z" transform="translate(-616.212 -1662.132)" fill="#fad332"/>
      <path id="Path_7596" data-name="Path 7596" d="M701.7,1723.943a3.571,3.571,0,1,1-3.571-3.571A3.571,3.571,0,0,1,701.7,1723.943Z" transform="translate(-671.15 -1699.97)" fill="#1fd3a4"/>
      <path id="Path_7597" data-name="Path 7597" d="M719.524,1723.943a3.571,3.571,0,1,1-3.571-3.571A3.571,3.571,0,0,1,719.524,1723.943Z" transform="translate(-684.732 -1699.97)" fill="#56d0f7"/>
    </g>
  </g>
</svg>
