<svg xmlns="http://www.w3.org/2000/svg" xmlns:xlink="http://www.w3.org/1999/xlink" width="604" height="539" viewBox="0 0 604 539">
  <defs>
    <clipPath id="clip-path">
      <rect id="Rectangle_1954" data-name="Rectangle 1954" width="300.708" height="191.184" fill="none"/>
    </clipPath>
    <linearGradient id="linear-gradient" x1="0.5" y1="3.506" x2="0.5" y2="-6.742" gradientUnits="objectBoundingBox">
      <stop offset="0" stop-color="#e9a249"/>
      <stop offset="1" stop-color="#f1d13d"/>
    </linearGradient>
    <linearGradient id="linear-gradient-2" x1="0.5" y1="5.214" x2="0.5" y2="-1.669" xlink:href="#linear-gradient"/>
    <linearGradient id="linear-gradient-3" x1="0.5" y1="5.214" x2="0.5" y2="-1.669" xlink:href="#linear-gradient"/>
    <linearGradient id="linear-gradient-4" x1="0.5" y1="5.214" x2="0.5" y2="-1.669" xlink:href="#linear-gradient"/>
    <clipPath id="clip-path-2">
      <rect id="Rectangle_1983" data-name="Rectangle 1983" width="519" height="519" transform="translate(-0.214 0)" fill="none"/>
    </clipPath>
    <radialGradient id="radial-gradient" cx="0.5" cy="0.5" r="0.5" gradientUnits="objectBoundingBox">
      <stop offset="0"/>
      <stop offset="1" stop-color="#fff"/>
    </radialGradient>
  </defs>
  <g id="Group_5041" data-name="Group 5041" transform="translate(-1148.214 -249)">
    <ellipse id="Ellipse_591" data-name="Ellipse 591" cx="302" cy="64" rx="302" ry="64" transform="translate(1148.214 660)" fill="rgba(0,20,85,0.82)"/>
    <g id="BACKGROUND" transform="translate(1213.428 249)">
      <g id="Group_4990" data-name="Group 4990" transform="translate(37.488 314.63)">
        <path id="Path_8051" data-name="Path 8051" d="M159.49,458.444H53.271A17.174,17.174,0,0,1,36.1,441.271h0A17.174,17.174,0,0,1,53.271,424.1H159.49a17.174,17.174,0,0,1,17.173,17.174h0A17.173,17.173,0,0,1,159.49,458.444Z" transform="translate(-36.097 -298.287)" fill="#c6dff4"/>
        <rect id="Rectangle_1948" data-name="Rectangle 1948" width="140.566" height="34.348" rx="16.537" transform="translate(0 83.874)" fill="#c6dff4"/>
        <path id="Path_8052" data-name="Path 8052" d="M159.49,377.683H53.271A17.174,17.174,0,0,1,36.1,360.509h0a17.174,17.174,0,0,1,17.174-17.173H159.49a17.173,17.173,0,0,1,17.173,17.173h0A17.174,17.174,0,0,1,159.49,377.683Z" transform="translate(-36.097 -301.399)" fill="#c6dff4"/>
        <path id="Path_8053" data-name="Path 8053" d="M159.49,337.3H53.271A17.174,17.174,0,0,1,36.1,320.129h0a17.174,17.174,0,0,1,17.174-17.174H159.49a17.174,17.174,0,0,1,17.173,17.174h0A17.173,17.173,0,0,1,159.49,337.3Z" transform="translate(-36.097 -302.955)" fill="#c6dff4"/>
      </g>
      <g id="Group_4991" data-name="Group 4991" transform="translate(343.309 314.63)">
        <path id="Path_8054" data-name="Path 8054" d="M453.963,458.444H347.743a17.173,17.173,0,0,1-17.173-17.173h0A17.174,17.174,0,0,1,347.743,424.1H453.963a17.174,17.174,0,0,1,17.173,17.174h0A17.173,17.173,0,0,1,453.963,458.444Z" transform="translate(-330.57 -298.287)" fill="#c6dff4"/>
        <path id="Rectangle_1949" data-name="Rectangle 1949" d="M16.537,0H124.03a16.536,16.536,0,0,1,16.536,16.536v1.275A16.537,16.537,0,0,1,124.03,34.348H16.537A16.537,16.537,0,0,1,0,17.811V16.537A16.537,16.537,0,0,1,16.537,0Z" transform="translate(0 83.874)" fill="#c6dff4"/>
        <path id="Path_8055" data-name="Path 8055" d="M453.963,377.683H347.743a17.174,17.174,0,0,1-17.173-17.174h0a17.173,17.173,0,0,1,17.173-17.173H453.963a17.173,17.173,0,0,1,17.173,17.173h0A17.174,17.174,0,0,1,453.963,377.683Z" transform="translate(-330.57 -301.399)" fill="#c6dff4"/>
        <path id="Path_8056" data-name="Path 8056" d="M453.963,337.3H347.743a17.173,17.173,0,0,1-17.173-17.173h0a17.174,17.174,0,0,1,17.173-17.174H453.963a17.174,17.174,0,0,1,17.173,17.174h0A17.173,17.173,0,0,1,453.963,337.3Z" transform="translate(-330.57 -302.955)" fill="#c6dff4"/>
      </g>
      <g id="Group_4993" data-name="Group 4993" transform="translate(381.937 340.157)">
        <path id="Path_8057" data-name="Path 8057" d="M424.41,432.5s14.946-8.954,25.906-21.178,32.632-32.367,44.339-37.27c3.986,10.953,9.714,23.82-2.989,37.27s-19.181,10.184-25.906,22.657-14.012,20.3-24.723,25.792H401.243Z" transform="translate(-366.475 -325.742)" fill="#5f9b99"/>
        <path id="Path_8058" data-name="Path 8058" d="M481.906,387.016c-2.242,5-3.328,13.592-7.473,17.211-11.023,9.621-30.363,12.712-36.452,17.47h0A103.344,103.344,0,0,0,448.9,411.325c10.96-12.225,32.632-32.367,44.339-37.27C489.125,376.153,484.147,382.013,481.906,387.016Z" transform="translate(-365.059 -325.742)" fill="#3d706f"/>
        <path id="Path_8059" data-name="Path 8059" d="M490.382,380.608c-4.67,4.974-8.781,21.072-17,30.464s-10.836,11.135-20.551,17.32-26.716,20.4-31.2,31.129" transform="translate(-365.689 -325.49)" fill="none" stroke="#263631" stroke-width="0.671"/>
        <path id="Path_8060" data-name="Path 8060" d="M419.97,327.535a87.178,87.178,0,0,0-6.352,24.615c-1.559,13.556.747,16.3-2.242,31.675s-5.73,19.772-8.843,37.71-5.356,40.03-5.356,40.03H367.765s2.261-5.92,2.572-20.506-2.013-33.463,3.073-51.614S391.572,337.366,419.97,327.535Z" transform="translate(-367.765 -327.535)" fill="#5f9b99"/>
        <path id="Path_8061" data-name="Path 8061" d="M409.87,336.695s-15.692,15.089-19.056,37.512-.373,64.386-3.363,75.7" transform="translate(-367.006 -327.182)" fill="none" stroke="#263631" stroke-width="0.671"/>
        <g id="Group_4992" data-name="Group 4992" transform="translate(12.598 5.098)">
          <path id="Path_8062" data-name="Path 8062" d="M483.023,332.444s-13.95,4.627-23.166,5.684-20.427,2.113-26.156,7.61-5.73,18.815-13.451,23.043-21.174,17.615-25.658,28.362-7.223,31.466-7.472,39.71-4.982,20.718-7.224,24.523h28.9s20.924-17.758,26.4-31.711,3.986-28.963,9.714-37.208,15.9-19.3,23.913-29.187C479.784,349.754,483.023,332.444,483.023,332.444Z" transform="translate(-379.896 -332.444)" fill="#3d706f"/>
          <path id="Path_8063" data-name="Path 8063" d="M442.611,392.459a22.921,22.921,0,0,0-3.042,6.923l-.009.005c2.055-18.978,5.792-30,12.767-36.114s26.156-21.925,28.4-30.829c0,0-3.238,17.31-14.2,30.829C458.508,373.16,448.341,384.214,442.611,392.459Z" transform="translate(-377.597 -332.444)" fill="#5f9b99"/>
          <path id="Path_8064" data-name="Path 8064" d="M473.141,338.934c-9.466,7.4-20.924,12.219-28.9,20.7s-18.6,25.856-25.159,37.889c-11.9,21.856-20.675,53.46-28.4,63.607" transform="translate(-379.48 -332.194)" fill="none" stroke="#263631" stroke-width="0.671"/>
        </g>
      </g>
      <line id="Line_5" data-name="Line 5" x1="469.711" transform="translate(24.779 475.475)" fill="none" stroke="#5a89c6" stroke-linecap="round" stroke-width="5"/>
      <g id="Group_5015" data-name="Group 5015" transform="translate(62.962 214.125)">
        <g id="Group_4994" data-name="Group 4994" transform="translate(0 33.812)">
          <rect id="Rectangle_1950" data-name="Rectangle 1950" width="393.343" height="6.109" transform="translate(0 212.415)" fill="#bcc4c9"/>
          <rect id="Rectangle_1951" data-name="Rectangle 1951" width="54.513" height="6.579" rx="2.391" transform="translate(168.711 210.065)" style="mix-blend-mode: soft-light;isolation: isolate"/>
          <path id="Path_8065" data-name="Path 8065" d="M97.279,244.7a5.96,5.96,0,0,1,5.96-5.96H408.531a5.96,5.96,0,0,1,5.96,5.96V451.153H97.279Z" transform="translate(-59.214 -238.737)" fill="#282b38"/>
          <rect id="Rectangle_1952" data-name="Rectangle 1952" width="300.708" height="191.184" transform="translate(46.553 9.952)" fill="#c3d3f4"/>
          <path id="Path_8066" data-name="Path 8066" d="M91.481,455.262c-11.776,0-24.731-1.956-30.855-6.109H257.533v6.109C206.5,455.017,102.552,455.262,91.481,455.262Z" transform="translate(-60.626 -230.628)" fill="#dfe6ea"/>
          <path id="Path_8067" data-name="Path 8067" d="M415.826,455.262c11.777,0,24.732-1.956,30.855-6.109H249.773v6.109C300.806,455.017,404.756,455.262,415.826,455.262Z" transform="translate(-53.337 -230.628)" fill="#dfe6ea"/>
        </g>
        <path id="Rectangle_1953" data-name="Rectangle 1953" d="M99.256,0H201.451a99.256,99.256,0,0,1,99.256,99.256v3.825a0,0,0,0,1,0,0H0a0,0,0,0,1,0,0V99.256A99.256,99.256,0,0,1,99.256,0Z" transform="translate(46.553 131.867)" fill="#fff"/>
        <g id="Group_5005" data-name="Group 5005" transform="translate(61.639)">
          <g id="Group_4996" data-name="Group 4996" transform="translate(190.734 30.106)">
            <path id="Path_8068" data-name="Path 8068" d="M330.28,264.775a75.583,75.583,0,0,0-6.727-14.307l-5.318-15.043-9.747,3.446c-6.2,2.192-6.5,17.346-.667,33.845s15.589,28.1,21.792,25.9l9.747-3.445-5.319-15.044A75.558,75.558,0,0,0,330.28,264.775Z" transform="translate(-303.634 -235.159)" fill="#ffd046"/>
            <g id="Group_4995" data-name="Group 4995" transform="translate(1.48 13.323)">
              <path id="Path_8069" data-name="Path 8069" d="M331.364,273.184c.427,1.933.76,3.836,1,5.664l.017.141,4.206,11.9-11.942,4.222c-3.657-2.077-8.161-7.44-12.079-15.275Z" transform="translate(-304.77 -247.026)" fill="#dc9530" opacity="0.3" style="mix-blend-mode: multiply;isolation: isolate"/>
              <path id="Path_8070" data-name="Path 8070" d="M328.852,264.257c.586,1.656,1.114,3.324,1.582,4.985l-19.6,6.929c-.663-1.548-1.3-3.178-1.9-4.873q-.681-1.925-1.24-3.79l19.734-6.978C327.933,261.75,328.408,263,328.852,264.257Z" transform="translate(-304.957 -247.514)" fill="#dc9530" opacity="0.3" style="mix-blend-mode: multiply;isolation: isolate"/>
              <path id="Path_8071" data-name="Path 8071" d="M326.132,257.661l-19.276,6.815c-.432-1.677-.778-3.3-1.059-4.869l18.1-6.4C324.677,254.625,325.422,256.115,326.132,257.661Z" transform="translate(-305.031 -247.796)" fill="#dc9530" opacity="0.3" style="mix-blend-mode: multiply;isolation: isolate"/>
              <path id="Path_8072" data-name="Path 8072" d="M321.366,248l.9,2.542-16.937,5.988c-.116-.95-.206-1.878-.268-2.766Z" transform="translate(-305.059 -247.997)" fill="#dc9530" opacity="0.3" style="mix-blend-mode: multiply;isolation: isolate"/>
            </g>
            <path id="Path_8073" data-name="Path 8073" d="M339.665,261.339c5.833,16.5,5.535,31.652-.667,33.846s-15.959-9.406-21.793-25.905-5.534-31.653.668-33.845S333.831,244.84,339.665,261.339Z" transform="translate(-303.272 -235.169)" fill="#ffd046"/>
            <path id="Path_8074" data-name="Path 8074" d="M335.732,262.289c3.889,11,3.69,21.1-.446,22.564a3.484,3.484,0,0,1-2.095.034c-4.012-1.07-9.154-8.024-12.435-17.3s-3.652-17.921-1.2-21.274a3.484,3.484,0,0,1,1.651-1.289C325.34,243.558,331.843,251.289,335.732,262.289Z" transform="translate(-303.082 -234.796)" fill="#f3c437"/>
            <path id="Path_8075" data-name="Path 8075" d="M335.673,262.289c3.889,11,3.69,21.1-.446,22.564a3.484,3.484,0,0,1-2.095.034c2.447-3.353,2.076-11.994-1.206-21.274s-8.424-16.233-12.434-17.3a3.484,3.484,0,0,1,1.651-1.289C325.281,243.558,331.784,251.289,335.673,262.289Z" transform="translate(-303.023 -234.796)" fill="#dc9530"/>
            <path id="Path_8076" data-name="Path 8076" d="M330.575,264.621a3.958,3.958,0,0,0-1.707-1.32,4.2,4.2,0,0,0,.289-1.9,8.631,8.631,0,0,0-.49-2.342,6.48,6.48,0,0,0-2-3.1,2.908,2.908,0,0,0-2.891-.427l-1.188-3.435-2.224.769,1.188,3.435-2.14.741,6.167,17.838,2.14-.739,1.183,3.421,2.224-.769-1.183-3.421.222-.077a3.086,3.086,0,0,0,2.117-2.173,6.734,6.734,0,0,0-.371-3.937A8.651,8.651,0,0,0,330.575,264.621Zm-4.38-3.735q.458,1.326-.438,1.635l-1.281.442-.916-2.649,1.281-.443Q325.737,259.56,326.2,260.886Zm2.277,8.284-1.652.572-.969-2.8,1.652-.572q.908-.313,1.393,1.088T328.473,269.17Z" transform="translate(-303.026 -234.516)" fill="#ffdeae"/>
          </g>
          <g id="Group_4998" data-name="Group 4998" transform="translate(0 88.131)">
            <path id="Path_8077" data-name="Path 8077" d="M133.731,320.647a75.6,75.6,0,0,1,6.727-14.308l5.318-15.043,9.747,3.446c6.2,2.193,6.5,17.346.668,33.845s-15.59,28.1-21.792,25.905l-9.747-3.446L129.97,336A75.6,75.6,0,0,1,133.731,320.647Z" transform="translate(-119.797 -291.03)" fill="#d6ad33"/>
            <g id="Group_4997" data-name="Group 4997" transform="translate(7.287 13.323)">
              <path id="Path_8078" data-name="Path 8078" d="M132.213,329.056c-.426,1.932-.76,3.835-1,5.663l-.017.142-4.205,11.9,11.941,4.222c3.657-2.078,8.161-7.441,12.08-15.276Z" transform="translate(-126.994 -302.897)" fill="#dc9530" opacity="0.3" style="mix-blend-mode: multiply;isolation: isolate"/>
              <path id="Path_8079" data-name="Path 8079" d="M134.677,320.128c-.586,1.658-1.113,3.325-1.582,4.986l19.6,6.929c.663-1.549,1.3-3.178,1.9-4.873q.681-1.927,1.24-3.791L136.1,316.4C135.6,317.622,135.122,318.871,134.677,320.128Z" transform="translate(-126.759 -303.385)" fill="#dc9530" opacity="0.3" style="mix-blend-mode: multiply;isolation: isolate"/>
              <path id="Path_8080" data-name="Path 8080" d="M137.308,313.533l19.277,6.815c.431-1.678.778-3.306,1.059-4.87l-18.1-6.4C138.764,310.5,138.017,311.986,137.308,313.533Z" transform="translate(-126.597 -303.667)" fill="#dc9530" opacity="0.3" style="mix-blend-mode: multiply;isolation: isolate"/>
              <path id="Path_8081" data-name="Path 8081" d="M141.958,303.868l-.9,2.542L158,312.4c.117-.95.207-1.877.268-2.766Z" transform="translate(-126.452 -303.868)" fill="#dc9530" opacity="0.3" style="mix-blend-mode: multiply;isolation: isolate"/>
            </g>
            <path id="Path_8082" data-name="Path 8082" d="M124.164,317.211c-5.833,16.5-5.534,31.652.668,33.845s15.958-9.4,21.792-25.905,5.534-31.652-.668-33.845S130,300.711,124.164,317.211Z" transform="translate(-119.978 -291.04)" fill="#ffd046"/>
            <path id="Path_8083" data-name="Path 8083" d="M127.716,318.161c-3.889,11-3.69,21.1.447,22.563a3.491,3.491,0,0,0,2.095.035c4.011-1.071,9.154-8.024,12.434-17.3s3.653-17.921,1.2-21.275a3.479,3.479,0,0,0-1.651-1.289C138.109,299.429,131.6,307.16,127.716,318.161Z" transform="translate(-119.787 -290.667)" fill="#f3c437"/>
            <path id="Path_8084" data-name="Path 8084" d="M127.716,318.161c-3.889,11-3.69,21.1.447,22.563a3.491,3.491,0,0,0,2.095.035c-2.447-3.353-2.076-11.994,1.2-21.274s8.424-16.234,12.434-17.305a3.479,3.479,0,0,0-1.651-1.289C138.109,299.429,131.6,307.16,127.716,318.161Z" transform="translate(-119.787 -290.667)" fill="#dc9530"/>
            <path id="Path_8085" data-name="Path 8085" d="M141.04,323.417a3.945,3.945,0,0,0-.528-2.094,4.176,4.176,0,0,0,1.4-1.314,8.634,8.634,0,0,0,1.06-2.144,6.482,6.482,0,0,0,.34-3.677,2.909,2.909,0,0,0-2.011-2.121l1.187-3.436-2.224-.769-1.188,3.435-2.139-.739L130.77,328.4l2.14.74-1.183,3.421,2.223.768,1.183-3.421.222.077a3.083,3.083,0,0,0,3.006-.4,6.734,6.734,0,0,0,2.14-3.325A8.644,8.644,0,0,0,141.04,323.417Zm-1.137-5.642q-.458,1.326-1.354,1.016l-1.281-.443.916-2.65,1.281.443Q140.36,316.45,139.9,317.775Zm-3.325,7.923-1.653-.571.969-2.8,1.653.571q.908.315.423,1.716T136.577,325.7Z" transform="translate(-119.562 -290.391)" fill="#ffdeae"/>
          </g>
          <g id="Group_5001" data-name="Group 5001" transform="translate(211.495 126.879)">
            <path id="Path_8086" data-name="Path 8086" d="M375.146,359.061c.409-14.01-7.839-25.973-19.249-29.257l.022-.722-5.666-.166c-14.223-.416-26.138,12.405-26.612,28.638s10.67,29.728,24.894,30.145l5.665.165.021-.722C365.8,384.531,374.735,373.07,375.146,359.061Z" transform="translate(-323.625 -328.329)" fill="#dc9530"/>
            <g id="Group_4999" data-name="Group 4999" transform="translate(1.138 19.873)">
              <path id="Path_8087" data-name="Path 8087" d="M358.7,381.8l.008-.27c-.159.088-.321.171-.481.257Z" transform="translate(-323.43 -346.174)" fill="#fff" stroke="#262425" stroke-width="0.728"/>
              <path id="Path_8088" data-name="Path 8088" d="M326.42,367.485a26.954,26.954,0,0,0,11.207,14.2l21.828.639c.16-.085.322-.168.481-.257l.4-13.589Z" transform="translate(-324.656 -346.715)" fill="#dc9530" opacity="0.3" style="mix-blend-mode: multiply;isolation: isolate"/>
              <path id="Path_8089" data-name="Path 8089" d="M355.27,358.556l-30.549-.893a31.518,31.518,0,0,0,1.208,8.478l29.094.851Z" transform="translate(-324.721 -347.094)" fill="#dc9530" opacity="0.3" style="mix-blend-mode: multiply;isolation: isolate"/>
              <path id="Path_8090" data-name="Path 8090" d="M354.079,352.432,325.3,351.59a32.119,32.119,0,0,0-.548,4.729l29.193.854Z" transform="translate(-324.72 -347.328)" fill="#dc9530" opacity="0.3" style="mix-blend-mode: multiply;isolation: isolate"/>
              <path id="Path_8091" data-name="Path 8091" d="M354.169,348.3l-27.777-.813c-.265.769-.5,1.553-.71,2.352l28.418.831Z" transform="translate(-324.684 -347.486)" fill="#dc9530" opacity="0.3" style="mix-blend-mode: multiply;isolation: isolate"/>
            </g>
            <g id="Group_5000" data-name="Group 5000" transform="translate(4.821)">
              <ellipse id="Ellipse_581" data-name="Ellipse 581" cx="29.403" cy="25.764" rx="29.403" ry="25.764" transform="translate(0 58.782) rotate(-88.325)" fill="#ffd046"/>
              <path id="Path_8092" data-name="Path 8092" d="M379.22,358.991c-.452,15.43-11.816,27.658-25.335,27.263-9.238-.27-17.131-6.365-21.056-15.126a22.042,22.042,0,0,0,11.713,3.811c13.519.4,24.883-11.833,25.335-27.263a30.92,30.92,0,0,0-2.643-13.571C374.664,339.1,379.529,348.448,379.22,358.991Z" transform="translate(-328.091 -328.129)" fill="#dc9530" opacity="0.3" style="mix-blend-mode: multiply;isolation: isolate"/>
              <path id="Path_8093" data-name="Path 8093" d="M373.45,358.726C373.1,370.614,364.377,380,353.961,379.7a16.519,16.519,0,0,1-2.225-.216c-9.325-1.53-16.328-10.832-16-21.859s7.857-19.9,17.255-20.887a16.767,16.767,0,0,1,2.234-.085C365.637,336.956,373.8,346.838,373.45,358.726Z" transform="translate(-327.98 -328.031)" fill="#dc9530"/>
              <path id="Path_8094" data-name="Path 8094" d="M368.987,358.593c-.323,11.027-7.848,19.9-17.251,20.886a16.86,16.86,0,0,1-5.032-1.672,19.926,19.926,0,0,1-8.552-8.915,23.72,23.72,0,0,1-2.421-11.272c.322-11.027,7.857-19.9,17.255-20.887C362.316,338.267,369.31,347.565,368.987,358.593Z" transform="translate(-327.98 -328.027)" fill="#f3c437"/>
              <path id="Path_8095" data-name="Path 8095" d="M359.773,359.725a4.858,4.858,0,0,0-1.992-2.068,4.526,4.526,0,0,0,1.584-1.864,6.486,6.486,0,0,0,.583-2.642,5.405,5.405,0,0,0-1.425-4.046,6.108,6.108,0,0,0-4.437-1.611l.095-4.066-4.058-.094-.094,4.065-3.9-.09-.491,21.109,3.9.091-.093,4.048,4.057.095.095-4.048.4.009a6.561,6.561,0,0,0,4.707-1.414,5.625,5.625,0,0,0,1.715-4.26A6.6,6.6,0,0,0,359.773,359.725Zm-4.9-5.666q-.036,1.569-1.671,1.531l-2.336-.055.073-3.136,2.336.055Q354.906,352.491,354.869,354.059Zm-1.179,9.568-3.015-.07.077-3.318,3.016.071a1.659,1.659,0,0,1-.078,3.317Z" transform="translate(-327.598 -327.773)" fill="#ffdeae"/>
              <path id="Path_8096" data-name="Path 8096" d="M367.661,358.416c-.325,11.088-8.5,19.881-18.212,19.6a15.4,15.4,0,0,1-2.835-.347,19.926,19.926,0,0,1-8.552-8.915,15.479,15.479,0,0,0,4.369.758c9.717.285,17.884-8.509,18.208-19.6a22.271,22.271,0,0,0-1.8-9.517C364.294,343.948,367.886,350.741,367.661,358.416Z" transform="translate(-327.89 -327.886)" fill="#dc9530" opacity="0.3" style="mix-blend-mode: multiply;isolation: isolate"/>
            </g>
          </g>
          <g id="Group_5004" data-name="Group 5004" transform="translate(74.408)">
            <path id="Path_8097" data-name="Path 8097" d="M239.008,224.557c-12.34-6.647-26.731-4.636-34.781,4.091l-.637-.343L200.9,233.3c-6.747,12.528-.628,28.926,13.669,36.627s31.357,3.789,38.1-8.739l2.688-4.99-.637-.343C257.586,244.327,251.347,231.2,239.008,224.557Z" transform="translate(-191.373 -205.623)" fill="#e4bb43"/>
            <g id="Group_5002" data-name="Group 5002" transform="translate(16.109 33.11)">
              <path id="Path_8098" data-name="Path 8098" d="M252.293,248.111l-.239-.129c.008.182.01.363.015.545Z" transform="translate(-205.405 -237.679)" fill="#fff" stroke="#262425" stroke-width="0.728"/>
              <path id="Path_8099" data-name="Path 8099" d="M225.037,271.643a26.951,26.951,0,0,0,17.717-3.651l10.355-19.225c0-.182-.006-.363-.015-.545l-11.969-6.447Z" transform="translate(-206.446 -237.918)" fill="#dc9530" opacity="0.3" style="mix-blend-mode: multiply;isolation: isolate"/>
              <path id="Path_8100" data-name="Path 8100" d="M229.988,241.743l-14.493,26.906a31.479,31.479,0,0,0,8.12,2.721l13.8-25.626Z" transform="translate(-206.814 -237.919)" fill="#dc9530" opacity="0.3" style="mix-blend-mode: multiply;isolation: isolate"/>
              <path id="Path_8101" data-name="Path 8101" d="M223.972,240.021l-13.656,25.353a32.137,32.137,0,0,0,3.982,2.61l13.85-25.713Z" transform="translate(-207.013 -237.985)" fill="#dc9530" opacity="0.3" style="mix-blend-mode: multiply;isolation: isolate"/>
              <path id="Path_8102" data-name="Path 8102" d="M220.314,238.061l-13.178,24.466q.852.872,1.784,1.69L222.4,239.186Z" transform="translate(-207.136 -238.061)" fill="#dc9530" opacity="0.3" style="mix-blend-mode: multiply;isolation: isolate"/>
            </g>
            <g id="Group_5003" data-name="Group 5003">
              <ellipse id="Ellipse_582" data-name="Ellipse 582" cx="25.764" cy="29.403" rx="25.764" ry="29.403" transform="translate(0 45.366) rotate(-61.692)" fill="#ffd046"/>
              <path id="Path_8103" data-name="Path 8103" d="M240.542,220.794c13.589,7.32,19.427,22.961,13.013,34.868-4.383,8.137-13.369,12.459-22.96,12.041a22.048,22.048,0,0,0,8.657-8.76c6.413-11.908.576-27.549-13.014-34.869a30.912,30.912,0,0,0-13.315-3.721C220.714,215.948,231.255,215.791,240.542,220.794Z" transform="translate(-190.804 -205.761)" fill="#dc9530" opacity="0.3" style="mix-blend-mode: multiply;isolation: isolate"/>
              <path id="Path_8104" data-name="Path 8104" d="M238.04,225.56c10.471,5.64,14.952,17.648,10.01,26.823a16.69,16.69,0,0,1-1.19,1.891c-5.548,7.65-17,9.739-26.715,4.508S205.874,242.836,209.21,234a16.494,16.494,0,0,1,.925-2.034C215.077,222.786,227.569,219.921,238.04,225.56Z" transform="translate(-190.989 -205.544)" fill="#dc9530"/>
              <path id="Path_8105" data-name="Path 8105" d="M235.923,229.345c9.712,5.232,14.271,15.936,10.937,24.784a16.876,16.876,0,0,1-3.75,3.749,19.936,19.936,0,0,1-11.8,3.648,23.744,23.744,0,0,1-11.162-2.889c-9.712-5.232-14.271-15.947-10.935-24.788C214.763,226.2,226.21,224.113,235.923,229.345Z" transform="translate(-190.989 -205.398)" fill="#f3c437"/>
              <path id="Path_8106" data-name="Path 8106" d="M233.681,237.256a5.484,5.484,0,0,0-3.043.9,4.8,4.8,0,0,0-.476-2.6,5.372,5.372,0,0,0-1.791-2,4.816,4.816,0,0,0-4.3-.729,8.524,8.524,0,0,0-4.306,3.62l-3.293-2.275-2.8,4.05,3.292,2.275-2.693,3.9,17.1,11.815,2.694-3.9,3.279,2.266,2.8-4.05-3.279-2.266.279-.4a9.194,9.194,0,0,0,1.99-5.517,5.017,5.017,0,0,0-2.367-4.016A5.524,5.524,0,0,0,233.681,237.256Zm-7.966,1.919q1.27.877.141,2.51l-1.611,2.332-2.54-1.755,1.612-2.333Q224.446,238.3,225.716,239.176Zm7.108,6.321-2.08,3.011-2.687-1.857,2.08-3.01q1.142-1.654,2.485-.726T232.823,245.5Z" transform="translate(-190.775 -205.161)" fill="#ffdeae"/>
              <path id="Path_8107" data-name="Path 8107" d="M235.071,230.387c9.766,5.26,13.963,16.506,9.354,25.064a15.39,15.39,0,0,1-1.581,2.379,19.936,19.936,0,0,1-11.8,3.648,15.527,15.527,0,0,0,2.637-3.566c4.61-8.558.41-19.8-9.356-25.061a22.288,22.288,0,0,0-9.313-2.661C220.63,226.911,228.312,226.746,235.071,230.387Z" transform="translate(-190.724 -205.35)" fill="#dc9530" opacity="0.3" style="mix-blend-mode: multiply;isolation: isolate"/>
            </g>
          </g>
        </g>
        <g id="Group_5014" data-name="Group 5014" transform="translate(46.553 43.764)">
          <g id="Group_5013" data-name="Group 5013" clip-path="url(#clip-path)">
            <g id="Group_5012" data-name="Group 5012" transform="translate(85.132 44.389)">
              <g id="Group_5010" data-name="Group 5010">
                <path id="Path_8108" data-name="Path 8108" d="M307.561,439.336S246.312,469.6,229.952,471.96c-.4.054-.774.1-1.118.124a13.765,13.765,0,0,1-9.906-3.579,16.218,16.218,0,0,1-4.45-1.422c-4.424-2.2-6.2-6.123-7.3-10.542-1.822-7.3-16.074-69.716-18.6-86.294-1.263-8.284-1.479-13.375-.693-16.7s2.586-4.866,5.334-6.057c5.5-2.381,29.651-11.819,60.326-21.588s40.325-3.746,40.325-3.746l0,.021h.01l3.142,26.885Z" transform="translate(-187.425 -289.934)" fill="#aa2236"/>
                <path id="Path_8109" data-name="Path 8109" d="M270.8,330.609c-.513.208-1.038.425-1.57.629-1.833.737-3.777,1.5-5.811,2.29-.659.26-1.329.518-2.011.784-2.214.848-4.507,1.737-6.868,2.638-.816.309-1.645.628-2.474.946-1.814.686-3.641,1.382-5.488,2.074-4.592,1.735-9.24,3.482-13.7,5.164-.206.085-.42.159-.634.232l0,.01h-.01c-2.686,1.008-5.294,2-7.8,2.939-.535.215-1.067.409-1.589.6l-.885.342c-.931.355-1.85.7-2.734,1.044-8.849,3.373-15.343,5.94-16.546,6.744-4.52,3.037-4.522,9.32-3.173,19.645s17.307,85.965,18.79,89.44a4.83,4.83,0,0,1,.452,2.226,15.884,15.884,0,0,1-4.45-1.422c-4.306-13.583-16.184-68.069-18.879-83.491-3.108-17.694-4.5-26.884-2.584-28.738.694-.681,9.916-4.326,21.872-8.8.453-.164.907-.339,1.371-.511.986-.369,1.983-.735,2.99-1.11.477-.182.964-.361,1.451-.541,2.207-.807,4.47-1.637,6.756-2.474.362-.135.736-.269,1.109-.4,2.5-.921,5.022-1.828,7.531-2.726,1.628-.588,3.255-1.165,4.849-1.737,3.322-1.186,6.572-2.32,9.628-3.377l1.807-.636c1.285-.438,2.525-.863,3.718-1.263.575-.2,1.128-.389,1.678-.569,2.061-.691,3.964-1.331,5.683-1.884.527-.163,1.023-.331,1.5-.48,2.156-.686,3.956-1.215,5.28-1.563.38-.111.724-.2,1.023-.266.133-.033.277-.063.41-.1,10.7-2.474,13.078-2.24,13.078-2.24C285.074,324.609,279.383,327.163,270.8,330.609Z" transform="translate(-187.25 -289.791)" fill="#4a6c8f" opacity="0.3" style="mix-blend-mode: multiply;isolation: isolate"/>
                <g id="Group_5008" data-name="Group 5008" transform="translate(19.94)">
                  <path id="Path_8110" data-name="Path 8110" d="M264.386,328.553c-.048.3-.1.615-.164.913a36.007,36.007,0,0,1-1.369,5.333c-.659.26-1.329.518-2.011.784-2.214.848-4.507,1.737-6.868,2.638-.816.309-1.645.628-2.474.946-1.814.686-3.641,1.382-5.488,2.074-4.592,1.735-9.24,3.482-13.7,5.164-.206.085-.42.159-.634.232l0,.01h-.01c-2.686,1.008-5.294,2-7.8,2.939-.535.215-1.067.409-1.589.6l-.885.342c-.931.355-1.85.7-2.734,1.044a28.477,28.477,0,0,1-4.518-4.4c-5.822-7.035-8.709-17.078-7.062-27.595,2.827-18.056,17.948-30.688,33.775-28.21l6.3.986-.125.8A28.591,28.591,0,0,1,260.706,306,35.725,35.725,0,0,1,264.386,328.553Z" transform="translate(-206.625 -291.061)" fill="#dc9530"/>
                  <g id="Group_5006" data-name="Group 5006" transform="translate(1.284 18.482)">
                    <path id="Path_8111" data-name="Path 8111" d="M246.343,337.1l-.406,2.592c-4.592,1.735-9.24,3.482-13.7,5.164-.206.085-.42.159-.634.232l0,.01h-.01c-2.686,1.008-5.294,2-7.8,2.939-.535.215-1.067.409-1.589.6l-.885.342-2.2-.344a27.768,27.768,0,0,1-3.684-3.522,31.546,31.546,0,0,1-6.824-13.924Z" transform="translate(-207.833 -307.996)" fill="#dc9530" opacity="0.3" style="mix-blend-mode: multiply;isolation: isolate"/>
                    <path id="Path_8112" data-name="Path 8112" d="M242.107,325.308l-33.987-5.321a35.486,35.486,0,0,0,.15,9.638l32.368,5.068Z" transform="translate(-207.862 -308.428)" fill="#dc9530" opacity="0.3" style="mix-blend-mode: multiply;isolation: isolate"/>
                    <path id="Path_8113" data-name="Path 8113" d="M241.66,318.3l-32.023-5.014a36.161,36.161,0,0,0-1.281,5.2l32.478,5.086Z" transform="translate(-207.843 -308.686)" fill="#dc9530" opacity="0.3" style="mix-blend-mode: multiply;isolation: isolate"/>
                    <path id="Path_8114" data-name="Path 8114" d="M242.332,313.7l-30.9-4.839c-.405.82-.783,1.662-1.126,2.526l31.615,4.95Z" transform="translate(-207.768 -308.857)" fill="#dc9530" opacity="0.3" style="mix-blend-mode: multiply;isolation: isolate"/>
                  </g>
                  <g id="Group_5007" data-name="Group 5007" transform="translate(6.313 0.986)">
                    <path id="Path_8115" data-name="Path 8115" d="M270.452,329.5c-.124.791-.269,1.58-.452,2.34-.513.208-1.038.425-1.57.629-1.833.737-3.777,1.5-5.811,2.29-.659.26-1.329.518-2.011.784-2.214.848-4.507,1.737-6.868,2.638-.816.309-1.645.628-2.474.946-1.814.686-3.641,1.382-5.488,2.074-4.592,1.735-9.24,3.482-13.7,5.164-.206.085-.42.159-.634.232l0,.01h-.01c-2.686,1.008-5.294,2-7.8,2.939-.535.215-1.067.409-1.589.6a30.088,30.088,0,0,1-3.776-4.634,33.7,33.7,0,0,1-4.878-12.041c-.131-.66-.252-1.32-.328-1.993a36.3,36.3,0,0,1-.082-9.625c.047-.44.1-.88.176-1.327.023-.145.046-.291.079-.435a33.984,33.984,0,0,1,1.262-5.2c.218-.712.455-1.4.732-2.083a25.249,25.249,0,0,1,1.089-2.528c5.832-12.316,17.993-19.939,30.6-17.965,15.245,2.388,25.573,17.916,23.776,35.184C270.64,328.167,270.556,328.836,270.452,329.5Z" transform="translate(-212.704 -292.01)" fill="#ffd046"/>
                    <path id="Path_8116" data-name="Path 8116" d="M268.971,329c-.169,1.082-.389,2.147-.647,3.184-1.833.737-3.777,1.5-5.811,2.29-.659.26-1.329.518-2.011.784-2.214.848-4.507,1.737-6.868,2.638-.816.309-1.645.628-2.474.946-1.814.686-3.641,1.382-5.488,2.074-4.592,1.735-9.24,3.482-13.7,5.164-.206.085-.42.159-.634.232l0,.01h-.01c-2.686,1.008-5.294,2-7.8,2.939a27.72,27.72,0,0,1-3.914-4.571,31.307,31.307,0,0,1-4.165-8.7,24.809,24.809,0,0,0,10.254,5.436c.573.154,1.173.279,1.775.385.165.036.331.062.508.089a25.215,25.215,0,0,0,12.278-1.214c.146-.051.295-.113.443-.176a26.593,26.593,0,0,0,4.65-2.3,28.917,28.917,0,0,0,3.554-2.6s-.008-.012,0-.01a25.61,25.61,0,0,0,2.381-2.263,32.354,32.354,0,0,0,5.169-7.191,31.931,31.931,0,0,0,1.583-3.433,35.192,35.192,0,0,0,2.1-7.662q.207-1.327.317-2.639a34.8,34.8,0,0,0-.1-6.736,32.259,32.259,0,0,0-1.255-6.16c7.283,6.357,11.356,16.863,10.051,28.062C269.109,328.05,269.047,328.519,268.971,329Z" transform="translate(-212.598 -291.721)" fill="#dc9530" opacity="0.3" style="mix-blend-mode: multiply;isolation: isolate"/>
                    <path id="Path_8117" data-name="Path 8117" d="M262.5,327.976c-.084.541-.19,1.079-.3,1.606a27.218,27.218,0,0,1-1.875,5.637c-2.214.848-4.507,1.737-6.868,2.638-.816.309-1.645.628-2.474.946-1.814.686-3.641,1.382-5.488,2.074-4.592,1.735-9.24,3.482-13.7,5.164-.206.085-.42.159-.634.232a1.194,1.194,0,0,1-.236-.133.445.445,0,0,1-.135-.085c-.274-.16-.536-.329-.8-.509a.09.09,0,0,1-.048-.039l-.021,0a19.82,19.82,0,0,1-3.024-2.554c-.2-.213-.4-.426-.6-.649a1.073,1.073,0,0,1-.109-.124c-.136-.15-.263-.3-.388-.444a4.124,4.124,0,0,1-.277-.343c-.208-.245-.4-.5-.6-.765-.335-.447-.645-.922-.954-1.4a24.109,24.109,0,0,1-1.39-2.576c-.1-.2-.184-.392-.269-.6-.142-.321-.273-.64-.4-.97-.077-.193-.153-.386-.217-.589a.975.975,0,0,0-.05-.157c-.168-.5-.325-.99-.47-1.492-.044-.135-.078-.258-.12-.393-.024-.12-.056-.253-.08-.375a25.683,25.683,0,0,1-.682-4.087c-.026-.313-.044-.615-.058-.926-.018-.226-.024-.462-.019-.7-.015-.248-.021-.484-.012-.738-.009-.353,0-.7.026-1.052,0-.277.024-.562.036-.847l.092-1c.048-.44.106-.88.176-1.327.023-.146.046-.292.079-.436a26.905,26.905,0,0,1,1.419-5.176,21.872,21.872,0,0,1,.888-2.058,24.134,24.134,0,0,1,1.371-2.484c4.183-6.685,11.092-10.884,18.47-10.721a17.9,17.9,0,0,1,2.5.221c6.654,1.042,12.037,5.5,15.015,11.621A26.282,26.282,0,0,1,262.5,327.976Z" transform="translate(-212.415 -291.682)" fill="#dc9530"/>
                    <path id="Path_8118" data-name="Path 8118" d="M257.532,327.2a27.091,27.091,0,0,1-1.021,4.267,26.161,26.161,0,0,1-3.06,6.391c-.816.309-1.645.628-2.474.946-1.814.686-3.641,1.382-5.488,2.074-4.592,1.735-9.24,3.482-13.7,5.164-.206.085-.42.159-.634.232l0,.01h-.01a1.78,1.78,0,0,1-.223-.142.445.445,0,0,1-.135-.085c-.274-.16-.536-.329-.8-.509-.02-.014-.049-.029-.069-.043a19.82,19.82,0,0,1-3.024-2.554c-.2-.213-.4-.426-.6-.649a1.073,1.073,0,0,1-.109-.124c-.136-.15-.263-.3-.388-.444a4.124,4.124,0,0,1-.277-.343c-.208-.245-.4-.5-.6-.765-.335-.447-.645-.922-.954-1.4a24.109,24.109,0,0,1-1.39-2.576c-.1-.2-.184-.392-.269-.6-.142-.321-.273-.64-.4-.97-.066-.191-.142-.384-.207-.587l-.01,0a.975.975,0,0,0-.05-.157c-.168-.5-.325-.99-.47-1.492-.033-.133-.078-.258-.1-.389a2.614,2.614,0,0,1-.1-.378,25.683,25.683,0,0,1-.682-4.087c-.026-.313-.044-.615-.058-.926-.018-.226-.024-.462-.019-.7-.015-.248-.021-.484-.012-.738-.009-.353,0-.7.026-1.052,0-.277.024-.562.036-.847l.092-1c.048-.44.106-.88.176-1.327.023-.146.046-.292.079-.436a26.905,26.905,0,0,1,1.419-5.176,21.872,21.872,0,0,1,.888-2.058,24.134,24.134,0,0,1,1.371-2.484c4.183-6.685,11.092-10.884,18.47-10.721,8.93,2.646,15.013,11.7,15.105,22.144A27.566,27.566,0,0,1,257.532,327.2Z" transform="translate(-212.415 -291.682)" fill="#f3c437"/>
                    <path id="Path_8119" data-name="Path 8119" d="M248.769,327.847a6.317,6.317,0,0,0-2.182-2.925,5.515,5.515,0,0,0,2.616-1.544,6.164,6.164,0,0,0,1.453-2.726,5.534,5.534,0,0,0-.916-4.924q-1.619-2.173-5.612-3.21l1.15-4.454-5.478-1.414-1.15,4.454-5.274-1.36-5.969,23.126,5.274,1.361-1.146,4.436,5.479,1.414,1.144-4.436.547.141q4.13,1.066,6.739-.039a5.769,5.769,0,0,0,3.395-4.146A6.352,6.352,0,0,0,248.769,327.847Zm-5.228-7.834q-.444,1.718-2.651,1.148l-3.154-.814.887-3.435,3.154.814Q243.984,318.3,243.541,320.013Zm-4,10.173-4.072-1.052.939-3.634,4.072,1.051q2.235.578,1.768,2.395T239.538,330.186Z" transform="translate(-212.137 -291.446)" fill="#ffdeae"/>
                    <path id="Path_8120" data-name="Path 8120" d="M256.1,326.794a25.406,25.406,0,0,1-1.324,5.051,24.318,24.318,0,0,1-3.855,6.768c-1.814.686-3.641,1.382-5.488,2.074-4.592,1.735-9.24,3.482-13.7,5.164a14.348,14.348,0,0,1-1.848-.535l-.021,0a19.82,19.82,0,0,1-3.024-2.554c-.2-.213-.4-.426-.6-.649a1.073,1.073,0,0,1-.109-.124c-.136-.15-.263-.3-.388-.444a4.124,4.124,0,0,1-.277-.343c-.208-.245-.4-.5-.6-.765-.335-.447-.645-.922-.954-1.4a24.109,24.109,0,0,1-1.39-2.576c-.1-.2-.184-.392-.269-.6-.142-.321-.273-.64-.4-.97-.066-.191-.142-.384-.207-.587l-.01,0a.975.975,0,0,0-.05-.157c.158.078.328.147.5.227a17.459,17.459,0,0,0,4.266,1.233,17,17,0,0,0,4.181.143.707.707,0,0,0,.206-.022,17.664,17.664,0,0,0,4.9-1.173c.465-.173.924-.379,1.374-.6.324-.163.658-.324.975-.509a20.037,20.037,0,0,0,2.679-1.778q.436-.332.845-.7a18.18,18.18,0,0,0,1.669-1.6,23.237,23.237,0,0,0,3.618-5.056,24.947,24.947,0,0,0,2.507-7.149c.064-.278.11-.57.156-.862a24.659,24.659,0,0,0,.265-5.367,23.836,23.836,0,0,0-.928-5.522c5.4,4.579,8.425,12.286,7.428,20.494C256.195,326.21,256.149,326.5,256.1,326.794Z" transform="translate(-212.361 -291.493)" fill="#dc9530" opacity="0.3" style="mix-blend-mode: multiply;isolation: isolate"/>
                  </g>
                </g>
                <path id="Path_8121" data-name="Path 8121" d="M313.583,444.484a9.556,9.556,0,0,1-2.169,1.795c-7.942,5.21-32.525,14.089-49.342,18.272-13.354,3.318-25.368,7.763-32.706,7.34-3.1-.187-5.357-1.223-6.548-3.564-4.019-7.916-15.116-62.482-18.018-80.133s-3.647-23.241,2.416-28.373c0,0,60.589-21.078,72.928-26.23,6.187-2.583,9.475-5.461,11.2-7.7a8.883,8.883,0,0,0,1.936-3.782l0-.021a.035.035,0,0,0,.007.022C293.648,323.864,317.327,439.855,313.583,444.484Z" transform="translate(-186.84 -289.865)" fill="#ca404e"/>
                <g id="Group_5009" data-name="Group 5009" transform="translate(18.937 68.236)" opacity="0.3" style="mix-blend-mode: multiply;isolation: isolate">
                  <path id="Path_8122" data-name="Path 8122" d="M310.684,441.5c-4.025,3.7-29.283,13.615-49.5,18.654-3.986,1-7.8,2.064-11.486,3.108-8.628,2.436-16.786,4.733-21.284,4.028-1.926-.3-2.548-1.039-2.9-1.734-3.784-7.441-14.765-61.253-17.713-79.21-2.878-17.53-3.135-21.4.916-25.066,1.681-.59,6.477-2.261,12.879-4.512,7.244,6.607,20.2,9.351,32.022,14.061,22.093,8.793-.834,12.137-.5,28.726.3,14.9,12.316,30.562,57.464,37.375A24.564,24.564,0,0,1,310.684,441.5Z" transform="translate(-205.659 -356.765)" fill="#4a6c8f"/>
                </g>
              </g>
              <g id="Group_5011" data-name="Group 5011" transform="translate(0.588 93.685)">
                <path id="Path_8123" data-name="Path 8123" d="M241.473,386.7l1.019-3.282s-2.237-1.868-3.979-1.735-31.12,8.081-32.237,8.108-15.667-8.524-15.667-8.524l-2.618,1.209s11.338,12.908,16.928,14.693S241.473,386.7,241.473,386.7Z" transform="translate(-187.991 -381.27)" fill="#aa2236"/>
                <path id="Path_8124" data-name="Path 8124" d="M247.094,405.044c-.236,2.8-31.485,11.061-34.458,11.311a2.037,2.037,0,0,1-.394-.008c-3.794-.37-18.9-8.123-19.389-9.373-.506-1.263-4.74-23.893-4.854-24.528.5.291,16.3,9.828,18.309,10.345l.093.015c2.78.233,33.86-9.88,36.093-9.423C244.751,383.83,247.328,402.253,247.094,405.044Z" transform="translate(-187.991 -381.225)" fill="#ca404e"/>
                <path id="Path_8125" data-name="Path 8125" d="M212.243,416.346c-3.794-.37-18.9-8.123-19.389-9.373-.506-1.263-4.74-23.893-4.854-24.528.5.291,16.3,9.828,18.309,10.345l.093.015C208.193,400.51,210.621,410.075,212.243,416.346Z" transform="translate(-187.991 -381.225)" fill="#4a6c8f" opacity="0.3" style="mix-blend-mode: multiply;isolation: isolate"/>
                <path id="Path_8126" data-name="Path 8126" d="M235.448,391.217c-5.283,1.534-2.76,11.813,2.769,10.756S240.431,389.77,235.448,391.217Z" transform="translate(-186.274 -380.892)" fill="#4a6c8f" opacity="0.3" style="mix-blend-mode: multiply;isolation: isolate"/>
              </g>
            </g>
          </g>
        </g>
      </g>
      <g id="Group_5022" data-name="Group 5022" transform="translate(23.908 403.104)">
        <g id="Group_5019" data-name="Group 5019" transform="translate(0 24.601)">
          <g id="Group_5016" data-name="Group 5016">
            <rect id="Rectangle_1955" data-name="Rectangle 1955" width="79.004" height="14.952" fill="#e4b65a"/>
            <rect id="Rectangle_1956" data-name="Rectangle 1956" width="17.867" height="9.752" transform="translate(56.603 2.603)" fill="#dc9530" opacity="0.3" style="mix-blend-mode: multiply;isolation: isolate"/>
            <rect id="Rectangle_1957" data-name="Rectangle 1957" width="13.305" height="9.752" transform="translate(38.481 2.603)" fill="#dc9530" opacity="0.3" style="mix-blend-mode: multiply;isolation: isolate"/>
            <rect id="Rectangle_1958" data-name="Rectangle 1958" width="5.456" height="9.752" transform="translate(29.483 2.603)" fill="#dc9530" opacity="0.3" style="mix-blend-mode: multiply;isolation: isolate"/>
            <path id="Path_8127" data-name="Path 8127" d="M102.025,411.837v.121l-79,5.73v-5.851Z" transform="translate(-23.021 -411.834)" fill="#ffd046"/>
          </g>
          <g id="Group_5017" data-name="Group 5017" transform="translate(0 14.952)">
            <rect id="Rectangle_1959" data-name="Rectangle 1959" width="79.004" height="14.961" fill="#e4b65a"/>
            <rect id="Rectangle_1960" data-name="Rectangle 1960" width="17.867" height="9.752" transform="translate(56.603 2.605)" fill="#dc9530" opacity="0.3" style="mix-blend-mode: multiply;isolation: isolate"/>
            <rect id="Rectangle_1961" data-name="Rectangle 1961" width="13.305" height="9.752" transform="translate(38.481 2.605)" fill="#dc9530" opacity="0.3" style="mix-blend-mode: multiply;isolation: isolate"/>
            <rect id="Rectangle_1962" data-name="Rectangle 1962" width="5.456" height="9.752" transform="translate(29.483 2.605)" fill="#dc9530" opacity="0.3" style="mix-blend-mode: multiply;isolation: isolate"/>
            <path id="Path_8128" data-name="Path 8128" d="M102.025,426.235v.121l-79,5.73v-5.851Z" transform="translate(-23.021 -426.231)" fill="#ffd046"/>
          </g>
          <g id="Group_5018" data-name="Group 5018" transform="translate(0 29.909)">
            <rect id="Rectangle_1963" data-name="Rectangle 1963" width="79.004" height="14.952" transform="translate(0 0.004)" fill="#e4b65a"/>
            <rect id="Rectangle_1964" data-name="Rectangle 1964" width="17.867" height="9.752" transform="translate(56.603 2.601)" fill="#dc9530" opacity="0.3" style="mix-blend-mode: multiply;isolation: isolate"/>
            <rect id="Rectangle_1965" data-name="Rectangle 1965" width="13.305" height="9.752" transform="translate(38.481 2.601)" fill="#dc9530" opacity="0.3" style="mix-blend-mode: multiply;isolation: isolate"/>
            <rect id="Rectangle_1966" data-name="Rectangle 1966" width="5.456" height="9.752" transform="translate(29.483 2.601)" fill="#dc9530" opacity="0.3" style="mix-blend-mode: multiply;isolation: isolate"/>
            <path id="Path_8129" data-name="Path 8129" d="M102.025,440.634v.122l-79,5.73v-5.851Z" transform="translate(-23.021 -440.634)" fill="#ffd046"/>
          </g>
        </g>
        <path id="Path_8130" data-name="Path 8130" d="M100.24,411.835V456.7h-8.32A91.089,91.089,0,0,1,80.6,441.748c-.088-.15-.184-.3-.272-.447a94.53,94.53,0,0,1-7.235-14.515,53.472,53.472,0,0,1-3.77-14.952Z" transform="translate(-21.237 -387.234)" fill="#dc9530" opacity="0.3" style="mix-blend-mode: multiply;isolation: isolate"/>
        <g id="Group_5021" data-name="Group 5021" transform="translate(53.177)">
          <path id="Path_8131" data-name="Path 8131" d="M113.194,416.221a91.6,91.6,0,0,0-14.571-12.434L85.239,389.836,76.2,398.507c-5.751,5.518,1.486,22.395,16.166,37.7s31.242,23.232,36.994,17.714l9.038-8.672-13.385-13.951A91.57,91.57,0,0,0,113.194,416.221Z" transform="translate(-74.225 -388.082)" fill="#e4ad0e"/>
          <g id="Group_5020" data-name="Group 5020" transform="translate(5.929 14.576)">
            <path id="Path_8132" data-name="Path 8132" d="M118.656,425.04c1.435,1.921,2.755,3.855,3.929,5.756l.089.147,10.583,11.031L122.183,452.6c-5.074-.467-12.725-4.139-20.963-10.83Z" transform="translate(-79.114 -401.301)" fill="#dc9530" opacity="0.3" style="mix-blend-mode: multiply;isolation: isolate"/>
            <path id="Path_8133" data-name="Path 8133" d="M111.419,416.457c1.474,1.536,2.889,3.115,4.235,4.714L97.479,438.607c-1.5-1.378-3.022-2.858-4.53-4.43q-1.714-1.787-3.261-3.564l18.3-17.557C109.152,414.15,110.3,415.29,111.419,416.457Z" transform="translate(-79.558 -401.763)" fill="#dc9530" opacity="0.3" style="mix-blend-mode: multiply;isolation: isolate"/>
            <path id="Path_8134" data-name="Path 8134" d="M105.132,410.5l-17.876,17.15c-1.314-1.637-2.509-3.26-3.6-4.847L100.443,406.7C102.009,407.879,103.577,409.151,105.132,410.5Z" transform="translate(-79.791 -402.008)" fill="#dc9530" opacity="0.3" style="mix-blend-mode: multiply;isolation: isolate"/>
            <path id="Path_8135" data-name="Path 8135" d="M95.056,402.182l2.262,2.357L81.611,419.609c-.6-.991-1.165-1.969-1.677-2.919Z" transform="translate(-79.934 -402.182)" fill="#dc9530" opacity="0.3" style="mix-blend-mode: multiply;isolation: isolate"/>
          </g>
          <path id="Path_8136" data-name="Path 8136" d="M121.9,407.614c14.68,15.3,21.917,32.178,16.166,37.7S115.749,442.9,101.069,427.6,79.152,395.419,84.9,389.9,107.217,392.314,121.9,407.614Z" transform="translate(-73.89 -388.147)" fill="#ffd046"/>
          <path id="Path_8137" data-name="Path 8137" d="M118.074,410.58c9.787,10.2,14.611,21.452,10.776,25.132a4.227,4.227,0,0,1-2.3,1.085c-4.962.821-14.113-4.287-22.369-12.893s-12.981-17.959-11.955-22.884a4.225,4.225,0,0,1,1.179-2.247C97.245,395.092,108.287,400.378,118.074,410.58Z" transform="translate(-73.537 -387.782)" fill="#f3c437"/>
          <path id="Path_8138" data-name="Path 8138" d="M118.069,410.58c9.787,10.2,14.611,21.452,10.776,25.132a4.227,4.227,0,0,1-2.3,1.085c1.026-4.925-3.7-14.278-11.955-22.884S97.188,400.2,92.226,401.019a4.225,4.225,0,0,1,1.179-2.247C97.24,395.092,108.282,400.378,118.069,410.58Z" transform="translate(-73.532 -387.782)" fill="#dc9530"/>
          <path id="Path_8139" data-name="Path 8139" d="M114.254,417.34a5.547,5.547,0,0,0-2.646-.873,6.154,6.154,0,0,0-.853-2.364,13.962,13.962,0,0,0-1.963-2.575,10.26,10.26,0,0,0-4.057-2.862,3.152,3.152,0,0,0-3.371.666l-3.384-3.588-1.92,1.811,3.384,3.588L97.6,412.886l17.57,18.63,1.848-1.744,3.37,3.574,1.92-1.811-3.37-3.573.192-.181a3.317,3.317,0,0,0,.943-3.429,10.647,10.647,0,0,0-2.812-4.513A13.966,13.966,0,0,0,114.254,417.34Zm-7-2.65q1.305,1.383.531,2.113l-1.1,1.043-2.611-2.768,1.106-1.043Q105.949,413.307,107.254,414.69Zm7.529,8.89-1.428,1.346L110.6,422l1.427-1.346q.784-.74,2.164.724T114.784,423.58Z" transform="translate(-73.384 -387.468)" fill="#ffdeae"/>
        </g>
      </g>
      <path id="Path_8140" data-name="Path 8140" d="M211.257,76.444h-2.834a9.841,9.841,0,0,1-9.841-9.841v0a9.842,9.842,0,0,1-9.841,9.841h0a9.841,9.841,0,0,1,9.841,9.841v0a9.84,9.84,0,0,1,9.841-9.841Z" transform="translate(7.164 2.457)" fill="url(#linear-gradient)"/>
      <path id="Path_8141" data-name="Path 8141" d="M310.666,173.382h-2.472a8.583,8.583,0,0,1-8.582-8.582v0a8.583,8.583,0,0,1-8.582,8.582h0a8.583,8.583,0,0,1,8.582,8.582v0a8.583,8.583,0,0,1,8.582-8.582Z" transform="translate(11.12 6.255)" fill="url(#linear-gradient-2)"/>
      <path id="Path_8142" data-name="Path 8142" d="M77.943,160.094H75.473a8.583,8.583,0,0,1-8.583-8.583v0a8.583,8.583,0,0,1-8.582,8.583h0a8.582,8.582,0,0,1,8.582,8.582v0a8.582,8.582,0,0,1,8.583-8.582Z" transform="translate(2.152 5.743)" fill="url(#linear-gradient-3)"/>
      <path id="Path_8143" data-name="Path 8143" d="M455.551,270.681H453.08A8.583,8.583,0,0,1,444.5,262.1v0a8.583,8.583,0,0,1-8.582,8.582h0a8.583,8.583,0,0,1,8.582,8.582v0a8.583,8.583,0,0,1,8.582-8.582Z" transform="translate(16.703 10.005)" fill="url(#linear-gradient-4)"/>
      <path id="Path_8144" data-name="Path 8144" d="M428.009,68.5h-2.472a8.583,8.583,0,0,1-8.582-8.582v0a8.583,8.583,0,0,1-8.582,8.582h0a8.583,8.583,0,0,1,8.582,8.582v0a8.583,8.583,0,0,1,8.582-8.582Z" transform="translate(15.642 2.214)" fill="url(#linear-gradient-3)"/>
      <g id="Group_5040" data-name="Group 5040">
        <g id="Group_5039" data-name="Group 5039" clip-path="url(#clip-path-2)">
          <g id="Group_5038" data-name="Group 5038" transform="translate(-12.196 12.361)">
            <path id="Path_8145" data-name="Path 8145" d="M-11.743,172.494l114.4-106.04,78.219,117.892L318.292,68.974l109.431,129.14,103.871-84.472" transform="translate(11.743 -9.801)" fill="none" stroke="#0a417c" stroke-width="1.184" stroke-dasharray="7.106"/>
            <g id="Group_5030" data-name="Group 5030" transform="translate(52.55)">
              <circle id="Ellipse_583" data-name="Ellipse 583" cx="47.11" cy="47.11" r="47.11" transform="matrix(0.919, -0.393, 0.393, 0.919, 0, 37.074)" fill="#c6dff4"/>
              <g id="Group_5029" data-name="Group 5029" transform="translate(38.999 23.284)">
                <g id="Group_5024" data-name="Group 5024" transform="translate(0 7.778)">
                  <path id="Path_8146" data-name="Path 8146" d="M120.388,63.8c0,12.145-9.845,29.916-21.99,29.916S76.408,75.947,76.408,63.8a21.99,21.99,0,0,1,43.98,0Z" transform="translate(-76.408 -41.812)" fill="#ffd046"/>
                  <path id="Path_8147" data-name="Path 8147" d="M119.2,63.668c0,11.544-9.39,28.86-20.935,28.86-7.889,0-14.774-12.309-18.342-18.773A20.93,20.93,0,0,0,108.35,45.327,20.95,20.95,0,0,1,119.2,63.668Z" transform="translate(-76.273 -41.677)" fill="#dc9530" opacity="0.3" style="mix-blend-mode: multiply;isolation: isolate"/>
                  <path id="Path_8148" data-name="Path 8148" d="M114.283,63.584c0,8.894-7.21,24.03-16.1,24.03s-16.1-15.136-16.1-24.03a16.1,16.1,0,1,1,32.207,0Z" transform="translate(-76.19 -41.594)" fill="#dc9530"/>
                  <g id="Group_5023" data-name="Group 5023" transform="translate(14.839 11.563)">
                    <path id="Path_8149" data-name="Path 8149" d="M102.4,64.828a5.461,5.461,0,0,1,1.721,1.89,6.088,6.088,0,0,1,.686,3.05,5.536,5.536,0,0,1-.715,2.757,5.726,5.726,0,0,1-2.113,2.113,7.682,7.682,0,0,1-3.331,1.008v1.707H96.294V75.591a11.639,11.639,0,0,1-5.6-2.128L92.487,70.3a9.815,9.815,0,0,0,1.833,1.035,9.956,9.956,0,0,0,1.973.644V66.466a9.659,9.659,0,0,1-3.3-2.155,4.89,4.89,0,0,1-1.232-3.527,5.636,5.636,0,0,1,1.526-4.06,6.683,6.683,0,0,1,4.128-1.931V52.946h2.351v1.876a9.744,9.744,0,0,1,2.828.629A14.456,14.456,0,0,1,105,56.724l-1.539,3.107a12.437,12.437,0,0,0-3.7-1.4v5.122l.14.056A11.923,11.923,0,0,1,102.4,64.828Zm-6.438-4.353q0,1.092,1.455,1.988V58.544A1.862,1.862,0,0,0,95.958,60.475Zm4.087,10.735a1.981,1.981,0,0,0,.532-1.443q0-1.287-1.932-2.3v4.479A2.751,2.751,0,0,0,100.045,71.211Z" transform="translate(-90.696 -52.946)" fill="#ffdeae"/>
                  </g>
                  <path id="Path_8150" data-name="Path 8150" d="M113.123,63.48c0,8.3-6.752,22.974-15.048,22.974-5.742,0-10.742-11.159-13.279-15.9A15.044,15.044,0,0,0,105.15,50.2,15.063,15.063,0,0,1,113.123,63.48Z" transform="translate(-76.085 -41.489)" fill="#dc9530" opacity="0.3" style="mix-blend-mode: multiply;isolation: isolate"/>
                </g>
                <g id="Group_5028" data-name="Group 5028" transform="translate(8.962 57.03)">
                  <g id="Group_5025" data-name="Group 5025">
                    <path id="Path_8151" data-name="Path 8151" d="M108.78,93.8H87.321a2.284,2.284,0,0,1,0-4.567H108.78a2.284,2.284,0,0,1,0,4.567Z" transform="translate(-85.037 -89.236)" fill="#fff"/>
                  </g>
                  <path id="Path_8152" data-name="Path 8152" d="M109.638,89.4a2.28,2.28,0,0,1-2.111,3.148H86.066a2.277,2.277,0,0,1-.864-.171,2.283,2.283,0,0,0,2.112,1.42h21.459a2.283,2.283,0,0,0,.864-4.4Z" transform="translate(-85.031 -89.23)" fill="#2b63a0" opacity="0.4"/>
                  <g id="Group_5026" data-name="Group 5026" transform="translate(2.473 6.237)">
                    <path id="Path_8153" data-name="Path 8153" d="M106.217,99.809H89.7a2.284,2.284,0,0,1,0-4.567h16.516a2.284,2.284,0,1,1,0,4.567Z" transform="translate(-87.418 -95.242)" fill="#fff"/>
                  </g>
                  <path id="Path_8154" data-name="Path 8154" d="M107.838,95.9a2.225,2.225,0,0,1,.036.355,2.284,2.284,0,0,1-2.284,2.284H89.075a2.273,2.273,0,0,1-1.623-.68A2.278,2.278,0,0,0,89.7,99.784h16.516a2.282,2.282,0,0,0,1.623-3.887Z" transform="translate(-84.944 -88.979)" fill="#2b63a0" opacity="0.4"/>
                  <g id="Group_5027" data-name="Group 5027" transform="translate(4.537 12.364)">
                    <path id="Path_8155" data-name="Path 8155" d="M104.075,105.708H91.689a2.284,2.284,0,0,1,0-4.567h12.387a2.284,2.284,0,0,1,0,4.567Z" transform="translate(-89.406 -101.141)" fill="#fff"/>
                  </g>
                  <path id="Path_8156" data-name="Path 8156" d="M104.932,101.306a2.258,2.258,0,0,1,.172.864,2.284,2.284,0,0,1-2.284,2.284H90.435a2.277,2.277,0,0,1-.864-.171,2.283,2.283,0,0,0,2.111,1.42h12.387a2.283,2.283,0,0,0,.863-4.4Z" transform="translate(-84.862 -88.771)" fill="#2b63a0" opacity="0.4"/>
                </g>
                <line id="Line_6" data-name="Line 6" x2="5.27" y2="3.219" transform="translate(1.012 6.509)" fill="none" stroke="#ffd046" stroke-linecap="round" stroke-width="3.004"/>
                <line id="Line_7" data-name="Line 7" x1="2.742" y2="5.533" transform="translate(14.739 0.309)" fill="none" stroke="#ffd046" stroke-linecap="round" stroke-width="3.004"/>
                <line id="Line_8" data-name="Line 8" x2="2.805" y2="5.501" transform="translate(6.627)" fill="none" stroke="#ffd046" stroke-linecap="round" stroke-width="3.004"/>
                <line id="Line_9" data-name="Line 9" x1="6.125" y2="0.782" transform="translate(45.974 43.495)" fill="none" stroke="#ffd046" stroke-linecap="round" stroke-width="3.004"/>
                <line id="Line_10" data-name="Line 10" x1="1.318" y1="6.033" transform="translate(41.801 52.597)" fill="none" stroke="#ffd046" stroke-linecap="round" stroke-width="3.004"/>
                <line id="Line_11" data-name="Line 11" x1="5.628" y1="2.541" transform="translate(46.156 49.545)" fill="none" stroke="#ffd046" stroke-linecap="round" stroke-width="3.004"/>
              </g>
            </g>
            <g id="Group_5032" data-name="Group 5032" transform="translate(392.357 133.935)">
              <circle id="Ellipse_584" data-name="Ellipse 584" cx="47.11" cy="47.11" r="47.11" fill="#c6dff4"/>
              <g id="Group_5031" data-name="Group 5031" transform="translate(8.39 8.136)">
                <circle id="Ellipse_585" data-name="Ellipse 585" cx="32.184" cy="32.184" r="32.184" transform="matrix(0.233, -0.973, 0.973, 0.233, 0, 62.598)" fill="#5a89c6"/>
                <path id="Path_8157" data-name="Path 8157" d="M433.8,158.829a36.093,36.093,0,0,0-22.308-7.686V188.97Z" transform="translate(-372.695 -148.608)" fill="#ca404e"/>
                <path id="Path_8158" data-name="Path 8158" d="M431.372,161.7l-19.884,26.866,30.6,8.415A32.174,32.174,0,0,0,431.372,161.7Z" transform="translate(-372.695 -148.201)" fill="#447676"/>
                <path id="Path_8159" data-name="Path 8159" d="M411.919,188.818V155.066a32.092,32.092,0,0,0-11.6,2.164Z" transform="translate(-373.126 -148.457)" fill="#5f9b99"/>
                <path id="Path_8160" data-name="Path 8160" d="M401.079,157.15a32.2,32.2,0,0,0-19.882,36.7l31.485-5.113Z" transform="translate(-373.889 -148.376)" fill="#f4c77f"/>
              </g>
            </g>
            <g id="Group_5036" data-name="Group 5036" transform="translate(136.1 110.761)">
              <circle id="Ellipse_586" data-name="Ellipse 586" cx="47.11" cy="47.11" r="47.11" transform="translate(0 91.795) rotate(-76.975)" fill="#c6dff4"/>
              <g id="Group_5035" data-name="Group 5035" transform="translate(23.982 23.983)">
                <g id="Group_5034" data-name="Group 5034">
                  <g id="Group_5033" data-name="Group 5033">
                    <rect id="Rectangle_1967" data-name="Rectangle 1967" transform="translate(32.532 32.532)" fill="#fff"/>
                    <path id="Path_8161" data-name="Path 8161" d="M173.724,172.972Z" transform="translate(-141.192 -140.44)" fill="#fff"/>
                    <rect id="Rectangle_1968" data-name="Rectangle 1968" transform="translate(32.532 32.532)" fill="#fff"/>
                    <rect id="Rectangle_1969" data-name="Rectangle 1969" transform="translate(32.532 32.532)" fill="#fff"/>
                    <rect id="Rectangle_1970" data-name="Rectangle 1970" transform="translate(32.532 32.532)" fill="#fff"/>
                    <path id="Path_8162" data-name="Path 8162" d="M173.724,172.972Z" transform="translate(-141.192 -140.44)" fill="#fff"/>
                    <rect id="Rectangle_1971" data-name="Rectangle 1971" transform="translate(32.532 32.532)" fill="#fff"/>
                    <rect id="Rectangle_1972" data-name="Rectangle 1972" transform="translate(32.532 32.532)" fill="#fff"/>
                    <path id="Path_8163" data-name="Path 8163" d="M173.724,172.972Z" transform="translate(-141.192 -140.44)" fill="#fff"/>
                    <path id="Path_8164" data-name="Path 8164" d="M173.724,172.972Z" transform="translate(-141.192 -140.44)" fill="#fff"/>
                    <path id="Path_8165" data-name="Path 8165" d="M173.724,172.972Z" transform="translate(-141.192 -140.44)" fill="#fff"/>
                    <path id="Path_8166" data-name="Path 8166" d="M173.724,172.972Z" transform="translate(-141.192 -140.44)" fill="#fff"/>
                    <rect id="Rectangle_1973" data-name="Rectangle 1973" transform="translate(32.532 32.532)" fill="#fff"/>
                    <path id="Path_8167" data-name="Path 8167" d="M173.724,172.972Z" transform="translate(-141.192 -140.44)" fill="#fff"/>
                    <path id="Path_8168" data-name="Path 8168" d="M173.724,172.972Z" transform="translate(-141.192 -140.44)" fill="#fff"/>
                    <rect id="Rectangle_1974" data-name="Rectangle 1974" transform="translate(32.532 32.532)" fill="#fff"/>
                    <path id="Path_8169" data-name="Path 8169" d="M173.724,172.972Z" transform="translate(-141.192 -140.44)" fill="#fff"/>
                    <path id="Path_8170" data-name="Path 8170" d="M173.724,172.972Z" transform="translate(-141.192 -140.44)" fill="#fff"/>
                    <path id="Path_8171" data-name="Path 8171" d="M173.724,172.972Z" transform="translate(-141.192 -140.44)" fill="#fff"/>
                    <path id="Path_8172" data-name="Path 8172" d="M173.724,172.972Z" transform="translate(-141.192 -140.44)" fill="#fff"/>
                    <path id="Path_8173" data-name="Path 8173" d="M173.724,172.972Z" transform="translate(-141.192 -140.44)" fill="#fff"/>
                    <path id="Path_8174" data-name="Path 8174" d="M173.724,172.972Z" transform="translate(-141.192 -140.44)" fill="#fff"/>
                    <rect id="Rectangle_1975" data-name="Rectangle 1975" transform="translate(32.532 32.532)" fill="#fff"/>
                    <path id="Path_8175" data-name="Path 8175" d="M173.724,172.972Z" transform="translate(-141.192 -140.44)" fill="#fff"/>
                    <path id="Path_8176" data-name="Path 8176" d="M173.724,172.972Z" transform="translate(-141.192 -140.44)" fill="#fff"/>
                    <rect id="Rectangle_1976" data-name="Rectangle 1976" transform="translate(32.532 32.532)" fill="#fff"/>
                    <rect id="Rectangle_1977" data-name="Rectangle 1977" transform="translate(32.532 32.532)" fill="#fff"/>
                    <path id="Path_8177" data-name="Path 8177" d="M173.724,172.972Z" transform="translate(-141.192 -140.44)" fill="#fff"/>
                    <path id="Path_8178" data-name="Path 8178" d="M173.724,172.972Z" transform="translate(-141.192 -140.44)" fill="#fff"/>
                    <path id="Path_8179" data-name="Path 8179" d="M173.724,172.972Z" transform="translate(-141.192 -140.44)" fill="#fff"/>
                    <path id="Path_8180" data-name="Path 8180" d="M173.724,172.972Z" transform="translate(-141.192 -140.44)" fill="#fff"/>
                    <rect id="Rectangle_1978" data-name="Rectangle 1978" transform="translate(32.532 32.532)" fill="#fff"/>
                    <path id="Path_8181" data-name="Path 8181" d="M173.724,172.972h0V205.5a32.564,32.564,0,0,0,31.425-24.111Z" transform="translate(-141.192 -140.44)" fill="#5a89c6"/>
                    <path id="Path_8182" data-name="Path 8182" d="M174.931,172.972H142.4A32.521,32.521,0,0,0,174.931,205.5V172.972Z" transform="translate(-142.399 -140.44)" fill="#f4c77f"/>
                    <path id="Path_8183" data-name="Path 8183" d="M173.724,172.972Z" transform="translate(-141.192 -140.44)" fill="#fff"/>
                    <path id="Path_8184" data-name="Path 8184" d="M173.724,172.972Z" transform="translate(-141.192 -140.44)" fill="#fff"/>
                    <path id="Path_8185" data-name="Path 8185" d="M173.724,172.972Z" transform="translate(-141.192 -140.44)" fill="#fff"/>
                    <rect id="Rectangle_1979" data-name="Rectangle 1979" transform="translate(32.532 32.532) rotate(-45)" fill="#fff"/>
                    <path id="Path_8186" data-name="Path 8186" d="M173.724,172.972Z" transform="translate(-141.192 -140.44)" fill="#fff"/>
                    <rect id="Rectangle_1980" data-name="Rectangle 1980" transform="translate(32.532 32.532)" fill="#fff"/>
                    <rect id="Rectangle_1981" data-name="Rectangle 1981" transform="translate(32.532 32.532)" fill="#fff"/>
                    <rect id="Rectangle_1982" data-name="Rectangle 1982" transform="translate(32.532 32.532)" fill="#fff"/>
                    <path id="Path_8187" data-name="Path 8187" d="M174.931,141.647A32.525,32.525,0,0,0,142.4,174.179h32.532l8.42-31.425A32.536,32.536,0,0,0,174.931,141.647Z" transform="translate(-142.399 -141.647)" fill="#ca404e"/>
                    <path id="Path_8188" data-name="Path 8188" d="M205.149,165.718a32.3,32.3,0,0,0-3.255-7.844,32.421,32.421,0,0,0-11.907-11.906,32.28,32.28,0,0,0-7.843-3.255l-8.42,31.425h0l31.425,8.42a32.577,32.577,0,0,0,0-16.841Z" transform="translate(-141.192 -141.606)" fill="#447676"/>
                    <circle id="Ellipse_587" data-name="Ellipse 587" cx="19.804" cy="19.804" r="19.804" transform="matrix(0.926, -0.378, 0.378, 0.926, 9.652, 24.782)" fill="url(#radial-gradient)" style="mix-blend-mode: multiply;isolation: isolate"/>
                    <circle id="Ellipse_588" data-name="Ellipse 588" cx="18.517" cy="18.517" r="18.517" transform="matrix(0.229, -0.973, 0.973, 0.229, 10.269, 46.319)" fill="#fff"/>
                  </g>
                </g>
              </g>
            </g>
            <g id="Group_5037" data-name="Group 5037" transform="translate(273.521 7.852)">
              <circle id="Ellipse_589" data-name="Ellipse 589" cx="47.11" cy="47.11" r="47.11" transform="translate(0 91.795) rotate(-76.975)" fill="#c6dff4"/>
              <circle id="Ellipse_590" data-name="Ellipse 590" cx="30.788" cy="30.788" r="30.788" transform="translate(25.727 25.727)" fill="#fff"/>
              <path id="Path_8189" data-name="Path 8189" d="M316.559,76.186a6.156,6.156,0,0,0-2.774-2.23,5.382,5.382,0,0,0,2.095-2.1,6.019,6.019,0,0,0,.707-2.929,5.4,5.4,0,0,0-2.065-4.426q-2.059-1.659-6.084-1.664V58.353H302.92v4.486h-5.312v23.3h5.312v4.469h5.519V86.137h.551a10.3,10.3,0,0,0,6.355-1.68,5.627,5.627,0,0,0,2.2-4.743A6.193,6.193,0,0,0,316.559,76.186Zm-6.847-6.124q0,1.732-2.225,1.731H304.31V68.331h3.178Q309.712,68.331,309.712,70.061Zm-1.3,10.585h-4.1V76.984h4.1q2.254,0,2.254,1.831T308.412,80.646Z" transform="translate(-249.857 -17.965)" fill="#5a89c6"/>
            </g>
          </g>
        </g>
      </g>
    </g>
  </g>
</svg>
