<svg xmlns="http://www.w3.org/2000/svg" width="34.55" height="33.101" viewBox="0 0 34.55 33.101">
  <path id="Icon_awesome-star" data-name="Icon awesome-star" d="M16.4,1.115l-4.09,8.293L3.158,10.742a2.005,2.005,0,0,0-1.109,3.42l6.62,6.451L7.1,29.726a2,2,0,0,0,2.906,2.111l8.186-4.3,8.186,4.3a2,2,0,0,0,2.906-2.111l-1.566-9.113,6.62-6.451a2.005,2.005,0,0,0-1.109-3.42L24.083,9.407l-4.09-8.293A2.006,2.006,0,0,0,16.4,1.115Z" transform="translate(-0.921 0.501)" fill="none" stroke="#56d0f7" stroke-width="1"/>
</svg>
