<svg xmlns="http://www.w3.org/2000/svg" xmlns:xlink="http://www.w3.org/1999/xlink" width="158.041" height="166.032" viewBox="0 0 158.041 166.032">
  <defs>
    <filter id="Path_6896" x="5.603" y="0" width="147.016" height="161.863" filterUnits="userSpaceOnUse">
      <feOffset dy="1" input="SourceAlpha"/>
      <feGaussianBlur stdDeviation="1" result="blur"/>
      <feFlood flood-opacity="0.451"/>
      <feComposite operator="in" in2="blur"/>
      <feComposite in="SourceGraphic"/>
    </filter>
    <linearGradient id="linear-gradient" x1="1.026" y1="0.5" x2="0" y2="0.446" gradientUnits="objectBoundingBox">
      <stop offset="0" stop-color="#113e7b"/>
      <stop offset="1" stop-color="#0b2275"/>
    </linearGradient>
    <filter id="Path_6898" x="22.189" y="17.621" width="113.839" height="126.622" filterUnits="userSpaceOnUse">
      <feOffset dy="1" input="SourceAlpha"/>
      <feGaussianBlur stdDeviation="0.5" result="blur-2"/>
      <feFlood flood-opacity="0.31"/>
      <feComposite operator="in" in2="blur-2"/>
      <feComposite in="SourceGraphic"/>
    </filter>
    <linearGradient id="linear-gradient-2" y1="0.5" x2="1.001" y2="0.5" gradientUnits="objectBoundingBox">
      <stop offset="0" stop-color="#113e7b"/>
      <stop offset="0" stop-color="#021761"/>
      <stop offset="0.36" stop-color="#2c4a84"/>
      <stop offset="1" stop-color="#304cb2"/>
    </linearGradient>
    <filter id="Path_6901" x="112.492" y="127.636" width="45.549" height="38.395" filterUnits="userSpaceOnUse">
      <feOffset dy="1" input="SourceAlpha"/>
      <feGaussianBlur stdDeviation="0.5" result="blur-3"/>
      <feFlood flood-opacity="0.412"/>
      <feComposite operator="in" in2="blur-3"/>
      <feComposite in="SourceGraphic"/>
    </filter>
    <filter id="Path_6904" x="0" y="127.636" width="45.548" height="38.395" filterUnits="userSpaceOnUse">
      <feOffset dy="1" input="SourceAlpha"/>
      <feGaussianBlur stdDeviation="0.5" result="blur-4"/>
      <feFlood flood-opacity="0.412"/>
      <feComposite operator="in" in2="blur-4"/>
      <feComposite in="SourceGraphic"/>
    </filter>
  </defs>
  <g id="basic-1" transform="translate(1.5 2)">
    <g transform="matrix(1, 0, 0, 1, -1.5, -2)" filter="url(#Path_6896)">
      <path id="Path_6896-2" data-name="Path 6896" d="M80.753,1.552Q95.376,8.741,109.5,16.885,123.644,25,137.188,34.1a14.316,14.316,0,0,1,6.485,11.214c.695,10.193,1.1,21.161,1.1,32.621s-.368,22.388-1.1,32.625a14.32,14.32,0,0,1-6.485,11.214q-13.541,9.081-27.686,17.207-14.113,8.151-28.753,15.333a14.312,14.312,0,0,1-12.963,0q-14.626-7.189-28.752-15.333-14.144-8.112-27.691-17.207a14.316,14.316,0,0,1-6.481-11.214q-1.1-16.289-1.1-32.625c0-11.457.367-22.384,1.1-32.621A14.316,14.316,0,0,1,11.343,34.1c8.48-5.71,17.781-11.5,27.69-17.211Q53.146,8.734,67.786,1.551a14.312,14.312,0,0,1,12.963,0Z" transform="translate(4.84 2)" fill="#6d80c4" fill-rule="evenodd"/>
    </g>
    <path id="Path_6897" data-name="Path 6897" d="M77.459,1.8a10.887,10.887,0,0,0-9.91,0Q52.726,9.036,38.433,17.292q-14.3,8.217-28.017,17.377A10.806,10.806,0,0,0,5.44,43.23q-1.1,16.412-1.1,32.871c0,10.968.327,21.94,1.1,32.868a10.806,10.806,0,0,0,4.975,8.561q13.7,9.174,28.018,17.373,14.3,8.23,29.116,15.5a10.887,10.887,0,0,0,9.91,0q14.823-7.241,29.116-15.5,14.293-8.216,28.013-17.373a10.81,10.81,0,0,0,4.975-8.561q1.1-16.391,1.1-32.872c0-10.968-.327-21.936-1.1-32.863a10.8,10.8,0,0,0-4.975-8.565q-13.7-9.174-28.013-17.373-14.3-8.23-29.116-15.5Z" transform="translate(5.103 1.838)" fill="#6d80c4" fill-rule="evenodd"/>
    <g transform="matrix(1, 0, 0, 1, -1.5, -2)" filter="url(#Path_6898)">
      <path id="Path_6898-2" data-name="Path 6898" d="M59.609,126.809q-12.385-6.28-24.467-13.132-12.036-6.81-23.53-14.518a7.176,7.176,0,0,1-3.3-5.71,468,468,0,0,1,0-55.3,7.176,7.176,0,0,1,3.3-5.71Q23.148,24.82,35.142,17.925,47.182,11.007,59.609,4.8a7.18,7.18,0,0,1,6.606,0q12.236,6.2,24.467,13.132,12.036,6.808,23.531,14.514a7.18,7.18,0,0,1,3.3,5.71,468.111,468.111,0,0,1,0,55.3,7.18,7.18,0,0,1-3.307,5.71q-11.535,7.623-23.527,14.518-12.042,6.92-24.471,13.132a7.176,7.176,0,0,1-6.6,0Z" transform="translate(16.19 14.13)" fill-rule="evenodd" fill="url(#linear-gradient)"/>
    </g>
    <path id="Path_6899" data-name="Path 6899" d="M58.024,5.416q-12.1,5.961-23.733,12.8T11.33,32.372A4.482,4.482,0,0,0,9.21,36q-.816,13.462-.775,26.955T9.21,89.913a4.482,4.482,0,0,0,2.12,3.626q11.262,7.425,22.962,14.15t23.733,12.805a4.483,4.483,0,0,0,4.079,0q12.1-5.961,23.733-12.8t22.958-14.154a4.482,4.482,0,0,0,2.12-3.626q.818-13.46.775-26.955T110.914,36a4.478,4.478,0,0,0-2.12-3.63q-11.26-7.425-22.958-14.15T62.1,5.42a4.482,4.482,0,0,0-4.079,0Z" transform="translate(17.544 14.978)" fill-rule="evenodd" fill="url(#linear-gradient-2)"/>
    <path id="Path_6900" data-name="Path 6900" d="M52.922,34.967v9.276a37.13,37.13,0,0,1-1.288,10.419,18.96,18.96,0,0,1-3.715,7.14,14.675,14.675,0,0,1-5.706,4.087,19.663,19.663,0,0,1-7.362,1.325,21.624,21.624,0,0,1-6.037-.808,15.2,15.2,0,0,1-5.04-2.617,16.6,16.6,0,0,1-3.828-4.454,22.787,22.787,0,0,1-2.431-6.477,39.306,39.306,0,0,1-.848-8.614V34.967a36.285,36.285,0,0,1,1.292-10.338,19.232,19.232,0,0,1,3.715-7.107,14.63,14.63,0,0,1,5.742-4.05,19.654,19.654,0,0,1,7.362-1.325,20.352,20.352,0,0,1,6,.848,14.711,14.711,0,0,1,8.868,6.994,22.218,22.218,0,0,1,2.431,6.441,38.58,38.58,0,0,1,.848,8.537ZM42.285,45.644V33.529a33.878,33.878,0,0,0-.331-5.076,14.9,14.9,0,0,0-.921-3.679,7.774,7.774,0,0,0-1.543-2.5,5.633,5.633,0,0,0-2.1-1.4,7.39,7.39,0,0,0-2.613-.44,7.067,7.067,0,0,0-3.2.7,5.969,5.969,0,0,0-2.318,2.245,12.123,12.123,0,0,0-1.474,4.05,33.162,33.162,0,0,0-.477,6.11V45.644a38.8,38.8,0,0,0,.295,5.112,17.389,17.389,0,0,0,.953,3.8A9.451,9.451,0,0,0,30.1,57.088a5.633,5.633,0,0,0,2.1,1.4,7.694,7.694,0,0,0,2.649.44,6.779,6.779,0,0,0,3.13-.7,6.2,6.2,0,0,0,2.354-2.282,11.93,11.93,0,0,0,1.474-4.123A34.07,34.07,0,0,0,42.285,45.644Z" transform="translate(42.559 36.9)" fill="#ffd046"/>
    <g transform="matrix(1, 0, 0, 1, -1.5, -2)" filter="url(#Path_6901)">
      <path id="Path_6901-2" data-name="Path 6901" d="M72.365,40.818C69.308,40.45,49.65,37.6,49.65,32.947a2.366,2.366,0,0,1,.9-1.712A58.273,58.273,0,0,0,30.811,50.562a4.6,4.6,0,0,0-.775,4.079,5.066,5.066,0,0,0,2.447,2.774,91.1,91.1,0,0,0,25.2,9.215,46.415,46.415,0,0,0,1.062-14.966A28.018,28.018,0,0,0,72.405,40.979l-.04-.162Z" transform="translate(84.14 96.9)" fill="#6d80c4" fill-rule="evenodd"/>
    </g>
    <path id="Path_6902" data-name="Path 6902" d="M32.2,49.244c1.187,4.648,18.192,9.215,25,10.847a9.109,9.109,0,0,1-.363,2.528C50.72,61.193,31.881,56.137,30.452,51.2a4.406,4.406,0,0,1,.775-3.715l1.793-1.749a4.075,4.075,0,0,0-.816,3.505Zm35.032-5.262c-5.343-.856-22.263-4.079-22.55-8.44a2.738,2.738,0,0,1,.9-2.12l1.793-1.753a2.532,2.532,0,0,0-.9,1.914c0,4.567,18.637,7.628,22.8,8.157a27.642,27.642,0,0,1-2.039,2.2v.04Z" transform="translate(84.062 96.22)" fill="#fff" fill-rule="evenodd"/>
    <path id="Path_6903" data-name="Path 6903" d="M41.128,54.436C38.56,56.193,29.26,53.051,30.035,57.78a4.612,4.612,0,0,1,.775-4.079A83.842,83.842,0,0,1,54.216,30.134a2.358,2.358,0,0,0-.9,1.712c0,1.345,1.591,2.528,4.079,3.465A84.933,84.933,0,0,1,41.084,54.234l.04.2Z" transform="translate(82.637 91.556)" fill="#ded7dd" fill-rule="evenodd"/>
    <g transform="matrix(1, 0, 0, 1, -1.5, -2)" filter="url(#Path_6904)">
      <path id="Path_6904-2" data-name="Path 6904" d="M2.04,40.818C5.1,40.45,24.756,37.6,24.756,32.947a2.366,2.366,0,0,0-.9-1.712A58.272,58.272,0,0,1,43.594,50.558a4.616,4.616,0,0,1,.775,4.079,5.056,5.056,0,0,1-2.447,2.774,91.1,91.1,0,0,1-25.2,9.219,46.489,46.489,0,0,1-1.062-14.966A28.018,28.018,0,0,1,2,40.979l.04-.162Z" transform="translate(-0.5 96.9)" fill="#6d80c4" fill-rule="evenodd"/>
    </g>
    <path id="Path_6905" data-name="Path 6905" d="M39.457,49.244c-1.183,4.648-18.188,9.215-25,10.847a9.11,9.11,0,0,0,.363,2.528C20.946,61.193,39.78,56.137,41.21,51.2a4.4,4.4,0,0,0-.771-3.715l-1.8-1.749a4.079,4.079,0,0,1,.816,3.505Zm-34.9-5.262C9.9,43.126,26.821,39.9,27.1,35.542a2.734,2.734,0,0,0-.9-2.12l-1.793-1.753a2.532,2.532,0,0,1,.9,1.914c0,4.567-18.637,7.628-22.8,8.157a27.638,27.638,0,0,0,2.039,2.2v.04Z" transform="translate(-0.435 96.22)" fill="#fff" fill-rule="evenodd"/>
    <path id="Path_6906" data-name="Path 6906" d="M22.037,54.436c2.568,1.757,11.868-1.385,11.093,3.344a4.612,4.612,0,0,0-.775-4.079A83.838,83.838,0,0,0,8.949,30.134a2.362,2.362,0,0,1,.9,1.712c0,1.345-1.591,2.528-4.079,3.465A84.936,84.936,0,0,0,22.082,54.234l-.04.2Z" transform="translate(9.445 91.556)" fill="#ded7dd" fill-rule="evenodd"/>
    <path id="Path_6907" data-name="Path 6907" d="M57.87,28.926C56.2,31.615,49.713,42.5,47.8,44.99s-2.08,3.384-6.2,3.675-12.842.565-16.311.606c-1.591,0-2.976-.606-2.855-2.443s1.672-1.837,2.9-1.878c3.142,0,10.479-.4,13.989-.65a12.284,12.284,0,0,0,3.586-.533,10.194,10.194,0,0,0,3.142-2.936c1.793-2.039,8.157-11.743,9.623-13.536s3.344,0,2.286,1.631h-.081Z" transform="translate(60.063 80.654)" fill="#fff" fill-rule="evenodd"/>
    <path id="Path_6908" data-name="Path 6908" d="M21.469,25.22a181.556,181.556,0,0,1,34.992,3.138C62.212,29.541,84.64,35.332,86.922,41a4.527,4.527,0,0,1,0,3.634A68.505,68.505,0,0,1,67.675,69.423c2.9-2.366.61-5.952-2.039-7.705A49.259,49.259,0,0,0,48.3,55.927a151.632,151.632,0,0,0-26.834-2.245q-.357-7.478-.363-14.966,0-7.136.363-13.456Z" transform="translate(56.049 76.61)" fill="#6d80c4" fill-rule="evenodd"/>
    <path id="Path_6909" data-name="Path 6909" d="M70.729,25.22a181.556,181.556,0,0,0-34.992,3.138C29.991,29.541,7.562,35.332,5.276,41a4.527,4.527,0,0,0,0,3.634A68.505,68.505,0,0,0,24.523,69.423c-2.9-2.366-.61-5.952,2.039-7.705a49.259,49.259,0,0,1,17.332-5.791,151.632,151.632,0,0,1,26.834-2.245q.363-7.826.363-14.966T70.729,25.26Z" transform="translate(6.798 76.61)" fill="#6d80c4" fill-rule="evenodd"/>
    <path id="Path_6910" data-name="Path 6910" d="M22.6,55.35a6.441,6.441,0,0,0-3.223,7.871l1.264,1.224a7.216,7.216,0,0,1,3.715-6.853,54.247,54.247,0,0,1,18.346-6.2A153.884,153.884,0,0,1,70.4,49.03V46.3a154.934,154.934,0,0,0-28.542,2.488A59.282,59.282,0,0,0,22.483,55.31l.121.04ZM6.7,46.131A7.418,7.418,0,0,1,10.78,40.34a97.879,97.879,0,0,1,26.18-8.852A168.82,168.82,0,0,1,70.478,28.27V25.822a170.82,170.82,0,0,0-34.253,3.3A104.07,104.07,0,0,0,9.109,38.3,8.153,8.153,0,0,0,5.03,43.03l.4.816L6.7,46.131Z" transform="translate(7.206 78.451)" fill="#fff" fill-rule="evenodd"/>
    <path id="Path_6911" data-name="Path 6911" d="M63.6,25.731a168.872,168.872,0,0,0-30.909,2.774A113.184,113.184,0,0,0,7.241,36.174a117.36,117.36,0,0,1,25.486-7.422A173.651,173.651,0,0,1,63.6,26.059v-.323ZM21.145,52.974a85.638,85.638,0,0,1,18.394-4.648,160.938,160.938,0,0,1,24.016-1.712,128.968,128.968,0,0,0-24.1,1.506,81.129,81.129,0,0,0-18.31,4.854Z" transform="translate(13.924 78.178)" fill="#fff" fill-rule="evenodd"/>
    <path id="Path_6912" data-name="Path 6912" d="M25.956,52.612a101.923,101.923,0,0,1-9.744-12.236A71.561,71.561,0,0,1,9.524,28.144a17.113,17.113,0,0,0-3.8,2.613l-.525.61a4.079,4.079,0,0,0,0,.695,66.342,66.342,0,0,0,7.01,11.945A61.885,61.885,0,0,0,22.774,55.96a8.9,8.9,0,0,1,2.734-2.9l.448-.444Z" transform="translate(7.687 85.51)" fill="#fff" fill-rule="evenodd"/>
    <path id="Path_6913" data-name="Path 6913" d="M69.095,55.347a6.441,6.441,0,0,1,3.219,7.871l-1.264,1.224a7.216,7.216,0,0,0-3.711-6.853,54.268,54.268,0,0,0-18.35-6.2A153.883,153.883,0,0,0,21.3,49.027V46.294a155.273,155.273,0,0,1,28.551,2.488,59.312,59.312,0,0,1,19.368,6.526l-.121.04ZM85,46.132a7.418,7.418,0,0,0-4.083-5.791,97.88,97.88,0,0,0-26.18-8.852,168.819,168.819,0,0,0-33.518-3.219V25.824a170.561,170.561,0,0,1,34.253,3.3A104.074,104.074,0,0,1,82.587,38.3a8.157,8.157,0,0,1,4.079,4.729l-.408.816-1.264,2.286Z" transform="translate(56.386 78.454)" fill="#fff" fill-rule="evenodd"/>
    <path id="Path_6914" data-name="Path 6914" d="M21.2,25.731a169.147,169.147,0,0,1,30.909,2.774,113.185,113.185,0,0,1,25.449,7.669,117.36,117.36,0,0,0-25.49-7.422A173.645,173.645,0,0,0,21.2,26.058v-.323Zm42.45,27.242a85.64,85.64,0,0,0-18.39-4.648,161.344,161.344,0,0,0-24.02-1.712,128.968,128.968,0,0,1,24.1,1.506A81.138,81.138,0,0,1,63.647,52.974Z" transform="translate(56.326 78.178)" fill="#fff" fill-rule="evenodd"/>
    <path id="Path_6915" data-name="Path 6915" d="M32.123,52.612a102.294,102.294,0,0,0,9.744-12.236,71.538,71.538,0,0,0,6.687-12.232,17.207,17.207,0,0,1,3.8,2.613l.525.61a3.987,3.987,0,0,1,0,.695,66.32,66.32,0,0,1-7.01,11.945A61.608,61.608,0,0,1,35.3,55.96a8.847,8.847,0,0,0-2.73-2.9l-.448-.444Z" transform="translate(89.522 85.51)" fill="#fff" fill-rule="evenodd"/>
  </g>
</svg>
