<svg xmlns="http://www.w3.org/2000/svg" width="776.877" height="430.248" viewBox="0 0 776.877 430.248">
  <g id="Group_4349" data-name="Group 4349" transform="translate(-123.545 -145.999)">
    <path id="Path_7598" data-name="Path 7598" d="M325.206,146.779c109.763-6.347,224.845,26.716,207.929,74.646s90.438-17.024,133.28.257c30.5,12.3,18.308,49.755,33.064,64.846,33.833,34.6,68.434-8.971,111.494,17.172s25.155,270.627,7.622,270.592L154.568,573.08l-7.946.256s-48.7-70.228-4.614-111.238,13.816-59.761,8.458-75.611c-6.152-18.2-20.5-49.98,42.034-73.3s46.392-74.073,44.854-84.582-21.912-75.475,87.85-81.823Z" transform="translate(0 0)" fill="#425b95" opacity="0.361"/>
    <rect id="Rectangle_573" data-name="Rectangle 573" width="50.302" height="389.35" transform="translate(663.545 183.796)" fill="#6d80c4" opacity="0.6"/>
    <rect id="Rectangle_574" data-name="Rectangle 574" width="50.302" height="270.589" transform="translate(593.297 302.557)" fill="#9bc1f9" opacity="0.6"/>
    <rect id="Rectangle_575" data-name="Rectangle 575" width="50.302" height="304.993" transform="translate(734.805 268.153)" fill="#6d80c4" opacity="0.6"/>
    <rect id="Rectangle_576" data-name="Rectangle 576" width="50.302" height="316.988" transform="translate(523.047 256.158)" fill="#6d80c4" opacity="0.6"/>
    <rect id="Rectangle_577" data-name="Rectangle 577" width="50.302" height="223.003" transform="translate(452.798 350.144)" fill="#6d80c4" opacity="0.6"/>
    <g id="Group_4316" data-name="Group 4316" transform="translate(452.798 273.531)">
      <rect id="Rectangle_578" data-name="Rectangle 578" width="50.302" height="299.615" transform="translate(210.747)" fill="#56d0f7" style="mix-blend-mode: multiply;isolation: isolate"/>
      <rect id="Rectangle_579" data-name="Rectangle 579" width="50.302" height="208.226" transform="translate(140.498 91.39)" fill="#56d0f7" style="mix-blend-mode: multiply;isolation: isolate"/>
      <rect id="Rectangle_580" data-name="Rectangle 580" width="50.302" height="234.701" transform="translate(282.007 64.914)" fill="#56d0f7" style="mix-blend-mode: multiply;isolation: isolate"/>
      <rect id="Rectangle_581" data-name="Rectangle 581" width="50.302" height="243.931" transform="translate(70.249 55.684)" fill="#56d0f7" style="mix-blend-mode: multiply;isolation: isolate"/>
      <rect id="Rectangle_582" data-name="Rectangle 582" width="50.302" height="171.607" transform="translate(0 128.009)" fill="#56d0f7" style="mix-blend-mode: multiply;isolation: isolate"/>
    </g>
    <path id="Path_7599" data-name="Path 7599" d="M1792.239,308.447l-40.082,30.314,15.29.975-95.681,168.4-52.978-79.427-74.943,174.808-48.2-68.468-60.082,84.93,3.781,15.2,56.276-79.164,50.955,72.374,74.668-174.167,51.4,77.064,105.93-186.435,9.834,10.576Z" transform="translate(-982.682 -121.671)" fill="#ffd046"/>
    <path id="Path_7609" data-name="Path 7609" d="M977.544,731.516a44.643,44.643,0,0,1-5.143-2.053,25.864,25.864,0,0,0-5.864-2.2c-3.244-.5-8.818-.167-11.9,3.161-3.835,4.146-10.648.749-9.276,22.462,1.554,24.577,15.266,21.879,15.6,21.463s12.229-15.723,12.229-15.723,4.16,9.068,4.16,8.735S998.59,738.58,977.544,731.516Z" transform="translate(-615.398 -435.219)" fill="#0e2e35"/>
    <g id="Group_4324" data-name="Group 4324" transform="translate(282.814 543.766)">
      <path id="Path_7615" data-name="Path 7615" d="M758.053,1755.244v20.351c0,3.29,36.7,5.958,81.979,5.958s81.979-2.667,81.979-5.958v-20.351Z" transform="translate(-758.053 -1749.071)" fill="#e59f39"/>
      <g id="Group_4323" data-name="Group 4323" transform="translate(0 6.173)">
        <path id="Path_7616" data-name="Path 7616" d="M817.38,1781.322v-26.078H758.053v20.351C758.053,1778.314,783.121,1780.608,817.38,1781.322Z" transform="translate(-758.053 -1755.244)" fill="#eab054"/>
        <path id="Path_7617" data-name="Path 7617" d="M1005.4,1781.376c6.368.115,13.031.177,19.891.177,10.222,0,20.006-.136,29.031-.385v-25.924H1005.4Z" transform="translate(-943.315 -1755.244)" fill="#eab054"/>
        <path id="Path_7618" data-name="Path 7618" d="M1213.385,1781.072c29.208-.912,49.664-3.021,49.664-5.477v-20.351h-49.664Z" transform="translate(-1099.091 -1755.244)" fill="#eab054"/>
      </g>
      <ellipse id="Ellipse_559" data-name="Ellipse 559" cx="81.979" cy="5.957" rx="81.979" ry="5.957" transform="translate(0)" fill="#e59f39"/>
      <path id="Path_7619" data-name="Path 7619" d="M950.72,1742.059c0,2.281-30.224,4.13-67.508,4.13s-67.508-1.849-67.508-4.13,30.224-4.13,67.508-4.13S950.72,1739.778,950.72,1742.059Z" transform="translate(-801.233 -1736.102)" fill="#f7cc7f"/>
    </g>
    <g id="Group_4326" data-name="Group 4326" transform="translate(268.788 522.231)">
      <path id="Path_7620" data-name="Path 7620" d="M702.176,1669.449V1689.8c0,3.29,36.7,5.958,81.979,5.958s81.979-2.667,81.979-5.958v-20.351Z" transform="translate(-702.176 -1663.276)" fill="#e59f39"/>
      <g id="Group_4325" data-name="Group 4325" transform="translate(0 6.173)">
        <path id="Path_7621" data-name="Path 7621" d="M761.5,1695.527v-26.078H702.176V1689.8C702.176,1692.519,727.245,1694.813,761.5,1695.527Z" transform="translate(-702.176 -1669.449)" fill="#eab054"/>
        <path id="Path_7622" data-name="Path 7622" d="M949.526,1695.581c6.368.115,13.031.177,19.891.177,10.221,0,20.006-.136,29.03-.385v-25.924H949.526Z" transform="translate(-887.438 -1669.449)" fill="#eab054"/>
        <path id="Path_7623" data-name="Path 7623" d="M1157.508,1695.277c29.208-.912,49.664-3.021,49.664-5.477v-20.351h-49.664Z" transform="translate(-1043.214 -1669.449)" fill="#eab054"/>
      </g>
      <ellipse id="Ellipse_560" data-name="Ellipse 560" cx="81.979" cy="5.957" rx="81.979" ry="5.957" transform="translate(0)" fill="#e59f39"/>
      <path id="Path_7624" data-name="Path 7624" d="M894.843,1656.264c0,2.281-30.224,4.13-67.508,4.13s-67.508-1.849-67.508-4.13,30.224-4.13,67.508-4.13S894.843,1653.983,894.843,1656.264Z" transform="translate(-745.356 -1650.307)" fill="#f7cc7f"/>
    </g>
    <g id="Group_4328" data-name="Group 4328" transform="translate(278.133 500.123)">
      <path id="Path_7625" data-name="Path 7625" d="M739.4,1581.375v20.351c0,3.29,36.7,5.957,81.979,5.957s81.979-2.667,81.979-5.957v-20.351Z" transform="translate(-739.405 -1575.201)" fill="#e59f39"/>
      <g id="Group_4327" data-name="Group 4327" transform="translate(0 6.173)">
        <path id="Path_7626" data-name="Path 7626" d="M798.732,1607.453v-26.078H739.4v20.351C739.4,1604.445,764.474,1606.738,798.732,1607.453Z" transform="translate(-739.405 -1581.375)" fill="#eab054"/>
        <path id="Path_7627" data-name="Path 7627" d="M986.755,1607.507c6.368.115,13.031.177,19.891.177,10.222,0,20.006-.136,29.03-.385v-25.924H986.755Z" transform="translate(-924.667 -1581.375)" fill="#eab054"/>
        <path id="Path_7628" data-name="Path 7628" d="M1194.737,1607.2c29.208-.911,49.664-3.02,49.664-5.477v-20.351h-49.664Z" transform="translate(-1080.443 -1581.375)" fill="#eab054"/>
      </g>
      <ellipse id="Ellipse_561" data-name="Ellipse 561" cx="81.979" cy="5.957" rx="81.979" ry="5.957" transform="translate(0)" fill="#e59f39"/>
      <path id="Path_7629" data-name="Path 7629" d="M932.072,1568.189c0,2.281-30.224,4.13-67.508,4.13s-67.508-1.849-67.508-4.13,30.224-4.13,67.508-4.13S932.072,1565.908,932.072,1568.189Z" transform="translate(-782.585 -1562.232)" fill="#f7cc7f"/>
    </g>
    <g id="Group_4330" data-name="Group 4330" transform="translate(268.788 478.318)">
      <path id="Path_7630" data-name="Path 7630" d="M702.176,1494.507v20.351c0,3.29,36.7,5.957,81.979,5.957s81.979-2.667,81.979-5.957v-20.351Z" transform="translate(-702.176 -1488.334)" fill="#e59f39"/>
      <g id="Group_4329" data-name="Group 4329" transform="translate(0 6.173)">
        <path id="Path_7631" data-name="Path 7631" d="M761.5,1520.585v-26.078H702.176v20.351C702.176,1517.577,727.245,1519.871,761.5,1520.585Z" transform="translate(-702.176 -1494.507)" fill="#eab054"/>
        <path id="Path_7632" data-name="Path 7632" d="M949.526,1520.639c6.368.115,13.031.177,19.891.177,10.221,0,20.006-.136,29.03-.385v-25.924H949.526Z" transform="translate(-887.438 -1494.507)" fill="#eab054"/>
        <path id="Path_7633" data-name="Path 7633" d="M1157.508,1520.334c29.208-.911,49.664-3.02,49.664-5.476v-20.351h-49.664Z" transform="translate(-1043.214 -1494.507)" fill="#eab054"/>
      </g>
      <ellipse id="Ellipse_562" data-name="Ellipse 562" cx="81.979" cy="5.957" rx="81.979" ry="5.957" transform="translate(0)" fill="#e59f39"/>
      <path id="Path_7634" data-name="Path 7634" d="M894.843,1481.322c0,2.281-30.224,4.13-67.508,4.13s-67.508-1.849-67.508-4.13,30.224-4.131,67.508-4.131S894.843,1479.04,894.843,1481.322Z" transform="translate(-745.356 -1475.364)" fill="#f7cc7f"/>
    </g>
    <g id="Group_4332" data-name="Group 4332" transform="translate(685.091 542.264)">
      <path id="Path_7635" data-name="Path 7635" d="M2518.346,1748.316v19.571c0,3.164-35.3,5.729-78.835,5.729s-78.836-2.565-78.836-5.729v-19.571Z" transform="translate(-2360.675 -1742.38)" fill="#e59f39"/>
      <g id="Group_4331" data-name="Group 4331" transform="translate(0 5.936)">
        <path id="Path_7636" data-name="Path 7636" d="M2761.529,1773.394v-25.078h57.052v19.571C2818.581,1770.5,2794.473,1772.707,2761.529,1773.394Z" transform="translate(-2660.91 -1748.316)" fill="#eab054"/>
        <path id="Path_7637" data-name="Path 7637" d="M2610.572,1773.446c-6.124.111-12.531.17-19.128.17-9.83,0-19.239-.131-27.917-.37v-24.93h47.045Z" transform="translate(-2512.609 -1748.316)" fill="#eab054"/>
        <path id="Path_7638" data-name="Path 7638" d="M2408.435,1773.153c-28.088-.876-47.76-2.9-47.76-5.267v-19.571h47.76Z" transform="translate(-2360.675 -1748.316)" fill="#eab054"/>
      </g>
      <ellipse id="Ellipse_563" data-name="Ellipse 563" cx="78.835" cy="5.729" rx="78.835" ry="5.729" transform="translate(0)" fill="#e59f39"/>
      <path id="Path_7639" data-name="Path 7639" d="M2416.115,1735.637c0,2.194,29.065,3.972,64.919,3.972s64.919-1.778,64.919-3.972-29.065-3.972-64.919-3.972S2416.115,1733.443,2416.115,1735.637Z" transform="translate(-2402.199 -1729.908)" fill="#f7cc7f"/>
    </g>
    <g id="Group_4334" data-name="Group 4334" transform="translate(698.579 521.554)">
      <path id="Path_7640" data-name="Path 7640" d="M2572.081,1665.811v19.571c0,3.164-35.3,5.729-78.836,5.729s-78.836-2.565-78.836-5.729v-19.571Z" transform="translate(-2414.409 -1659.875)" fill="#e59f39"/>
      <g id="Group_4333" data-name="Group 4333" transform="translate(0 5.936)">
        <path id="Path_7641" data-name="Path 7641" d="M2815.264,1690.889v-25.078h57.052v19.571C2872.316,1688,2848.208,1690.2,2815.264,1690.889Z" transform="translate(-2714.644 -1665.811)" fill="#eab054"/>
        <path id="Path_7642" data-name="Path 7642" d="M2664.307,1690.941c-6.124.111-12.531.17-19.128.17-9.829,0-19.239-.131-27.917-.37v-24.93h47.045Z" transform="translate(-2566.343 -1665.811)" fill="#eab054"/>
        <path id="Path_7643" data-name="Path 7643" d="M2462.168,1690.649c-28.088-.876-47.76-2.9-47.76-5.267v-19.571h47.76Z" transform="translate(-2414.409 -1665.811)" fill="#eab054"/>
      </g>
      <ellipse id="Ellipse_564" data-name="Ellipse 564" cx="78.836" cy="5.729" rx="78.836" ry="5.729" transform="translate(0)" fill="#e59f39"/>
      <ellipse id="Ellipse_565" data-name="Ellipse 565" cx="64.919" cy="3.972" rx="64.919" ry="3.972" transform="translate(13.916 1.757)" fill="#f7cc7f"/>
    </g>
    <g id="Group_4336" data-name="Group 4336" transform="translate(689.592 500.294)">
      <path id="Path_7644" data-name="Path 7644" d="M2536.278,1581.113v19.571c0,3.164-35.3,5.728-78.835,5.728s-78.836-2.565-78.836-5.728v-19.571Z" transform="translate(-2378.607 -1575.177)" fill="#e59f39"/>
      <g id="Group_4335" data-name="Group 4335" transform="translate(0 5.936)">
        <path id="Path_7645" data-name="Path 7645" d="M2779.463,1606.191v-25.078h57.052v19.571C2836.515,1603.3,2812.407,1605.5,2779.463,1606.191Z" transform="translate(-2678.843 -1581.113)" fill="#eab054"/>
        <path id="Path_7646" data-name="Path 7646" d="M2628.506,1606.243c-6.125.111-12.532.169-19.128.169-9.83,0-19.239-.13-27.917-.369v-24.93h47.046Z" transform="translate(-2530.542 -1581.113)" fill="#eab054"/>
        <path id="Path_7647" data-name="Path 7647" d="M2426.367,1605.951c-28.088-.876-47.76-2.9-47.76-5.267v-19.571h47.76Z" transform="translate(-2378.607 -1581.113)" fill="#eab054"/>
      </g>
      <ellipse id="Ellipse_566" data-name="Ellipse 566" cx="78.836" cy="5.729" rx="78.836" ry="5.729" transform="translate(0)" fill="#e59f39"/>
      <ellipse id="Ellipse_567" data-name="Ellipse 567" cx="64.919" cy="3.972" rx="64.919" ry="3.972" transform="translate(13.917 1.757)" fill="#f7cc7f"/>
    </g>
    <g id="Group_4338" data-name="Group 4338" transform="translate(698.579 479.325)">
      <path id="Path_7648" data-name="Path 7648" d="M2572.081,1497.576v19.571c0,3.164-35.3,5.729-78.836,5.729s-78.836-2.565-78.836-5.729v-19.571Z" transform="translate(-2414.409 -1491.64)" fill="#e59f39"/>
      <g id="Group_4337" data-name="Group 4337" transform="translate(0 5.937)">
        <path id="Path_7649" data-name="Path 7649" d="M2815.264,1522.654v-25.078h57.052v19.571C2872.316,1519.762,2848.208,1521.967,2815.264,1522.654Z" transform="translate(-2714.644 -1497.576)" fill="#eab054"/>
        <path id="Path_7650" data-name="Path 7650" d="M2664.307,1522.706c-6.124.111-12.531.17-19.128.17-9.829,0-19.239-.131-27.917-.37v-24.93h47.045Z" transform="translate(-2566.343 -1497.576)" fill="#eab054"/>
        <path id="Path_7651" data-name="Path 7651" d="M2462.168,1522.413c-28.088-.876-47.76-2.9-47.76-5.266v-19.571h47.76Z" transform="translate(-2414.409 -1497.576)" fill="#eab054"/>
      </g>
      <ellipse id="Ellipse_568" data-name="Ellipse 568" cx="78.836" cy="5.729" rx="78.836" ry="5.729" transform="translate(0)" fill="#e59f39"/>
      <ellipse id="Ellipse_569" data-name="Ellipse 569" cx="64.919" cy="3.972" rx="64.919" ry="3.972" transform="translate(13.916 1.757)" fill="#f7cc7f"/>
    </g>
    <g id="Group_4340" data-name="Group 4340" transform="translate(754.982 422.542)">
      <path id="Path_7652" data-name="Path 7652" d="M2777.061,1288.989l-4.736,16.533c-.765,2.673-31.2-3.7-67.986-14.236s-65.979-21.243-65.213-23.916l4.736-16.533Z" transform="translate(-2639.111 -1250.051)" fill="#e59f39"/>
      <g id="Group_4339" data-name="Group 4339" transform="translate(0 0.785)">
        <path id="Path_7653" data-name="Path 7653" d="M2972.5,1369.019l6.068-21.186,48.2,13.805-4.736,16.533C3021.4,1380.38,3000.5,1376.41,2972.5,1369.019Z" transform="translate(-2888.814 -1323.485)" fill="#eab054"/>
        <path id="Path_7654" data-name="Path 7654" d="M2845.066,1332.534c-5.2-1.388-10.628-2.889-16.2-4.485-8.3-2.379-16.221-4.766-23.5-7.068l6.032-21.061,39.744,11.384Z" transform="translate(-2763.638 -1287.6)" fill="#eab054"/>
        <path id="Path_7655" data-name="Path 7655" d="M2678.2,1283.375c-23.516-7.537-39.644-14.01-39.072-16.006l4.736-16.533,40.347,11.557Z" transform="translate(-2639.111 -1250.836)" fill="#eab054"/>
      </g>
      <path id="Path_7656" data-name="Path 7656" d="M2658.192,1248.319c-.766,2.673,28.431,13.38,65.213,23.916s67.22,16.909,67.986,14.237-28.431-13.38-65.213-23.916S2658.958,1245.646,2658.192,1248.319Z" transform="translate(-2653.392 -1247.71)" fill="#e59f39"/>
      <path id="Path_7657" data-name="Path 7657" d="M2705.046,1262.484c-.531,1.853,23.593,10.389,53.882,19.065s55.274,14.207,55.8,12.354-23.593-10.389-53.882-19.064S2705.577,1260.631,2705.046,1262.484Z" transform="translate(-2688.49 -1258.508)" fill="#f7cc7f"/>
    </g>
    <g id="Group_4342" data-name="Group 4342" transform="translate(717.32 346.947)">
      <path id="Path_7658" data-name="Path 7658" d="M2621.818,949.5l5.042,16.442c.815,2.658-28.177,13.907-64.757,25.125s-66.894,18.157-67.709,15.5l-5.042-16.442Z" transform="translate(-2489.282 -948.762)" fill="#e59f39"/>
      <g id="Group_4341" data-name="Group 4341" transform="translate(0.07 0.742)">
        <path id="Path_7659" data-name="Path 7659" d="M2832.587,985.273l-6.461-21.069,47.932-14.7,5.043,16.442C2879.774,968.143,2860.088,976.208,2832.587,985.273Z" transform="translate(-2741.592 -949.504)" fill="#eab054"/>
        <path id="Path_7660" data-name="Path 7660" d="M2705.775,1031.9c-5.117,1.671-10.484,3.371-16.026,5.071-8.259,2.532-16.2,4.847-23.55,6.883l-6.423-20.945,39.525-12.121Z" transform="translate(-2616.998 -995.406)" fill="#eab054"/>
        <path id="Path_7661" data-name="Path 7661" d="M2535.876,1083.189c-23.823,6.5-40.873,9.865-41.482,7.881l-5.042-16.442,40.124-12.306Z" transform="translate(-2489.352 -1034.003)" fill="#eab054"/>
      </g>
      <path id="Path_7662" data-name="Path 7662" d="M2489.089,987.74c.815,2.658,31.129-4.281,67.709-15.5s65.572-22.467,64.757-25.125-31.129,4.281-67.709,15.5S2488.273,985.082,2489.089,987.74Z" transform="translate(-2489.072 -946.549)" fill="#e59f39"/>
      <path id="Path_7663" data-name="Path 7663" d="M2535.687,995.552c.565,1.843,25.442-4.152,55.565-13.39s54.083-18.22,53.518-20.063-25.443,4.152-55.565,13.39S2535.121,993.709,2535.687,995.552Z" transform="translate(-2523.979 -957.946)" fill="#f7cc7f"/>
    </g>
    <path id="Path_7664" data-name="Path 7664" d="M1295.066,1757.268s1.949,10.34,1.95,10.362c.109,1.347.068,4.753.36,5.93,1.094,4.421,19.692-6.325,14.813-7.189a20.235,20.235,0,0,1-4.375-4.688,41.024,41.024,0,0,1-2.448-6.831Z" transform="translate(-877.455 -1205.011)" fill="#f7a491"/>
    <path id="Path_7665" data-name="Path 7665" d="M1307.223,1793.722a72.679,72.679,0,0,1-7.244,1.432c-2.443.244-5.579-3.551-7.331-2.833-1.929.79-2.979,12.832-2.979,12.832s30.677,1.4,37.927-.605C1330.468,1803.754,1316.769,1797.379,1307.223,1793.722Z" transform="translate(-873.413 -1233.007)" fill="#2c2858"/>
    <path id="Path_7666" data-name="Path 7666" d="M1465.474,1755.389s1.949,10.34,1.95,10.362c.109,1.347.068,4.753.359,5.93,1.094,4.421,19.349-5.618,14.47-6.482-.442-.078-3.3-4.024-4.032-5.4a41.031,41.031,0,0,1-2.448-6.831Z" transform="translate(-1005.089 -1203.604)" fill="#f7a491"/>
    <path id="Path_7667" data-name="Path 7667" d="M1475.753,1793.722a72.689,72.689,0,0,1-7.245,1.432c-2.443.244-5.579-3.551-7.331-2.833-1.929.79-2.979,12.832-2.979,12.832s30.676,1.4,37.927-.605C1499,1803.754,1485.3,1797.379,1475.753,1793.722Z" transform="translate(-999.639 -1233.007)" fill="#2c2858"/>
    <path id="Path_7668" data-name="Path 7668" d="M1038.787,1303.762l55.807-12.945s25.027-6.616,31.068,1.151,31.694,114.96,31.694,114.96-13.233,1.15-14.1.575l-30.975-54.979a47.948,47.948,0,0,1-5.714-16.911l-2.2-15.743-22.726,6.617s-26.178,5.753-36.821-.863S1038.787,1303.762,1038.787,1303.762Z" transform="translate(-684.764 -855.487)" fill="#4595b0"/>
    <path id="Path_7669" data-name="Path 7669" d="M1101.942,966.929c.882.036,3.3.842,6.829,7.495,4.511,8.5,11.1,34.16,11.1,34.16l-19.678,7.3-2.528-5.357-4.164-41.24S1101.7,966.919,1101.942,966.929Z" transform="translate(-726.488 -614.866)" fill="#4595b0"/>
    <path id="Path_7670" data-name="Path 7670" d="M919.347,952.191c5.627.007,19.55,1.644,26.013,3.7,0,0,4.747,40.665-4.274,71.564-2.019,6.917,1.67,28.674,1.67,28.674l-58.31-.767s6.908-52.6,4.306-61.093-2.664-38.1-2.664-38.1.4-.062,13.1-2.25A132.443,132.443,0,0,1,919.347,952.191Z" transform="translate(-569.906 -603.828)" fill="#00b3dd"/>
    <path id="Path_7671" data-name="Path 7671" d="M861.324,985.85c5.452-2.038,8.119,46.918,8.854,67.069,9.654.926,26.483.007,30.673-.307,1.971-.148,6.514-1.806,8.474-2.062a19.679,19.679,0,0,1,4.816-.227c.363.063,10.426,4.164,11.287,5.064,1.068,1.115,3.954,3.929,3.467,5.146s-5.551-3.39-5.551-3.39l-2.475-1.384c3.081,3,8.957,6.95,8.111,8.388-.826,1.4-6.126-2.606-9.9-5.338,3.24,2.917,7.266,8.137,6.339,8.951-.833.731-5.413-5.312-10.306-7.052-1.814-.645-3.621,1.141-5.048,1.356a10.292,10.292,0,0,1-3.7.206l-4.915-.474a25.638,25.638,0,0,0-4.057.59c-2.116.449-5.588.921-8.283,1.578-15.518,3.779-20.694,5.533-25.445,5.531C849.274,1069.484,848.439,990.667,861.324,985.85Z" transform="translate(-545.778 -628.991)" fill="#f7a491"/>
    <path id="Path_7672" data-name="Path 7672" d="M846.06,1018.161c-1.021-20.641-.872-46.081,10.738-50.421,4.581-1.713,12.656,8.585,11.2,50.841C861.8,1019.091,852.7,1019.5,846.06,1018.161Z" transform="translate(-540.86 -615.342)" fill="#4595b0"/>
    <path id="Path_7673" data-name="Path 7673" d="M1051.929,1118.863l-54.936,3.589a3.589,3.589,0,0,0-3.169,2.439L979.6,1167.252l-30.287,1.979a1.536,1.536,0,0,0-1.433,1.632h0a1.536,1.536,0,0,0,1.634,1.432l86.2-5.631a6.031,6.031,0,0,0,5.258-3.911l14.554-39.054A3.59,3.59,0,0,0,1051.929,1118.863Z" transform="translate(-617.417 -728.657)" fill="#425b95"/>
    <path id="Path_7674" data-name="Path 7674" d="M1235.437,1212.427a3.03,3.03,0,1,1-2.8-3.6A3.239,3.239,0,0,1,1235.437,1212.427Z" transform="translate(-828.298 -796.045)" fill="#fff"/>
    <path id="Path_7675" data-name="Path 7675" d="M883.077,1323.515l60.814-10.5s26.294-4.006,32.335,3.761,23.589,108.45,23.589,108.45-13.233,1.151-14.1.576c-.668-.446-16.689-34.011-23.885-49.135a57.482,57.482,0,0,1-4.774-15.132l-2.312-13.7-7.653,2.635a93.4,93.4,0,0,1-41.892,4.483c-5.909-.734-11.424-2-14.846-4.123C879.714,1344.208,883.077,1323.515,883.077,1323.515Z" transform="translate(-568.503 -873.307)" fill="#4595b0"/>
    <path id="Path_7676" data-name="Path 7676" d="M990.606,881.363l1.184,8.782s2.651,12.652-.76,15.091-14.507-15.452-14.507-15.452l1.172-22.252Z" transform="translate(-638.871 -540.419)" fill="#f7a491"/>
    <path id="Path_7677" data-name="Path 7677" d="M979.684,874.744c2.818,7.59,9.529,12.255,14.293,14.065l-1-7.445-12.911-13.831Z" transform="translate(-641.238 -540.419)" fill="#f47458"/>
    <path id="Path_7678" data-name="Path 7678" d="M985.382,770.617a11.736,11.736,0,0,1,13.532,11.843,88.721,88.721,0,0,1-.99,11.264c-1.572,10.138-8.511,19.064-13.1,18.267s-16.135-9.542-14.1-23.968C971.977,779.115,977.8,771.837,985.382,770.617Z" transform="translate(-634.348 -467.719)" fill="#f7a491"/>
    <path id="Path_7679" data-name="Path 7679" d="M964.2,833.383c-.387,2.229-2.179,3.779-4,3.463s-2.987-2.381-2.6-4.61,2.179-3.78,4-3.463S964.584,831.154,964.2,833.383Z" transform="translate(-624.638 -511.359)" fill="#f7a491"/>
    <path id="Path_7680" data-name="Path 7680" d="M968.533,775.1s5.548,1.374,7.607-2.183,9.422-11.231,18.781-8.049-8.236-7.737-8.985-7.737-9.733-.063-9.733-.063-6.926,5.678-7.175,6.3-2.246,7.425-2.246,7.425Z" transform="translate(-631.574 -457.681)" fill="#0e2e35"/>
    <g id="Group_4344" data-name="Group 4344" transform="translate(608.83 522.342)">
      <path id="Path_7689" data-name="Path 7689" d="M0,0H138.109V50.266H0Z" transform="translate(138.109 50.266) rotate(180)" fill="#ffd046"/>
      <g id="Group_4343" data-name="Group 4343" transform="translate(0 0)">
        <rect id="Rectangle_584" data-name="Rectangle 584" width="138.109" height="6.466" transform="translate(138.109 13.792) rotate(180)" fill="#96d9c9"/>
        <rect id="Rectangle_585" data-name="Rectangle 585" width="138.109" height="6.466" transform="translate(138.109 26.423) rotate(180)" fill="#96d9c9"/>
        <rect id="Rectangle_586" data-name="Rectangle 586" width="138.109" height="6.466" transform="translate(138.109 39.054) rotate(180)" fill="#96d9c9"/>
        <rect id="Rectangle_587" data-name="Rectangle 587" width="138.109" height="6.466" transform="translate(138.109 50.266) rotate(180)" fill="#96d9c9"/>
        <rect id="Rectangle_588" data-name="Rectangle 588" width="28.723" height="50.266" transform="translate(80.136 50.266) rotate(180)" fill="#f7cc7f"/>
      </g>
      <path id="Path_7690" data-name="Path 7690" d="M0,0H20.857V50.266H0Z" transform="translate(157.29 50.266) rotate(180)" fill="#ffd046"/>
    </g>
    <rect id="Rectangle_590" data-name="Rectangle 590" width="763.175" height="4.355" transform="translate(137.246 571.893)" fill="#0e2e35"/>
    <path id="Path_7681" data-name="Path 7681" d="M1137.889,240.842a13.721,13.721,0,0,0-16.821-10.19,20.2,20.2,0,0,0-24.286-10.728,24.88,24.88,0,0,0-44.69,4.347,17.067,17.067,0,0,0-25.365,14.915c0,.559.029,1.111.081,1.656Z" transform="translate(-676.473 -46.356)" fill="#fff" opacity="0.8"/>
    <path id="Path_7682" data-name="Path 7682" d="M1417.987,534.625a10.383,10.383,0,0,0-12.729-7.711,15.286,15.286,0,0,0-18.379-8.118,18.828,18.828,0,0,0-33.82,3.29,12.916,12.916,0,0,0-19.2,11.287c0,.423.022.841.061,1.253Z" transform="translate(-906.514 -272.399)" fill="#fff" opacity="0.8"/>
    <path id="Path_7683" data-name="Path 7683" d="M736.453,506.215a9.054,9.054,0,0,1,11.1-6.724,13.329,13.329,0,0,1,16.026-7.08,16.419,16.419,0,0,1,29.491,2.869,11.263,11.263,0,0,1,16.738,9.842c0,.369-.019.733-.054,1.093Z" transform="translate(-459.061 -253.511)" fill="#fff" opacity="0.8"/>
    <g id="Group_4345" data-name="Group 4345" transform="translate(422.435 295.839)">
      <path id="Path_7684" data-name="Path 7684" d="M1354.678,757.146l.979,11.91,6.918-7.791,22.374-18.324-19.08,6.011s-9.394,4.563-9.825,5.166A24.7,24.7,0,0,0,1354.678,757.146Z" transform="translate(-1344.539 -742.94)" fill="#1fd3a4"/>
      <path id="Path_7685" data-name="Path 7685" d="M1314.287,752.028l40.41-9.088-30.271,14.206Z" transform="translate(-1314.287 -742.94)" fill="#56d0f7"/>
      <path id="Path_7686" data-name="Path 7686" d="M1379.425,765.965l-12.456-6.215,27.186-16.811Z" transform="translate(-1353.745 -742.94)" fill="#56d0f7"/>
    </g>
    <g id="Group_4348" data-name="Group 4348" transform="translate(407.914 314.936)">
      <g id="Group_4346" data-name="Group 4346" transform="translate(19.636 0)">
        <path id="Path_7687" data-name="Path 7687" d="M1334.97,820.744a14.755,14.755,0,0,1,3.255-.855l-.092-.866a15.435,15.435,0,0,0-3.469.906Z" transform="translate(-1334.664 -819.023)" fill="#fff"/>
      </g>
      <g id="Group_4347" data-name="Group 4347" transform="translate(0 4.431)">
        <path id="Path_7688" data-name="Path 7688" d="M1256.435,904.36a35.41,35.41,0,0,0,4.382-4.791l.695.524a36.235,36.235,0,0,1-4.489,4.91Zm7.747-10.332c.427-.9.819-1.83,1.167-2.776.394-1.071.742-2.19,1.036-3.327l.843.218c-.3,1.165-.658,2.312-1.062,3.41-.357.971-.76,1.93-1.2,2.849Zm3.516-19.041.87-.02a56.236,56.236,0,0,1-.214,6.627l-.867-.082A55.3,55.3,0,0,0,1267.7,874.987Zm-1.239-13.051.862-.123c.365,2.548.625,4.629.819,6.551l-.866.088C1267.081,866.542,1266.822,864.472,1266.459,861.936Zm-.975-6.556a32.035,32.035,0,0,1-.329-6.609l.869.054a31.187,31.187,0,0,0,.321,6.426l.007.051-.862.119Zm1.094-13.151a15.811,15.811,0,0,1,3.779-5.553l.6.633a14.945,14.945,0,0,0-3.572,5.25Z" transform="translate(-1256.435 -836.676)" fill="#fff"/>
      </g>
    </g>
  </g>
</svg>
