<svg xmlns="http://www.w3.org/2000/svg" width="60.467" height="36.411" viewBox="0 0 60.467 36.411">
  <g id="Group_3855" data-name="Group 3855" transform="translate(-12904 451.96)">
    <g id="Path_4131" data-name="Path 4131" transform="translate(12904 -451.96)" fill="none">
      <path d="M2.324,0,49.463.071c.079.04,11-.037,11,0l-.04,34.017A2.324,2.324,0,0,1,58.1,36.411H2.324A2.324,2.324,0,0,1,0,34.087V2.324A2.324,2.324,0,0,1,2.324,0Z" stroke="none"/>
      <path d="M 2.322635650634766 0.9999961853027344 L 2.323165893554688 0.9999961853027344 C 1.593463897705078 1.000503540039062 0.9999961853027344 1.594318389892578 0.9999961853027344 2.324134826660156 L 0.9999961853027344 34.08723449707031 C 0.9999961853027344 34.81736373901367 1.594005584716797 35.4113655090332 2.324134826660156 35.4113655090332 L 58.10325622558594 35.4113655090332 C 58.8333740234375 35.4113655090332 59.42737579345703 34.81736373901367 59.42737579345703 34.08607482910156 L 59.46579360961914 1.060447692871094 C 59.40925979614258 1.060405731201172 59.34931945800781 1.060382843017578 59.28574371337891 1.060382843017578 C 58.27677536010742 1.060382843017578 56.77541351318359 1.065654754638672 55.18590545654297 1.071243286132812 C 53.5938835144043 1.076835632324219 51.94766235351562 1.082614898681641 50.83897399902344 1.082614898681641 C 50.0931510925293 1.082614898681641 49.69683837890625 1.082611083984375 49.4619140625 1.070236206054688 L 49.4619140625 1.070686340332031 L 2.322635650634766 0.9999961853027344 M 2.324134826660156 -3.814697265625e-06 L 49.46341705322266 0.07068634033203125 C 49.52627563476562 0.1025772094726562 56.45745849609375 0.06039047241210938 59.28574752807617 0.06038284301757812 C 60.0115852355957 0.06038284301757812 60.46694564819336 0.06315994262695312 60.46694564819336 0.07068634033203125 L 60.42737579345703 34.08723449707031 C 60.42737579345703 35.37081527709961 59.38683319091797 36.4113655090332 58.10325622558594 36.4113655090332 L 2.324134826660156 36.4113655090332 C 1.040546417236328 36.4113655090332 -3.814697265625e-06 35.37081527709961 -3.814697265625e-06 34.08723449707031 L -3.814697265625e-06 2.324134826660156 C -3.814697265625e-06 1.040546417236328 1.040546417236328 -3.814697265625e-06 2.324134826660156 -3.814697265625e-06 Z" stroke="none" fill="#56d0f7"/>
    </g>
    <path id="Path_4126" data-name="Path 4126" d="M12840.471-439.261h-9.646a3.685,3.685,0,0,1-2.621,3.183v11.329s2.34,1.592,2.621,3.464c.1.094,9.646,0,9.646,0" transform="translate(85.2 -4.136)" fill="none" stroke="#56d0f7" stroke-width="1"/>
    <path id="Path_4127" data-name="Path 4127" d="M12828.206-439.261h10.053a3.841,3.841,0,0,0,2.729,3.318v11.809s-2.437,1.659-2.729,3.611c-.1.1-10.053,0-10.053,0" transform="translate(114.376 -4.136)" fill="none" stroke="#56d0f7" stroke-width="1"/>
    <g id="Ellipse_306" data-name="Ellipse 306" transform="translate(12920.467 -434.947)" fill="none" stroke="#56d0f7" stroke-width="1">
      <circle cx="1.147" cy="1.147" r="1.147" stroke="none"/>
      <circle cx="1.147" cy="1.147" r="0.647" fill="none"/>
    </g>
    <g id="Ellipse_307" data-name="Ellipse 307" transform="translate(12943.402 -434.947)" fill="none" stroke="#56d0f7" stroke-width="1">
      <circle cx="1.147" cy="1.147" r="1.147" stroke="none"/>
      <circle cx="1.147" cy="1.147" r="0.647" fill="none"/>
    </g>
    <g id="Icon_feather-dollar-sign" data-name="Icon feather-dollar-sign" transform="translate(12930.34 -440.34)">
      <path id="Path_4128" data-name="Path 4128" d="M18,1.5V14.669" transform="translate(-14.409 -1.5)" fill="none" stroke="#56d0f7" stroke-linecap="round" stroke-linejoin="round" stroke-width="0.7"/>
      <path id="Path_4129" data-name="Path 4129" d="M15.584,7.5H11.095a2.095,2.095,0,0,0,0,4.19h2.993a2.095,2.095,0,0,1,0,4.19H9" transform="translate(-9 -5.106)" fill="none" stroke="#56d0f7" stroke-linecap="round" stroke-linejoin="round" stroke-width="0.7"/>
    </g>
  </g>
</svg>
