<svg xmlns="http://www.w3.org/2000/svg" width="37.438" height="42.118" viewBox="0 0 37.438 42.118">
  <g id="Exchange-01" transform="translate(-107.329 -89.243)">
    <path id="Path_4067" data-name="Path 4067" d="M115.668,300.437a2.756,2.756,0,0,1,.415.3,2.422,2.422,0,0,1-3.434,3.409q-2.33-2.285-4.614-4.615a2.363,2.363,0,0,1-.014-3.354q2.214-2.277,4.491-4.491a2.441,2.441,0,0,1,3.369.015,2.416,2.416,0,0,1,.115,3.358c-.083.1-.169.19-.3.334h24.184v-6.953a2.372,2.372,0,0,1,.009-.389.6.6,0,0,1,.6-.57.61.61,0,0,1,.66.552,1.667,1.667,0,0,1,.012.345v7.39c0,.729-.185.912-.923.912H114.4a.628.628,0,0,1-.256-.007c-.205-.1-.5-.194-.567-.364a.824.824,0,0,1,.125-.7c.375-.453.823-.844,1.234-1.267a1.176,1.176,0,0,0,.091-1.7,1.2,1.2,0,0,0-1.737.064q-2.134,2.116-4.252,4.252a1.161,1.161,0,0,0,0,1.791q2.112,2.134,4.252,4.252a1.193,1.193,0,0,0,1.736.069,1.173,1.173,0,0,0-.089-1.7c-.36-.375-.725-.742-1.1-1.1-.258-.25-.443-.514-.285-.876s.464-.386.8-.386H143.49V288.463a2.5,2.5,0,0,1,.018-.474.625.625,0,0,1,1.208-.032,1.975,1.975,0,0,1,.029.473V299.32c0,.826-.156.981-.983.981H115.768Z" transform="translate(0 -173.447)" fill="#56d0f7"/>
    <path id="Path_4068" data-name="Path 4068" d="M108.643,94.9v10.568a2.3,2.3,0,0,1-.02.474.527.527,0,0,1-.612.478,1.225,1.225,0,0,1-.587-.464c-.081-.1-.038-.305-.038-.464V94.6c0-.807.151-.957.954-.957h28a8.384,8.384,0,0,1-.722-1.358,2.347,2.347,0,0,1,1.053-2.69,2.476,2.476,0,0,1,2.962.313c.547.512,1.064,1.054,1.595,1.585.917.917,1.837,1.83,2.752,2.752a2.424,2.424,0,0,1,0,3.641q-2.085,2.1-4.186,4.187a2.434,2.434,0,1,1-3.5-3.376c.038-.04.069-.085.135-.17h-24.18v6.945a2.5,2.5,0,0,1-.01.388.634.634,0,0,1-1.261.031,1.753,1.753,0,0,1-.015-.344V98.113c0-.688.208-.893.912-.893h25.89a.491.491,0,0,1,.171,0c.224.125.553.219.632.411a.871.871,0,0,1-.175.724c-.343.423-.764.782-1.147,1.174a1.163,1.163,0,1,0,1.64,1.638q2.1-2.084,4.186-4.186a1.18,1.18,0,0,0-.011-1.855q-2.087-2.1-4.187-4.186a1.206,1.206,0,0,0-1.767-.083,1.182,1.182,0,0,0,.131,1.727c.344.349.687.7,1.042,1.037.268.25.47.525.3.908s-.512.368-.851.368h-29.09Z" transform="translate(-0.041 0)" fill="#56d0f7"/>
    <path id="Path_4069" data-name="Path 4069" d="M222.2,188.507a13.846,13.846,0,0,1,1.512.6,3.732,3.732,0,0,1,2.032,3.333.907.907,0,0,1-.154.6.881.881,0,0,1-.639.305c-.2-.031-.4-.288-.5-.494a6.817,6.817,0,0,1-.194-.875,3.161,3.161,0,0,0-2.032-2.076v5.92a4.65,4.65,0,0,1,3.157,2,4.334,4.334,0,0,1,.527,2.71c-.15,1.723-1.348,2.814-3.713,3.369,0,.26.009.532,0,.8a.788.788,0,0,1-.818.814.734.734,0,0,1-.751-.817c-.007-.256,0-.513,0-.707-.84-.226-1.65-.375-2.4-.664a3.99,3.99,0,0,1-2.627-2.973c-.119-.515-.019-.8.327-.891a.739.739,0,0,1,.964.549,3.61,3.61,0,0,0,3.716,2.525v-5.513a18.8,18.8,0,0,1-2-.607,4,4,0,0,1-1.4-6.5,5,5,0,0,1,2.744-1.349c.213-.038.425-.069.684-.11,0-.306-.011-.607,0-.905a.775.775,0,0,1,.75-.787.815.815,0,0,1,.815.785c.013.173,0,.345,0,.519S222.2,188.392,222.2,188.507Zm-1.593,1.312a3,3,0,0,0-3.091,3.108,3.086,3.086,0,0,0,3.091,2.61Zm1.626,12.722a2.4,2.4,0,0,0,2.376-2.469c-.064-1.638-1.012-2.768-2.376-2.823Z" transform="translate(-94.683 -85.329)" fill="#56d0f7"/>
  </g>
</svg>
