<svg xmlns="http://www.w3.org/2000/svg" width="49.798" height="43.118" viewBox="0 0 49.798 43.118">
  <g id="interest-01" transform="translate(-39.882 -69.003)">
    <path id="Path_4111" data-name="Path 4111" d="M50.333,113.653h2.253c.414,0,.811.017,1.032.447s.014.768-.211,1.113l-5.735,8.844c-.573.885-1.187.892-1.751.021l-5.735-8.846a1.061,1.061,0,0,1-.2-1.166c.236-.435.648-.411,1.054-.409H43.2A21.833,21.833,0,0,1,53.592,96l.876,1.431c-.262.174-.512.337-.755.507a19.673,19.673,0,0,0-8.684,14.324c-.08.662-.089,1.333-.122,2-.036.752-.3,1.024-1.059,1.032-.49.008-.981,0-1.616,0l4.56,7.048,4.572-7.043c-.677,0-1.2.006-1.73,0-.795-.011-1.032-.256-1.032-1.025A16.1,16.1,0,0,1,61.881,98.545c6.51-1.064,11.829,1.093,15.924,6.264.071.089.131.187.229.334l-1.262.906c-5.026-5.914-11.111-7.869-18.309-4.634A13.883,13.883,0,0,0,50.333,113.653Z" transform="translate(0 -23.9)" fill="#56d0f7"/>
    <path id="Path_4112" data-name="Path 4112" d="M141.5,187.126l1.306-.918a14.719,14.719,0,0,0,18.153,4.768c4.747-2.3,8.65-8.038,8.216-12.349h-2.2c-.409,0-.812.007-1.051-.419-.251-.447-.023-.8.211-1.162q2.855-4.394,5.7-8.8c.6-.918,1.2-.929,1.785-.025l5.7,8.8a1.107,1.107,0,0,1,.229,1.166c-.229.459-.671.437-1.1.436h-2.124a21.886,21.886,0,0,1-10.385,17.663l-.876-1.434c.16-.115.295-.212.435-.305a19.831,19.831,0,0,0,8.952-14.046c.123-.809.124-1.637.165-2.456.04-.794.293-1.054,1.086-1.068.439-.008.879-.01,1.318-.018a.977.977,0,0,0,.209-.083l-4.495-6.951-4.573,7.05h1.585c.99,0,1.193.205,1.177,1.17A16.059,16.059,0,0,1,157.291,193.8c-6.339.934-11.558-1.255-15.54-6.308C141.672,187.392,141.6,187.277,141.5,187.126Z" transform="translate(-89.963 -87.248)" fill="#56d0f7"/>
    <path id="Path_4113" data-name="Path 4113" d="M217.743,186.658a5.649,5.649,0,0,1-.344.72q-4.932,7.17-9.871,14.33c-.367.533-.835.665-1.262.385s-.476-.8-.1-1.358q4.925-7.141,9.846-14.283c.268-.39.607-.647,1.051-.459C217.334,186.105,217.515,186.425,217.743,186.658Z" transform="translate(-146.989 -103.517)" fill="#56d0f7"/>
    <path id="Path_4114" data-name="Path 4114" d="M271.245,271.078a3.475,3.475,0,0,1,3.521,3.519,3.513,3.513,0,1,1-3.518-3.519ZM273.1,274.6a1.816,1.816,0,0,0-1.843-1.849,1.856,1.856,0,0,0-1.87,1.835,1.909,1.909,0,0,0,1.859,1.876A1.871,1.871,0,0,0,273.1,274.6Z" transform="translate(-201.723 -178.897)" fill="#56d0f7"/>
    <path id="Path_4115" data-name="Path 4115" d="M185,185.183a3.51,3.51,0,1,1,1.026,2.492A3.512,3.512,0,0,1,185,185.183Zm3.534,1.848a1.855,1.855,0,0,0,1.842-1.864,1.908,1.908,0,0,0-1.886-1.845,1.867,1.867,0,0,0-1.825,1.888,1.811,1.811,0,0,0,1.872,1.821Z" transform="translate(-128.473 -99.753)" fill="#56d0f7"/>
    <path id="Path_4116" data-name="Path 4116" d="M190.219,70.712a19.909,19.909,0,0,0-9.341,1.686c-.235-.51-.459-.988-.688-1.508a21.4,21.4,0,0,1,10.162-1.842C190.3,69.6,190.262,70.113,190.219,70.712Z" transform="translate(-124.215 0)" fill="#56d0f7"/>
    <path id="Path_4117" data-name="Path 4117" d="M254.877,416.56l.62,1.376a21.47,21.47,0,0,1-10.147,1.844c.036-.542.07-1.062.1-1.529,1.619-.138,3.225-.159,4.786-.438C251.779,417.54,253.275,417.005,254.877,416.56Z" transform="translate(-181.901 -307.693)" fill="#56d0f7"/>
    <path id="Path_4118" data-name="Path 4118" d="M297.534,74.9c-.269.5-.51.949-.719,1.337l-5.605-2.029c.075-.393.169-.888.278-1.459A20,20,0,0,1,297.534,74.9Z" transform="translate(-222.501 -3.317)" fill="#56d0f7"/>
    <path id="Path_4119" data-name="Path 4119" d="M174.031,412.871c-.076.4-.167.881-.278,1.457a20,20,0,0,1-6.043-2.14c.265-.5.51-.957.715-1.337Z" transform="translate(-113.166 -302.638)" fill="#56d0f7"/>
    <path id="Path_4120" data-name="Path 4120" d="M361.71,105.736l-1.242,1.127c-1.112-.983-2.192-1.937-3.308-2.926l.958-1.367Z" transform="translate(-280.887 -29.717)" fill="#56d0f7"/>
    <path id="Path_4121" data-name="Path 4121" d="M118.43,374l3.3,2.918c-.265.385-.561.817-.944,1.376l-3.6-3.17Z" transform="translate(-68.441 -270.015)" fill="#56d0f7"/>
  </g>
</svg>
