<svg xmlns="http://www.w3.org/2000/svg" width="45.888" height="33.995" viewBox="0 0 45.888 33.995">
  <g id="Group_3856" data-name="Group 3856" transform="translate(-12377.754 426.938)">
    <path id="Exclusion_2" data-name="Exclusion 2" d="M-8064.619-530.443h-.1c-6.161-3.789-9.261-5.611-12.391-5.611-3.189,0-6.529,1.928-12.592,5.429a7.717,7.717,0,0,1-2.464-.447,4.453,4.453,0,0,1-1.627-6.072l6.313-10.932,6.312-10.932a4.424,4.424,0,0,1,3.8-2.223h.14a4.458,4.458,0,0,1,2.134.6,4.45,4.45,0,0,1,1.676,1.713l3.054,5.193,4.1,7.106,5.492,9.514a4.452,4.452,0,0,1-1.627,6.072A4.439,4.439,0,0,1-8064.619-530.443Zm-36.535-2.4h0a3.322,3.322,0,0,1-1.667-.433,4.414,4.414,0,0,1-2.072-2.7,4.415,4.415,0,0,1,.445-3.374l6.311-10.932,6.312-10.932.037-.063,0-.006.034-.057.006-.01.035-.053.008-.012.033-.049,0-.006.022-.035.021-.031.022-.031.022-.031.02-.031.024-.033.019-.024.028-.037.019-.022.034-.043.01-.014.035-.041.016-.018.031-.039.018-.02.039-.043.008-.01.047-.051,0,0,.054-.055,0,0,.049-.051.051-.051a4.463,4.463,0,0,1,1.162-.81l.067-.03.063-.029a4.47,4.47,0,0,1,1.751-.38h.2a4.448,4.448,0,0,1,2.077.594,4.45,4.45,0,0,1,1.676,1.713l1.929,3.277-10.682,18.5c-.485.84-1.86,2.614-1.918,2.689a16.425,16.425,0,0,1-2.065,1.923A7.776,7.776,0,0,1-8101.153-532.847Z" transform="translate(20483.311 137)" fill="none" stroke="#56d0f7" stroke-width="1"/>
  </g>
</svg>
