<svg xmlns="http://www.w3.org/2000/svg" width="116" height="81.2" viewBox="0 0 116 81.2">
  <path id="Icon_awesome-cloud-upload-alt" data-name="Icon awesome-cloud-upload-alt" d="M97.44,37.521A17.421,17.421,0,0,0,81.2,13.85a17.311,17.311,0,0,0-9.661,2.936A29,29,0,0,0,17.4,31.25c0,.489.018.979.036,1.468A26.107,26.107,0,0,0,26.1,83.45H92.8a23.2,23.2,0,0,0,4.64-45.929ZM71.3,48.65H59.45v20.3a2.909,2.909,0,0,1-2.9,2.9h-8.7a2.909,2.909,0,0,1-2.9-2.9V48.65H33.1A2.9,2.9,0,0,1,31.048,43.7l19.1-19.1a2.91,2.91,0,0,1,4.1,0l19.1,19.1A2.9,2.9,0,0,1,71.3,48.65Z" transform="translate(0 -2.25)" fill="#6d80c4"/>
</svg>
