<svg xmlns="http://www.w3.org/2000/svg" width="22.819" height="21.118" viewBox="0 0 22.819 21.118">
  <path id="usdt-svgrepo-com" d="M23.789,18.835c0-1.439-3.915-2.639-9.118-2.916V13.626h6.5V8.855H3.4v4.771H9.9v2.3C4.791,16.226.97,17.414.97,18.835s3.821,2.609,8.929,2.9v8.233h4.772V21.751C19.874,21.475,23.789,20.274,23.789,18.835ZM12.38,20.253c-5.585,0-10.112-.864-10.112-1.931,0-.9,3.246-1.662,7.632-1.873v.544h0v2.228c.791.044,1.621.068,2.48.068.79,0,1.558-.02,2.292-.057V16.44c4.48.2,7.82.964,7.82,1.881C22.492,19.388,17.964,20.253,12.38,20.253Z" transform="translate(-0.97 -8.855)" fill="#16dfab"/>
</svg>
