<svg xmlns="http://www.w3.org/2000/svg" width="47.12" height="47.12" viewBox="0 0 47.12 47.12">
  <path id="Icon_awesome-user-circle" data-name="Icon awesome-user-circle" d="M23.56.563a23.56,23.56,0,1,0,23.56,23.56A23.556,23.556,0,0,0,23.56.563Zm0,9.12a8.36,8.36,0,1,1-8.36,8.36A8.36,8.36,0,0,1,23.56,9.683Zm0,32.68A18.2,18.2,0,0,1,9.643,35.884,10.592,10.592,0,0,1,19,30.2a2.325,2.325,0,0,1,.675.1,12.578,12.578,0,0,0,3.886.656,12.53,12.53,0,0,0,3.886-.656,2.324,2.324,0,0,1,.675-.1,10.592,10.592,0,0,1,9.358,5.681A18.2,18.2,0,0,1,23.56,42.363Z" transform="translate(0 -0.563)" fill="#1fd3a4"/>
</svg>
