<svg xmlns="http://www.w3.org/2000/svg" width="20.801" height="18.201" viewBox="0 0 20.801 18.201">
  <path id="wallet-thin-svgrepo-com" d="M55.5,47.467H38.167a1.3,1.3,0,1,1,0-2.6H52.9a.433.433,0,1,0,0-.867H38.167A2.169,2.169,0,0,0,36,46.167V60.034A2.169,2.169,0,0,0,38.167,62.2H55.5a1.3,1.3,0,0,0,1.3-1.3V48.767A1.3,1.3,0,0,0,55.5,47.467ZM55.934,60.9a.434.434,0,0,1-.433.433H38.167a1.3,1.3,0,0,1-1.3-1.3V47.9a2.156,2.156,0,0,0,1.3.434H55.5a.434.434,0,0,1,.433.433Zm-3.467-6.067a.867.867,0,1,1-.867-.867.867.867,0,0,1,.867.867Z" transform="translate(-36 -44)" fill="#6d80c4"/>
</svg>
