<svg xmlns="http://www.w3.org/2000/svg" width="45.799" height="32.999" viewBox="0 0 45.799 32.999">
  <g id="Icon_ionic-ios-card" data-name="Icon ionic-ios-card" transform="translate(-1.75 -6.25)">
    <path id="Path_6979" data-name="Path 6979" d="M47.049,9.95a3.209,3.209,0,0,0-3.2-3.2H5.45a3.209,3.209,0,0,0-3.2,3.2v4.8h44.8Z" transform="translate(0 0)" fill="none" stroke="#56d0f7" stroke-width="1"/>
    <path id="Path_6980" data-name="Path 6980" d="M2.25,31.75a3.209,3.209,0,0,0,3.2,3.2h38.4a3.209,3.209,0,0,0,3.2-3.2v-16H2.25Zm14.2-4.8h16.4a1.4,1.4,0,0,1,1.4,1.4h0a1.4,1.4,0,0,1-1.4,1.4H16.45a1.4,1.4,0,0,1-1.4-1.4h0A1.4,1.4,0,0,1,16.45,26.95Zm-7.2,0h1.2a1.4,1.4,0,0,1,1.4,1.4h0a1.4,1.4,0,0,1-1.4,1.4H9.25a1.4,1.4,0,0,1-1.4-1.4h0A1.4,1.4,0,0,1,9.25,26.95Z" transform="translate(0 3.8)" fill="none" stroke="#56d0f7" stroke-width="1"/>
  </g>
</svg>
